<?xml version="1.0" encoding="utf-8"?>
<!-- Generator: Adobe Illustrator 19.2.1, SVG Export Plug-In . SVG Version: 6.00 Build 0)  -->
<svg version="1.1" xmlns="http://www.w3.org/2000/svg" xmlns:xlink="http://www.w3.org/1999/xlink" x="0px" y="0px"
	 viewBox="0 0 2905.1 2313" style="enable-background:new 0 0 2905.1 2313;" xml:space="preserve">
<style type="text/css">
	.st0{opacity:0.34;}
	.st1{fill:#248541;}
	.st2{fill:#ED1C24;}
	.st3{fill:#E2E420;}
	.st4{fill:none;stroke:#000000;stroke-width:0.5;stroke-linecap:round;stroke-linejoin:round;}
	.st5{font-family:'MyriadPro-Regular';}
	.st6{font-size:104px;}
	.st7{font-size:60px;}
	.st8{font-size:48px;}
	.st9{font-size:72px;}
	.st10{fill:#ED1C24;stroke:#1C75BC;stroke-linecap:round;stroke-miterlimit:10;}
	.st11{font-family:'ArialMT';}
	.st12{font-size:24px;}
	.st13{font-size:18px;}
	.st14{font-size:14px;}
</style>
<g id="bitmap">
	
		<image style="overflow:visible;" width="1968" height="1567" xlink:href="../relief_map.jpg"  transform="matrix(1.4757 0 0 1.4757 1.8006 0)">
	</image>
</g>
<g id="borders">
	<g id="XMLID_1_" class="st0">
		<g>
			<path class="st1" d="M2111.3,479.3c-7.2,94.9-9.1,179.1,37.4,266.2c3.3,6.2,7,12.5,12.7,16.5c9.3,6.6,21.9,5.7,32.7,9.3
				c10.8,3.6,20.6,17.2,13,25.7l1.6,2.2c-14.4,10.6-28.6,21.5-42.3,32.9c-20.5,17-32.6,47.9-57.9,58.6c-6.4,2.7-13.4,3.8-19.9,6.4
				c-10.5,4.2-19,12.1-27.9,19.1c-36.1,28.2-82.7,42.7-128.5,39.9c-27.5-1.7-55.1-9.3-82.1-3.9c-10.2,2.1-21.2,6-30.8,1.8
				c-14.5-6.3-20.4-19.2-38.6-16.5c-9.3,1.4-16.2,8-25.3,10c-31,7.1-73.8-4.2-105.4-6.8c-18.1-1.5-37.2-2.7-53.3,5.6
				c-24.8,12.8-33.9,43.1-40.5,70.2c-4.9,20.2-9.9,40.4-13.9,60.8c-3.2,16.6-2.2,39.2-10.1,53.6c-14.2,26-54.2,41.5-79.5,53.2
				c-17.6,8.1-35.2,16.2-52.8,24.3c-5.5,2.5-11.3,5.3-14.6,10.5c-0.9,1.4-1.5,2.9-1.8,4.5c-1.3-18-27.5-21.9-39.1-36.1
				c-3.9-4.8-6-10.9-9.3-16.2c-14.4-23.1-46.3-26.1-69.7-40c-24.5-14.5-39.5-41.1-62.9-57.4c-21-14.6-47.1-19.9-69.5-32.3
				c-10.4-5.8-19.9-13.1-30.6-18.2c-30.7-14.7-67.7-13-100.8-11.1c-23.8,1.4-47.2,6.8-70.9,9.4c-47.7,5.3-95.9-0.5-143.9-1
				c-64.7-0.7-117.2,20.2-176.7,43.9c-41.1,16.3-83.2,31.5-127.3,35.2c-33.8,2.9-69.3-1.5-100-16.6c-13.5-6.6-23.9-17.1-36.7-24.4
				c-14.6-8.3-29.8-13.4-43.5-23.7c-24.9-18.8-47.7-38.5-73.7-56.3c-3-2-6-4.1-8-7.1c-3.4-4.9-3.5-11.4-5.8-17
				c-1.6-3.8-4.1-7-6.5-10.3c-22.3-30.5-32.5-62.3-26.5-99.4c5.8-36.4,28.5-67.4,35.9-103.4c7.9-38.8,17.4-67.8,56.4-85.4
				c22.9-10.4,48.1-14.2,72.7-19.2c44.9-9.3,87.6-29.1,132-36.8c41.9-7.3,86.4-31.9,117-60.9c17.6-16.6,32.1-36.3,49.8-52.8
				c14.4-13.4,30.7-24.5,47.2-35c95-60,204.2-90.5,305.7-137.9c117.7-55,247.9-121.3,370.8-79.5c19.1,6.5,42,20.4,62,22.2
				c18.4,1.7,36-2.8,52.1-11.6c13.6-7.5,23.7-23.6,37.6-29.3c17.7-7.3,45.8-0.1,64.5,0.9c58.3,3.4,109,17.7,165.4,33.1
				c18.8,5.2,37.9,10.4,54.9,20.1c13.1,7.5,24.8,17.6,34.1,29.6c5.7,7.3,10.7,15.5,18.3,20.7c6.2,4.2,13.6,6.1,20.8,7.8
				c27.7,6.6,55.7,11.9,83.8,15.9c30.7,4.3,66,9.8,82.2,36.2c3.4,5.6,5.8,11.8,10.2,16.6c9.5,10.1,25.4,10.4,36.9,17.9
				C2112.7,427.2,2113.1,455.6,2111.3,479.3z"/>
			<path class="st2" d="M1781.5,2142.4c0.4,0.1,0.9,0.1,1.3,0.2C1782.5,2142.2,1782,2142.2,1781.5,2142.4z M1980.4,2038.7
				c-1.9-0.4-3.7,1.2-4.1,3.1l-2.5-0.4c0.1-0.2,0.2-0.5,0.2-0.7c-2.8,0.9-4.4,4.2-3.5,6.9c-2.4-0.1-4.8-0.2-7.2-0.3
				c-0.8-2.4-1.6-4.8-2.3-7.2c-4,0.4-4.9,5.7-4.5,9.7c0.4,4,0.3,9.1-3.4,10.5c-2.4-0.4-4.1-3.3-3.3-5.6c-6.4,1.4-11.7,6.9-12.8,13.4
				c-5,0.1-10.1-2.2-13.3-6c2.2,3.6,0.2,9.1-3.9,10.3c-4.1,1.2-8.8-2.2-8.9-6.5c-4.3,3.4-11.4,2.2-14.3-2.5c-0.4,2.7,1.4,5.5,4,6.2
				c-1.4,1.8-2.8,3.6-4.2,5.5c2.5,1.2,5.4,1.8,8.2,1.8c-3.1,2.3-6.3,4.5-9.4,6.8c-1.9-2.2-4.6-3.7-7.5-4.2c-2,1.9-3.5,4.4-4.3,7.1
				c-5.3-0.5-10.5-1.1-15.2,2c-1.6,1.1-3.1,2.5-5,3.1c-4.8,1.4-10.1-3.3-14.6-1c-3,1.5-4.1,5.6-7.3,6.6c-2.6,0.8-5.5-0.8-7.9,0.4
				c-1.4,0.7-2.3,2.1-3,3.5c-3.7,7-6.3,14.5-7.7,22.3c-5.2-1.9-11.1-1.7-16.2,0.4c-0.2-1.9-1.3-3.7-2.9-4.8
				c-1.3,2.2-2.7,4.6-2.9,7.2c-0.1,2.6,1.4,5.5,4,6c2.3,0.4,4.5-1.2,6.8-1.2c3,0,5.6,3.1,5.1,6.1c-1.1,1.2-2.8,1.9-4.5,1.6
				c-1,1.8-0.1,4.5,1.8,5.3c1.9,0.8,4.4-0.4,5-2.4c1.5,2.8,3,5.7,4.6,8.5c0.6,1.1,1.2,2.4,1.2,3.7c-0.1,4.4-7.1,6.8-6.1,11
				c-4.4,0.5-8.8,1-13.2,1.6c-0.8,0.1-1.7,0.3-2,1c0,0.1-0.1,0.2-0.1,0.3c-4.3-1.9-9.6-1.3-13.4,1.4c-1.4-3.6-2.8-7.1-4.1-10.7
				c2.9-0.9,6.2,0.3,7.9,2.8c-1.1-4.5-5.5-8-10.2-8c0.9-1.3,0.1-3.1-0.9-4.3s-2.4-2.3-2.7-3.9c-0.2-1,0.6-2.2,1.4-2.6
				c-0.7-0.1-1.3-0.2-2-0.2c0.2-2.5,0-5-0.5-7.4c-1.5,0.1-2.9,0.2-4.4,0.3c-1.2-9-0.2-18.3,2.7-27c0.5-1.5,1.1-3.1,2.2-4.3
				c1.6-1.8,4.1-2.7,6.5-2.4c0.5-1.8,0.3-3.8-0.4-5.6c-2.9,0.8-5.9,1.5-8.9,1.1c-3-0.4-6-2.3-6.7-5.3c-1.9-1.9-3.8-3.9-5.7-5.8
				c0.7-1.2,0.7-2.8,0-4.1c-2.2-0.4-3.2,3-2.1,5c1.1,2,3.1,3.6,3.4,5.8c0.5,3.2-2.9,5.8-6.1,6.4c-3.2,0.6-6.6,0.2-9.6,1.2
				c-2.9,1-5.3,3.4-8.3,3.9c-3,0.6-6.9-2.4-5.3-5.1c1.4-2.3,6.1-3.7,4.4-5.8c-6.4-1.7-12.9-3.3-19.3-5c-0.2-0.1-0.5-0.1-0.7-0.2
				c-3.1-0.8-6.4-1.7-8.8-3.8c-2.4-2.2-3.6-6-1.8-8.7c-2,0.8-4,1.7-6,2.5c1.8,2.5,3.6,5.1,4.3,8.1c0.7,3,0.2,6.5-2.2,8.5
				c-2.4,2-6.6,1.5-7.9-1.3c-0.7-1.6-0.4-3.4-0.8-5c-0.5-1.6-2.6-3-3.8-1.8c2.5,4.6,0.2,11.2-4.7,13.1c1.2-2.2,1.6-4.8,1.3-7.3
				c-3.7,2-7.4,3.9-11.1,5.9c1.2,0.8,2.4,1.5,3.6,2.2c-2,1.6-4.2,3.2-6.8,3.5c-2.6,0.3-5.5-1.4-5.5-4c-1.8,0-3.6,0.1-5.5,0.1
				c1.4,1.7,0.7,4.5-1.1,5.9c-1.7,1.4-4.1,1.8-6.2,2.1c0.2,1.7-0.2,3.4-1,4.9c-1.9-0.6-3.7-1.3-5.6-2c0,1.8-0.7,3.6-2,4.8
				c-2.1-1.8-6.2-3.2-6.9-0.5c-0.2,0.7,0,1.5,0.2,2.2c0.9,3,1.7,6.1,2.6,9.1c-2.2,3.7-6.7,5.7-10.9,4.9c-0.3,1.4-0.5,2.8-0.8,4.2
				c-2.5-0.5-4.9-1.1-7.4-1.6c1.8-1.1,2.9-3.3,2.7-5.4c-1.9-0.3-4,0.2-5.6,1.3c1.4,0.5,1.1,2.2,0,3.3c-0.6,0.6-1.3,1-2.1,1
				c-1.1,0-2.2-0.4-3.2-0.9c-1-0.5-2.1-1-3.2-1.2c-2.2-0.4-5,2-3.5,3.7c2,0.7,4.4,0.2,6-1.3c0.5,3.3,4.6,4.5,7.5,6.1
				c2.9,1.7,4.5,6.9,1.3,7.7c-3.1-2.5-6.8-4.3-10.6-5.2c-1.6-2.6-4.4-4.4-7.4-4.9c-0.6,3.8,0.9,7.9,3.7,10.5
				c-3.2,1.9-6.3,3.7-9.5,5.6c-1.1,2.1-3,3.7-5.2,4.6c2.5,4.6,4.3,11.4,0.2,14.2c-0.2,0-0.3,0.1-0.4,0.2c0.1-0.1,0.3-0.2,0.4-0.2
				c0.6-0.1,1.4,0.6,1.3,1.4c-0.2,0.9-1.1,1.5-1.9,1.9c-1.3,0.7-2.8,1.4-4.2,2.1c-13.7-6.7-21.2-21.5-31.1-33.1
				c-16.1-18.9-39.4-30.2-55.9-48.7c-7.1-8-12.8-17.2-19.7-25.3c-7.8-9.1-17-16.8-26.2-24.5c-10.3-8.6-20.6-17.1-30.9-25.7
				c-6.7-5.6-13.6-11.2-21.7-14.4c-44.9-17.6-77.2-62.1-103.9-100.7c-9.8-14.2-19.1-29.7-21.2-46.8c-1.5-12.7,2.5-27.7,14.3-32.6
				c2.5-1,5.2-1.6,7.4-3.2c8.8-6.9,18.1-29.7,21.9-40c9-24.6,13.6-52.9,20-78.6c4.7-18.9,5.2-22.9,22.7-32.6
				c15.2-8.5,31.1-15.6,47.6-21.2c14.1-4.8,27.4-14.1,25.8-30.8c-0.9-9.6-5.8-18.3-9.6-27.1c-7.4-17-11.2-35.3-14.9-53.4
				c-2.9-14.2-5.9-28.7-3.8-43c2.1-14.3,10.2-28.7,23.6-34.1c5.7-2.3,11.9-2.9,17.6-4.9c17.5-6.2,28.1-24.9,30-43.4
				c3.2-30.4-6.4-60.3-21.3-86.5c-7.2-12.7-15.7-24.9-25.2-36.1c-9.1-10.7-21-13.2-29.8-23.8c-7.4-8.8-27-29.8-24-44.6
				c0.3-1.6,0.9-3.1,1.8-4.5c3.2-5.1,9.1-7.9,14.6-10.5c17.6-8.1,35.2-16.2,52.8-24.3c25.3-11.6,65.2-27.2,79.5-53.2
				c7.9-14.4,6.8-37,10.1-53.6c4-20.4,9-40.6,13.9-60.8c6.6-27.1,15.7-57.5,40.5-70.2c16.1-8.3,35.3-7,53.3-5.6
				c31.6,2.6,74.5,13.9,105.4,6.8c9-2.1,16-8.6,25.3-10c18.2-2.7,24,10.2,38.6,16.5c9.6,4.2,20.5,0.3,30.8-1.8
				c27-5.4,54.7,2.2,82.1,3.9c45.8,2.8,92.4-11.7,128.5-39.9c8.9-7,17.4-14.9,27.9-19.1c6.5-2.6,13.4-3.7,19.9-6.4
				c25.3-10.7,37.3-41.6,57.9-58.6c13.7-11.4,27.9-22.3,42.3-32.9c16-11.7,32.4-22.8,48.9-33.5c11.2-7.2,23.4-14.3,36.7-14.5
				c18-0.3,33.6,12.1,45.9,25.3c12.5,13.4,46.2,37.6,49.6,55.8c1.3,6.8-0.4,13.7-2.3,20.4c-3.4,11.8-7.4,23.4-11.9,34.8
				c-3.6,9-12.7,20.7-11.2,30.8c-1.2,0.1-2.3,1.2-3.2,2.2c-6.3,7.1-16.5,10.4-25.8,8.3c0,1.7-0.1,3.4-0.1,5c-2.2-1.9-6.2,0.2-6,3
				c-1.5,0.2-3-0.8-3.4-2.2c-1.7,0.8-3.7,1.1-5.6,0.7c-1.5,1.2,0.5,3.4,0.6,5.2c0.1,2.8-3.8,3.7-6.6,3.7c-2.9,0-6.7,1.8-5.7,4.5
				c-1.9,0.2-3.7,0.5-5.5,0.8c-1,4.8-5.6,6.8-8.6,10.2c-3.6,4.2-8.7,7-12.1,11.4c-0.9,1.2-1.7,2.6-2.8,3.8c-1.1,1.2-2.5,2.4-2.8,4
				c-0.4,1.6,1.2,3.6,2.7,2.9c1,1.1-1.2,2.1-2.5,2.8c-1.6,0.8-2.2,2.6-3.2,4.1s-2.7,2.9-4.3,2.1c0.4,2.2,0.1,4.8-1.7,6.1
				c-1.8,1.3-5.1,0.3-5-1.9c-2.9-0.7-6.1,1.1-7,3.9c1.6-1.9,5.1,0.7,4.3,3.1c-0.7,2.4-3.8,3.3-6.2,2.7c-0.7,1.4-1.4,2.7-2.2,4.1
				c-2.5,0-5,0.1-7.5,0.1c-0.1,1.9-2.2,3.5-4.1,3c-0.2,1.5-0.5,3-0.7,4.5c-2.1-0.1-4.1-1.1-5.6-2.6c0.3-1.8-0.3-3.6-0.9-5.4
				c-0.6-1.8-1-4,0-5.6c1-1.7,4-2,4.7-0.2c0.9-1.2,2.3-1.9,3.7-1.9c-0.3-1.8-0.2-3.9,1.2-5.1c1.4-1.2,4.1-0.6,4.2,1.2
				c2.8-2.1,5.5-4.2,8.2-6.3c0.5-0.4,1-0.8,1.2-1.4c0.6-1.6-1.4-2.9-2.9-3.7c-1.5-0.8-2.8-3.2-1.3-4c1.8-1.4,3.5-2.8,5.2-4.1
				c-0.1-1-0.2-1.9-0.4-2.9c0.7-0.6,1.4-1.3,2.1-1.9c-3.3,1.4-6.7,2.9-10.3,2.6c-3.6-0.4-7.1-3.4-6.7-6.9c-2.2-2.1-6.5,2.3-8.7,0.1
				c-1.8-1.7,0.7-4.5,2.9-5.5c2.2-1,5.1-2.8,4.3-5.1c0.8,1.1,2.2,1.8,3.6,1.8c0.2-1,0.1-2.1-0.4-3.1c-3.3-0.4-4.8-4.8-3.5-7.8
				c1.3-3,4.4-4.9,7.2-6.6c2.9-1.7,5.9-3.4,7.4-6.4c0.8-1.6,1-3.5,1.5-5.2c1-3.9,3.2-7.5,6.2-10.1c-0.4-2.6,0.3-5.5,2-7.5
				c0.7-0.9,1.6-1.8,1.4-2.9c-0.1-0.7-0.7-1.2-0.7-1.9c0-1.1,1.4-1.6,2.2-2.3c1.5-1.4,1-4-0.5-5.4c-1.5-1.4-3.5-1.9-5.5-2.4
				c0.1-1.9-0.4-3.8-1.3-5.4c-3.8-1.2-7.6-2.3-11.4-3.5c-0.7-0.2-1.4-0.4-1.9-0.9c-0.5-0.4-0.8-1-1-1.6c-0.8-1.7-1.6-3.4-2.3-5
				c-0.1-0.3-0.2-0.6-0.4-0.9c0.1,0.3,0.3,0.6,0.4,0.9c0.9,2.8-1.6,6.2-4.6,7.1c-3.4,0.9-6.9-0.3-10.2-1.5c-1.5-0.5-3-1.1-4.4-1.6
				c-1.9,0.1-3.7,1.2-4.6,2.8c-1.4-1.4-3.9-0.9-5.3,0.5c-1.4,1.4-2,3.4-2.6,5.2c-1.4,0-2.9,0-4.3,0c-0.2,1.3-0.4,2.5-0.7,3.8
				c1.3,0.5,2.6,1.1,3.9,1.6c-1.1,3-4.5,5-7.7,4.5c0,2.8-0.9,5.7-2.5,8.1c-0.2,0.2-4.6,5.2-2.7,5.4c-1.7,0-3.2,1.5-3.2,3.2
				c0,1-0.2,2.6-1.1,2.2c1.2,0.7,1.9,2.2,1.7,3.6c-0.9-0.6-2.2,0.3-2.5,1.3c-0.4,1-0.2,2.1-0.4,3.2c-0.5,2.7-2.8,4.5-5,6.1
				c-8.3,5.9-16.5,11.8-24.8,17.7c-3.8,1-7.4,3.3-9.9,6.3c0.4,1.8,0.4,3.8,0.2,5.6c-2.9-0.1-5.7,2-6.5,4.8c-0.5,1.8-0.2,3.6-0.6,5.4
				c-0.4,1.8-1.7,3.7-3.6,3.5c1.2,0,1.8,1.5,1.8,2.6c0,1.2-0.4,2.4-0.2,3.5c0.1,0.8,0.6,1.4,0.8,2.1c0.6,2.2-0.8,4.5-2.1,6.5
				c-3.3,4.8-6.6,9.7-9.9,14.5c-1,0.4-2.1,0.1-2.9-0.6c0.3-1.3,0.5-2.5,0.8-3.8c-1.4-0.9-2.3,1.7-3.5,2.9c-1.8,1.7-4.7-0.1-7.2-0.2
				c-3.1,0-5.3,2.7-7.3,5c-2.8,3.4-7.9,6.7-11.2,3.8c0.3-5-6-8.4-10.9-7.2c-4.9,1.2-8.6,5.2-11.9,9c0.5,2.4,1.1,4.8,1.6,7.2
				c-6.1,7-7.5,17.8-3.3,26.1c3.1,6.2,8.8,10.7,14.6,14.5c3.6,2.3,7.5,4.6,11.8,5.1c7,0.8,14.8-2.7,20.6,1.2
				c3.3-4.2,8.5-6.9,13.9-7.1c0.2,1.6-0.1,5.6,1.4,6.6c1.1,0.7,3.6-0.8,4.5,0.2c1.5,1.9,3.2,4.3,3.6,6.7c0.4,2.1,1.3,4.1,2.3,6
				c0.2,0.3,0.3,0.7,0.6,1c0.2,0.2,0.3,0.4,0.5,0.5c1.1,1.2,1.9,3.4,1.8,5c-0.2,2.2-2.3,3.5-2.7,5.3c-1,4.7-1,9.6,0.1,14.3
				c0.5,2,1.2,4.1,2.5,5.6c1.3,1.5,3.2,2.4,5,3.1c7.4,2.7,15.6,1.7,23.4,0.3c2.8-0.5,5.8-1.1,8.2-2.7c2.4-1.6,4.3-4.4,3.9-7.2
				c-0.1-0.8-0.4-1.7-0.4-2.5c-0.3-3.8,3.5-6.3,6.6-8.5c3.2-2.3,6.1-5.2,8.5-8.4c1-1.3,1.9-2.8,1.8-4.5c-0.1-1.6-1.8-3.2-3.4-2.6
				c1.6-0.7,3.3-1.3,4.9-2.1c3.4-1.6,6.6-3.6,9.5-5.8c2-1.5,3.9-3.2,6.2-4.2c4.9-2,10.5,0,15.4,1.9c1.8,0.7,3.7,1.5,5,2.9
				c1.3,1.5,1.8,3.8,0.5,5.3c4,0.4,8-0.4,11.6-2c-0.9-1.1,0.4-3,1.7-2.6c-0.7,1.8-0.2,3.9,0.9,5.5c0.6,0.8,1.5,1.2,2.1,1.9
				c0.5,0.6,0.8,1.8,1.3,2.2c0.5,0.3,1.1,0.3,1.6,0.3c1,0,1.9,0,2.9-0.1c0.1,0,0.3,0,0.4-0.1c0.1-0.1,0.1-0.3,0.1-0.4
				c0-0.5,0-1.1,0-1.6c0-0.2,0-0.4,0.1-0.5c0.1-0.1,0.3-0.2,0.4-0.2c2.4-0.6,4.8-0.5,7.2-1c2.9-0.6,5.9-0.4,8.8-0.1
				c-0.2-0.9,0.2-1.8,0.6-2.7c1.1-2.3,2.5-4.9,5-5.5c1.6-0.4,3.7,1,3.8,2.7c0.1,0.7-1.6,4.1,0.7,3.9c1.3-0.1,2.5-0.9,3.1-2.1
				c0.8,0.6,1.6,1.3,2.4,1.9c1.8-0.3,3.6-1,5.3-1.2c1.9-0.2,3.6,0.9,5.5,0.9c1.3,0,2.6-0.6,3.3-1.6c0.1-0.2,0.2-0.4,0.4-0.6
				c1.5-1.5,7,1,4.8,2.9c-0.6,0.5-1.4,0.4-2.1,0.6c-1.9,0.5-2.7,3-2,4.9c0.7,1.8,2.3,3.2,3.9,4.3c-1.3,1-2.1,2.5-2.4,4.1
				c-1.6-0.9-3.9-0.3-4.8,1.3c-0.9,1.6-0.2,3.9,1.3,4.7c0.6,0.4,1.4,0.5,2,0.8c1.9,0.9,2.9,3.2,2.4,5.1c-0.5,2-2.6,3.4-4.6,3.2
				c0.7,1.2,0.8,2.7,0.2,4c-1.9,0.6-3.8,1.2-5.6,1.8c-1.5,0.5-3.2,0.9-4.6,0.3c-1.5-0.6-2.2-2.9-0.8-3.8c1.2,0.3,2.6,0.1,3.7-0.5
				c-2.6,0-5.1-2-5.7-4.6c-0.8,3-2.8,5.6-5.4,7.1c-0.6-2.7-2.9-4.9-5.7-5.3c2,1.8-0.3,5.1-2.7,6.4c-2.4,1.3-5.5,2.9-5.2,5.6
				c-2,0.2-3.9,0.4-5.9,0.7c1.5,1,2.1,3.1,1.5,4.8c-2.6-1.3-5.2-2.6-7.8-3.8c1.4,0.7,1.5,2.7,0.8,4.2c-0.7,1.4-1.9,2.5-2.6,3.9
				c-5.2,1.3-10.1,4.3-13.7,8.3c-1.2,1.7-3.6,1.8-5.5,1.3s-3.8-1.5-5.8-1.5c-0.1,0-0.3,0-0.4,0c-1.9,0.2-3.9,1.6-3.7,3.5
				c0.1,0.7,0.5,1.3,1.1,1.6c1.8,0.6,2.5-2.2,2.3-4.1c0,0,0.1,0,0.1,0c1,0.2,2.1,0.4,3.1,0.6c4.3,3.1,5,10.1,1.4,14
				c-2-0.8-3.5-2.6-3.9-4.7c-2.1,1.1-3.8,2.8-5,4.8c0.7,1.5,1.4,3.1,2.1,4.6c-0.9-0.1-1.9-0.1-2.8-0.2c1.2,3.7,2.8,7.3,4.5,10.8
				c-5.5,2.6-11,5.3-16.5,7.9c-0.4,0.2-0.8,0.4-1.3,0.4c-0.1,0-0.2,0-0.2,0c-1.5-0.2-1.9-2.5-1.4-4c0.6-1.6,1.6-3.2,1.1-4.8
				c-3.5,0.4-7.1,0.8-10.6,1.2c0.1,2,0.1,4.1,0.2,6.1c2.5-0.3,4.9,2.1,4.6,4.6c1.9-0.5,3.8-0.6,5.8-0.4c0.2,0,0.4,0.1,0.6,0.1
				c-1.7,4-5.4,7.1-9.7,8c-1.7,1.4-1.8,4-2.2,6.2c-0.3,2.2-1.5,4.9-3.8,5c0.1,2.4,0,4.7-0.3,7.1c-1.5,0.4-3.2-1.1-3.1-2.6
				c-0.8,1.6-1.3,3.3-1.3,5.1c-1.3,0.4-3.2-0.8-3.2-2.2c-3.9,0.5-4.8,6-5.1,9.2c-0.3,3.8-1.3,8.5-5,9.3c-0.5,0.1-1.1,0.2-1.6,0.5
				c-1.4,1.1-0.7,3.8-0.4,5.1c0.5,2,0.4,3.8,0.4,5.8c0,0.9-0.2,2.1-1.1,2.5c-0.4,0.2-0.9,0.1-1.3,0.1c-2,0-4.1,1.3-4.8,3.2
				c-1,2.7,0.4,5.6,0.4,8.5c0,1.1-0.2,2.2-0.1,3.4c0.1,1.1,0.5,2.3,1.5,2.9c0.2,0.1,0.4,0.2,0.6,0.4c1,1.5-2,2.4,1.1,3.6
				c2,0.8,3.9-0.5,5.6-1.7c1.4-1.3,3.8-0.5,5.1,1c1.3,1.5,1.9,3.4,3.1,4.9c1.5,1.9,3.7,2.9,5.9,3.8c1.1,0.4,2.4,1.1,3.6,1.3
				c1.2,0.3,2.5,0.1,3.7,0.6c1.3,0.5,2.3,1.6,3.6,2c2.7,0.7,5.6-1.9,8.2-0.9c0.5,0.2,1,0.5,1.4,0.8c1.7,1.2,3.7,3.2,5.6,4
				c2,0.9,4.2,0.3,6.2,1.5c1.9,1.2,3,3.2,4,5.2c2.3,4.6,4.5,9.2,6.4,14c1.6,3.8,2.6,8.5,5.9,11.2c1,0.8,2.1,1.6,2.7,2.8
				c0.5,1.2,0.1,2.9-1.1,3.3c2.3,3,4.6,5.9,7.4,8.4c1.4,1.2,2.9,2.3,3.6,4c0.8,1.7,0.6,3.6,1.3,5.3c0.7,1.7,3.1,2.9,4.3,1.6
				c0,1.9,0,3.7,0,5.6c2.3-0.9,4.9,2.1,3.8,4.3c0.7,0.2,1.3,0.4,2,0.6c-0.6,1.4,0.3,3.3,1.8,3.7c0.6,0.1,1.2,0.1,1.6,0.4
				c0.5,0.3,0.7,0.9,0.8,1.4c1.2,3.9,2.9,7,1.4,11c-0.5,1.4,0.3,2.9,0.6,4.3c0.4,1.4-0.1,3.5-1.6,3.5c1,2.9,4.5,3.9,7.5,4.5
				c2.2,0.5,4.5,0.9,6.7,1.4c0.6,0.1,1.4,0.2,1.7-0.4c0,0.9,0,1.9,0,2.8c3.4-0.4,6.8-0.1,10,1c2.7,0.9,5.4,2.5,6.6,5.1
				c1.3,2.9,0.3,6.3-0.7,9.3c1,0.4,1.9,0.7,2.9,1.1c0.2,1,0.2,2.1-0.2,3.1c6.5-1.1,13.4,0.6,18.6,4.5c5.2,3.9,8.8,10.1,9.5,16.6
				c-5.4,2.8-11.9,0.2-17.4-2.2c-5.6-2.4-12.3-4.6-17.3-1.2c5.2,0.6,10.6,1.3,15.4,3.6c-1.2,0.5-0.6,2.3,0.6,2.9
				c1.1,0.6,2.5,0.5,3.4,1.3c0.4,0.4,0.7,0.9,1.2,1.3c0.8,0.7,2,0.7,3.1,0.7c3.6,0,7.1,0.5,10.5,1.6c0.6,0.2,1.3,0.4,1.7,0.9
				c0.5,0.5,0.7,1.1,0.7,1.7c0.1,1.1-0.4,2.4-0.9,3.4c-5.1-0.5-10.1-1.2-15.1-2.2c-4.8-1-9.6-2.2-13.6-5c-2.9-2.1-5.3-4.9-7.4-7.9
				c-2.1,0.9-4.4-1.9-6.6-1.3c-1.2,0.3-2,1.6-3.2,2c-1.9,0.6-3.6-1.3-4.8-2.8c-3.1-3.7-7.1-6.6-11.6-8.3c-4.6-1.8-10.1-2.4-14.2,0.4
				c-1.8,1.2-3.1,2.9-4.4,4.6c-1.9,2.5-3.8,4.9-5.8,7.4c3.3-0.6,6.5-1.9,9.2-3.9c1-0.7,2-1.8,1.8-3c1-1.7,3.4-2,5.4-1.9
				c2,0.2,4.1,0.5,5.9-0.4c4.4,0.8,7.6,5.6,6.5,9.9c0.8,3,4.8,4.6,7.4,2.9c0.5-0.3,1.1-0.8,1.7-0.9c0.6-0.1,1.2,0,1.8,0.2
				c3.6,1.1,7.1,2.2,10.7,3.3c4,3.7,8,7.4,12.7,10.3c3.9,2.4,8.2,4.1,12.7,5.1c0.7,0.2,1.5,0.3,2.1,0.7c0.6,0.3,1,0.8,1.5,1.3
				c5.7,6.2,12.8,12.5,14.7,21.1c0.3,1.2,0.3,2.8-0.6,3.6c-0.7,0.6-1.8,0.6-2.7,0.6c-3.9-0.1-7.9,0-11.6,1.2
				c-3.7,1.2-7.2,3.9-8.5,7.5c-0.4,1.1-0.6,2.2-1.2,3.1c-1.4,1.9-4.1,2-6.2,3.1c-2.2,1.1-3.7,3.5-3.8,5.9c-2.2,0.3-4.4,0.6-6.6,0.9
				c-1.4,2.1-1.6,4.7-1.7,7.2c-0.1,2.5-0.2,5.1-1.6,7.2c-1.3,2.1-4.3,3.4-6.4,2.1c-0.8-0.5-1.4-1.3-2.2-1.8c-0.9-0.5-2-0.4-3-0.4
				c-5.4,0.2-11.8,0.9-14.7,5.5c-1.3,2.1-3.1,5.3-5.2,4.1c0.9,1.4,1.9,2.9,3.4,3.7c1.5,0.8,3.7,0.5,4.4-1c0.4-0.9,0.2-2,0.6-3
				c0.9-2.6,4.9-2.4,7-0.7c2.1,1.7,3.4,4.4,5.8,5.9c5,3.3,11.7-0.3,15.9-4.6c4.3-4.2,8.5-9.5,14.5-9.9c4.8-0.3,9.1,2.8,12.9,5.7
				c4.6,3.5,9.2,7,13.8,10.6c0.6-2.1,3.6-1.8,5.8-1.3c4.5,1.2,9.2,1.5,13.8,0.9c0.2,2-1.5,3.8-3.3,4.7c-1.8,1-3.9,1.5-5.4,2.9
				c-1.2,1.1-1.9,2.6-2.6,4.1c-1.3,2.7-2.5,5.4-3.8,8.2c3-0.2,6-1.4,8.3-3.4c1.8,0,2.8,2,2.9,3.8c0.1,1.8-0.2,3.7,0.7,5.2
				c0.5,0.8,1.4,1.6,1.2,2.6c-0.1,0.6-0.6,1-1,1.5c-1.7,1.9-1.5,5.2,0.4,7c0.6,0.6,1.4,1,1.9,1.6c1.4,1.8,0,4.4-1.4,6.3
				c0.5,0.2,0.9,0.4,1.4,0.7l-1.6,2.4c0,0,0,0.1,0,0.1c0,1.2-1.4,2.1-2.6,2c-1.3-0.1-2.4-0.9-3.4-1.7c1.9-4,0.9-9.1-2.3-12.1
				c0.7,2.1,0.9,4.5,0.1,6.6c-0.8,2.1-3,3.7-5.2,3.4c-0.5-0.1-1-0.2-1.3-0.6c-0.6-0.6-0.5-1.6-0.9-2.3c-0.8-1.3-3.1-0.8-3.8,0.6
				c-0.7,1.4-0.5,3.1-0.2,4.6c-1.4,0.2-2.8,0.5-4.1,0.7c2.5,4.4,11.2,2,12.9,6.8c0.3,0.7,0.3,1.5,0.3,2.3c1.6-0.2,3.1,1.2,3.2,2.8
				c-1.8-0.1-3.6-0.1-5.4,0.1c-2.3,0.2-4.5,0.7-6.7,1.3c-0.7,1.7,1.9,2.8,3.6,2.4c1.1-0.3,2.2-0.8,3.3-0.9c0.7-0.1,1.3,0,1.9,0.3
				c0.1,2.8,1.4,5.2,0.3,8c-0.6,1.5-3.9,5.8-6.1,4.9c3.3,1.4,0.9,7.9,4.3,9.3c0.5,0.2,1.1,0.3,1.6,0.5c2.1,1.1,1,4.6,2.5,6.3
				c0.6,0.7,1.6,1,2.4,1.6c2.2,1.7,1.4,5.8-1.2,6.7c-1-1.4-2.1-2.8-3.6-3.5c-1.5-0.7-3.7-0.5-4.5,1c-0.5,2.4-0.9,4.9-1.4,7.3
				c-0.2,1-0.4,2.1-1.3,2.7c-1.9,1.4-4.3-1.1-5.3-3.3c-0.9-1.9-1.7-3.9-2.5-5.8c-1.4-0.1-2.8-0.5-3.9-1.4c-1.2,2.3-3.4,4.2-5.9,4.9
				c1.6,0.2,3.2,0.3,4.7,0.5c1.1,2-0.2,4.5-1.8,6.3c-1.5,1.8-3.3,3.7-3.2,6c0.1,1.4,1,2.8,0.7,4.2c-0.3,1.5-1.6,2.2-3,2.4
				c-1.1,0.1-3.2,0.4-4.2,0.2c-0.8-0.2-1.4-0.6-2.1-0.9c-1.9-0.9-4.2-0.7-5.8,0.6c0.4,0,0.4,0.7,0.5,1.1c0.2,0.6,1.1,0.6,1.7,0.3
				c0.6-0.3,1.1-0.7,1.8-0.7c0.8,0.1,1.3,0.9,2,1.1c0.8,0.2,1.8-0.3,2.4,0.2c0.2,0.2,0.3,0.4,0.4,0.6c0.3,0.8,0.3,1.8,0.3,2.7
				c0,0.7,0,1.4-0.3,2.1c-0.2,0.4-0.4,0.7-0.7,1c-0.5,0.7-1.1,1.4-1.6,2.1c-0.8,1-1.7,2.2-1.9,3.4c-0.2,0.9,0.3,2-0.3,2.7
				c-0.9,0.9-3.6,0.9-4.6,0.2c0.6,0.5,0.4,1.4,0.4,2.2c0.1,1.2,1,2.1,1.5,3.2c0.5,1.1,0.3,2.8-0.9,2.9c-0.5,0-1-0.2-1.5,0
				c-0.3,0.2-0.4,0.5-0.5,0.7c-0.6,1.9,0,4.2,1.6,5.4c1-0.9,2.8-0.4,3.2,0.9c0.2,0.6,0.1,1.3-0.1,1.9c-0.3,1.3-0.6,2.7-0.9,4.1
				c-0.1,0.2-0.1,0.5-0.3,0.7c-0.2,0.2-0.5,0.1-0.8,0.1c-1.2-0.2-2.5-0.3-3.7-0.5c0.8,0.8,0.5,2.4-0.5,3c-0.2,0.1-0.3,0.1-0.4,0.2
				c0.2,0,0.3-0.1,0.4-0.2c0.5-0.2,1.1-0.1,1.5,0.1c0.1,2.1,0.2,4.3,0.3,6.4c0,0.5,0,1.1-0.2,1.5c-0.4,0.7-1.3,1-2.2,1.1
				c-1.5,0.3-3.2,0.5-4.4-0.4c-0.4-0.3-0.8-0.7-1.2-1.1c-0.8-0.6-1.8-0.9-2.8-1.3c-0.9-0.4-1.7-0.9-2-1.8c-0.2-0.6-0.3-1.4-0.9-1.5
				c-0.4,0-0.7,0.3-0.9,0.5c-0.8,0.9-1.6,1.8-2.3,2.6c-0.6,0.7-1.2,1.4-1.4,2.3c-0.1,0.9,0.6,2,1.5,1.9c0.6-1.3,1.4-2.8,2.8-3.3
				c1-0.2,2.1-0.2,3,0.1c0.9,0.2,1.7,0.6,2.4,1.2c0.7,0.6,1.3,1.3,1.8,2.1c0.7,1,1.3,2.2,1.4,3.3l-0.1,0c-2.1-0.3-4.2-0.4-6.2-0.3
				c-1.9,0-3.8,0.1-5.7,0.1c-20.4,0-40.8,1.1-61,3.2c-20.2,2.1-40.2,5.3-60.1,9.5c-22.6,4.8-46.4,11.7-61.6,29.1
				c-8.3,9.5-13.4,21.4-21.8,30.7c-3.5,3.9-7.6,7.4-10.4,11.8c-5.8,9-5.6,20.6-3.4,31.1c2.1,10.5,6,20.7,7,31.3
				c1.1,11.8-1.5,23.6-1.5,35.4c-0.1,18,5.8,35.3,13.8,51.1c7.5,14.7,17.5,27.8,25.9,42l-0.1,0.2c-1-0.5-2-1.1-3-1.7
				c-1.9,3.6-3.3,7.5-4.1,11.5c-2.3,0.8-5.3,1.1-7.8,1.7c-3.7,0.9-9.1,1.4-9.3,5.3c-3.1-2.4-6-5-8.7-7.8c-3,1-6.3,1-9.3,0.2
				c1.4,0.7,2.7,1.3,4.1,2c-0.7,1.8-1.3,3.5-2,5.3c1.3,1,2.7,2,4,2.9c-1.5,6-12,6.2-13.8,0.3c-1.6-0.2-3.2-0.8-4.4-1.9
				c0.7-1.9,0.9-3.9,0.7-6c-1.7,5-8,6.2-12.5,8.9c-4.6,2.8-7.8,7.9-8.1,13.3c-3.3,1.1-7.2-0.3-9-3.2c-1.9-2.9-1.5-7,0.8-9.6
				c-3.4,0.6-6.6,1.8-9.7,3.4c-1.6,0.8-3.4,2.1-3.4,4c-0.1,1.8,3,3,3.6,1.3c0.5,1.6-0.9,3.6-2.6,3.6c0.5,1.8,2.3,3.1,4.1,3.1
				c1.2,2.9-2.4,6-5.5,5.2c-3-0.8-4.9-3.8-5.7-6.8c-3.4-1-7.3,0.7-9,3.7c3.6,1.1,7,2.9,10,5.2c0.1,3.2-3.3,5.9-6.4,5.2
				c0.4,1.8,0.2,3.7-0.5,5.4c-1.5-0.4-3.1-0.9-4.6-1.3l-2.8-0.5c0.2-0.3,0.5-0.5,0.7-0.7c-2.1-1.2-4.1,0-5.8,1.9l-2.5-1.3
				c-2.4-0.7-4.9-1.4-7.3-2.2c0.7-1.4,1.3-2.8,2-4.1c-3.8-5.1-7.7-10.1-11.5-15.2c-6.5-3.7-11.6-9.6-14.3-16.5
				c-2.8,5.1,1.2,12.5,7,13c-2.3,3.2-6.8,4.6-10.5,3.3c5.7,2.6,9.5,8.8,9.3,15c-0.2,3.4,0.6,8.7,3.8,7.6c-2.7,1.9-1.6,6-0.5,9.1
				c1.1,3.1,1.1,7.7-2.1,8.4C1983.1,2045.8,1981.2,2041.8,1980.4,2038.7z"/>
			<path class="st3" d="M2297.7,1747.2c1.2-0.2,2.4-0.4,3.6-0.7c0.4,1.5-1.2,2.8-2.7,3.4c-1.5,0.6-3.2,1-4,2.3
				c-0.4,0.6-0.5,1.3-1,1.8c-0.6,0.5-1.4,0.6-2.2,0.7c-3.4,0.7-5.8,4.4-5.1,7.8c0.2,1,0.6,1.9,0.4,2.8c-0.1,0.6-0.5,1.1-0.6,1.6
				c-0.3,2.8,5,1.9,6.5,4.3c-1.3,4-3.5,7.7-6.2,10.8c2.3,1.2,3.5,4.2,2.6,6.6c-0.9,2.4-3.8,3.9-6.3,3.3c0.7,1.5,1.5,3.1,2.2,4.6
				c0.7-1.4,2.6-1.9,4.1-1.4c1.5,0.5,2.5,1.8,3.4,3.2c1.5,2.4,2.3,5.2,2.7,8c0.1,0.6,0.1,1.3-0.2,1.8c-0.3,0.5-0.9,0.7-1.5,0.8
				c-1.8,0.6-3.7,1.1-5.4,0.4c-1.7-0.7-2.6-3.3-1.1-4.4c-2.4,0.2-4.3-1.8-6.6-2.7c-2.2-0.9-5.8,0.6-4.8,2.8c1.3,0.1,2.2,1.7,1.6,2.8
				c-1.7,0.3-3.6-1-3.9-2.8c-2.4,0.6-5,1.8-5.7,4.1c-0.8,2.4,2.2,5.3,4.1,3.6c-0.1,1-0.3,2-0.4,3c0.3,1,1.8,0,2.5-0.8
				c1.4-1.5,4.2-1.7,5.4,0c1.2,1.7-0.3,4.6-2.3,4.2c0.5,0.8,1,1.6,1.5,2.3c-2.7,2.3-7.3,2-9.7-0.7c-0.3,2.1-0.6,4.2-0.9,6.2
				c-0.9,0.7-2.5,0.4-3.1-0.6c-0.6-1-0.1-2.5,1-3c-0.9-1.8-4-1.7-4.7,0.2c-1.1-0.7-1.8-1.9-1.8-3.2c-1.3,0.3-2.6,0.6-3.9,0.9
				c2.1,1.1,4.2,2.6,4.8,4.8c0.6,2.3-1.6,5.1-3.8,4.2c-0.3,1.4,1.4,2.4,2.8,2.4s2.8-0.6,4.2-0.3c3,0.6,3.4,5.7,0.6,6.8
				c-0.6-0.6-1.2-1.1-1.8-1.7c-1.2,0-2.2,1.2-2,2.3c1.3-0.4,2.8,0.4,3.4,1.7c-3.9,0.2-8.1,0.5-11.2,2.9c-0.5,0.4-1.1,0.9-1.7,1.1
				c-0.1,0-0.3,0-0.4,0c-1.8,0-2.6-2.6-2.7-4.5c-0.6,1.5-1.2,3.1-1.8,4.6c-0.4,1.1-0.8,2.4-0.2,3.3c1.1,1.8,3.9,0.5,5.4-1
				c1.6,0.2,2.5,2.2,2.3,3.8c-0.3,1.6-1.4,3-2.4,4.2c-1-0.8-2.6-0.3-3.1,0.8c-0.5,1.1,0.4,2.6,1.6,2.8c0.5,2.5-1.4,6.2-4.2,6.5
				c-1.8,0.1-1.3-1-2.5-2.2c-1-1-2.4-1.6-3.7-1.7c-2.6-0.1-5.1,1.2-7.5,2.4c-2.6,1.2-5.2,2.2-7.9,3c0.7-1.5-0.6-3.6-2.3-3.6
				c-0.9,0.3-1.1,1.1-1,2l-1.3,0.4c-1.6,0.7-3.2,1.5-4.8,2.2c0.9,0.6,1.7,1.2,2.6,1.8c-0.1,1-0.2,2-0.3,3c-3.8,1.1-7.8,1.7-11.8,1.7
				c-0.1,2.4,2.9,3.9,5.4,3.6c2.4-0.3,4.7-1.5,7.1-1.7c0.1,1.1,0.2,2.2,0.3,3.4c1.3-1.6,4.3-0.5,4.9,1.5c0.6,2-0.5,4.2-1.9,5.8
				c-1.8,2-4.8,3.4-7.2,2.1c0.6,3.9,0.1,8.1-1.6,11.7c-1.6,0.4-3.2,0.6-4.8,0.4c0.6,1.7,0.4,3.7-0.6,5.2c-1.8-0.2-3.3-1.4-4.1-3
				c0.1-1,0-2.1-0.7-2.8c0,1,0.2,2,0.7,2.8c-0.1,0.8-0.4,1.7-0.8,2.5c-0.8,1.7-1.9,3.3-2,5.2c-0.1,1.7,0.8,3.3,0.8,5.1
				c0.1,1.7-1.3,3.8-2.9,3.3c1.4-2.4,1.2-5.6-0.5-7.8c-1.7-2.2-4.8-3.2-7.5-2.3c0.9,1.7,2.2,3.3,3.7,4.5c-1.5,1-2.3,2.9-2.1,4.6
				c1.8-0.1,3,2,2.6,3.7c-0.4,1.5-1.5,2.6-2.9,3.4l-2.7-0.5c-2.6-0.2-3.3-4.6-0.9-5.6c-4.1,0.6-7.1,5.2-5.9,9.2
				c-3.3-0.1-6.6,2.1-7.8,5.3c-2.1-0.8-3.8-2.7-4.3-4.9c-2.6-0.2-5.2,0.2-7.7,1.1c0.1,3.3,0.1,6.7-0.7,9.9c-0.9,3.2-2.9,6.3-6,7.6
				c-0.9,0.4-1.9,0.6-2.9,0.8c-2.4,0.3-5-0.2-7.4-0.7c-1,1.4,1.2,3.2,2.9,3c1.6-0.2,3-1.2,4.6-1.5c0.1,0,0.2,0,0.3,0
				c3.5-0.2,5.7,3.6,7,6.9c-2.8-2.2-7.7-0.5-8.4,3c-1-1.6-3.3-2.2-4.9-1.4c1-0.2,1.5,1.3,1.1,2.3c-0.4,0.9-1.3,1.6-1.7,2.6
				c-0.7,1.9,1,3.9,1.4,5.9c0.6,3.4-3,6.5-6.5,6.6c-2.4,0.1-4.6-0.7-6.7-1.8l0.1-0.2c-8.4-14.1-18.4-27.2-25.9-42
				c-8.1-15.9-13.9-33.2-13.8-51.1c0-11.8,2.6-23.6,1.5-35.4c-1-10.7-4.8-20.8-7-31.3c-2.2-10.5-2.4-22.1,3.4-31.1
				c2.9-4.4,6.9-7.9,10.4-11.8c8.4-9.4,13.6-21.3,21.8-30.7c15.2-17.4,39-24.3,61.6-29.1c19.8-4.2,39.9-7.3,60.1-9.5
				c20.3-2.1,40.6-3.2,61-3.2c2,0,3.9-0.1,5.7-0.1l0,1.9c-0.1,1.1-0.1,2.2-0.1,3.3c0,0.2,0,0.5,0,0.7c-0.1,2.7-0.2,5.4-0.8,8
				c-0.1,0.6-0.4,1.3-0.9,1.6c-1.3,0.6-3.2-1.1-4,0c-0.2,0.4-0.2,0.8-0.4,1.2c-0.6,1.1-2.3,0.4-3.4,0.9c-1,0.5-1.1,2.3-0.1,2.8
				c0.9,0.5,2,0,3-0.2c1-0.2,2.4,0.2,2.4,1.3c-0.1,0.7-0.8,1.1-1.4,1.1c-0.1,0-0.1,0-0.2,0c-0.6,0-1.1-0.2-1.7-0.3
				c-1-0.2-2.3-0.1-2.9,0.7c-0.7,0.8-0.1,2.4,1,2.3c0.3,0,0.5-0.2,0.8-0.3c0.9-0.4,1.9-0.6,2.8-0.6c0.6,0,1.3,0.1,1.9,0.4
				c0.2,0.1,0.5,0.2,0.6,0.4c0.1,0.2,0.1,0.4,0.1,0.6c-0.1,1.2-0.3,2.6-0.2,3.8c0.1,0.5,0.6,1.5,0.4,1.9c-0.6,1-6.2,2-7.4,2.4
				c-1.2,1.9-2.3,3.7-3.5,5.6c-0.6,1-2,0.6-2.8-0.3c-0.3-0.3-0.5-0.7-0.6-1c-0.4-1.5,0.2-3.1-0.1-4.6c-0.4-2.7-3.7-4.6-6.3-3.5
				c-1,0.4-1.9,1.2-3,1.3c-2.9,0.2-5.6-4.5-7.7-2.6c2.6,2,3.8,5.7,2.8,8.8c3.7-2.8,9.6-1.3,12.2,2.4c0.6,0.8,0.9,1.7,1.1,2.7
				c0.1,0.6,0.2,1.2-0.1,1.7c-0.4,0.7-1,0.9-1.7,0.9c-1.4,0-3.2-0.7-4.5-0.1c-1.4,0.7-1.6,2.7-0.8,4c0.8,1.3,2.2,2.1,3.6,2.8
				c0.5-2,1.2-4.1,2.8-5.4c0.1-0.1,0.2-0.2,0.3-0.2C2294.8,1743.9,2298,1745,2297.7,1747.2z"/>
			<path class="st2" d="M1859,2199.4c0,0.6,0,1.1,0,1.7c-3.2-0.3-6.6,1.1-8.7,3.5c-0.8,0.9-1.4,2.1-1.1,3.3
				c-1.4,0.6-2.9-0.1-3.6-1.3c-0.8-1.5,0-2.4,1.2-3.2c-0.2-0.9-1.4-1.5-2.2-1.1c-0.1,2.9-0.6,5.8-1.4,8.7c-0.2,0.8-0.5,1.5-1,2.1
				c-0.6,0.7-1.3,1.1-2.1,1.6c-3.1,2-5.1,5.7-5.1,9.4c0,0.9,0.1,1.9-0.2,2.8c-0.8,3.1-4.8,3.7-8,3.7c1.7,0.9,3.6,2.1,3.9,4
				c0.1,0.8,0,1.6-0.2,2.3c-0.9,4.5-2,8.9-3.3,13.3c-0.5,0.5-0.7,1.1-0.5,1.8l0.8,1.1c0.6,2.7-1.5,5.3-3.9,6.5
				c-2.4,1.3-5.2,1.6-7.8,2.7c-4.7,2-8.3,6.4-9.2,11.4c-0.3,1.5-0.4,3.2-1.2,4.5c-0.8,1.3-2.7,2.2-4,1.3c-0.5-0.4-0.8-1-1.4-1.3
				c-0.7-0.4-1.5-0.2-2.2-0.1c-2.1,0.4-4.2,0.8-6.3,1.2c-1,0.2-2,0.4-2.8,1c-3.1,2.4,0.2,8.4-2.8,11c-0.6-1.4-2-2.4-3.5-2.1
				c-2.6,0-1,3.1-1.4,3.8c-0.3,0.4-1.6,0.2-2,0.2c-1.5-0.3-0.8-0.6-1.7-1.8c-0.4-0.5-1-0.9-1.7-0.7c-0.9,0.3-1.1,1.6-2,2
				c-0.6,0.3-1.5,0-1.8-0.6c-0.3-0.6,0-1.5,0.6-1.8c-0.5-1.7-1.3-3.7-3.1-4c-1-0.2-1.9,0.3-2.9,0.5c-3.1,0.6-6.3-1.1-9.4-0.4
				c-1.2,0.3-2.5,1-3.7,0.5c-1.4-0.5-1.8-2.2-1.8-3.7c-2.7,0-5.3,0.4-8-0.1c-2.4-0.4-4.7-1.3-6.8-2.5c-1.7-0.9-2.7-2.5-4.2-3.4
				c-2-1.2-5-1.4-7.2-2c-0.4-0.1-0.9-0.2-1.2-0.6c-0.3-0.4-0.3-1-0.2-1.5c0.6-4.7,2.3-10.1-0.6-13.9c-1.2-1.6-3.3-3.1-3.2-5.1
				c0.1-1.4,1.2-2.5,1.7-3.8c1.2-4-4.2-8.9-1.3-11.9c1.2,1,2.6-1.5,1.8-2.9c-0.8-1.4-2.5-2.2-2.9-3.8c-0.5-2.3,2.2-4.4,2-6.7
				c3.5,0.1,5.9-3,8.7-5.2c0.3-0.2,0.6-0.5,1-0.7c1.5-1,3.2-1.6,4.8-2.6c2.5-1.6,4.3-4.3,5-7.2c0.7,1.5,3,0.8,3.9-0.6
				c0.9-1.3,1.2-3.1,2.5-4.1c1,0.4,2,0.9,3,1.4c-0.3-1.1,0.3-1.9,1.1-2.6c0.7-0.6,1.7-1,2.5-1.3c1.9-0.6,4.2-1.8,3.9-3.8
				c-2.9,0-5.8,1-8.2,2.8c-1-3.2,1-6.9,4.2-7.9c0.1-1.1,0.1-2.2,0.2-3.3c3.4,1,6.7,2,10.1,3c2.5,0.8,5.6,1.4,7.6-0.3
				c-2.5-2.7-0.6-7.6,2.9-8.9c3.5-1.3,7.4,0.2,10.3,2.5c0-1.2,0.7-2.4,1.8-2.9c1,0.9,2,1.8,2.9,2.7c0.2-1.3,1.8-2.2,3-1.7
				c1.2,0.5,1.7,2.2,1,3.3c0.2,0.8,1.6,0.5,1.9-0.3s0.2-1.8,0.7-2.5c1.2-1.8,4.3-0.2,5.9-1.7c0.8-0.8,0.8-2.1,1.4-3
				c1.1-1.6,3.4-1.6,5.3-1.1s3.8,1.4,5.7,0.9c1-0.2,1.8-0.8,2.8-1.1c3.7-1,7.7,3.4,11.1,1.7c1-1.6,1.3-3.7,0.9-5.6
				c2.1-0.3,4.1-1.5,5.3-3.3c1,1.5,1.9,3.1,2.9,4.6c2.4,2.4,6.1,3.5,9.4,2.8c1.4-0.3,2.9,0.4,3.8,1.5c0.2,0.3,1.7,3.4,0.9,3.5
				c1-0.1,2,0.7,2.4,1.6c0.5,0.9,0.5,2,0.6,3c0.1,2.1,0.3,4.2,0.4,6.4c0.1,1,0.2,2.2,0.8,3C1856.8,2198.7,1857.9,2199.1,1859,2199.4
				z"/>
			<path class="st2" d="M1831.1,2249.9c1.2,1.8-1.8,4.5-3.4,3l-0.8-1.1c0.2-0.6,0.3-1.2,0.5-1.8
				C1828.3,2249,1830.2,2248.6,1831.1,2249.9z"/>
			<path class="st2" d="M1827.4,2250c-0.2,0.6-0.3,1.2-0.5,1.8C1826.7,2251.1,1826.9,2250.5,1827.4,2250z"/>
		</g>
		<g>
			<path class="st4" d="M2207.2,797c7.5-8.6-2.2-22.2-13-25.7c-10.8-3.6-23.4-2.7-32.7-9.3c-5.7-4-9.4-10.3-12.7-16.5
				c-46.6-87.1-44.6-171.2-37.4-266.2c1.8-23.7,1.4-52.1-18.4-65.1c-11.5-7.6-27.5-7.9-36.9-17.9c-4.5-4.7-6.8-11-10.2-16.6
				c-16.2-26.5-51.4-31.9-82.2-36.2c-28.2-4-56.2-9.3-83.8-15.9c-7.3-1.7-14.7-3.6-20.8-7.8c-7.6-5.2-12.6-13.4-18.3-20.7
				c-9.3-12-20.9-22.1-34.1-29.6c-17-9.7-36-14.9-54.9-20.1c-56.4-15.4-107.1-29.7-165.4-33.1c-18.7-1.1-46.8-8.2-64.5-0.9
				c-13.8,5.7-24,21.8-37.6,29.3c-16.1,8.9-33.7,13.3-52.1,11.6c-20-1.8-42.9-15.8-62-22.2c-123-41.8-253.2,24.5-370.8,79.5
				c-101.5,47.4-210.7,77.9-305.7,137.9c-16.6,10.5-32.9,21.6-47.2,35c-17.7,16.5-32.2,36.2-49.8,52.8c-30.6,29-75.1,53.7-117,60.9
				c-44.5,7.7-87.2,27.6-132,36.8c-24.6,5.1-49.8,8.9-72.7,19.2c-38.9,17.6-48.4,46.6-56.4,85.4c-7.4,36-30,67-35.9,103.4
				c-6,37.1,4.2,68.8,26.5,99.4c2.4,3.3,4.9,6.5,6.5,10.3c2.3,5.6,2.4,12,5.8,17c2,3,5.1,5,8,7.1c25.9,17.7,48.8,37.5,73.7,56.3
				c13.7,10.3,28.9,15.4,43.5,23.7c12.8,7.3,23.2,17.8,36.7,24.4c30.7,15.1,66.1,19.5,100,16.6c44-3.7,86.2-18.9,127.3-35.2
				c59.5-23.7,112-44.6,176.7-43.9c48,0.5,96.2,6.3,143.9,1c23.7-2.6,47.1-8,70.9-9.4c33.1-2,70.1-3.6,100.8,11.1
				c10.7,5.1,20.2,12.4,30.6,18.2c22.3,12.5,48.5,17.7,69.5,32.3c23.3,16.3,38.4,42.9,62.9,57.4c23.4,13.9,55.3,16.9,69.7,40
				c3.3,5.3,5.4,11.3,9.3,16.2c11.5,14.3,37.7,18.1,39.1,36.1c0,0.2,0,0.4,0,0.6"/>
		</g>
	</g>
</g>
<g id="text">
	<text transform="matrix(1 0 0 1 1761.9674 1426.0602)"><tspan x="0" y="0" class="st5 st6">Han</tspan><tspan x="-65.9" y="124.8" class="st5 st6">Empire</tspan></text>
	<text transform="matrix(0.8921 -0.4518 0.4518 0.8921 1560.8573 2133.6001)" class="st5 st7">N   a   n   y   u   e</text>
	<text transform="matrix(0.5689 -0.8224 0.8224 0.5689 2145.9868 1909.7543)" class="st5 st7">Min Yue</text>
	<text transform="matrix(1 0 0 1 1330.5759 1933.8311)" class="st5 st8">Dian</text>
	<text transform="matrix(1 0 0 1 1054.7284 684.9944)" class="st5 st6">Xiongnu Empire</text>
	<text transform="matrix(1 0 0 1 1273.6031 1422.4526)" class="st5 st8">Qiang</text>
	<text transform="matrix(1 0 0 1 568.402 1468.5283)" class="st5 st9">Tibetan tribes</text>
	<text transform="matrix(0.1778 0.9841 -0.9841 0.1778 262.331 498.5392)" class="st5 st7">Yuezhi</text>
</g>
<g id="cities">
	<circle class="st10" cx="1968.6" cy="1982.6" r="4.9"/>
	<text id="Panyu" transform="matrix(1 0 0 1 1959.462 1976.101)" class="st11 st12">Panyu</text>
	<circle class="st10" cx="337.4" cy="1042.6" r="5.2"/>
	<text transform="matrix(1 0 0 1 341.9443 1034.4072)" class="st11 st13">Khotan</text>
	<circle class="st10" cx="195.2" cy="855.2" r="5.2"/>
	<text transform="matrix(1 0 0 1 176.2635 881.0739)" class="st11 st13">Kashgar</text>
	<circle class="st10" cx="1695.3" cy="1343.1" r="5.2"/>
	<text transform="matrix(1 0 0 1 1669.2722 1366.147)" class="st11 st12">Chang’an</text>
	<circle class="st10" cx="1033" cy="977" r="5.2"/>
	<text transform="matrix(1 0 0 1 1023.5845 966.4666)" class="st11 st13">Shazhou</text>
	<circle class="st10" cx="1863.5" cy="1302.5" r="5.2"/>
	<text transform="matrix(1 0 0 1 1819.5188 1325.694)" class="st11 st12">Luoyang</text>
	<circle class="st10" cx="812.2" cy="785.8" r="5.2"/>
	<text transform="matrix(1 0 0 1 789.9011 777.7059)" class="st11 st14">Jiaohe</text>
	<circle class="st10" cx="753.4" cy="722.7" r="5.2"/>
	<text transform="matrix(1 0 0 1 747.4648 713.515)" class="st11 st13">Ürümqi</text>
	<circle class="st10" cx="790.4" cy="1575" r="5.2"/>
	<text transform="matrix(1 0 0 1 785.5933 1593.7999)" class="st11 st13">Lhasa</text>
	<circle class="st10" cx="1206" cy="1016.9" r="5.2"/>
	<text transform="matrix(1 0 0 1 1184.7889 1036.8461)" class="st11 st13">Jiuquan</text>
	<circle class="st10" cx="818.9" cy="932.5" r="5.2"/>
	<text transform="matrix(1 0 0 1 771.3963 922.1782)" class="st11 st13">Loulan</text>
	<circle class="st10" cx="30.3" cy="747.1" r="6.1"/>
	<text transform="matrix(1 0 0 1 14.2325 740.0313)" class="st11 st14">Fergana</text>
	<circle class="st10" cx="688.4" cy="829" r="5.2"/>
	<text transform="matrix(1 0 0 1 660.5193 821.2176)" class="st11 st14">Yanqi</text>
	<circle class="st10" cx="1387" cy="1130" r="5.2"/>
	<text transform="matrix(1 0 0 1 1366.0129 1121.967)" class="st11 st14">Wuwei</text>
	<circle class="st10" cx="1290.3" cy="1069.2" r="5.2"/>
	<text transform="matrix(1 0 0 1 1275.0741 1061.5127)" class="st11 st14">Zhangye</text>
	<circle class="st10" cx="995.5" cy="816" r="5.2"/>
	<text transform="matrix(1 0 0 1 984.4211 835.2893)" class="st11 st14">Hami</text>
	<circle class="st10" cx="529.2" cy="806.7" r="5.2"/>
	<text transform="matrix(1 0 0 1 509.604 798.4198)" class="st11 st13">Kuqa</text>
	<circle class="st10" cx="230.2" cy="933.5" r="5.2"/>
	<text transform="matrix(1 0 0 1 209.5328 954.2299)" class="st11 st13">Yarkant</text>
	<circle class="st10" cx="66.8" cy="606.4" r="6.1"/>
	<text transform="matrix(1 0 0 1 77.5555 612.5313)" class="st11 st14">Taraz</text>
	<circle class="st10" cx="720.3" cy="1008.2" r="5.2"/>
	<text transform="matrix(1 0 0 1 674.5909 997.8712)" class="st11 st14">Charklik</text>
	<circle class="st10" cx="1440.2" cy="1240.5" r="5.2"/>
	<text transform="matrix(1 0 0 1 1406.0627 1260.3485)" class="st11 st13">Lanzhouaa</text>
</g>
</svg>
