<?xml version="1.0" encoding="utf-8"?>
<!-- Generator: Adobe Illustrator 19.2.1, SVG Export Plug-In . SVG Version: 6.00 Build 0)  -->
<svg version="1.1" xmlns="http://www.w3.org/2000/svg" xmlns:xlink="http://www.w3.org/1999/xlink" x="0px" y="0px"
	 viewBox="0 0 2905.1 2313" style="enable-background:new 0 0 2905.1 2313;" xml:space="preserve">
<style type="text/css">
	.st0{opacity:0.34;}
	.st1{fill:#EC2127;}
	.st2{fill:none;stroke:#000000;stroke-miterlimit:10;}
	.st3{fill:none;stroke:#FFFFFF;stroke-width:3;stroke-linecap:round;stroke-linejoin:round;stroke-dasharray:12.2673,12.2673;}
	.st4{fill:none;stroke:#FFFFFF;stroke-width:3;stroke-miterlimit:10;}
	.st5{fill:none;stroke:#FFFFFF;stroke-width:3;stroke-miterlimit:10;stroke-dasharray:12.0044,12.0044;}
	.st6{fill:none;stroke:#FFFFFF;stroke-width:3;stroke-miterlimit:10;stroke-dasharray:12;}
	.st7{fill:#ED1C24;stroke:#1C75BC;stroke-linecap:round;stroke-miterlimit:10;}
	.st8{font-family:'ArialMT';}
	.st9{font-size:21px;}
	.st10{font-size:24px;}
	.st11{font-size:18px;}
	.st12{font-family:'MyriadPro-Regular';}
	.st13{font-size:104px;}
	.st14{font-size:60px;}
	.st15{font-size:36px;}
</style>
<g id="bitmap">
	
		<image style="overflow:visible;" width="1968" height="1567" xlink:href="../../r12a.github.io/maps/eastasia/relief_map.jpg"  transform="matrix(1.4757 0 0 1.4757 1.8006 0)">
	</image>
</g>
<g id="borders">
	<g id="XMLID_1_" class="st0">
		<g>
			<path class="st1" d="M1409,1317.1c-1.3-9.1-2.5-18.1-3.5-27.2c-2.7-23.3-1.4-44-11-66.3c-4.1-9.5-9-18.8-13.3-28.2
				c-3.3-7.1-5.2-16-10.4-22c-12.5-14.4-26.8-27.4-42.4-38.4c-13-9.1-27.1-17.2-37.4-29.2c-36.6-42.7-104.1-36-160.1-40.6
				c-12.8-1-25.8-1.6-37.9-5.5c-9.7-3.1-18.5-8.2-26.9-13.9c-13.3-9-25.4-19.7-36.1-31.7c-2.9-3.3-5.7-6.7-7.4-10.8
				c-2-5.1-2-10.7-1.8-16.1c0.6-15.2,2.7-30.7,8.9-44.6c6.2-14,16.8-26.4,30.8-32.4c15.1-6.4,32.2-4.8,48.5-3
				c38.1,4.1,77.3,8.6,110.6,27.4c12.7,7.2,24.2,16.3,36.3,24.5c18.5,12.6,38.4,23,58.6,32.7c39.9,19.2,81.1,35.6,123.3,49.1
				c5.1,1.6,10.4,3.3,14.5,6.8c4.1,3.5,6.8,9.2,5,14.3c-0.9,2.6-2.8,4.7-4.7,6.8c-10.8,12.2-19.5,26.2-25.8,41.2
				c-2,4.8-3.8,10-3.1,15.2c3.7,27.5,49.3,30.1,69.2,31.3c64.3,4.2,131.8,6.3,189.8-21.8c14.7-7.1,28.4-16,42-24.8
				c26.8-17.4,53.6-34.7,80.4-52.1c28.8-18.7,58.3-37.9,79.5-64.9c8.4-10.7,15.4-22.3,23.3-33.3c25.6-35.5,60.4-62.9,97.6-85.5
				c18.9-11.5,38.5-21.8,58.3-31.6c64.1-31.9,135.9-50.5,203.8-73.4c19.8-6.7,39.7-13.4,60.3-16.8c35.4-5.8,72.3-1.2,105.2,12.8
				c13.4,5.8,26.5,13.3,35.6,24.7c7.9,9.8,12.3,21.9,16.6,33.7c5.8,16,11.7,32.1,14,49c1.9,13.5,1.5,27.2,1.1,40.8
				c0,6.9-0.4,13.8-0.6,20.7c-0.2,6.9-0.4,13.9-0.6,20.8c-0.2,6.9-0.4,13.9-0.6,20.8c-0.2,6.9-0.4,13.9-0.6,20.8
				c-0.2,6.9-0.4,13.9-0.6,20.8c-0.1,3.2,0,6.6-0.6,9.8c-0.7-0.6-1.3-1.2-1.9-1.9c1.4,2.4-1.3,5.9-4,5.2c-0.9-2-2.7-3.5-4.8-4
				c-1.6-3.2-1.7-7.1-0.1-10.3c-1.5-0.4-3.2,0.4-3.8,1.9c2.5,1.1,2.1,5.6-0.6,6.3c-2.7,0.7-5.1-3.1-3.4-5.2c-1.7-0.9-2.2,2.2-1.6,4
				c0.6,1.8-0.9,4.7-2.1,3.3c-0.2-0.8-0.5-1.6-0.7-2.5c-1.8-2.1-3.6-4.2-5.4-6.4c0,1.5-0.1,3-0.1,4.5c-5.1,0.2-10.2-3.2-12-8
				c-2.9,0-5.9,0.3-8.8,0.8c2.6,1,5.3,2,7.9,3c0.3,2-1.8,4-3.8,3.6c0.6,2.4,0.7,4.9,0.4,7.3c-1.5,1-3.4-0.2-5.1-0.9
				c-1.2-0.5-3,0.1-3.5,1l-1.3-0.5c0.2-0.5,0.3-1,0.4-1.5c-4.3,1.7-8.5,3.3-12.8,5c1.8-0.9,3.7-2,4.6-3.8c0.9-1.8,0.3-4.5-1.7-5
				c0.5,1.8-1,3.7-2.8,4.3c-1.8,0.7-3.7,0.4-5.5,0.2c-0.7-0.1-1.5-0.2-2.1-0.7c-1.3-1.1-0.6-3.4,0.8-4.2c1.1-0.7,2.4-0.8,3.7-0.7
				c0.3,0.2,0.7,0.3,1.2,0.1c-0.4,0-0.8-0.1-1.2-0.1c-1.1-0.7-1.5-2.9-0.3-3.9c1.6-1.3,3.9-0.9,5.8-0.3c-0.5-1.4-0.9-2.9-1.4-4.3
				c-4,1.8-8.2,3.7-12.6,3.2c-1.2-0.1-2.4-0.5-3.6-0.3c-1.8,0.3-3.2,1.7-4.9,2.6c-1.6,0.9-4,1.2-5-0.4c1.9-4,5.7-7.1,10-8.1
				c-2.8-1.4-3.2-5.3-2.5-8.4s2.3-6.1,1.9-9.2c-0.2-1.5-0.6-3.3,0.6-4.1c0.7-0.5,1.7-0.3,2.6-0.5c2.2-0.5,2.8-4,0.9-5.2
				c4.4-2.8,9.3-5,14.4-6.4c-3.7-0.4-7.5-0.4-11.1,0.2c0.4-1.5-1.8-2.9-3-1.8c-2.1-7-0.7-15,3.5-21c-0.9,0.6-2.3,0.1-2.6-1
				c-0.2-1.1,0.8-2.2,1.9-2c-1.2-1.7,0-4.6,2.1-4.9c1.6-3.5-2.9-6.6-4.7-10.1c-1.3-2.5-1-5.8,0.7-8c-1.7,0.8-3.3,1.7-5,2.5
				c-1.2-2.1-4.5-2.6-6.3-1c-2.8-0.5-5.6-1-8.5-1.6c-0.4-0.1-0.9-0.2-1.3,0c-0.8,0.4-0.8,1.2-0.6,2.1l-1.2,0.1
				c-1.2-0.9-1.9-2.5-1.8-4c-2.2-0.9-4.3-1.8-6.5-2.7c1,3,0.1,6.6-2.2,8.8c2.6,1.1,3.8,4.6,2.5,7c-2.7-1.5-5.8-3.6-5.8-6.7
				c0-1.5,0.8-3,0.8-4.5c0.1-3.3-3.4-5.5-6.5-6.3c-3.1-0.8-6.7-1.1-9.1-3.4c-0.6-0.6-1.2-1.2-1.9-1.5c-1.5-0.5-2.9,1-3.9,2.2
				c-6.3,7.1-16.5,10.4-25.8,8.3c0,1.7-0.1,3.4-0.1,5c-2.2-1.9-6.2,0.2-6,3c-1.5,0.2-3-0.8-3.4-2.2c-1.7,0.8-3.7,1.1-5.6,0.7
				c-1.5,1.2,0.5,3.4,0.6,5.2c0.1,2.9-3.8,3.7-6.6,3.7c-2.9,0-6.7,1.8-5.7,4.5c-1.9,0.2-3.7,0.5-5.5,0.8c-1,4.8-5.6,6.8-8.6,10.2
				c-3.6,4.2-8.7,7-12.1,11.4c-0.9,1.2-1.7,2.6-2.8,3.8c-1.1,1.2-2.5,2.4-2.8,4c-0.4,1.6,1.2,3.6,2.7,2.9c1,1.1-1.2,2.1-2.5,2.8
				c-1.6,0.8-2.2,2.6-3.2,4.1s-2.7,2.9-4.3,2.1c0.4,2.2,0.1,4.8-1.7,6.1c-1.8,1.3-5.1,0.3-5-1.9c-2.9-0.7-6.1,1.1-7,3.9
				c1.6-1.9,5.1,0.7,4.3,3.1c-0.7,2.4-3.8,3.3-6.2,2.7c-0.7,1.4-1.4,2.7-2.2,4c-2.5,0-5,0.1-7.5,0.1c-0.1,1.9-2.2,3.5-4.1,3
				c-0.2,1.5-0.5,3-0.7,4.5c-2.1-0.1-4.1-1.1-5.6-2.6c0.3-1.8-0.3-3.6-0.9-5.4c-0.6-1.8-1-4,0-5.7c1-1.7,4-2,4.7-0.2
				c0.9-1.2,2.3-1.9,3.7-1.9c-0.3-1.8-0.2-3.9,1.2-5.1c1.4-1.2,4.1-0.6,4.2,1.2c2.8-2.1,5.5-4.2,8.2-6.3c0.5-0.4,1-0.8,1.2-1.4
				c0.6-1.6-1.4-2.9-2.9-3.7c-1.5-0.8-2.8-3.2-1.3-4c1.8-1.4,3.5-2.8,5.2-4.1c-0.1-1-0.2-1.9-0.4-2.9c0.7-0.6,1.4-1.3,2.1-1.9
				c-3.3,1.5-6.7,2.9-10.3,2.6c-3.6-0.4-7.1-3.4-6.7-6.9c-2.2-2.1-6.5,2.3-8.7,0.1c-1.8-1.7,0.7-4.5,2.9-5.5c2.2-1,5.1-2.8,4.3-5.1
				c0.8,1.1,2.2,1.8,3.6,1.8c0.2-1,0.1-2.1-0.4-3.1c-3.3-0.4-4.8-4.8-3.5-7.8c1.3-3,4.4-4.9,7.2-6.6c2.9-1.6,5.9-3.4,7.4-6.4
				c0.8-1.6,1-3.5,1.5-5.2c1-3.9,3.2-7.5,6.2-10.1c-0.4-2.7,0.3-5.5,2-7.5c0.7-0.9,1.6-1.8,1.4-2.9c-0.1-0.7-0.7-1.2-0.7-1.9
				c0-1.1,1.4-1.6,2.2-2.3c1.5-1.4,1-4-0.5-5.4c-1.5-1.4-3.5-1.9-5.5-2.3c0.1-1.9-0.4-3.8-1.3-5.4c-3.8-1.2-7.6-2.3-11.4-3.5
				c-0.7-0.2-1.4-0.4-1.9-0.9c-0.5-0.4-0.8-1-1-1.6c-0.8-1.7-1.6-3.4-2.3-5c-0.1-0.3-0.2-0.6-0.4-0.9c0.1,0.3,0.3,0.6,0.4,0.9
				c0.9,2.8-1.6,6.2-4.6,7.1c-3.4,0.9-6.9-0.3-10.2-1.5c-1.5-0.5-3-1.1-4.4-1.6c-1.9,0.1-3.7,1.2-4.6,2.8c-1.4-1.4-3.9-0.9-5.3,0.5
				c-1.4,1.4-2,3.4-2.6,5.2c-1.4,0-2.9,0-4.3,0.1c-0.2,1.3-0.4,2.5-0.7,3.8c1.3,0.6,2.6,1.1,3.9,1.7c-1.1,3-4.5,5-7.7,4.5
				c0,2.8-0.9,5.7-2.5,8.1c-0.2,0.2-4.6,5.2-2.7,5.4c-1.7,0-3.2,1.5-3.2,3.2c0,1-0.2,2.6-1.1,2.2c1.2,0.7,1.9,2.2,1.7,3.6
				c-0.9-0.6-2.2,0.3-2.5,1.3c-0.4,1-0.2,2.1-0.4,3.2c-0.5,2.7-2.8,4.5-5,6.1c-8.3,5.9-16.5,11.8-24.8,17.7c-3.8,1-7.4,3.3-9.9,6.3
				c0.4,1.9,0.4,3.8,0.2,5.6c-2.9-0.1-5.7,2-6.5,4.8c-0.5,1.8-0.2,3.6-0.6,5.4c-0.4,1.8-1.7,3.7-3.6,3.5c1.2,0.1,1.8,1.5,1.8,2.6
				c0,1.2-0.4,2.4-0.2,3.5c0.1,0.8,0.6,1.4,0.8,2.1c0.6,2.2-0.8,4.5-2.1,6.5c-3.3,4.8-6.6,9.7-9.9,14.5c-1,0.4-2.1,0.1-2.9-0.6
				c0.3-1.3,0.5-2.5,0.8-3.8c-1.4-0.9-2.3,1.7-3.5,2.9c-1.8,1.7-4.7-0.1-7.2-0.2c-3.1-0.1-5.3,2.7-7.3,5c-2.8,3.4-7.9,6.7-11.2,3.8
				c0.3-5-6-8.4-10.9-7.2c-4.9,1.2-8.6,5.2-11.9,9c0.5,2.4,1.1,4.8,1.6,7.2c-6.1,7-7.5,17.8-3.3,26.1c3.1,6.2,8.8,10.7,14.6,14.5
				c3.6,2.3,7.5,4.6,11.8,5.1c7,0.8,14.8-2.7,20.6,1.2c3.3-4.2,8.5-6.9,13.9-7.1c0.2,1.6-0.1,5.7,1.4,6.6c1.1,0.7,3.6-0.8,4.5,0.2
				c1.5,1.8,3.2,4.3,3.6,6.7c0.4,2.1,1.3,4.1,2.3,6c0.2,0.4,0.3,0.7,0.6,1c0.2,0.2,0.3,0.4,0.5,0.6c1.1,1.2,1.9,3.4,1.8,5
				c-0.2,2.2-2.3,3.5-2.7,5.3c-1,4.7-1,9.6,0.1,14.3c0.5,2,1.2,4.1,2.5,5.7c1.3,1.5,3.2,2.4,5,3.1c7.4,2.7,15.6,1.7,23.4,0.3
				c2.8-0.5,5.8-1.1,8.2-2.7c2.4-1.6,4.3-4.4,3.9-7.2c-0.1-0.8-0.4-1.7-0.4-2.5c-0.3-3.8,3.5-6.3,6.6-8.5c3.2-2.3,6.1-5.2,8.5-8.5
				c1-1.3,1.9-2.8,1.8-4.5c-0.1-1.6-1.8-3.2-3.4-2.6c1.6-0.7,3.3-1.3,4.9-2.1c3.4-1.6,6.6-3.5,9.5-5.8c2-1.5,3.9-3.2,6.2-4.2
				c4.9-2,10.5,0,15.4,1.9c1.8,0.7,3.7,1.5,5,2.9c1.3,1.5,1.8,3.8,0.5,5.3c4,0.3,8-0.4,11.6-2c-0.9-1.1,0.4-3,1.7-2.6
				c-0.7,1.8-0.2,3.9,0.9,5.4c0.6,0.8,1.5,1.2,2.1,2c0.5,0.5,0.8,1.8,1.3,2.2c0.5,0.3,1.1,0.3,1.6,0.3c1,0,1.9,0,2.9-0.1
				c0.1,0,0.3,0,0.4-0.1c0.1-0.1,0.1-0.3,0.1-0.4c0-0.5,0-1.1,0-1.6c0-0.2,0-0.4,0.1-0.5c0.1-0.1,0.3-0.2,0.4-0.2
				c2.4-0.6,4.8-0.5,7.2-1c2.9-0.6,5.9-0.4,8.8-0.1c-0.2-0.9,0.2-1.8,0.6-2.7c1.1-2.3,2.5-4.9,5-5.5c1.6-0.4,3.7,1.1,3.8,2.7
				c0.1,0.7-1.6,4.1,0.7,3.9c1.3-0.1,2.5-0.9,3.1-2.1c0.8,0.6,1.6,1.3,2.4,1.9c1.8-0.3,3.6-1,5.3-1.2c1.9-0.2,3.6,0.9,5.5,0.9
				c1.3,0,2.6-0.6,3.3-1.6c0.1-0.2,0.2-0.4,0.4-0.6c1.5-1.5,7,1,4.8,2.9c-0.6,0.5-1.4,0.4-2.1,0.5c-1.9,0.5-2.7,3-2,4.9
				c0.7,1.8,2.3,3.2,3.9,4.3c-1.3,1-2.1,2.5-2.4,4.1c-1.6-0.9-3.9-0.3-4.8,1.3c-0.9,1.6-0.2,3.9,1.3,4.7c0.6,0.4,1.4,0.5,2,0.8
				c1.9,0.9,2.9,3.2,2.4,5.1c-0.5,2-2.6,3.4-4.6,3.2c0.7,1.2,0.8,2.7,0.2,4c-1.9,0.6-3.8,1.2-5.6,1.8c-1.5,0.5-3.2,0.9-4.6,0.3
				c-1.5-0.6-2.2-2.9-0.8-3.8c1.2,0.3,2.6,0.1,3.7-0.5c-2.6,0-5.1-2-5.7-4.6c-0.8,3-2.8,5.6-5.4,7.1c-0.6-2.7-2.9-4.9-5.7-5.3
				c2,1.8-0.3,5.1-2.7,6.4c-2.4,1.3-5.5,2.9-5.2,5.6c-2,0.2-3.9,0.5-5.9,0.7c1.5,1,2.1,3.1,1.5,4.8c-2.6-1.3-5.2-2.5-7.8-3.8
				c1.4,0.7,1.5,2.7,0.8,4.2c-0.7,1.4-1.9,2.5-2.6,3.9c-5.2,1.3-10.1,4.3-13.7,8.3c-1.2,1.7-3.6,1.8-5.5,1.3s-3.8-1.4-5.8-1.5
				c-0.1,0-0.3,0-0.4,0c-1.9,0.2-3.9,1.6-3.7,3.5c0.1,0.7,0.5,1.3,1.1,1.6c1.8,0.6,2.5-2.2,2.3-4.1c0,0,0.1,0,0.1,0
				c1,0.2,2.1,0.4,3.1,0.6c4.3,3.1,5,10.1,1.4,14c-2-0.8-3.5-2.6-3.9-4.7c-2.1,1.1-3.8,2.8-5,4.8c0.7,1.5,1.4,3.1,2.1,4.6
				c-0.9-0.1-1.9-0.1-2.8-0.2c1.2,3.7,2.8,7.3,4.5,10.8c-5.5,2.6-11,5.3-16.5,7.9c-0.4,0.2-0.8,0.4-1.3,0.4c-0.1,0-0.2,0-0.2,0
				c-1.5-0.2-1.9-2.5-1.4-4c0.6-1.6,1.6-3.2,1.1-4.8c-3.5,0.4-7.1,0.8-10.6,1.2c0.1,2.1,0.1,4.1,0.2,6.2c2.5-0.3,4.9,2.1,4.6,4.6
				c1.9-0.5,3.8-0.6,5.8-0.3c0.2,0,0.4,0,0.6,0.1c-1.7,4-5.4,7.1-9.7,8c-1.7,1.4-1.8,4-2.2,6.2c-0.3,2.2-1.5,4.8-3.8,5
				c0.1,2.4,0,4.7-0.3,7.1c-1.5,0.4-3.2-1-3.1-2.6c-0.8,1.6-1.3,3.3-1.3,5.1c-1.3,0.4-3.2-0.8-3.2-2.2c-3.9,0.5-4.8,6-5.1,9.2
				c-0.3,3.8-1.3,8.5-5,9.3c-0.5,0.1-1.1,0.2-1.6,0.5c-1.4,1.1-0.7,3.8-0.4,5.2c0.5,2,0.4,3.8,0.4,5.8c0,0.9-0.2,2.1-1.1,2.5
				c-0.4,0.2-0.9,0.1-1.3,0.1c-2-0.1-4.1,1.3-4.8,3.2c-1,2.7,0.4,5.6,0.4,8.5c0,1.1-0.2,2.2-0.1,3.4c0.1,1.1,0.5,2.3,1.5,2.9
				c0.2,0.1,0.4,0.2,0.6,0.4c1,1.5-2,2.4,1.1,3.6c2,0.8,3.9-0.5,5.6-1.7c1.4-1.3,3.8-0.5,5.1,1c1.3,1.5,1.9,3.4,3.1,4.9
				c1.5,1.9,3.7,2.9,5.9,3.8c1.1,0.5,2.4,1.1,3.6,1.3c1.2,0.3,2.5,0.1,3.7,0.6c1.3,0.5,2.3,1.6,3.6,2c2.7,0.7,5.6-1.9,8.2-0.9
				c0.5,0.2,1,0.5,1.4,0.8c1.7,1.2,3.7,3.2,5.6,4c2,0.9,4.2,0.3,6.2,1.5c1.9,1.2,3,3.2,4,5.2c2.3,4.6,4.5,9.2,6.4,14
				c1.6,3.8,2.6,8.5,5.9,11.2c1,0.8,2.1,1.6,2.7,2.8c0.5,1.2,0.1,2.9-1.1,3.3c2.3,3,4.6,5.9,7.4,8.4c1.4,1.2,2.9,2.3,3.6,4
				c0.8,1.7,0.6,3.6,1.3,5.3c0.7,1.7,3.1,2.9,4.3,1.6c0,1.9,0,3.7,0,5.6c2.3-0.9,4.9,2.1,3.8,4.3c0.7,0.2,1.3,0.4,2,0.6
				c-0.6,1.4,0.3,3.3,1.8,3.7c0.6,0.1,1.2,0.1,1.6,0.4c0.5,0.3,0.7,0.9,0.8,1.4c1.2,3.9,2.9,7,1.4,11c-0.5,1.4,0.3,2.9,0.6,4.3
				c0.4,1.4-0.1,3.5-1.6,3.5c1,2.9,4.5,3.9,7.5,4.5c2.2,0.5,4.5,0.9,6.7,1.4c0.6,0.1,1.4,0.2,1.7-0.4c0,0.9,0,1.9,0,2.8
				c3.4-0.4,6.8,0,10,1c2.7,0.9,5.4,2.5,6.6,5.1c1.3,2.9,0.3,6.3-0.7,9.3c1,0.4,1.9,0.7,2.9,1.1c0.2,1,0.2,2.1-0.2,3.1
				c6.5-1.1,13.4,0.6,18.6,4.5c5.2,4,8.8,10.1,9.5,16.6c-5.4,2.8-11.9,0.2-17.4-2.2c-5.6-2.4-12.3-4.6-17.3-1.2
				c5.2,0.6,10.6,1.3,15.4,3.6c-1.2,0.5-0.6,2.3,0.6,2.9c1.1,0.6,2.5,0.5,3.4,1.4c0.4,0.4,0.7,0.9,1.2,1.3c0.8,0.7,2,0.7,3.1,0.7
				c3.6,0,7.1,0.6,10.5,1.6c0.6,0.2,1.3,0.4,1.7,0.9c0.5,0.5,0.7,1.1,0.7,1.7c0.1,1.1-0.4,2.4-0.9,3.4c-5.1-0.5-10.1-1.2-15.1-2.2
				c-4.8-1-9.6-2.2-13.6-5.1c-2.9-2.1-5.3-4.9-7.4-7.9c-2.1,0.9-4.4-1.9-6.6-1.3c-1.2,0.3-2,1.6-3.2,2c-1.9,0.6-3.6-1.3-4.8-2.8
				c-3.1-3.7-7.1-6.5-11.6-8.3c-4.6-1.8-10.1-2.4-14.2,0.4c-0.8,0.5-1.5,1.2-2.2,1.9c-16-3.4-32.4-4.7-48.8-3.8
				c-5.1,0.3-10.3,0.8-15.1,2.5c-13.5,4.8-22,17.8-29.4,30c-27.4,44.7-50.4,91.6-89.9,127.5c-2.9,2.6-5.9,5.2-9.5,6.8
				c-6.9,2.9-14.8,1.5-21.8-0.8c-13-4.2-25-11.2-35-20.5c-11-10.2-22.9-24.3-37.6-21.1c-17.2,3.9-19.8,26.9-30.1,41.3
				c-11.1,15.5-32.7,20.5-51.4,17c-18.7-3.6-35.2-14.2-50.9-25s-31.3-22.3-49.5-28.1c-36.7-11.6-78.1,2-114.4-10.7c0,0,0,0.1,0,0.1
				c-1.7-1.7-4-2.7-6.1-3.8c-2.3-1.3-4.7-2.5-7.1-3.7c-8.8-4.6-17.7-8.9-26.6-13.2c-9-4.2-18-8.2-27.1-12.1
				c-9.1-3.8-18.2-7.5-27.5-10.9c-13.4-5-27.1-9.7-40.2-15.5c-22.1-9.9-42.6-23.1-63-36.3c-14.4-9.3-28.8-18.6-43.2-27.9
				c-8.4-5.5-17.2-11.2-22.5-19.8c-4.2-6.8-5.9-14.9-7.3-22.9C1413.1,1344.3,1410.9,1330.7,1409,1317.1z"/>
			<path class="st1" d="M1782.5,2141.2c-0.7-0.1-1.3-0.2-2-0.2c0.2-2.5,0-5-0.5-7.4c-1.5,0.1-2.9,0.2-4.4,0.3
				c-1.2-9-0.2-18.3,2.7-27c0.5-1.6,1.1-3.1,2.2-4.3c1.6-1.8,4.1-2.7,6.5-2.4c0.5-1.8,0.3-3.8-0.4-5.5c-2.9,0.8-5.9,1.5-8.9,1.1
				c-3-0.4-6-2.3-6.7-5.3c-1.9-1.9-3.8-3.8-5.7-5.8c0.7-1.2,0.7-2.8,0-4.1c-2.2-0.4-3.2,3-2.1,5c1.1,2,3.1,3.6,3.4,5.8
				c0.5,3.2-2.9,5.8-6.1,6.4c-3.2,0.6-6.6,0.2-9.6,1.2c-2.9,1-5.3,3.4-8.3,3.9c-3,0.6-6.9-2.4-5.3-5.1c1.4-2.3,6.1-3.7,4.4-5.8
				c-6.4-1.7-12.9-3.3-19.3-5c-0.2-0.1-0.5-0.1-0.7-0.2c-3.1-0.8-6.4-1.7-8.8-3.8c-2.4-2.2-3.6-6-1.8-8.7c-2,0.8-4,1.7-6,2.5
				c1.8,2.5,3.6,5.1,4.3,8.1c0.7,3,0.2,6.5-2.2,8.5c-2.4,2-6.6,1.5-7.9-1.3c-0.7-1.6-0.4-3.4-0.8-5c-0.5-1.6-2.6-3-3.8-1.8
				c2.5,4.6,0.2,11.2-4.7,13.1c1.2-2.2,1.6-4.8,1.3-7.3c-3.7,2-7.4,3.9-11.1,5.9c1.2,0.8,2.4,1.5,3.6,2.2c-2,1.6-4.2,3.2-6.8,3.5
				c-2.6,0.3-5.5-1.4-5.5-4c-1.8,0-3.6,0.1-5.5,0.1c1.4,1.7,0.7,4.5-1.1,5.9c-1.7,1.4-4.1,1.8-6.2,2.1c0.2,1.7-0.2,3.4-1,4.9
				c-1.9-0.6-3.7-1.3-5.6-2c0,1.8-0.7,3.6-2,4.8c-2.1-1.8-6.2-3.2-6.9-0.5c-0.2,0.7,0,1.5,0.2,2.2c0.9,3,1.7,6.1,2.6,9.1
				c-2.2,3.7-6.7,5.7-10.9,4.9c-0.3,1.4-0.5,2.8-0.8,4.2c-2.5-0.5-4.9-1.1-7.4-1.6c1.8-1.1,2.9-3.3,2.7-5.4c-1.9-0.3-4,0.2-5.6,1.3
				c1.4,0.5,1.1,2.2,0,3.3c-0.6,0.6-1.3,1-2.1,1c-1.1,0-2.2-0.4-3.2-0.9c-1-0.5-2.1-1-3.2-1.2c-2.2-0.4-5,2-3.5,3.7
				c2,0.7,4.4,0.2,6-1.3c0.5,3.3,4.6,4.5,7.5,6.1c2.9,1.7,4.5,6.9,1.3,7.7c-3.1-2.5-6.8-4.3-10.6-5.2c-1.6-2.6-4.4-4.4-7.4-4.9
				c-0.6,3.8,0.9,7.9,3.7,10.5c-1.9,1.1-3.8,2.2-5.6,3.3l-1.1-1.8c-5.7-3.9-14-7.7-18.7-12.7c-5-5.2-7.6-15-10.7-21.6
				c-7.4-15.9-14.8-31.8-22.3-47.7c-6.8-14.5-13.6-29.1-17.9-44.5c-2.5-9-4.2-18.1-5.2-27.2c-2.6-23.8-1-48.2,0.6-72.2
				c0.8-12.1,1.7-24.3,4.8-36c3.4-12.8,9.3-24.8,15.5-36.5c7-13.2,14.3-26.2,22.8-38.4c15.6-22.5,35.1-42.1,57.4-58
				c10.5-7.5,22.3-15.7,34.1-21c13.8-6.2,27.2-9.2,39.7-18.7c3.5-2.7,7-5.7,9.1-9.7c2.2-4.1,2.7-8.8,3.1-13.4
				c0.8-9.3,1.2-18.7,1-28.1c-0.2-12.8-1.5-26.6-9.6-36.5c-7.3-9-19.2-13.9-25-23.9c-4.6-7.9-4.6-17.6-4.2-26.8
				c0.8-17.1,1.4-36.1,5.7-52.6c0,0,0-0.1,0-0.1c36.3,12.8,77.7-0.8,114.4,10.7c18.2,5.7,33.9,17.2,49.5,28.1s32.2,21.5,50.9,25
				c18.7,3.6,40.3-1.5,51.4-17c10.3-14.3,12.9-37.4,30.1-41.3c14.7-3.3,26.6,10.8,37.6,21.1c10,9.3,22,16.3,35,20.5
				c7.1,2.3,15,3.7,21.8,0.8c3.6-1.5,6.6-4.1,9.5-6.8c39.5-35.9,62.5-82.7,89.9-127.5c7.5-12.2,16-25.2,29.4-30
				c4.8-1.7,10-2.2,15.1-2.5c16.3-0.9,32.8,0.4,48.8,3.8c-0.8,0.9-1.5,1.8-2.3,2.7c-1.9,2.5-3.8,4.9-5.8,7.4
				c3.3-0.6,6.5-1.9,9.2-3.9c1-0.7,2-1.8,1.8-3c0.7-1.1,1.9-1.6,3.2-1.8c1.9,0.4,3.7,0.9,5.5,1.5c3.1,0.9,6.2,1.8,8.8,3.7
				c0.5,1.4,0.6,2.9,0.3,4.4c0.8,3,4.8,4.6,7.4,2.9c0.3-0.2,0.5-0.4,0.8-0.5c1.6,0.8,3.3,1.2,5.1,0.5c2.8,0.8,5.6,1.7,8.3,2.5
				c4,3.7,8,7.4,12.7,10.3c3.9,2.4,8.2,4.1,12.7,5.1c0.7,0.2,1.5,0.3,2.1,0.7c0.6,0.3,1,0.8,1.5,1.3c5.7,6.2,12.8,12.5,14.7,21.1
				c0.3,1.2,0.3,2.8-0.6,3.6c-0.7,0.6-1.8,0.6-2.7,0.6c-3.9-0.1-7.9,0-11.6,1.2c-3.7,1.2-7.2,3.9-8.5,7.6c-0.4,1-0.6,2.2-1.2,3.1
				c-1.4,1.9-4.1,2-6.2,3.1c-2.2,1.1-3.7,3.5-3.8,5.9c-2.2,0.3-4.4,0.6-6.6,0.9c-1.4,2.1-1.6,4.7-1.7,7.2c-0.1,2.5-0.2,5.1-1.6,7.2
				c-1.3,2.1-4.3,3.4-6.4,2.1c-0.8-0.5-1.4-1.3-2.2-1.8c-0.9-0.5-2-0.4-3-0.4c-5.4,0.2-11.8,0.9-14.7,5.5c-1.3,2.1-3.1,5.3-5.2,4.1
				c0.9,1.4,1.9,2.9,3.4,3.7c1.5,0.8,3.7,0.5,4.4-1.1c0.4-0.9,0.2-2,0.6-2.9c0.9-2.6,4.9-2.4,7-0.7c2.1,1.7,3.4,4.4,5.8,5.9
				c5,3.3,11.7-0.4,15.9-4.6c4.3-4.2,8.5-9.5,14.5-9.9c4.8-0.3,9.1,2.8,12.9,5.7c4.6,3.5,9.2,7,13.8,10.5c0.6-2.1,3.6-1.8,5.8-1.3
				c4.5,1.2,9.2,1.5,13.8,0.9c0.2,2-1.5,3.8-3.3,4.7c-1.8,1-3.9,1.5-5.4,2.9c-1.2,1.1-1.9,2.6-2.6,4.1c-1.3,2.7-2.5,5.4-3.8,8.2
				c3-0.2,6-1.4,8.3-3.4c1.8-0.1,2.8,2,2.9,3.8c0.1,1.8-0.2,3.7,0.7,5.2c0.5,0.8,1.4,1.6,1.2,2.6c-0.1,0.6-0.6,1-1,1.5
				c-1.7,1.9-1.5,5.2,0.4,7c0.6,0.6,1.4,1,1.9,1.6c1.4,1.9,0,4.4-1.4,6.3c0.5,0.2,0.9,0.4,1.4,0.7l-1.6,2.4c0,0,0,0.1,0,0.1
				c0,1.2-1.4,2.1-2.6,2c-1.3-0.1-2.4-0.9-3.4-1.6c1.9-4,0.9-9.1-2.3-12.1c0.7,2.1,0.9,4.5,0.1,6.6c-0.8,2.1-3,3.7-5.2,3.4
				c-0.5-0.1-1-0.2-1.3-0.6c-0.6-0.6-0.5-1.6-0.9-2.3c-0.8-1.3-3.1-0.8-3.8,0.6c-0.7,1.4-0.5,3-0.2,4.6c-1.4,0.2-2.8,0.5-4.1,0.7
				c2.5,4.4,11.2,2,12.9,6.8c0.3,0.7,0.3,1.5,0.3,2.3c1.6-0.2,3.1,1.2,3.2,2.8c-1.8-0.1-3.6-0.1-5.4,0.1c-2.3,0.2-4.5,0.7-6.7,1.3
				c-0.7,1.7,1.9,2.8,3.6,2.4c1.1-0.3,2.2-0.8,3.3-0.9c0.7-0.1,1.3,0,1.9,0.3c0.1,2.8,1.4,5.2,0.3,8c-0.6,1.5-3.9,5.8-6.1,4.9
				c3.3,1.4,0.9,7.9,4.3,9.3c0.5,0.2,1.1,0.3,1.6,0.5c2.1,1.1,1,4.6,2.5,6.3c0.6,0.7,1.6,1.1,2.4,1.7c2.2,1.7,1.4,5.8-1.2,6.7
				c-1-1.4-2.1-2.8-3.6-3.5s-3.7-0.5-4.5,1c-0.5,2.4-0.9,4.9-1.4,7.3c-0.2,1-0.4,2.1-1.3,2.7c-1.9,1.4-4.3-1.1-5.3-3.3
				c-0.9-1.9-1.7-3.9-2.5-5.8c-1.4-0.1-2.8-0.5-3.9-1.3c-1.2,2.3-3.4,4.2-5.9,4.9c1.6,0.1,3.2,0.3,4.7,0.5c1.1,2-0.2,4.6-1.8,6.3
				c-1.5,1.8-3.3,3.7-3.2,6c0.1,1.4,1,2.8,0.7,4.2c-0.3,1.5-1.6,2.2-3,2.4c-1.1,0.2-3.2,0.4-4.2,0.2c-0.8-0.1-1.4-0.6-2.1-0.9
				c-1.9-0.9-4.2-0.7-5.8,0.6c0.4,0,0.4,0.7,0.5,1.1c0.2,0.6,1.1,0.6,1.7,0.3s1.1-0.7,1.8-0.7c0.8,0.1,1.3,0.9,2,1.1
				c0.8,0.2,1.8-0.3,2.4,0.2c0.2,0.2,0.3,0.4,0.4,0.6c0.3,0.8,0.3,1.8,0.3,2.7c0,0.7,0,1.4-0.3,2.1c-0.2,0.4-0.4,0.7-0.7,1
				c-0.5,0.7-1.1,1.4-1.6,2.1c-0.8,1-1.7,2.2-1.9,3.4c-0.2,0.9,0.3,2-0.3,2.7c-0.9,0.9-3.6,0.9-4.6,0.2c0.6,0.5,0.4,1.4,0.4,2.2
				c0.1,1.2,1,2.1,1.5,3.2c0.5,1.1,0.3,2.8-0.9,2.9c-0.5,0.1-1-0.2-1.5,0.1c-0.3,0.1-0.4,0.4-0.5,0.7c-0.6,1.9,0,4.2,1.6,5.4
				c1-0.9,2.8-0.4,3.2,0.9c0.2,0.6,0.1,1.3-0.1,1.9c-0.3,1.3-0.6,2.7-0.9,4.1c-0.1,0.2-0.1,0.5-0.3,0.7c-0.2,0.2-0.5,0.1-0.8,0.1
				c-1.2-0.2-2.5-0.3-3.7-0.5c0.8,0.8,0.5,2.4-0.5,3c-0.2,0.1-0.3,0.1-0.4,0.2c0.2,0,0.3-0.1,0.4-0.2c0.5-0.1,1.1-0.1,1.5,0.1
				c0.1,2.1,0.2,4.3,0.3,6.4c0,0.5,0,1.1-0.2,1.5c-0.4,0.7-1.3,0.9-2.2,1.1c-1.5,0.3-3.2,0.5-4.4-0.4c-0.4-0.3-0.8-0.7-1.2-1.1
				c-0.8-0.6-1.8-0.9-2.8-1.3c-0.9-0.4-1.7-0.9-2-1.8c-0.2-0.6-0.3-1.4-0.9-1.5c-0.4,0-0.7,0.3-0.9,0.5c-0.8,0.9-1.6,1.8-2.3,2.6
				c-0.6,0.7-1.2,1.4-1.4,2.3c-0.1,0.9,0.6,2,1.5,1.9c0.6-1.3,1.4-2.8,2.8-3.3c1-0.2,2.1-0.2,3,0.1c0.9,0.2,1.7,0.7,2.4,1.2
				c0.7,0.6,1.3,1.3,1.8,2.1c0.9,1.3,1.7,2.9,1.3,4.5c-0.3,1.3-1.6,2.4-3,2.5c-1.4,0.1-2.8-0.8-3.3-2.1c-0.1,1.1-0.1,2.2-0.1,3.3
				c0,0.2,0,0.5,0,0.7c-0.1,2.7-0.2,5.4-0.8,8c-0.1,0.6-0.4,1.3-0.9,1.6c-1.3,0.6-3.2-1.2-4,0c-0.2,0.3-0.2,0.8-0.4,1.2
				c-0.6,1.1-2.3,0.4-3.4,0.9c-1,0.5-1.1,2.3-0.1,2.8c0.9,0.5,2,0,3-0.2s2.4,0.2,2.4,1.3c-0.1,0.7-0.8,1.1-1.4,1.1
				c-0.1,0-0.1,0-0.2,0c-0.6,0-1.1-0.2-1.7-0.3c-1-0.2-2.3-0.1-2.9,0.7c-0.7,0.8-0.1,2.4,1,2.3c0.3,0,0.5-0.2,0.8-0.3
				c0.9-0.4,1.9-0.6,2.8-0.6c0.6,0,1.3,0.1,1.9,0.4c0.2,0.1,0.5,0.2,0.6,0.4c0.1,0.2,0.1,0.4,0.1,0.6c-0.1,1.2-0.3,2.6-0.2,3.8
				c0.1,0.5,0.6,1.5,0.4,1.9c-0.6,1-6.2,2-7.4,2.4c-1.2,1.9-2.3,3.7-3.5,5.6c-0.6,0.9-2,0.6-2.8-0.3c-0.3-0.3-0.5-0.7-0.6-1
				c-0.4-1.5,0.2-3.1-0.1-4.6c-0.4-2.7-3.7-4.6-6.3-3.5c-1,0.4-1.9,1.2-3,1.3c-2.9,0.2-5.6-4.5-7.7-2.6c2.6,2,3.8,5.7,2.8,8.8
				c3.7-2.8,9.6-1.3,12.2,2.4c0.6,0.8,0.9,1.7,1.1,2.7c0.1,0.6,0.2,1.2-0.1,1.7c-0.4,0.7-1,0.9-1.7,0.9c-1.4,0-3.2-0.7-4.5,0
				c-1.4,0.7-1.6,2.7-0.8,4c0.8,1.3,2.2,2.1,3.6,2.8c0.5-2,1.2-4.2,2.8-5.4c0.1-0.1,0.2-0.2,0.3-0.2c1.8-1.2,5.1-0.1,4.8,2.1
				c1.2-0.2,2.4-0.4,3.6-0.7c0.4,1.5-1.2,2.8-2.7,3.4c-1.5,0.6-3.2,1-4,2.3c-0.4,0.6-0.5,1.3-1,1.8c-0.6,0.5-1.4,0.6-2.2,0.7
				c-3.4,0.7-5.8,4.4-5.1,7.8c0.2,0.9,0.6,1.9,0.4,2.8c-0.1,0.6-0.5,1.1-0.6,1.6c-0.3,2.8,5,1.9,6.5,4.3c-1.3,4-3.5,7.6-6.2,10.8
				c2.3,1.2,3.5,4.2,2.6,6.6c-0.9,2.4-3.8,3.9-6.3,3.3c0.7,1.5,1.5,3.1,2.2,4.6c0.7-1.4,2.6-1.9,4.1-1.4s2.5,1.8,3.4,3.2
				c1.5,2.4,2.3,5.2,2.7,8c0.1,0.6,0.1,1.3-0.2,1.8c-0.3,0.5-0.9,0.7-1.5,0.8c-1.8,0.6-3.7,1.1-5.4,0.4s-2.6-3.3-1.1-4.4
				c-2.4,0.2-4.3-1.8-6.6-2.7c-2.2-0.9-5.8,0.6-4.8,2.8c1.3,0.1,2.2,1.7,1.6,2.8c-1.7,0.3-3.6-1-3.9-2.8c-2.4,0.7-5,1.8-5.7,4.2
				c-0.8,2.3,2.2,5.3,4.1,3.6c-0.1,1-0.3,2-0.4,3c0.3,1,1.8,0,2.5-0.8c1.4-1.5,4.2-1.7,5.4,0c1.2,1.7-0.3,4.6-2.3,4.2
				c0.5,0.8,1,1.6,1.5,2.3c-2.7,2.3-7.3,2-9.7-0.7c-0.3,2.1-0.6,4.2-0.9,6.2c-0.9,0.7-2.5,0.4-3.1-0.6c-0.6-1-0.1-2.5,1-3
				c-0.9-1.8-4-1.7-4.7,0.2c-1.1-0.7-1.8-1.9-1.8-3.2c-1.3,0.3-2.6,0.6-3.9,0.9c2.1,1.1,4.2,2.6,4.8,4.8c0.6,2.3-1.6,5.1-3.8,4.2
				c-0.3,1.4,1.4,2.4,2.8,2.4s2.8-0.6,4.2-0.3c3,0.6,3.4,5.7,0.6,6.8c-0.6-0.6-1.2-1.1-1.8-1.7c-1.2,0-2.2,1.2-2,2.3
				c1.3-0.4,2.8,0.4,3.4,1.7c-3.9,0.2-8.1,0.5-11.2,2.9c-0.5,0.4-1.1,1-1.7,1.1c-0.1,0-0.3,0-0.4,0c-1.8,0-2.6-2.6-2.7-4.5
				c-0.6,1.5-1.2,3.1-1.8,4.6c-0.4,1.1-0.8,2.4-0.2,3.3c1.1,1.8,3.9,0.4,5.4-1c1.6,0.2,2.5,2.2,2.3,3.8c-0.3,1.6-1.4,3-2.4,4.2
				c-1-0.8-2.6-0.3-3.1,0.8s0.4,2.6,1.6,2.8c0.5,2.5-1.4,6.2-4.2,6.5c-1.8,0.1-1.3-1-2.5-2.2c-1-1-2.4-1.6-3.7-1.7
				c-2.6-0.1-5.1,1.2-7.5,2.4c-2.6,1.2-5.2,2.2-7.9,3.1c0.7-1.5-0.6-3.6-2.3-3.6c-0.9,0.3-1.1,1.1-1,2l-1.3,0.4
				c-1.6,0.7-3.2,1.5-4.8,2.2c0.9,0.6,1.7,1.2,2.6,1.8c-0.1,1-0.2,2-0.3,3c-3.8,1.1-7.8,1.7-11.8,1.7c-0.1,2.5,2.9,3.9,5.4,3.6
				c2.4-0.3,4.7-1.5,7.1-1.7c0.1,1.1,0.2,2.2,0.3,3.4c1.3-1.7,4.3-0.6,4.9,1.5c0.6,2-0.5,4.2-1.9,5.8c-1.8,2-4.8,3.4-7.2,2.1
				c0.6,3.9,0.1,8-1.6,11.7c-1.6,0.4-3.2,0.6-4.8,0.4c0.6,1.7,0.4,3.7-0.6,5.2c-1.8-0.2-3.3-1.4-4.1-3c0.1-1,0-2.1-0.7-2.8
				c0,1,0.2,2,0.7,2.8c-0.1,0.8-0.4,1.7-0.8,2.5c-0.8,1.7-1.9,3.3-2,5.2c-0.1,1.7,0.8,3.3,0.8,5.1c0.1,1.7-1.3,3.8-2.9,3.3
				c1.4-2.4,1.2-5.6-0.5-7.8c-1.7-2.2-4.8-3.2-7.5-2.4c0.9,1.7,2.2,3.3,3.7,4.5c-1.5,1-2.3,2.9-2.1,4.6c1.8-0.1,3,2,2.6,3.7
				c-0.4,1.5-1.5,2.6-2.9,3.4l-2.7-0.5c-2.6-0.2-3.3-4.6-0.9-5.6c-4.1,0.6-7.1,5.2-5.9,9.2c-3.3-0.1-6.6,2.1-7.8,5.3
				c-2.1-0.8-3.8-2.7-4.3-4.9c-2.6-0.2-5.2,0.2-7.7,1.1c0.1,3.3,0.1,6.7-0.7,9.9c-0.9,3.2-2.9,6.3-6,7.6c-0.9,0.4-1.9,0.6-2.9,0.8
				c-2.4,0.3-5-0.2-7.4-0.7c-1,1.4,1.2,3.2,2.9,2.9c1.6-0.2,3-1.2,4.6-1.5c0.1,0,0.2,0,0.3,0c3.5-0.2,5.7,3.6,7,6.9
				c-2.8-2.2-7.7-0.5-8.4,3c-1-1.6-3.3-2.2-4.9-1.4c1-0.2,1.5,1.3,1.1,2.3c-0.4,1-1.3,1.6-1.7,2.6c-0.7,2,1,3.9,1.4,5.9
				c0.6,3.4-3,6.4-6.5,6.6c-3.5,0.2-6.7-1.7-9.7-3.4c-1.9,3.6-3.3,7.5-4.1,11.5c-2.3,0.8-5.3,1.1-7.8,1.7c-3.7,0.9-9.1,1.4-9.3,5.3
				c-3.1-2.4-6-5-8.7-7.8c-3,1-6.3,1-9.3,0.2c1.4,0.7,2.7,1.3,4.1,2c-0.7,1.8-1.3,3.5-2,5.3c1.3,1,2.7,2,4,2.9
				c-1.5,6-12,6.2-13.8,0.3c-1.6-0.2-3.2-0.8-4.4-1.9c0.7-1.9,0.9-4,0.7-6c-1.7,5-8,6.2-12.5,8.9c-4.6,2.8-7.8,7.9-8.1,13.3
				c-3.3,1.1-7.2-0.3-9-3.2c-1.9-2.9-1.5-7,0.8-9.5c-3.4,0.6-6.6,1.8-9.7,3.4c-1.6,0.8-3.4,2.1-3.4,4c-0.1,1.8,3,3,3.6,1.3
				c0.5,1.7-0.9,3.6-2.6,3.6c0.5,1.8,2.3,3.1,4.1,3.1c1.2,2.9-2.4,6-5.5,5.2c-3-0.8-4.9-3.8-5.7-6.8c-3.4-1-7.3,0.7-9,3.7
				c3.6,1.1,7,2.9,10,5.2c0.1,3.2-3.3,5.9-6.4,5.2c0.4,1.8,0.2,3.7-0.5,5.4c-1.5-0.4-3.1-0.9-4.6-1.3l-2.8-0.5
				c0.2-0.3,0.5-0.5,0.7-0.7c-2.1-1.2-4.1,0-5.8,1.9l-2.5-1.3c-2.4-0.7-4.9-1.4-7.3-2.2c0.7-1.4,1.3-2.8,2-4.1
				c-3.8-5.1-7.7-10.1-11.5-15.2c-6.5-3.7-11.6-9.6-14.3-16.5c-2.8,5.1,1.2,12.5,7,13c-2.3,3.2-6.8,4.6-10.5,3.3
				c5.7,2.6,9.5,8.8,9.3,15c-0.2,3.4,0.6,8.7,3.8,7.6c-2.7,1.9-1.6,6-0.5,9.1c1.1,3.1,1.1,7.7-2.1,8.4c-3.1,0.7-5.1-3.2-5.8-6.3
				c-1.9-0.4-3.7,1.2-4.1,3.1l-2.5-0.4c0.1-0.2,0.2-0.5,0.2-0.7c-2.8,0.9-4.4,4.2-3.5,6.9c-2.4-0.1-4.8-0.2-7.2-0.3
				c-0.8-2.4-1.6-4.8-2.3-7.2c-4,0.4-4.9,5.7-4.5,9.7c0.4,4,0.3,9.1-3.4,10.5c-2.4-0.4-4.1-3.3-3.3-5.6c-6.4,1.4-11.7,6.9-12.8,13.4
				c-5,0.1-10.1-2.2-13.3-6c2.2,3.6,0.2,9.1-3.9,10.3c-4.1,1.2-8.8-2.2-8.9-6.5c-4.3,3.4-11.4,2.2-14.3-2.5c-0.4,2.7,1.4,5.5,4,6.2
				c-1.4,1.8-2.8,3.7-4.2,5.5c2.5,1.2,5.4,1.8,8.2,1.8c-3.1,2.3-6.3,4.5-9.4,6.8c-1.9-2.2-4.6-3.7-7.5-4.2c-2,1.9-3.5,4.4-4.3,7.1
				c-5.3-0.5-10.5-1.1-15.2,2c-1.6,1.1-3.1,2.5-5,3.1c-4.8,1.4-10.1-3.3-14.6-1c-3,1.5-4.1,5.6-7.3,6.6c-2.6,0.8-5.5-0.8-7.9,0.4
				c-1.4,0.7-2.3,2.1-3,3.5c-3.7,7-6.3,14.5-7.7,22.3c-5.2-1.9-11.1-1.7-16.2,0.4c-0.2-1.9-1.3-3.7-2.9-4.8
				c-1.3,2.2-2.7,4.6-2.9,7.2c-0.1,2.6,1.4,5.5,4,6c2.3,0.4,4.5-1.2,6.8-1.2c3,0,5.6,3.1,5.1,6.1c-1.1,1.2-2.8,1.9-4.5,1.6
				c-1,1.8-0.1,4.5,1.8,5.3c1.9,0.8,4.4-0.4,5-2.4c1.5,2.8,3,5.7,4.6,8.5c0.6,1.1,1.2,2.4,1.2,3.7c-0.1,4.4-7.1,6.8-6.1,11
				c-4.4,0.5-8.8,1.1-13.2,1.6c-0.8,0.1-1.7,0.3-2,1c0,0.1-0.1,0.2-0.1,0.3c-4.3-1.9-9.6-1.3-13.4,1.4c-1.4-3.6-2.8-7.1-4.1-10.7
				c2.9-0.9,6.2,0.3,7.9,2.8c-1.1-4.5-5.5-8-10.2-8c0.9-1.3,0.1-3.1-0.9-4.3c-1-1.2-2.4-2.3-2.7-3.9
				C1780.9,2142.8,1781.7,2141.6,1782.5,2141.2z M1782.5,2141.2c0.4,0.1,0.9,0.1,1.3,0.2C1783.5,2141.1,1783,2141,1782.5,2141.2z"/>
			<path class="st1" d="M1719.3,1663.6c0.1,9.4-0.2,18.7-1,28.1c-0.4,4.6-1,9.3-3.1,13.4c-2.1,3.9-5.5,7-9.1,9.7
				c-12.5,9.5-25.8,12.5-39.7,18.7c-11.8,5.3-23.6,13.5-34.1,21c-22.2,15.9-41.8,35.6-57.4,58c-8.5,12.2-15.8,25.2-22.8,38.4
				c-6.2,11.7-12.2,23.7-15.5,36.5c-3.1,11.7-3.9,23.9-4.8,36c-1.6,24-3.2,48.4-0.6,72.2c-14.3-2-28.5-4.7-42.7-7.7
				c-19.4-4.1-38.8-8.6-58-13.7c-19.2-5.1-38.2-10.7-57.1-16.8c-18.8-6.1-37.4-12.7-55.9-19.8c-12.3-4.8-24.6-9.8-36.3-16.1
				c-11.2-6.1-20.8-13-31.1-20.8c-2.4-1.8-4.8-3.6-7.5-4.8c-3-1.3-6.3-1.9-9.3-3.1c-8.1-3.1-13.9-10.3-18.5-17.6
				c-16.7-26.2-23.5-57-28.5-87.2c-5.4-33.1-16.1-64.6-10.8-98.8c10.4-67.8,69.2-120.9,115.9-166.8c12.7-12.5,25.5-25,38-37.8
				c5-5.1,9.9-10.2,14.4-15.8c7.3-9.1,13.4-19.1,18-29.9c3.7-8.6,6.4-17.6,10.7-25.9c5.3-10.5,12.9-19.7,18.1-30.2
				c4.7-9.6,7.3-20.1,9.8-30.5c2.9-11.7,5.7-23.4,8.6-35.1c1.9,13.6,4.2,27.2,6.7,40.7c1.5,7.9,3.1,16,7.3,22.9
				c5.3,8.6,14,14.3,22.5,19.8c14.4,9.3,28.8,18.6,43.2,27.9c20.4,13.2,40.8,26.4,63,36.3c13.1,5.8,26.7,10.5,40.2,15.5
				c9.2,3.5,18.4,7.1,27.5,10.9c9.1,3.8,18.2,7.9,27.1,12.1c9,4.2,17.8,8.6,26.6,13.2c2.4,1.2,4.7,2.5,7.1,3.7
				c2.1,1.1,4.4,2.1,6.1,3.8c-4.3,16.5-4.9,35.5-5.7,52.6c-0.4,9.2-0.4,18.9,4.2,26.8c5.8,10,17.7,14.8,25,23.9
				C1717.7,1637.1,1719.1,1650.8,1719.3,1663.6z"/>
		</g>
		<g>
			<path class="st2" d="M1686.3,1524c-0.1-0.1-0.1-0.1-0.2-0.2c-1.7-1.7-4-2.7-6.1-3.8c-2.3-1.3-4.7-2.5-7.1-3.7
				c-8.8-4.6-17.7-8.9-26.6-13.2c-9-4.2-18-8.2-27.1-12.1c-9.1-3.8-18.2-7.5-27.5-10.9c-13.4-5-27.1-9.7-40.2-15.5
				c-22.1-9.9-42.6-23.1-63-36.3c-14.4-9.3-28.8-18.6-43.2-27.9c-8.4-5.5-17.2-11.2-22.5-19.8c-4.2-6.8-5.9-14.9-7.3-22.9
				c-2.5-13.5-4.7-27.1-6.7-40.7c-1.3-9.1-2.5-18.1-3.5-27.2c-2.7-23.3-1.4-44-11-66.3c-4.1-9.5-9-18.8-13.3-28.2
				c-3.3-7.1-5.2-16-10.4-22c-12.5-14.4-26.8-27.4-42.4-38.4c-13-9.1-27.1-17.2-37.4-29.2c-36.6-42.7-104.1-36-160.1-40.6
				c-12.8-1-25.8-1.6-37.9-5.5c-9.7-3.1-18.5-8.2-26.9-13.9c-13.3-9-25.4-19.7-36.1-31.7c-2.9-3.3-5.7-6.7-7.4-10.8
				c-2-5.1-2-10.7-1.8-16.1c0.6-15.2,2.7-30.7,8.9-44.6c6.2-14,16.8-26.4,30.8-32.4c15.1-6.4,32.2-4.8,48.5-3
				c38.1,4.1,77.3,8.6,110.6,27.4c12.7,7.2,24.2,16.3,36.3,24.5c18.5,12.6,38.4,23,58.6,32.7c39.9,19.2,81.1,35.6,123.3,49.1
				c5.1,1.6,10.4,3.3,14.5,6.8c4.1,3.5,6.8,9.2,5,14.3c-0.9,2.6-2.8,4.7-4.7,6.8c-10.8,12.2-19.5,26.2-25.8,41.2
				c-2,4.8-3.8,10-3.1,15.2c3.7,27.5,49.3,30.1,69.2,31.3c64.3,4.2,131.8,6.3,189.8-21.8c14.7-7.1,28.4-16,42-24.8
				c26.8-17.4,53.6-34.7,80.4-52.1c28.8-18.7,58.3-37.9,79.5-64.9c8.4-10.7,15.4-22.3,23.3-33.3c25.6-35.5,60.4-62.9,97.6-85.5
				c18.9-11.5,38.5-21.8,58.3-31.6c64.1-31.9,135.9-50.5,203.8-73.4c19.8-6.7,39.7-13.4,60.3-16.8c35.4-5.8,72.3-1.2,105.2,12.8
				c13.4,5.8,26.5,13.3,35.6,24.7c7.9,9.8,12.3,21.9,16.6,33.7c5.8,16,11.7,32.1,14,49c1.9,13.5,1.5,27.2,1.1,40.8
				c0,6.9-0.4,13.8-0.6,20.7c-0.2,6.9-0.4,13.9-0.6,20.8c-0.2,6.9-0.4,13.9-0.6,20.8c-0.2,6.9-0.4,13.9-0.6,20.8
				c-0.2,6.9-0.4,13.9-0.6,20.8c-0.1,3.2,0,6.6-0.6,9.8c0,0.2-0.1,0.4-0.1,0.6"/>
			<path class="st2" d="M1531.3,1995.5C1531.2,1995.5,1531.2,1995.5,1531.3,1995.5c-14.4-2-28.6-4.8-42.8-7.7
				c-19.4-4.1-38.8-8.6-58-13.7c-19.2-5.1-38.2-10.7-57.1-16.8c-18.8-6.1-37.4-12.7-55.9-19.8c-12.3-4.8-24.6-9.8-36.3-16.1
				c-11.2-6.1-20.8-13-31.1-20.8c-2.4-1.8-4.8-3.6-7.5-4.8c-3-1.3-6.3-1.9-9.3-3.1c-8.1-3.1-13.9-10.3-18.5-17.6
				c-16.7-26.2-23.5-57-28.5-87.2c-5.4-33.1-16.1-64.6-10.8-98.8c10.4-67.8,69.2-120.9,115.9-166.8c12.7-12.5,25.5-25,38-37.8
				c5-5.1,9.9-10.2,14.4-15.8c7.3-9.1,13.4-19.1,18-29.9c3.7-8.6,6.4-17.6,10.7-25.9c5.3-10.5,12.9-19.7,18.1-30.2
				c4.7-9.6,7.3-20.1,9.8-30.5c2.9-11.7,5.7-23.4,8.6-35.1c0-0.2,0.1-0.4,0.1-0.5"/>
		</g>
	</g>
	<g id="yanqi">
		<path class="st3" d="M737.1,789.4c-7.9-4.7-17.6-6.1-26.7-6.4c-17.2-0.5-33.7,5.8-49.7,12c-6.7,2.6-13.7,5.3-18.6,10.6
			c-4.3,4.5-6.7,10.8-6.7,17.1c0,6.5,3.5,11,6.6,16.4c6.8,11.6,14.7,22.8,25.4,31.1c5.5,4.3,11.6,7.7,17.9,10.6
			c14.2,6.7,30,11.4,45.6,9.3c7-0.9,13.8-3.3,20.5-5.6c14.6-5.1,30.2-11.6,37.5-25.2c3.8-7.1,4.9-15.3,5.8-23.3
			c0.4-3.1,0.7-6.2-0.1-9.2c-1.5-5.6-6.7-9.3-11.5-12.5c-5.8-3.9-11.6-7.8-18-10.4c-3.5-1.4-7.1-2.4-10.5-3.9
			C748.5,797.3,743,792.9,737.1,789.4z"/>
	</g>
	<g id="turfan">
		<g>
			<path class="st4" d="M770,758.1c1.2-1.6,2.7-3,4.2-4.2"/>
			<path class="st5" d="M785.2,749.1c4.2-1,8.6-1.5,12.8-1.9c3.5-0.3,7-0.6,10.5,0c3,0.5,5.9,1.6,8.7,2.8c4.5,1.8,9,3.6,13.5,5.4
				c2.3,0.9,4.7,1.9,6.3,3.7c1.5,1.6,2.3,3.6,3.2,5.5c1.5,3.2,3.5,6.2,5.4,9.2c2.5,3.9,5.1,8,9,10.6c3,2,6.6,3,9.6,5.1
				c5.4,3.8,7.8,10.5,8.9,17c1.3,7.7,1.2,15.8-1.7,23.1c-2.9,7.3-8.7,13.6-16.2,15.8c-3.3,1-6.9,1.2-10.4,1.4
				c-4.6,0.2-9.3,0.5-13.7-0.9c-2.4-0.8-4.7-2-7.1-2.8c-6.3-2-13.6-0.8-19.3-4.2c-2.8-1.6-4.9-4.2-7.1-6.6c-3.1-3.4-6.5-6.4-9.7-9.7
				c-12.3-12.7-20.9-28.9-24.5-46.2c-0.8-3.7-1.3-7.7,0-11.3c0.4-1.1,0.9-2.1,1.6-3"/>
			<path class="st4" d="M769.3,757.7c1.6-1.2,3.3-2.4,4.9-3.4"/>
		</g>
	</g>
	<path id="shanshan" class="st6" d="M833.4,903c3.9-1.7,7.8-3.1,11.8-4.6c4.7-1.7,9.4-3.5,14-5.2c4.2-1.6,8.4-3.1,12.8-4.4
		c2.8-0.8,5.8-1.6,8.7-1.6c7.7-0.1,15,4.7,19,11.4c4,6.6,4.9,14.8,3.6,22.4c-1.3,7.6-4.6,14.8-8.6,21.4c-6.6,10.9-15,20.5-22.4,30.8
		c-24.9,34.6-63.9,53.4-103.7,65.7c-37.1,11.5-75.8,18.2-112,32.2c-12.8,4.9-25.2,10.8-38.3,14.9c-13.1,4.1-26.6,6.4-40.1,8.7
		c-30.4,5.2-61.2,10.4-92,8.2c-11-0.8-24.2-4.4-27-15c-1.9-7.2,1.8-14.6,6.1-20.6c17.4-24.5,44.8-40.2,73.1-50.1
		c28.3-9.9,58.1-14.8,87.2-22.2c44.4-11.3,87.2-28.4,127.1-50.9c13.2-7.4,26-15.4,39.5-22.4c6.7-3.4,13.5-6.6,20.6-9.3
		C819.9,909.7,826.4,906.1,833.4,903z"/>
	<path id="kuqa" class="st6" d="M326.5,809.6c-6.7,3.9-8.2,11.6-9,18.7c-0.9,8.7-1.3,16.9,0.6,25.6c0.4,1.9,0.9,3.8,2.1,5.3
		c1.9,2.4,5.1,3.3,8.2,3.7c14.5,2.2,29.1-1.7,43.7-2.5c19.5-1.1,38.9,3.3,58.2,6.1c14.4,2.1,28.9,3.3,43.5,3.7
		c7.1,0.2,14.2,0.2,21.1-1.3c5.5-1.2,10.8-3.2,16.2-5c15-4.9,30.5-7.8,46.1-9.7c14.5-1.8,29.5-1.6,43.8-4.6
		c10.2-2.1,20-8.2,24.3-17.6c4.4-9.4,1.9-22.2-7-27.6c-4.7-2.9-10.4-3.5-15.9-4.2c-21-2.6-41.7-7.8-62-13.8c-9.2-2.7-18.5-5.6-28-7
		c-9.9-1.4-19.9-1.3-29.8-0.9c-10.3,0.4-20.9,2.2-30.9-0.1c-10.8-2.5-22-3.4-33-2.7c-7.3,0.5-14.6,1.6-21.8,2.9
		c-6.1,1.1-12.3,2.2-18.1,4.4c-5.4,2-10.4,4.9-15.4,7.7c-10.9,6.2-22.4,11.8-33.1,18.1c-4.3,2.5-8.7,5.5-10.6,10.1"/>
	<path id="kashgar" class="st6" d="M262.4,831.5c8.9,4.8,16.6,12.7,19.1,22.5c1.6,6.5,0.9,13.3,0.2,19.9c-1,9.5-2.1,19-5,28.1
		c-1.3,4.1-3,8-4,12.2c-2.4,9.8-1.1,20-2.3,30c-1.2,10-6.1,20.7-15.7,23.8c-3,1-6.3,1.1-9.5,1c-16.3-0.5-32.1-6.3-46.3-14.3
		s-27-18.3-39.6-28.6c-8.1-6.6-16.2-13.3-23.2-21.1c-4.3-4.8-8.2-10.1-12.9-14.6c-5.7-5.6-12.4-10.1-18.1-15.8c-2-2-4-4.5-4-7.4
		c0-3.5,3.1-6.3,6.3-7.7c3.2-1.4,6.8-1.9,9.9-3.6c3.7-1.9,6.5-5.3,10.2-7.3c3.5-1.9,7.5-2.5,11.4-3.3c10.1-2.3,19.7-6.6,29.6-9.4
		c8.5-2.4,17.3-3.7,26-5c16.8-2.5,33.6-5,50.5-7.5c3.9-0.6,8-1.1,11.6,0.3c3.1,1.2,5.5,3.8,7.7,6.4c2.4,2.9,4.8,5.9,6.9,8.9"/>
	<path id="khotan" class="st6" d="M272.3,983.4c4.6,10.4,10.3,20.2,17.1,29.3c1.9,2.5,3.8,5,5.3,7.7c1.4,2.6,2.4,5.4,3.7,8
		c2.4,4.7,5.7,8.8,9.2,12.8c7.1,8.2,14.6,16,22.1,23.9c3.7,3.9,7.5,7.8,12,10.6c10,6.1,22.5,6.2,33.2,10.8c3.8,1.6,7.4,3.9,11.3,5.1
		c3.4,1,6.9,1.3,10.4,1.6c11.1,0.8,22.2,1.7,33.2,0.2c3.3-0.4,6.7-1.1,9.5-2.9s4.9-4.9,4.7-8.3c-0.3-3.7-3.2-6.5-6-8.8
		c-11.5-9.3-24.8-15.9-36.8-24.5c-7.2-5.2-13.9-11.1-20.6-16.9c-14.9-12.8-30.2-25-45.5-37.3c-3.5-2.8-7.1-5.7-11-7.9
		c-5.7-3.2-12-5.1-18.3-6.7c-9.2-2.4-18.5-4.3-28-4.5c-2,0-4.1,0-5.8,1.1c-1.7,1-2.9,3.3-2,5.1c1.1,2.3,4.7,2.7,5.6,5"/>
</g>
<g id="cities">
	<circle class="st7" cx="1967.3" cy="1546.2" r="6.1"/>
	<text transform="matrix(1 0 0 1 1932.3392 1567.3785)" class="st8 st9">Wuchang</text>
	<circle class="st7" cx="1681.1" cy="1337.9" r="5.2"/>
	<text transform="matrix(1 0 0 1 1598.7587 1325.4218)" class="st8 st10">Xianyang</text>
	<circle class="st7" cx="1453.4" cy="1563" r="5.2"/>
	<text transform="matrix(1 0 0 1 1434.0823 1587.152)" class="st8 st10">Chengdu</text>
	<circle class="st7" cx="1968.8" cy="1982.5" r="4.9"/>
	<text id="Panyu" transform="matrix(1 0 0 1 1931.6222 1950.0701)"><tspan x="0" y="0" class="st8 st10">Guangzhou</tspan><tspan x="20" y="28.8" class="st8 st10">(Panyu)</tspan></text>
	<circle class="st7" cx="337.5" cy="1042.6" r="5.2"/>
	<text transform="matrix(1 0 0 1 332.6211 1034.3765)" class="st8 st10">Khotan</text>
	<circle class="st7" cx="195.3" cy="855.2" r="5.2"/>
	<text transform="matrix(1 0 0 1 165.2752 881.043)" class="st8 st10">Kashgar</text>
	<circle class="st7" cx="1695.5" cy="1343.1" r="5.2"/>
	<text transform="matrix(1 0 0 1 1669.4578 1366.1162)" class="st8 st10">Chang’an</text>
	<circle class="st7" cx="1033.2" cy="977" r="5.2"/>
	<text transform="matrix(1 0 0 1 1003.9175 966.4357)" class="st8 st10">Dunhuang</text>
	<circle class="st7" cx="1863.7" cy="1302.5" r="5.2"/>
	<text transform="matrix(1 0 0 1 1819.7043 1325.6631)" class="st8 st10">Luoyang</text>
	<circle class="st7" cx="812.4" cy="785.8" r="5.2"/>
	<text transform="matrix(1 0 0 1 784.6392 813.1508)" class="st8 st10">Turfan</text>
	<circle class="st7" cx="753.5" cy="722.7" r="5.2"/>
	<text transform="matrix(1 0 0 1 737.9824 713.4842)" class="st8 st10">Ürümqi</text>
	<circle class="st7" cx="790.6" cy="1574.9" r="5.2"/>
	<text transform="matrix(1 0 0 1 785.7789 1593.769)" class="st8 st11">Lhasa</text>
	<circle class="st7" cx="2094.4" cy="1305.8" r="5.2"/>
	<text transform="matrix(1 0 0 1 2040.3872 1293.4779)" class="st8 st10">Pencheng</text>
	<circle class="st7" cx="2088.2" cy="1344.1" r="5.2"/>
	<text transform="matrix(1 0 0 1 2054.2146 1368.4779)" class="st8 st10">Gaixia</text>
	<circle class="st7" cx="2189" cy="1423.7" r="5.2"/>
	<text transform="matrix(1 0 0 1 2184.1028 1449.713)" class="st8 st10">Jiànyè</text>
	<circle class="st7" cx="1918.7" cy="1686.6" r="5.2"/>
	<text transform="matrix(1 0 0 1 1866.7468 1672.7129)" class="st8 st10">Changsha</text>
	<text transform="matrix(0.9489 -0.3155 0.3155 0.9489 631.9537 1036.7043)" class="st8 st10">Shanshan</text>
	<text transform="matrix(1 0 0 1 689.2845 860.397)" class="st8 st10">Yanqi</text>
	<text transform="matrix(1 0 0 1 443.9951 836.8325)" class="st8 st10">Kuqa</text>
</g>
<g id="text">
	<text transform="matrix(1 0 0 1 1659.8992 1610.0955)" class="st12 st13">Jin</text>
	<text transform="matrix(1 4.650000e-03 -4.650000e-03 1 1328.6429 859.5992)" class="st12 st14">X  i  o  n  g  n  u</text>
	<text transform="matrix(1 0 0 1 1123.2791 1418.5298)" class="st12 st14">Qiang</text>
	<text transform="matrix(1 0 0 1 1611.3796 1036.4087)" class="st12 st15">Ordos</text>
	<text transform="matrix(1 -5.680000e-03 5.680000e-03 1 1891.3844 767.4398)" class="st12 st14">Wuhuan</text>
	<text transform="matrix(0.9999 1.704000e-02 -1.704000e-02 0.9999 1845.1167 952.7443)" class="st12 st14">Xianbei</text>
	<text transform="matrix(1 0 0 1 1663.5669 1523.9796)" class="st12 st15">Western</text>
</g>
</svg>
