<?xml version="1.0" encoding="utf-8"?>
<!-- Generator: Adobe Illustrator 19.2.1, SVG Export Plug-In . SVG Version: 6.00 Build 0)  -->
<svg version="1.1" xmlns="http://www.w3.org/2000/svg" xmlns:xlink="http://www.w3.org/1999/xlink" x="0px" y="0px"
	 viewBox="0 0 2905.1 2313" style="enable-background:new 0 0 2905.1 2313;" xml:space="preserve">
<style type="text/css">
	.st0{opacity:0.34;}
	.st1{fill:#F19920;}
	.st2{fill:#ED1C24;}
	.st3{fill:#4073B9;}
	.st4{fill:#783494;}
	.st5{fill:#59BA47;}
	.st6{fill:#E3DCD6;}
	.st7{fill:none;stroke:#000000;stroke-miterlimit:10;}
	.st8{fill:none;stroke:#FFFFFF;stroke-width:3;stroke-linecap:round;stroke-linejoin:round;stroke-dasharray:12.2673,12.2673;}
	.st9{fill:#ED1C24;stroke:#1C75BC;stroke-linecap:round;stroke-miterlimit:10;}
	.st10{font-family:'ArialMT';}
	.st11{font-size:24px;}
	.st12{font-size:21px;}
	.st13{font-size:18px;}
	.st14{fill:none;stroke:#FFFFFF;stroke-width:3;stroke-miterlimit:10;}
	.st15{fill:none;stroke:#FFFFFF;stroke-width:3;stroke-miterlimit:10;stroke-dasharray:12.0044,12.0044;}
	.st16{fill:none;stroke:#FFFFFF;stroke-width:3;stroke-miterlimit:10;stroke-dasharray:12;}
	.st17{font-family:'MyriadPro-Regular';}
	.st18{font-size:104px;}
	.st19{font-size:36px;}
	.st20{font-size:72px;}
</style>
<g id="bitmap">
	
		<image style="overflow:visible;" width="1968" height="1567" xlink:href="../../r12a.github.io/maps/eastasia/relief_map.jpg"  transform="matrix(1.4757 0 0 1.4757 1.8006 0)">
	</image>
</g>
<g id="borders">
	<g id="XMLID_1_" class="st0">
		<g>
			<path class="st1" d="M2379.6,1568.6c0.2,2-2.4,4-4,2.7c0-1.3-0.1-2.5-0.1-3.8c0,0,0-0.1,0-0.1l1.6-2.4
				C2378.4,1565.8,2379.4,1567.1,2379.6,1568.6z"/>
			<path class="st2" d="M1782.5,2141.2c-0.7-0.1-1.3-0.2-2-0.2c0.2-2.5,0-5-0.5-7.4c-1.5,0.1-2.9,0.2-4.4,0.3
				c-1.2-9-0.2-18.3,2.7-27c0.5-1.6,1.1-3.1,2.2-4.3c1.6-1.8,4.1-2.7,6.5-2.4c0.5-1.8,0.3-3.8-0.4-5.5c-2.9,0.8-5.9,1.5-8.9,1.1
				c-3-0.4-6-2.3-6.7-5.3c-1.9-1.9-3.8-3.8-5.7-5.8c0.7-1.2,0.7-2.8,0-4.1c-2.2-0.4-3.2,3-2.1,5c1.1,2,3.1,3.6,3.4,5.8
				c0.5,3.2-2.9,5.8-6.1,6.4c-3.2,0.6-6.6,0.2-9.6,1.2c-2.9,1-5.3,3.4-8.3,3.9c-3,0.6-6.9-2.4-5.3-5.1c1.4-2.3,6.1-3.7,4.4-5.8
				c-6.4-1.7-12.9-3.3-19.3-5c-0.2-0.1-0.5-0.1-0.7-0.2c-3.1-0.8-6.4-1.7-8.8-3.8c-2.4-2.2-3.6-6-1.8-8.7c-2,0.8-4,1.7-6,2.5
				c1.8,2.5,3.6,5.1,4.3,8.1c0.7,3,0.2,6.5-2.2,8.5c-2.4,2-6.6,1.5-7.9-1.3c-0.7-1.6-0.4-3.4-0.8-5c-0.5-1.6-2.6-3-3.8-1.8
				c2.5,4.6,0.2,11.2-4.7,13.1c1.2-2.2,1.6-4.8,1.3-7.3c-3.7,2-7.4,3.9-11.1,5.9c1.2,0.8,2.4,1.5,3.6,2.2c-2,1.6-4.2,3.2-6.8,3.5
				c-2.6,0.3-5.5-1.4-5.5-4c-1.8,0-3.6,0.1-5.5,0.1c1.4,1.7,0.7,4.5-1.1,5.9c-1.7,1.4-4.1,1.8-6.2,2.1c0.2,1.7-0.2,3.4-1,4.9
				c-1.9-0.6-3.7-1.3-5.6-2c0,1.8-0.7,3.6-2,4.8c-2.1-1.8-6.2-3.2-6.9-0.5c-0.2,0.7,0,1.5,0.2,2.2c0.9,3,1.7,6.1,2.6,9.1
				c-2.2,3.7-6.7,5.7-10.9,4.9c-0.3,1.4-0.5,2.8-0.8,4.2c-2.5-0.5-4.9-1.1-7.4-1.6c1.8-1.1,2.9-3.3,2.7-5.4c-1.9-0.3-4,0.2-5.6,1.3
				c1.4,0.5,1.1,2.2,0,3.3c-0.6,0.6-1.3,1-2.1,1c-1.1,0-2.2-0.4-3.2-0.9c-1-0.5-2.1-1-3.2-1.2c-2.2-0.4-5,2-3.5,3.7
				c2,0.7,4.4,0.2,6-1.3c0.5,3.3,4.6,4.5,7.5,6.1c2.9,1.7,4.5,6.9,1.3,7.7c-3.1-2.5-6.8-4.3-10.6-5.2c-1.6-2.6-4.4-4.4-7.4-4.9
				c-0.6,3.8,0.9,7.9,3.7,10.5c-3.2,1.9-6.3,3.7-9.5,5.6c-1.1,2.1-3,3.7-5.2,4.6c2.5,4.6,4.3,11.4,0.2,14.2c-0.2,0-0.3,0.1-0.4,0.2
				c0.1-0.1,0.3-0.2,0.4-0.2c0.6-0.1,1.4,0.6,1.3,1.4c-0.2,0.9-1.1,1.5-1.9,2c-3.7,2-8.6,3.7-11.6,6.6c-2,1.9-4,4.6-5.7,6.8
				c-1.1,1.5-2.2,3.2-3.9,3.9c-1.7,0.8-4.3-0.1-4.3-2c-2.2,0.5-4.3,1.6-5.9,3.2c0.4,1.1,0.5,2.3,0.3,3.4c-2.9,1.9-1.8,6.4-3.6,9.3
				c-0.7,1.1-1.9,1.9-2.7,3c-3.2,4.2-0.1,10.3-1.4,15.4c-0.8,0.2-1.6,0.3-2.4,0.4c1.6,2.9,2.2,6.3,1.8,9.5c-1.2-0.8-2.8,0.5-3.2,1.9
				c-0.3,1.4,0.1,2.9,0,4.3c-0.2,2.7-2.5,5.1-5.2,5.4c-0.6,0.1-1.2,0.1-1.6,0.5c-0.2,0.3-0.2,0.6-0.3,0.9c-0.3,3.1-0.4,6.5,1.6,8.9
				c1,1.2,2.5,2,3.9,2.8c1.3,0.9,2.7,2,3.1,3.5c0.4,1.3-0.2,3-1.4,3.6c-0.2,0-0.4,0.1-0.6,0.2c0.2,0,0.4-0.1,0.6-0.2
				c1.4-0.2,2.8,1.1,3.8,2.3c1.2,1.5,2.5,3.1,3,4.9c0.3,1.2,0.3,2.5,0.7,3.7c1.4,3.9,6.6,4.9,9,8.3c1.2,1.8,1.6,4.1,3.3,5.5
				c0.9,0.7,2,1.1,3.1,1.5c2.1,0.7,4.1,1.3,6.2,2c13.9,4.5-1,14.6-8.7,15.6c-6.3,0.8-12.8,1.6-19.1,0.4c-15.7-3-26.1-17.5-34.8-30.8
				c-5.1-7.7-10.2-15.4-13.9-23.8c-2.8-6.3-4.9-12.9-6.9-19.6c-3.4-11.6-6.5-23.4-9-35.2c-3.2-15.1-5.4-30.4-6.7-45.8
				c-2.5-29.3-1.8-59.8-13.5-86.8c-5.5-12.7-13.6-24.2-23.6-33.7c-10.2-9.7-22.6-15.6-33.9-23.7c-10.2-7.3-21.8-12.8-33.9-16
				c-7.1-1.9-14.5-3.1-21-6.4c-6.7-3.3-12.1-8.6-17.6-13.7c-10.8-10.1-22.1-20.1-35.6-26.1c-13.5-6.1-28.4-7.9-42.9-10.5
				c-24.8-4.4-49.2-11.2-72.7-20.2c-7.6-2.9-15.4-6.2-20.4-12.6c-10-12.6-4.7-32.3,7.2-43.2s28.2-15.1,43.8-18.9
				c21-5.2,41.9-10.3,62.9-15.5c6.8-1.7,14-3.6,18.7-8.8c5.4-5.9,6.1-14.5,6.7-22.4c2.6-39.1,5.1-78.3,7.7-117.4
				c1-16,2.2-32.3,8.5-47c6.3-14.7,18.9-27.7,34.8-30c8.3-1.2,18.9-0.4,22.8-7.9c2.2-4.2,1.1-9.3,0-13.8c-2.5-10.2-5-20.4-7.5-30.5
				c-2.2-8.8-3.5-17.8-6.8-26.2c-1.9-4.8-4.1-9.6-5-14.7c-1.5-8.7,1-17.4,3.1-26c5.1-20.4,8.7-41.2,10.5-62.2
				c0.7-7.5,1.2-15.1,4.1-22.1c2.5-6.1,5.8-11.4,5.6-16.8c0.8-0.2,1.5-0.2,3-0.7c11.8-3.5,23.9,3.1,35.1,8
				c11.3,4.9,26.1,7.5,34.4-1.5c2.4-2.6,4.1-6.1,7.4-7.6c3.6-1.7,7.8-0.3,11.5,1.1c19.5,7.2,39.1,14.2,59.1,20
				c17.6,5.1,38.4,12.6,56.2,4.6c7.1-3.2,13.4-7.8,20.4-11.1c19.7-9.4,42.9-8.4,63.7-15.1c7.9-2.6,15.5-6.2,23.6-7.9
				c12.8-2.7,26.3-0.2,39.2-2.9c16.6-3.4,30.4-15.2,40.4-28.9c5.1-7,9.4-14.6,14.6-21.5c14.3-19.2,35.5-33,58.8-38.5
				c1.1,2.9,2.9,5.5,6.2,7.7c7.9,5.4,19.5,8.8,29,5.9c6.3-1.9,11.7-6.2,18.1-8.1c6.5-1.9,13.3-0.9,20-1.5c5.8-0.5,11.5-2.2,17.2-3.5
				c14.8-3.3,29.9-3.8,45-4.2c1.9-0.1,3.8-0.1,5.7,0.4c2.1,0.6,4,1.9,5.9,2.9c10.3,5.4,22.9,3.1,34-0.5c11.1-3.6,22.3-8.3,33.9-7.2
				c8.9,0.8,17.1,5.1,25.8,7.3c14.8,3.8,30.4,1.6,45.5-0.5c3.1-0.5,6.3-0.9,9.2-2.2c3.5-1.5,6.4-4,9.2-6.4
				c8.6-7.3,17.2-14.5,25.9-21.7c0.1,0.5,0.1,1,0.1,1.5c0,1.1-0.2,2.2-0.1,3.4c0.1,1.1,0.5,2.3,1.5,2.9c0.2,0.1,0.4,0.2,0.6,0.4
				c1,1.5-2,2.4,1.1,3.6c2,0.8,3.9-0.5,5.6-1.7c1.4-1.3,3.8-0.5,5.1,1c1.3,1.5,1.9,3.4,3.1,4.9c1.5,1.9,3.7,2.9,5.9,3.8
				c1.1,0.5,2.4,1.1,3.6,1.3c1.2,0.3,2.5,0.1,3.7,0.6c1.3,0.5,2.3,1.6,3.6,2c2.7,0.7,5.6-1.9,8.2-0.9c0.5,0.2,1,0.5,1.4,0.8
				c1.7,1.2,3.7,3.2,5.6,4c2,0.9,4.2,0.3,6.2,1.5c1.9,1.2,3,3.2,4,5.2c2.3,4.6,4.5,9.2,6.4,14c1.6,3.8,2.6,8.5,5.9,11.2
				c1,0.8,2.1,1.6,2.7,2.8c0.5,1.2,0.1,2.9-1.1,3.3c2.3,3,4.6,5.9,7.4,8.4c1.4,1.2,2.9,2.3,3.6,4c0.8,1.7,0.6,3.6,1.3,5.3
				c0.7,1.7,3.1,2.9,4.3,1.6c0,1.9,0,3.7,0,5.6c2.3-0.9,4.9,2.1,3.8,4.3c0.7,0.2,1.3,0.4,2,0.6c-0.6,1.4,0.3,3.3,1.8,3.7
				c0.6,0.1,1.2,0.1,1.6,0.4c0.5,0.3,0.7,0.9,0.8,1.4c1.2,3.9,2.9,7,1.4,11c-0.5,1.4,0.3,2.9,0.6,4.3c0.4,1.4-0.1,3.5-1.6,3.5
				c1,2.9,4.5,3.9,7.5,4.5c2.2,0.5,4.5,0.9,6.7,1.4c0.6,0.1,1.4,0.2,1.7-0.4c0,0.9,0,1.9,0,2.8c3.4-0.4,6.8,0,10,1
				c2.7,0.9,5.4,2.5,6.6,5.1c1.3,2.9,0.3,6.3-0.7,9.3c1,0.4,1.9,0.7,2.9,1.1c0.2,1,0.2,2.1-0.2,3.1c6.5-1.1,13.4,0.6,18.6,4.5
				c5.2,4,8.8,10.1,9.5,16.6c-5.4,2.8-11.9,0.2-17.4-2.2c-5.6-2.4-12.3-4.6-17.3-1.2c5.2,0.6,10.6,1.3,15.4,3.6
				c-1.2,0.5-0.6,2.3,0.6,2.9c1.1,0.6,2.5,0.5,3.4,1.4c0.4,0.4,0.7,0.9,1.2,1.3c0.8,0.7,2,0.7,3.1,0.7c3.6,0,7.1,0.6,10.5,1.6
				c0.6,0.2,1.3,0.4,1.7,0.9c0.5,0.5,0.7,1.1,0.7,1.7c0.1,1.1-0.4,2.4-0.9,3.4c-5.1-0.5-10.1-1.2-15.1-2.2c-4.8-1-9.6-2.2-13.6-5.1
				c-2.9-2.1-5.3-4.9-7.4-7.9c-2.1,0.9-4.4-1.9-6.6-1.3c-1.2,0.3-2,1.6-3.2,2c-1.9,0.6-3.6-1.3-4.8-2.8c-3.1-3.7-7.1-6.5-11.6-8.3
				c-4.6-1.8-10.1-2.4-14.2,0.4c-1.8,1.2-3.1,2.9-4.4,4.6c-1.9,2.5-3.8,4.9-5.8,7.4c3.3-0.6,6.5-1.9,9.2-3.9c1-0.7,2-1.8,1.8-3
				c1-1.7,3.4-2,5.4-1.9c2,0.2,4.1,0.5,5.9-0.4c4.4,0.8,7.6,5.6,6.5,10c0.8,3,4.8,4.6,7.4,2.9c0.5-0.3,1.1-0.8,1.7-0.9
				c0.6-0.1,1.2,0,1.8,0.2c3.6,1.1,7.1,2.2,10.7,3.3c4,3.7,8,7.4,12.7,10.3c3.9,2.4,8.2,4.1,12.7,5.1c0.7,0.2,1.5,0.3,2.1,0.7
				c0.6,0.3,1,0.8,1.5,1.3c5.7,6.2,12.8,12.5,14.7,21.1c0.3,1.2,0.3,2.8-0.6,3.6c-0.7,0.6-1.8,0.6-2.7,0.6c-3.9-0.1-7.9,0-11.6,1.2
				c-3.7,1.2-7.2,3.9-8.5,7.6c-0.4,1-0.6,2.2-1.2,3.1c-1.4,1.9-4.1,2-6.2,3.1c-2.2,1.1-3.7,3.5-3.8,5.9c-2.2,0.3-4.4,0.6-6.6,0.9
				c-1.4,2.1-1.6,4.7-1.7,7.2c-0.1,2.5-0.2,5.1-1.6,7.2c-1.3,2.1-4.3,3.4-6.4,2.1c-0.8-0.5-1.4-1.3-2.2-1.8c-0.9-0.5-2-0.4-3-0.4
				c-5.4,0.2-11.8,0.9-14.7,5.5c-1.3,2.1-3.1,5.3-5.2,4.1c0.9,1.4,1.9,2.9,3.4,3.7c1.5,0.8,3.7,0.5,4.4-1.1c0.4-0.9,0.2-2,0.6-2.9
				c0.9-2.6,4.9-2.4,7-0.7c2.1,1.7,3.4,4.4,5.8,5.9c5,3.3,11.7-0.4,15.9-4.6c4.3-4.2,8.5-9.5,14.5-9.9c4.8-0.3,9.1,2.8,12.9,5.7
				c4.6,3.5,9.2,7,13.8,10.5c0.6-2.1,3.6-1.8,5.8-1.3c4.5,1.2,9.2,1.5,13.8,0.9c0.2,2-1.5,3.8-3.3,4.7c-1.8,1-3.9,1.5-5.4,2.9
				c-1.2,1.1-1.9,2.6-2.6,4.1c-1.3,2.7-2.5,5.4-3.8,8.2c3-0.2,6-1.4,8.3-3.4c1.8-0.1,2.8,2,2.9,3.8c0.1,1.8-0.2,3.7,0.7,5.2
				c0.5,0.8,1.4,1.6,1.2,2.6c-0.1,0.6-0.6,1-1,1.5c-1.7,1.9-1.5,5.2,0.4,7c0.6,0.6,1.4,1,1.9,1.6c1.4,1.9,0,4.4-1.4,6.3
				c0.5,0.2,0.9,0.4,1.4,0.7l-1.6,2.4c0,0,0,0.1,0,0.1c0,1.2-1.4,2.1-2.6,2c-1.3-0.1-2.4-0.9-3.4-1.6c1.9-4,0.9-9.1-2.3-12.1
				c0.7,2.1,0.9,4.5,0.1,6.6c-0.8,2.1-3,3.7-5.2,3.4c-0.5-0.1-1-0.2-1.3-0.6c-0.6-0.6-0.5-1.6-0.9-2.3c-0.8-1.3-3.1-0.8-3.8,0.6
				c-0.7,1.4-0.5,3-0.2,4.6c-1.4,0.2-2.8,0.5-4.1,0.7c2.5,4.4,11.2,2,12.9,6.8c0.3,0.7,0.3,1.5,0.3,2.3c1.6-0.2,3.1,1.2,3.2,2.8
				c-1.8-0.1-3.6-0.1-5.4,0.1c-2.3,0.2-4.5,0.7-6.7,1.3c-0.7,1.7,1.9,2.8,3.6,2.4c1.1-0.3,2.2-0.8,3.3-0.9c0.7-0.1,1.3,0,1.9,0.3
				c0.1,2.8,1.4,5.2,0.3,8c-0.6,1.5-3.9,5.8-6.1,4.9c3.3,1.4,0.9,7.9,4.3,9.3c0.5,0.2,1.1,0.3,1.6,0.5c2.1,1.1,1,4.6,2.5,6.3
				c0.6,0.7,1.6,1.1,2.4,1.7c2.2,1.7,1.4,5.8-1.2,6.7c-1-1.4-2.1-2.8-3.6-3.5s-3.7-0.5-4.5,1c-0.5,2.4-0.9,4.9-1.4,7.3
				c-0.2,1-0.4,2.1-1.3,2.7c-1.9,1.4-4.3-1.1-5.3-3.3c-0.9-1.9-1.7-3.9-2.5-5.8c-1.4-0.1-2.8-0.5-3.9-1.3c-1.2,2.3-3.4,4.2-5.9,4.9
				c1.6,0.1,3.2,0.3,4.7,0.5c1.1,2-0.2,4.6-1.8,6.3c-1.5,1.8-3.3,3.7-3.2,6c0.1,1.4,1,2.8,0.7,4.2c-0.3,1.5-1.6,2.2-3,2.4
				c-1.1,0.2-3.2,0.4-4.2,0.2c-0.8-0.1-1.4-0.6-2.1-0.9c-1.9-0.9-4.2-0.7-5.8,0.6c0.4,0,0.4,0.7,0.5,1.1c0.2,0.6,1.1,0.6,1.7,0.3
				s1.1-0.7,1.8-0.7c0.8,0.1,1.3,0.9,2,1.1c0.8,0.2,1.8-0.3,2.4,0.2c0.2,0.2,0.3,0.4,0.4,0.6c0.3,0.8,0.3,1.8,0.3,2.7
				c0,0.7,0,1.4-0.3,2.1c-0.2,0.4-0.4,0.7-0.7,1c-0.5,0.7-1.1,1.4-1.6,2.1c-0.8,1-1.7,2.2-1.9,3.4c-0.2,0.9,0.3,2-0.3,2.7
				c-0.9,0.9-3.6,0.9-4.6,0.2c0.6,0.5,0.4,1.4,0.4,2.2c0.1,1.2,1,2.1,1.5,3.2c0.5,1.1,0.3,2.8-0.9,2.9c-0.5,0.1-1-0.2-1.5,0.1
				c-0.3,0.1-0.4,0.4-0.5,0.7c-0.6,1.9,0,4.2,1.6,5.4c1-0.9,2.8-0.4,3.2,0.9c0.2,0.6,0.1,1.3-0.1,1.9c-0.3,1.3-0.6,2.7-0.9,4.1
				c-0.1,0.2-0.1,0.5-0.3,0.7c-0.2,0.2-0.5,0.1-0.8,0.1c-1.2-0.2-2.5-0.3-3.7-0.5c0.8,0.8,0.5,2.4-0.5,3c-0.2,0.1-0.3,0.1-0.4,0.2
				c0.2,0,0.3-0.1,0.4-0.2c0.5-0.1,1.1-0.1,1.5,0.1c0.1,2.1,0.2,4.3,0.3,6.4c0,0.5,0,1.1-0.2,1.5c-0.4,0.7-1.3,0.9-2.2,1.1
				c-1.5,0.3-3.2,0.5-4.4-0.4c-0.4-0.3-0.8-0.7-1.2-1.1c-0.8-0.6-1.8-0.9-2.8-1.3c-0.9-0.4-1.7-0.9-2-1.8c-0.2-0.6-0.3-1.4-0.9-1.5
				c-0.4,0-0.7,0.3-0.9,0.5c-0.8,0.9-1.6,1.8-2.3,2.6c-0.6,0.7-1.2,1.4-1.4,2.3c-0.1,0.9,0.6,2,1.5,1.9c0.6-1.3,1.4-2.8,2.8-3.3
				c1-0.2,2.1-0.2,3,0.1c0.9,0.2,1.7,0.7,2.4,1.2c0.7,0.6,1.3,1.3,1.8,2.1c0.9,1.3,1.7,2.9,1.3,4.5c-0.3,1.3-1.6,2.4-3,2.5
				c-1.4,0.1-2.8-0.8-3.3-2.1c-0.1,1.1-0.1,2.2-0.1,3.3c0,0.2,0,0.5,0,0.7c-0.1,2.7-0.2,5.4-0.8,8c-0.1,0.6-0.4,1.3-0.9,1.6
				c-1.3,0.6-3.2-1.2-4,0c-0.2,0.3-0.2,0.8-0.4,1.2c-0.6,1.1-2.3,0.4-3.4,0.9c-1,0.5-1.1,2.3-0.1,2.8c0.9,0.5,2,0,3-0.2
				s2.4,0.2,2.4,1.3c-0.1,0.7-0.8,1.1-1.4,1.1c-0.1,0-0.1,0-0.2,0c-0.6,0-1.1-0.2-1.7-0.3c-1-0.2-2.3-0.1-2.9,0.7
				c-0.7,0.8-0.1,2.4,1,2.3c0.3,0,0.5-0.2,0.8-0.3c0.9-0.4,1.9-0.6,2.8-0.6c0.6,0,1.3,0.1,1.9,0.4c0.2,0.1,0.5,0.2,0.6,0.4
				c0.1,0.2,0.1,0.4,0.1,0.6c-0.1,1.2-0.3,2.6-0.2,3.8c0.1,0.5,0.6,1.5,0.4,1.9c-0.6,1-6.2,2-7.4,2.4c-1.2,1.9-2.3,3.7-3.5,5.6
				c-0.6,0.9-2,0.6-2.8-0.3c-0.3-0.3-0.5-0.7-0.6-1c-0.4-1.5,0.2-3.1-0.1-4.6c-0.4-2.7-3.7-4.6-6.3-3.5c-1,0.4-1.9,1.2-3,1.3
				c-2.9,0.2-5.6-4.5-7.7-2.6c2.6,2,3.8,5.7,2.8,8.8c3.7-2.8,9.6-1.3,12.2,2.4c0.6,0.8,0.9,1.7,1.1,2.7c0.1,0.6,0.2,1.2-0.1,1.7
				c-0.4,0.7-1,0.9-1.7,0.9c-1.4,0-3.2-0.7-4.5,0c-1.4,0.7-1.6,2.7-0.8,4c0.8,1.3,2.2,2.1,3.6,2.8c0.5-2,1.2-4.2,2.8-5.4
				c0.1-0.1,0.2-0.2,0.3-0.2c1.8-1.2,5.1-0.1,4.8,2.1c1.2-0.2,2.4-0.4,3.6-0.7c0.4,1.5-1.2,2.8-2.7,3.4c-1.5,0.6-3.2,1-4,2.3
				c-0.4,0.6-0.5,1.3-1,1.8c-0.6,0.5-1.4,0.6-2.2,0.7c-3.4,0.7-5.8,4.4-5.1,7.8c0.2,0.9,0.6,1.9,0.4,2.8c-0.1,0.6-0.5,1.1-0.6,1.6
				c-0.3,2.8,5,1.9,6.5,4.3c-1.3,4-3.5,7.6-6.2,10.8c2.3,1.2,3.5,4.2,2.6,6.6c-0.9,2.4-3.8,3.9-6.3,3.3c0.7,1.5,1.5,3.1,2.2,4.6
				c0.7-1.4,2.6-1.9,4.1-1.4s2.5,1.8,3.4,3.2c1.5,2.4,2.3,5.2,2.7,8c0.1,0.6,0.1,1.3-0.2,1.8c-0.3,0.5-0.9,0.7-1.5,0.8
				c-1.8,0.6-3.7,1.1-5.4,0.4s-2.6-3.3-1.1-4.4c-2.4,0.2-4.3-1.8-6.6-2.7c-2.2-0.9-5.8,0.6-4.8,2.8c1.3,0.1,2.2,1.7,1.6,2.8
				c-1.7,0.3-3.6-1-3.9-2.8c-2.4,0.7-5,1.8-5.7,4.2c-0.8,2.3,2.2,5.3,4.1,3.6c-0.1,1-0.3,2-0.4,3c0.3,1,1.8,0,2.5-0.8
				c1.4-1.5,4.2-1.7,5.4,0c1.2,1.7-0.3,4.6-2.3,4.2c0.5,0.8,1,1.6,1.5,2.3c-2.7,2.3-7.3,2-9.7-0.7c-0.3,2.1-0.6,4.2-0.9,6.2
				c-0.9,0.7-2.5,0.4-3.1-0.6c-0.6-1-0.1-2.5,1-3c-0.9-1.8-4-1.7-4.7,0.2c-1.1-0.7-1.8-1.9-1.8-3.2c-1.3,0.3-2.6,0.6-3.9,0.9
				c2.1,1.1,4.2,2.6,4.8,4.8c0.6,2.3-1.6,5.1-3.8,4.2c-0.3,1.4,1.4,2.4,2.8,2.4s2.8-0.6,4.2-0.3c3,0.6,3.4,5.7,0.6,6.8
				c-0.6-0.6-1.2-1.1-1.8-1.7c-1.2,0-2.2,1.2-2,2.3c1.3-0.4,2.8,0.4,3.4,1.7c-3.9,0.2-8.1,0.5-11.2,2.9c-0.5,0.4-1.1,1-1.7,1.1
				c-0.1,0-0.3,0-0.4,0c-1.8,0-2.6-2.6-2.7-4.5c-0.6,1.5-1.2,3.1-1.8,4.6c-0.4,1.1-0.8,2.4-0.2,3.3c1.1,1.8,3.9,0.4,5.4-1
				c1.6,0.2,2.5,2.2,2.3,3.8c-0.3,1.6-1.4,3-2.4,4.2c-1-0.8-2.6-0.3-3.1,0.8s0.4,2.6,1.6,2.8c0.5,2.5-1.4,6.2-4.2,6.5
				c-1.8,0.1-1.3-1-2.5-2.2c-1-1-2.4-1.6-3.7-1.7c-2.6-0.1-5.1,1.2-7.5,2.4c-2.6,1.2-5.2,2.2-7.9,3.1c0.7-1.5-0.6-3.6-2.3-3.6
				c-0.9,0.3-1.1,1.1-1,2l-1.3,0.4c-1.6,0.7-3.2,1.5-4.8,2.2c0.9,0.6,1.7,1.2,2.6,1.8c-0.1,1-0.2,2-0.3,3c-3.8,1.1-7.8,1.7-11.8,1.7
				c-0.1,2.5,2.9,3.9,5.4,3.6c2.4-0.3,4.7-1.5,7.1-1.7c0.1,1.1,0.2,2.2,0.3,3.4c1.3-1.7,4.3-0.6,4.9,1.5c0.6,2-0.5,4.2-1.9,5.8
				c-1.8,2-4.8,3.4-7.2,2.1c0.6,3.9,0.1,8-1.6,11.7c-1.6,0.4-3.2,0.6-4.8,0.4c0.6,1.7,0.4,3.7-0.6,5.2c-1.8-0.2-3.3-1.4-4.1-3
				c0.1-1,0-2.1-0.7-2.8c0,1,0.2,2,0.7,2.8c-0.1,0.8-0.4,1.7-0.8,2.5c-0.8,1.7-1.9,3.3-2,5.2c-0.1,1.7,0.8,3.3,0.8,5.1
				c0.1,1.7-1.3,3.8-2.9,3.3c1.4-2.4,1.2-5.6-0.5-7.8c-1.7-2.2-4.8-3.2-7.5-2.4c0.9,1.7,2.2,3.3,3.7,4.5c-1.5,1-2.3,2.9-2.1,4.6
				c1.8-0.1,3,2,2.6,3.7c-0.4,1.5-1.5,2.6-2.9,3.4l-2.7-0.5c-2.6-0.2-3.3-4.6-0.9-5.6c-4.1,0.6-7.1,5.2-5.9,9.2
				c-3.3-0.1-6.6,2.1-7.8,5.3c-2.1-0.8-3.8-2.7-4.3-4.9c-2.6-0.2-5.2,0.2-7.7,1.1c0.1,3.3,0.1,6.7-0.7,9.9c-0.9,3.2-2.9,6.3-6,7.6
				c-0.9,0.4-1.9,0.6-2.9,0.8c-2.4,0.3-5-0.2-7.4-0.7c-1,1.4,1.2,3.2,2.9,2.9c1.6-0.2,3-1.2,4.6-1.5c0.1,0,0.2,0,0.3,0
				c3.5-0.2,5.7,3.6,7,6.9c-2.8-2.2-7.7-0.5-8.4,3c-1-1.6-3.3-2.2-4.9-1.4c1-0.2,1.5,1.3,1.1,2.3c-0.4,1-1.3,1.6-1.7,2.6
				c-0.7,2,1,3.9,1.4,5.9c0.6,3.4-3,6.4-6.5,6.6c-3.5,0.2-6.7-1.7-9.7-3.4c-1.9,3.6-3.3,7.5-4.1,11.5c-2.3,0.8-5.3,1.1-7.8,1.7
				c-3.7,0.9-9.1,1.4-9.3,5.3c-3.1-2.4-6-5-8.7-7.8c-3,1-6.3,1-9.3,0.2c1.4,0.7,2.7,1.3,4.1,2c-0.7,1.8-1.3,3.5-2,5.3
				c1.3,1,2.7,2,4,2.9c-1.5,6-12,6.2-13.8,0.3c-1.6-0.2-3.2-0.8-4.4-1.9c0.7-1.9,0.9-4,0.7-6c-1.7,5-8,6.2-12.5,8.9
				c-4.6,2.8-7.8,7.9-8.1,13.3c-3.3,1.1-7.2-0.3-9-3.2c-1.9-2.9-1.5-7,0.8-9.5c-3.4,0.6-6.6,1.8-9.7,3.4c-1.6,0.8-3.4,2.1-3.4,4
				c-0.1,1.8,3,3,3.6,1.3c0.5,1.7-0.9,3.6-2.6,3.6c0.5,1.8,2.3,3.1,4.1,3.1c1.2,2.9-2.4,6-5.5,5.2c-3-0.8-4.9-3.8-5.7-6.8
				c-3.4-1-7.3,0.7-9,3.7c3.6,1.1,7,2.9,10,5.2c0.1,3.2-3.3,5.9-6.4,5.2c0.4,1.8,0.2,3.7-0.5,5.4c-1.5-0.4-3.1-0.9-4.6-1.3l-2.8-0.5
				c0.2-0.3,0.5-0.5,0.7-0.7c-2.1-1.2-4.1,0-5.8,1.9l-2.5-1.3c-2.4-0.7-4.9-1.4-7.3-2.2c0.7-1.4,1.3-2.8,2-4.1
				c-3.8-5.1-7.7-10.1-11.5-15.2c-6.5-3.7-11.6-9.6-14.3-16.5c-2.8,5.1,1.2,12.5,7,13c-2.3,3.2-6.8,4.6-10.5,3.3
				c5.7,2.6,9.5,8.8,9.3,15c-0.2,3.4,0.6,8.7,3.8,7.6c-2.7,1.9-1.6,6-0.5,9.1c1.1,3.1,1.1,7.7-2.1,8.4c-3.1,0.7-5.1-3.2-5.8-6.3
				c-1.9-0.4-3.7,1.2-4.1,3.1l-2.5-0.4c0.1-0.2,0.2-0.5,0.2-0.7c-2.8,0.9-4.4,4.2-3.5,6.9c-2.4-0.1-4.8-0.2-7.2-0.3
				c-0.8-2.4-1.6-4.8-2.3-7.2c-4,0.4-4.9,5.7-4.5,9.7c0.4,4,0.3,9.1-3.4,10.5c-2.4-0.4-4.1-3.3-3.3-5.6c-6.4,1.4-11.7,6.9-12.8,13.4
				c-5,0.1-10.1-2.2-13.3-6c2.2,3.6,0.2,9.1-3.9,10.3c-4.1,1.2-8.8-2.2-8.9-6.5c-4.3,3.4-11.4,2.2-14.3-2.5c-0.4,2.7,1.4,5.5,4,6.2
				c-1.4,1.8-2.8,3.7-4.2,5.5c2.5,1.2,5.4,1.8,8.2,1.8c-3.1,2.3-6.3,4.5-9.4,6.8c-1.9-2.2-4.6-3.7-7.5-4.2c-2,1.9-3.5,4.4-4.3,7.1
				c-5.3-0.5-10.5-1.1-15.2,2c-1.6,1.1-3.1,2.5-5,3.1c-4.8,1.4-10.1-3.3-14.6-1c-3,1.5-4.1,5.6-7.3,6.6c-2.6,0.8-5.5-0.8-7.9,0.4
				c-1.4,0.7-2.3,2.1-3,3.5c-3.7,7-6.3,14.5-7.7,22.3c-5.2-1.9-11.1-1.7-16.2,0.4c-0.2-1.9-1.3-3.7-2.9-4.8
				c-1.3,2.2-2.7,4.6-2.9,7.2c-0.1,2.6,1.4,5.5,4,6c2.3,0.4,4.5-1.2,6.8-1.2c3,0,5.6,3.1,5.1,6.1c-1.1,1.2-2.8,1.9-4.5,1.6
				c-1,1.8-0.1,4.5,1.8,5.3c1.9,0.8,4.4-0.4,5-2.4c1.5,2.8,3,5.7,4.6,8.5c0.6,1.1,1.2,2.4,1.2,3.7c-0.1,4.4-7.1,6.8-6.1,11
				c-4.4,0.5-8.8,1.1-13.2,1.6c-0.8,0.1-1.7,0.3-2,1c0,0.1-0.1,0.2-0.1,0.3c-4.3-1.9-9.6-1.3-13.4,1.4c-1.4-3.6-2.8-7.1-4.1-10.7
				c2.9-0.9,6.2,0.3,7.9,2.8c-1.1-4.5-5.5-8-10.2-8c0.9-1.3,0.1-3.1-0.9-4.3c-1-1.2-2.4-2.3-2.7-3.9
				C1780.9,2142.8,1781.7,2141.6,1782.5,2141.2z M1782.5,2141.2c0.4,0.1,0.9,0.1,1.3,0.2C1783.5,2141.1,1783,2141,1782.5,2141.2z"/>
			<path class="st3" d="M1853.9,1280.8c-2.1-5.6-1.4-12.2-2.5-19c-1.5-9.2-6.8-17.4-9.3-26.5c-3.9-14.3-0.1-29.5,0.2-44.4
				c0.5-20.2-5.3-40.6-1-60.4c2.2-10.2,7-19.6,11.8-28.8c1.9-3.8,3.9-7.6,5.8-11.3c3.1-6,6.2-12,9.3-18.1c4.7-9.1,9.4-18.2,15-26.8
				c11.6-17.7,26.7-32.6,40-48.9c6.1-7.5,7.6-12.4,10.2-21.1c3.2-10.6,9.1-20.8,13.4-31c6.3-15.2,12.3-30.5,16.8-46.4l0.1-0.5
				c8.6,1.5,20.3-5,28.4-7.3c13.3-3.8,26.7-7.5,40.2-10.4c12.2-2.6,26.7-2.3,38.2-6.6c-4.5-10.8-9.8-27.5-7.6-39.3
				c1-5.6,6.3-11.3,8.9-16.5c3.2-6.6,5.9-13.4,7.9-20.4c3.2-11.4,4.8-23.3,9.1-34.3c6.3-16.2,18.2-29.5,29.8-42.4
				c1.6-1.8,3.3-3.6,5.4-4.8c2.9-1.6,6.4-1.7,9.7-2.1c9.9-1.3,16.5-7.8,25.6-10.6c20.3-6.4,42.4-7.9,62.9-2c7.2,2.1,14,5,20.6,8.5
				c5.7,3,11,7.4,17.2,8.9c7.6,1.9,15.3,4,22.5,7.2c3.2,1.5,6.2,3.2,9.1,5.2c0.7,0.5,7.1,6.3,6.8,6.3c-0.8,0.2-1.5,0.3-2.3,0.5
				c3.1,9.1,6.1,18.2,9.2,27.2c1.3,3.9,2.6,7.8,4.5,11.4c2.1,4.2,4.9,8.1,6.4,12.5c1,3.1,1.4,6.4,2.6,9.4c0.8,1.9,2,3.7,2.7,5.7
				c1.3,3.3,1.3,6.9,1.4,10.4c0.2,10.6,1,21.2,3.4,31.6c3.8,16.3,6.1,32.1,7.7,48.8c0.6,5.8,1.1,11.6,1.7,17.3
				c0.3,2.9,2.8,14.3,0.6,15.7c0,1.6-0.1,3.3-0.1,4.9c-2.2-1.9-6.2,0.2-6,3c-1.5,0.2-3-0.8-3.4-2.2c-1.7,0.8-3.7,1.1-5.6,0.7
				c-1.5,1.2,0.5,3.4,0.6,5.2c0.1,2.9-3.8,3.7-6.6,3.7c-2.9,0-6.7,1.8-5.7,4.5c-1.9,0.2-3.7,0.5-5.5,0.8c-1,4.8-5.6,6.8-8.6,10.2
				c-3.6,4.2-8.7,7-12.1,11.4c-0.9,1.2-1.7,2.6-2.8,3.8c-1.1,1.2-2.5,2.4-2.8,4c-0.4,1.6,1.2,3.6,2.7,2.9c1,1.1-1.2,2.1-2.5,2.8
				c-1.6,0.8-2.2,2.6-3.2,4.1s-2.7,2.9-4.3,2.1c0.4,2.2,0.1,4.8-1.7,6.1c-1.8,1.3-5.1,0.3-5-1.9c-2.9-0.7-6.1,1.1-7,3.9
				c1.6-1.9,5.1,0.7,4.3,3.1c-0.7,2.4-3.8,3.3-6.2,2.7c-0.7,1.4-1.4,2.7-2.2,4c-2.5,0-5,0.1-7.5,0.1c-0.1,1.9-2.2,3.5-4.1,3
				c-0.2,1.5-0.5,3-0.7,4.5c-2.1-0.1-4.1-1.1-5.6-2.6c0.3-1.8-0.3-3.6-0.9-5.4c-0.6-1.8-1-4,0-5.7c1-1.7,4-2,4.7-0.2
				c0.9-1.2,2.3-1.9,3.7-1.9c-0.3-1.8-0.2-3.9,1.2-5.1c1.4-1.2,4.1-0.6,4.2,1.2c2.8-2.1,5.5-4.2,8.2-6.3c0.5-0.4,1-0.8,1.2-1.4
				c0.6-1.6-1.4-2.9-2.9-3.7c-1.5-0.8-2.8-3.2-1.3-4c1.8-1.4,3.5-2.8,5.2-4.1c-0.1-1-0.2-1.9-0.4-2.9c0.7-0.6,1.4-1.3,2.1-1.9
				c-3.3,1.5-6.7,2.9-10.3,2.6c-3.6-0.4-7.1-3.4-6.7-6.9c-2.2-2.1-6.5,2.3-8.7,0.1c-1.8-1.7,0.7-4.5,2.9-5.5c2.2-1,5.1-2.8,4.3-5.1
				c0.8,1.1,2.2,1.8,3.6,1.8c0.2-1,0.1-2.1-0.4-3.1c-3.3-0.4-4.8-4.8-3.5-7.8c1.3-3,4.4-4.9,7.2-6.6c2.9-1.6,5.9-3.4,7.4-6.4
				c0.8-1.6,1-3.5,1.5-5.2c1-3.9,3.2-7.5,6.2-10.1c-0.4-2.7,0.3-5.5,2-7.5c0.7-0.9,1.6-1.8,1.4-2.9c-0.1-0.7-0.7-1.2-0.7-1.9
				c0-1.1,1.4-1.6,2.2-2.3c1.5-1.4,1-4-0.5-5.4c-1.5-1.4-3.5-1.9-5.5-2.3c0.1-1.9-0.4-3.8-1.3-5.4c-3.8-1.2-7.6-2.3-11.4-3.5
				c-0.7-0.2-1.4-0.4-1.9-0.9c-0.5-0.4-0.8-1-1-1.6c-0.8-1.7-1.6-3.4-2.3-5c-0.1-0.3-0.2-0.6-0.4-0.9c0.1,0.3,0.3,0.6,0.4,0.9
				c0.9,2.8-1.6,6.2-4.6,7.1c-3.4,0.9-6.9-0.3-10.2-1.5c-1.5-0.5-3-1.1-4.4-1.6c-1.9,0.1-3.7,1.2-4.6,2.8c-1.4-1.4-3.9-0.9-5.3,0.5
				c-1.4,1.4-2,3.4-2.6,5.2c-1.4,0-2.9,0-4.3,0.1c-0.2,1.3-0.4,2.5-0.7,3.8c1.3,0.6,2.6,1.1,3.9,1.7c-1.1,3-4.5,5-7.7,4.5
				c0,2.8-0.9,5.7-2.5,8.1c-0.2,0.2-4.6,5.2-2.7,5.4c-1.7,0-3.2,1.5-3.2,3.2c0,1-0.2,2.6-1.1,2.2c1.2,0.7,1.9,2.2,1.7,3.6
				c-0.9-0.6-2.2,0.3-2.5,1.3c-0.4,1-0.2,2.1-0.4,3.2c-0.5,2.7-2.8,4.5-5,6.1c-8.3,5.9-16.5,11.8-24.8,17.7c-3.8,1-7.4,3.3-9.9,6.3
				c0.4,1.9,0.4,3.8,0.2,5.6c-2.9-0.1-5.7,2-6.5,4.8c-0.5,1.8-0.2,3.6-0.6,5.4c-0.4,1.8-1.7,3.7-3.6,3.5c1.2,0.1,1.8,1.5,1.8,2.6
				c0,1.2-0.4,2.4-0.2,3.5c0.1,0.8,0.6,1.4,0.8,2.1c0.6,2.2-0.8,4.5-2.1,6.5c-3.3,4.8-6.6,9.7-9.9,14.5c-1,0.4-2.1,0.1-2.9-0.6
				c0.3-1.3,0.5-2.5,0.8-3.8c-1.4-0.9-2.3,1.7-3.5,2.9c-1.8,1.7-4.7-0.1-7.2-0.2c-3.1-0.1-5.3,2.7-7.3,5c-2.8,3.4-7.9,6.7-11.2,3.8
				c0.3-5-6-8.4-10.9-7.2c-4.9,1.2-8.6,5.2-11.9,9c0.5,2.4,1.1,4.8,1.6,7.2c-6.1,7-7.5,17.8-3.3,26.1c3.1,6.2,8.8,10.7,14.6,14.5
				c3.6,2.3,7.5,4.6,11.8,5.1c7,0.8,14.8-2.7,20.6,1.2c3.3-4.2,8.5-6.9,13.9-7.1c0.2,1.6-0.1,5.7,1.4,6.6c1.1,0.7,3.6-0.8,4.5,0.2
				c1.5,1.8,3.2,4.3,3.6,6.7c0.4,2.1,1.3,4.1,2.3,6c0.2,0.4,0.3,0.7,0.6,1c0.2,0.2,0.3,0.4,0.5,0.6c1.1,1.2,1.9,3.4,1.8,5
				c-0.2,2.2-2.3,3.5-2.7,5.3c-1,4.7-1,9.6,0.1,14.3c0.5,2,1.2,4.1,2.5,5.7c1.3,1.5,3.2,2.4,5,3.1c7.4,2.7,15.6,1.7,23.4,0.3
				c2.8-0.5,5.8-1.1,8.2-2.7c2.4-1.6,4.3-4.4,3.9-7.2c-0.1-0.8-0.4-1.7-0.4-2.5c-0.3-3.8,3.5-6.3,6.6-8.5c3.2-2.3,6.1-5.2,8.5-8.5
				c1-1.3,1.9-2.8,1.8-4.5c-0.1-1.6-1.8-3.2-3.4-2.6c1.6-0.7,3.3-1.3,4.9-2.1c3.4-1.6,6.6-3.5,9.5-5.8c2-1.5,3.9-3.2,6.2-4.2
				c4.9-2,10.5,0,15.4,1.9c1.8,0.7,3.7,1.5,5,2.9c1.3,1.5,1.8,3.8,0.5,5.3c4,0.3,8-0.4,11.6-2c-0.9-1.1,0.4-3,1.7-2.6
				c-0.7,1.8-0.2,3.9,0.9,5.4c0.6,0.8,1.5,1.2,2.1,2c0.5,0.5,0.8,1.8,1.3,2.2c0.5,0.3,1.1,0.3,1.6,0.3c1,0,1.9,0,2.9-0.1
				c0.1,0,0.3,0,0.4-0.1c0.1-0.1,0.1-0.3,0.1-0.4c0-0.5,0-1.1,0-1.6c0-0.2,0-0.4,0.1-0.5c0.1-0.1,0.3-0.2,0.4-0.2
				c2.4-0.6,4.8-0.5,7.2-1c2.9-0.6,5.9-0.4,8.8-0.1c-0.2-0.9,0.2-1.8,0.6-2.7c1.1-2.3,2.5-4.9,5-5.5c1.6-0.4,3.7,1.1,3.8,2.7
				c0.1,0.7-1.6,4.1,0.7,3.9c1.3-0.1,2.5-0.9,3.1-2.1c0.8,0.6,1.6,1.3,2.4,1.9c1.8-0.3,3.6-1,5.3-1.2c1.9-0.2,3.6,0.9,5.5,0.9
				c1.3,0,2.6-0.6,3.3-1.6c0.1-0.2,0.2-0.4,0.4-0.6c1.5-1.5,7,1,4.8,2.9c-0.6,0.5-1.4,0.4-2.1,0.5c-1.9,0.5-2.7,3-2,4.9
				c0.7,1.8,2.3,3.2,3.9,4.3c-1.3,1-2.1,2.5-2.4,4.1c-1.6-0.9-3.9-0.3-4.8,1.3c-0.9,1.6-0.2,3.9,1.3,4.7c0.6,0.4,1.4,0.5,2,0.8
				c1.9,0.9,2.9,3.2,2.4,5.1c-0.5,2-2.6,3.4-4.6,3.2c0.7,1.2,0.8,2.7,0.2,4c-1.9,0.6-3.8,1.2-5.6,1.8c-1.5,0.5-3.2,0.9-4.6,0.3
				c-1.5-0.6-2.2-2.9-0.8-3.8c1.2,0.3,2.6,0.1,3.7-0.5c-2.6,0-5.1-2-5.7-4.6c-0.8,3-2.8,5.6-5.4,7.1c-0.6-2.7-2.9-4.9-5.7-5.3
				c2,1.8-0.3,5.1-2.7,6.4c-2.4,1.3-5.5,2.9-5.2,5.6c-2,0.2-3.9,0.5-5.9,0.7c1.5,1,2.1,3.1,1.5,4.8c-2.6-1.3-5.2-2.5-7.8-3.8
				c1.4,0.7,1.5,2.7,0.8,4.2c-0.7,1.4-1.9,2.5-2.6,3.9c-5.2,1.3-10.1,4.3-13.7,8.3c-1.2,1.7-3.6,1.8-5.5,1.3s-3.8-1.4-5.8-1.5
				c-0.1,0-0.3,0-0.4,0c-1.9,0.2-3.9,1.6-3.7,3.5c0.1,0.7,0.5,1.3,1.1,1.6c1.8,0.6,2.5-2.2,2.3-4.1c0,0,0.1,0,0.1,0
				c1,0.2,2.1,0.4,3.1,0.6c4.3,3.1,5,10.1,1.4,14c-2-0.8-3.5-2.6-3.9-4.7c-2.1,1.1-3.8,2.8-5,4.8c0.7,1.5,1.4,3.1,2.1,4.6
				c-0.9-0.1-1.9-0.1-2.8-0.2c1.2,3.7,2.8,7.3,4.5,10.8c-5.5,2.6-11,5.3-16.5,7.9c-0.4,0.2-0.8,0.4-1.3,0.4c-0.1,0-0.2,0-0.2,0
				c-1.5-0.2-1.9-2.5-1.4-4c0.6-1.6,1.6-3.2,1.1-4.8c-3.5,0.4-7.1,0.8-10.6,1.2c0.1,2.1,0.1,4.1,0.2,6.2c2.5-0.3,4.9,2.1,4.6,4.6
				c1.9-0.5,3.8-0.6,5.8-0.3c0.2,0,0.4,0,0.6,0.1c-1.7,4-5.4,7.1-9.7,8c-1.7,1.4-1.8,4-2.2,6.2c-0.3,2.2-1.5,4.8-3.8,5
				c0.1,2.4,0,4.7-0.3,7.1c-1.5,0.4-3.2-1-3.1-2.6c-0.8,1.6-1.3,3.3-1.3,5.1c-1.3,0.4-3.2-0.8-3.2-2.2c-3.9,0.5-4.8,6-5.1,9.2
				c-0.3,3.8-1.3,8.5-5,9.3c-0.5,0.1-1.1,0.2-1.6,0.5c-1.4,1.1-0.7,3.8-0.4,5.2c0.5,2,0.4,3.8,0.4,5.8c0,0.9-0.2,2.1-1.1,2.5
				c-0.4,0.2-0.9,0.1-1.3,0.1c-2-0.1-4.1,1.3-4.8,3.2c-0.8,2.2,0,4.6,0.3,6.9c-8.7,7.1-17.3,14.4-25.9,21.7
				c-2.9,2.4-5.8,4.9-9.2,6.4c-2.9,1.2-6.1,1.7-9.2,2.2c-15.1,2.2-30.7,4.3-45.5,0.5c-8.7-2.2-16.9-6.4-25.8-7.3
				c-11.6-1.1-22.8,3.6-33.9,7.2c-11.1,3.6-23.7,5.9-34,0.5c-2-1-3.8-2.3-5.9-2.9c-1.8-0.5-3.8-0.4-5.7-0.4c-15.1,0.5-30.3,1-45,4.2
				c-5.7,1.3-11.4,2.9-17.2,3.5c-6.7,0.6-13.6-0.3-20,1.5c-6.3,1.8-11.7,6.2-18.1,8.1c-9.5,2.8-21-0.5-29-5.9
				C1856.8,1286.3,1855,1283.7,1853.9,1280.8z"/>
			<path class="st1" d="M2323,1683.7c-0.1,0.1-0.3,0.2-0.4,0.2C2322.7,1683.8,2322.8,1683.8,2323,1683.7z"/>
			<path class="st1" d="M2244.6,880c-0.1-0.3-0.3-0.6-0.4-0.9C2244.4,879.4,2244.5,879.7,2244.6,880z"/>
			<path class="st1" d="M2234.8,1012.4c0,0.1,0,0.2-0.1,0.3c-0.2-0.4-0.5-0.9-0.7-1.3C2234.3,1011.8,2234.5,1012.1,2234.8,1012.4z"
				/>
			<path class="st1" d="M2222.3,1868.1c1.3,1.5,2.6,4,0.9,5c-2.9-1-4.7-4.6-3.7-7.6l1.3-0.4
				C2221,1866.2,2221.6,1867.3,2222.3,1868.1z"/>
			<path class="st1" d="M2202.1,1900.3c0.7,0.8,0.8,1.8,0.7,2.8C2202.3,1902.3,2202,1901.3,2202.1,1900.3z"/>
			<path class="st1" d="M2191.2,1925.3c-0.2,0.1-0.4,0.2-0.6,0.3c1,1.4,0.6,3.6-0.7,4.7c-1.3,1.1-3.5,1-4.7-0.2
				c0.2-2.2,1.4-4.2,3.3-5.3L2191.2,1925.3z"/>
			<path class="st1" d="M2025,2030.5c0.4,3-4.3,4.5-6.3,2.4c-1.8-1.9-1.3-5.1,0.4-7.2l2.8,0.5
				C2021.3,2028.1,2022.9,2030.4,2025,2030.5z"/>
			<path class="st1" d="M2011.6,2025.5l2.5,1.3c-1.1,1.2-2.1,2.7-2.8,4c-2,3.3-8,5.7-8.8,1.8
				C2004.5,2029.3,2007.8,2026.7,2011.6,2025.5z"/>
			<path class="st1" d="M1977.5,2042.6c3-0.1,3.9,5.1,1.2,6.4c-2.7,1.3-6.2-1.3-6.2-4.3c1-1.4,1.8-2.9,2.4-4.5l2.5,0.4
				C1977.2,2041.3,1977.2,2042,1977.5,2042.6z"/>
			<path class="st4" d="M1963.8,897.8l-0.1,0.5c-4.5,15.8-10.4,31.2-16.8,46.4c-4.3,10.2-10.2,20.4-13.4,31
				c-2.6,8.7-4.1,13.6-10.2,21.1c-13.3,16.3-28.5,31.2-40,48.9c-5.6,8.6-10.3,17.7-15,26.8c-3.1,6-6.2,12-9.3,18.1l-0.5-0.2
				c-13.1,1.8-26.2,3.7-39.3,5.6c-5.9,0.8-11.8,1.7-17.5,3c-5.6,1.3-11.1,3.1-16.7,4.2c-9.1,1.8-18.4,1.7-27.6,1.6
				c-17.8-0.1-38.2-7.5-55.4-1.4c-2.5,0.9-4.9,2-7.6,2.5c-8.1,1.4-15.7-4-22.2-9c-7.8-6.1-14.7-6.2-23.5-10.4
				c-9.4-4.4-17.7-10.7-26-16.9c-9.4-7-19.1-14.5-24.1-25.1c-1.1-2.4-2-4.9-2.9-7.3c12.5-8,20.6-22.4,24.3-37.1
				c4.3-16.9,3.6-34.7,4.2-52.1c0.3-9.2,0.9-18.3,1.5-27.4c0.8-12.3,1.6-24.7,2.4-37c0.5-7,0.2-9.1,5.1-14c4-3.9,8.6-7.4,12.9-10.9
				c15.1-12.4,30.8-24.3,48.5-32.7c34.1-16.2,66.5-10.8,101.1,0.1c37.5,11.8,75,23.7,112.1,36.8c10.4,3.7,21,7.6,29.6,14.5
				c7.8,6.3,14.6,16.8,24.4,20.1C1962.5,897.5,1963.2,897.7,1963.8,897.8z"/>
			<path class="st5" d="M1859.1,1090.5c-1.9,3.8-3.9,7.6-5.8,11.3c-4.8,9.2-9.6,18.6-11.8,28.8c-4.3,19.7,1.5,40.2,1,60.4
				c-0.4,14.9-4.1,30-0.2,44.4c2.4,9,7.8,17.2,9.3,26.5c1.1,6.8,0.3,13.4,2.5,19c-23.3,5.4-44.5,19.3-58.8,38.5
				c-5.2,6.9-9.5,14.5-14.6,21.5c-10,13.7-23.8,25.4-40.4,28.9c-12.8,2.7-26.3,0.2-39.2,2.9c-8.1,1.7-15.7,5.3-23.6,7.9
				c-20.8,6.7-43.9,5.7-63.7,15.1c-7,3.4-13.4,7.9-20.4,11.1c-17.8,8-38.7,0.5-56.2-4.6c-20-5.8-39.6-12.8-59.1-20
				c-3.7-1.4-7.9-2.7-11.5-1.1c-3.2,1.5-4.9,5-7.4,7.6c-8.3,9.1-23.2,6.4-34.4,1.5c-11.3-4.9-23.3-11.5-35.1-8
				c-1.6,0.5-2.2,0.4-3,0.7c-0.1-2.8-1-5.6-3.5-8.4c-6.9-8.2-12.3-18.6-17.3-28c-10.1-18.9-17.8-39-22.9-59.8
				c-2.6-10.4-4.5-21-8.9-30.8c-2.2-4.9-5-9.6-6.4-14.8c-0.3-1.1-0.5-2.3-0.7-3.4l0.1,0c7.1-5.7,18-5.9,25.4-0.6
				c5,3.6,8.4,9.5,14.1,11.8c2,0.8,4.2,1.2,6.4,1.5c8,1.2,16,2.3,24,3.5c5.6,0.8,12.4,1.2,15.9-3.3c1.6-2,2.1-4.6,3-7
				c3-7.5,10.7-12.9,18.8-13c8.4-0.1,17.9,4.5,24.3-0.8c2.1-1.7,3.4-4.2,5.3-6c4-3.9,10.3-4.6,14.5-8.2c9.9-8.5-1.4-17.2-2.3-25.4
				c-1.3-12.5,5.9-24.1,2.4-37c9.2-5.9,14.6-20.5,18.6-29.1c4.4-9.7,9.1-20,11.6-30.3c2-8.3,3.6-14.4,10.2-20.7
				c5.5-5.3,12.2-9.1,18.9-12.9c9-5.1,18.1-10.3,28.1-13.3c7.8-2.3,16-3.2,23.5-6.4c2.2-0.9,4.2-2,6.2-3.3c1,2.4,1.8,4.9,2.9,7.3
				c5,10.6,14.7,18.1,24.1,25.1c8.2,6.2,16.6,12.5,26,16.9c8.8,4.2,15.7,4.3,23.5,10.4c6.5,5.1,14.1,10.4,22.2,9
				c2.6-0.4,5.1-1.6,7.6-2.5c17.2-6.1,37.6,1.2,55.4,1.4c9.2,0.1,18.5,0.1,27.6-1.6c5.6-1.1,11.1-2.9,16.7-4.2
				c5.8-1.3,11.7-2.2,17.5-3c13.1-1.9,26.2-3.7,39.3-5.6L1859.1,1090.5z"/>
			<path class="st2" d="M1858.8,2198.5c0,0.6,0,1.1,0,1.7c-3.2-0.3-6.6,1.1-8.7,3.5c-0.8,0.9-1.4,2.1-1.1,3.3
				c-1.4,0.6-2.9-0.1-3.6-1.4c-0.8-1.5-0.1-2.4,1.2-3.2c-0.2-0.9-1.4-1.5-2.2-1.1c-0.1,2.9-0.6,5.8-1.3,8.7c-0.2,0.8-0.5,1.5-1,2.2
				c-0.6,0.7-1.4,1.1-2.1,1.5c-3.1,2-5.1,5.7-5.1,9.4c0,0.9,0.1,1.9-0.2,2.8c-0.8,3.1-4.8,3.6-8,3.6c1.7,0.9,3.6,2.1,4,3.9
				c0.1,0.8,0,1.6-0.2,2.4c-0.9,4.5-2,8.9-3.3,13.3c-0.5,0.5-0.7,1.1-0.5,1.8l0.8,1c0.6,2.7-1.5,5.3-3.9,6.5
				c-2.4,1.3-5.2,1.6-7.8,2.7c-4.7,2-8.3,6.4-9.2,11.4c-0.3,1.5-0.4,3.2-1.2,4.5c-0.8,1.3-2.7,2.2-4,1.3c-0.5-0.4-0.8-1-1.4-1.3
				c-0.7-0.4-1.5-0.2-2.2-0.1c-2.1,0.4-4.2,0.8-6.3,1.2c-1,0.2-2,0.4-2.8,1c-3.1,2.4,0.2,8.4-2.8,11c-0.5-1.4-2-2.4-3.5-2.1
				c-2.6,0-1,3.1-1.4,3.8c-0.3,0.4-1.6,0.2-2,0.2c-1.5-0.3-0.8-0.6-1.7-1.8c-0.4-0.5-1-0.9-1.7-0.7c-0.9,0.3-1.1,1.6-2,2
				c-0.6,0.3-1.5,0.1-1.8-0.6c-0.3-0.6,0-1.5,0.6-1.8c-0.5-1.7-1.3-3.7-3.1-4c-1-0.2-1.9,0.3-2.9,0.5c-3.1,0.6-6.3-1.1-9.4-0.4
				c-1.2,0.3-2.5,1-3.7,0.5c-1.4-0.5-1.8-2.2-1.7-3.7c-2.7,0-5.3,0.4-7.9-0.1c-2.4-0.4-4.7-1.3-6.8-2.5c-1.7-0.9-2.7-2.5-4.2-3.4
				c-2-1.2-5-1.4-7.2-2c-0.4-0.1-0.9-0.2-1.2-0.6c-0.3-0.4-0.3-1-0.2-1.5c0.7-4.7,2.3-10.1-0.6-13.9c-1.2-1.7-3.3-3.1-3.2-5.1
				c0.1-1.4,1.2-2.5,1.7-3.8c1.2-4-4.2-8.9-1.3-11.9c1.2,1,2.6-1.5,1.8-2.9c-0.8-1.4-2.5-2.2-2.9-3.8c-0.5-2.3,2.2-4.3,2-6.7
				c3.5,0.1,5.9-3,8.7-5.2c0.3-0.2,0.6-0.5,1-0.7c1.5-1,3.2-1.6,4.8-2.6c2.5-1.6,4.3-4.3,5-7.2c0.7,1.4,3,0.8,3.9-0.6
				c0.9-1.3,1.2-3.1,2.5-4.1c1,0.5,2,0.9,3,1.4c-0.3-1,0.3-1.9,1.2-2.6c0.7-0.6,1.6-1,2.5-1.3c1.9-0.6,4.2-1.9,3.9-3.8
				c-2.9,0.1-5.8,1.1-8.2,2.8c-1-3.2,1-6.9,4.2-7.9c0.1-1.1,0.1-2.2,0.2-3.3c3.4,1,6.7,2,10.1,3c2.5,0.8,5.5,1.4,7.6-0.3
				c-2.5-2.7-0.6-7.6,2.9-8.9s7.4,0.2,10.3,2.5c0-1.2,0.7-2.4,1.8-2.9c1,0.9,2,1.8,2.9,2.7c0.2-1.3,1.8-2.2,3-1.7
				c1.2,0.5,1.7,2.2,1,3.3c0.2,0.8,1.6,0.5,2-0.3c0.4-0.8,0.2-1.8,0.7-2.5c1.2-1.7,4.3-0.2,5.9-1.7c0.8-0.8,0.8-2.1,1.4-3
				c1.1-1.6,3.4-1.6,5.3-1.1c1.9,0.5,3.8,1.4,5.7,0.9c1-0.2,1.8-0.8,2.8-1.1c3.7-1,7.7,3.4,11.1,1.7c1-1.6,1.3-3.7,0.9-5.6
				c2.1-0.3,4.1-1.5,5.3-3.3c0.9,1.5,1.9,3.1,2.8,4.6c2.4,2.4,6.1,3.5,9.4,2.8c1.4-0.3,2.9,0.4,3.8,1.5c0.2,0.2,1.7,3.4,0.9,3.5
				c1-0.1,2,0.7,2.4,1.6c0.4,0.9,0.5,2,0.6,3c0.1,2.1,0.3,4.2,0.4,6.4c0.1,1.1,0.2,2.2,0.8,3
				C1856.6,2197.7,1857.7,2198.1,1858.8,2198.5z"/>
			<path class="st6" d="M1830.9,2248.9c1.2,1.8-1.8,4.5-3.4,3l-0.8-1c0.2-0.6,0.3-1.2,0.5-1.8
				C1828.1,2248,1830,2247.6,1830.9,2248.9z"/>
			<path class="st6" d="M1827.1,2249.1c-0.2,0.6-0.3,1.2-0.5,1.8C1826.5,2250.2,1826.7,2249.5,1827.1,2249.1z"/>
			<path class="st1" d="M1805.7,2167c-0.3,0.6-1.2,0-1.2-0.6C1804.9,2166.5,1805.3,2166.8,1805.7,2167z"/>
			<path class="st1" d="M1783.9,2141.4c-0.4-0.1-0.9-0.1-1.3-0.2C1783,2141,1783.5,2141.1,1783.9,2141.4z"/>
			<path class="st5" d="M1758,2197.1c0.3,1.9-2,3.2-3.9,3.8c-0.8,0.3-1.8,0.7-2.5,1.3l-1.8-2.3
				C1752.1,2198.1,1755,2197.1,1758,2197.1z"/>
			<path class="st1" d="M1598,2172c-0.1,0.1-0.3,0.2-0.4,0.2C1597.7,2172.1,1597.8,2172.1,1598,2172z"/>
			<path class="st1" d="M1554.8,2266.8c-0.2,0.1-0.4,0.1-0.6,0.2C1554.4,2266.9,1554.6,2266.8,1554.8,2266.8z"/>
			<path class="st2" d="M1476.4,1190c0.9,8.2,12.2,16.8,2.3,25.4c-4.2,3.6-10.5,4.3-14.5,8.2c-1.9,1.8-3.2,4.3-5.3,6
				c-6.5,5.3-16,0.7-24.3,0.8c-8.1,0.1-15.9,5.5-18.8,13c-0.9,2.4-1.5,5-3,7c-3.5,4.5-10.2,4.1-15.9,3.3c-8-1.2-16-2.3-24-3.5
				c-2.2-0.3-4.4-0.6-6.4-1.5c-5.7-2.3-9.1-8.2-14.1-11.8c-7.4-5.4-18.3-5.1-25.4,0.6l-0.1,0c-0.5-3.8-0.5-7.7-0.4-11.5
				c0.3-21,0.6-42.1,1-63.1c0.2-10.8,0.3-25-7.7-33.5c-8.4-8.9-20.5-13.9-28.8-23.5c-12.9-15-31.6-14.2-48.1-23.8
				c-6.3-3.7-11.9-8.3-18.2-11.9c-17.5-10.2-38.5-12.4-58.7-14.4c-30.5-3.1-61.1-6.6-90.3-15.5c-19.5-5.9-44.8-16.3-53.1-36.9
				c-2-5.1-2-10.7-1.8-16.1c0.6-15.2,2.7-30.7,8.9-44.6c6.2-14,16.8-26.4,30.8-32.4c16.3-6.9,30.2-8,46.1,1.6
				c10.2,6.1,18.7,14.7,27.6,22.5c11.9,10.4,27.3,24.7,42.1,30.7c8.6,3.5,19.3,3.8,28.4,6.5c9.3,2.8,18.3,6.6,26.5,11.9
				c6,4,11.5,8.9,16.9,13.7c21.9,20.4,44.7,44.5,72,57.6c15.9,7.6,34.6,11.2,52.1,7.5c18.9-4,35.1-15.2,54.8-18.3
				c11-1.8,24.4-1.1,30.5,8.2c7.2,11.1-1.2,25.8-10.7,35.1c-9.5,9.2-21.3,18.8-21.6,32.1c-0.4,15.4,14.9,26.1,29,32.2
				c5.7,2.5,11.8,4.7,17.9,4c2.6-0.3,4.9-1.2,7-2.6C1482.3,1165.9,1475.1,1177.5,1476.4,1190z"/>
		</g>
		<g>
			<path class="st7" d="M1554.8,2266.8c-0.2,0.1-0.4,0.1-0.6,0.2C1554.4,2266.9,1554.6,2266.8,1554.8,2266.8z"/>
			<path class="st7" d="M1598,2172c0.6-0.1,1.4,0.6,1.3,1.4c-0.2,0.9-1.1,1.5-1.9,2c-3.7,2-8.6,3.7-11.6,6.6c-2,1.9-4,4.6-5.7,6.8
				c-1.1,1.5-2.2,3.2-3.9,3.9c-1.7,0.8-4.3-0.1-4.3-2c-2.2,0.5-4.3,1.6-5.9,3.2c0.4,1.1,0.5,2.3,0.3,3.4c-2.9,1.9-1.8,6.4-3.6,9.3
				c-0.7,1.1-1.9,1.9-2.7,3c-3.2,4.2-0.1,10.3-1.4,15.4c-0.8,0.2-1.6,0.3-2.4,0.4c1.6,2.9,2.2,6.3,1.8,9.5c-1.2-0.8-2.8,0.5-3.2,1.9
				c-0.3,1.4,0.1,2.9,0,4.3c-0.2,2.7-2.5,5.1-5.2,5.4c-0.6,0.1-1.2,0.1-1.6,0.5c-0.2,0.3-0.2,0.6-0.3,0.9c-0.3,3.1-0.4,6.5,1.6,8.9
				c1,1.2,2.5,2,3.9,2.8c1.3,0.9,2.7,2,3.1,3.5c0.4,1.3-0.2,3-1.4,3.6"/>
			<path class="st7" d="M1598,2172c-0.1,0.1-0.3,0.2-0.4,0.2C1597.7,2172.1,1597.8,2172.1,1598,2172z"/>
			<path class="st7" d="M1782.5,2141.2c-0.7-0.1-1.3-0.2-2-0.2c0.2-2.5,0-5-0.5-7.4c-1.5,0.1-2.9,0.2-4.4,0.3
				c-1.2-9-0.2-18.3,2.7-27c0.5-1.6,1.1-3.1,2.2-4.3c1.6-1.8,4.1-2.7,6.5-2.4c0.5-1.8,0.3-3.8-0.4-5.5c-2.9,0.8-5.9,1.5-8.9,1.1
				c-3-0.4-6-2.3-6.7-5.3c-1.9-1.9-3.8-3.8-5.7-5.8c0.7-1.2,0.7-2.8,0-4.1c-2.2-0.4-3.2,3-2.1,5c1.1,2,3.1,3.6,3.4,5.8
				c0.5,3.2-2.9,5.8-6.1,6.4c-3.2,0.6-6.6,0.2-9.6,1.2c-2.9,1-5.3,3.4-8.3,3.9c-3,0.6-6.9-2.4-5.3-5.1c1.4-2.3,6.1-3.7,4.4-5.8
				c-6.4-1.7-12.9-3.3-19.3-5c-0.2-0.1-0.5-0.1-0.7-0.2c-3.1-0.8-6.4-1.7-8.8-3.8c-2.4-2.2-3.6-6-1.8-8.7c-2,0.8-4,1.7-6,2.5
				c1.8,2.5,3.6,5.1,4.3,8.1c0.7,3,0.2,6.5-2.2,8.5c-2.4,2-6.6,1.5-7.9-1.3c-0.7-1.6-0.4-3.4-0.8-5c-0.5-1.6-2.6-3-3.8-1.8
				c2.5,4.6,0.2,11.2-4.7,13.1c1.2-2.2,1.6-4.8,1.3-7.3c-3.7,2-7.4,3.9-11.1,5.9c1.2,0.8,2.4,1.5,3.6,2.2c-2,1.6-4.2,3.2-6.8,3.5
				c-2.6,0.3-5.5-1.4-5.5-4c-1.8,0-3.6,0.1-5.5,0.1c1.4,1.7,0.7,4.5-1.1,5.9c-1.7,1.4-4.1,1.8-6.2,2.1c0.2,1.7-0.2,3.4-1,4.9
				c-1.9-0.6-3.7-1.3-5.6-2c0,1.8-0.7,3.6-2,4.8c-2.1-1.8-6.2-3.2-6.9-0.5c-0.2,0.7,0,1.5,0.2,2.2c0.9,3,1.7,6.1,2.6,9.1
				c-2.2,3.7-6.7,5.7-10.9,4.9c-0.3,1.4-0.5,2.8-0.8,4.2c-2.5-0.5-4.9-1.1-7.4-1.6c1.8-1.1,2.9-3.3,2.7-5.4c-1.9-0.3-4,0.2-5.6,1.3
				c1.4,0.5,1.1,2.2,0,3.3c-0.6,0.6-1.3,1-2.1,1c-1.1,0-2.2-0.4-3.2-0.9c-1-0.5-2.1-1-3.2-1.2c-2.2-0.4-5,2-3.5,3.7
				c2,0.7,4.4,0.2,6-1.3c0.5,3.3,4.6,4.5,7.5,6.1c2.9,1.7,4.5,6.9,1.3,7.7c-3.1-2.5-6.8-4.3-10.6-5.2c-1.6-2.6-4.4-4.4-7.4-4.9
				c-0.6,3.8,0.9,7.9,3.7,10.5c-3.2,1.9-6.3,3.7-9.5,5.6c-1.1,2.1-3,3.7-5.2,4.6c2.5,4.6,4.3,11.4,0.2,14.2"/>
			<path class="st7" d="M1782.5,2141.2c0.4-0.2,0.9-0.2,1.3,0.2C1783.4,2141.3,1783,2141.3,1782.5,2141.2z"/>
			<line class="st7" x1="1782.5" y1="2141.2" x2="1782.5" y2="2141.2"/>
			<path class="st7" d="M1804.4,2166.4c-4.3-1.9-9.6-1.3-13.4,1.4c-1.4-3.6-2.8-7.1-4.1-10.7c2.9-0.9,6.2,0.3,7.9,2.8
				c-1.1-4.5-5.5-8-10.2-8c0.9-1.3,0.1-3.1-0.9-4.3c-1-1.2-2.4-2.3-2.7-3.9c-0.2-1,0.6-2.2,1.4-2.6"/>
			<path class="st7" d="M1804.4,2166.4c0,0.6,0.9,1.2,1.2,0.6C1805.3,2166.8,1804.9,2166.5,1804.4,2166.4z"/>
			<path class="st7" d="M2202.8,1903.2c-0.1,0.8-0.4,1.7-0.8,2.5c-0.8,1.7-1.9,3.3-2,5.2c-0.1,1.7,0.8,3.3,0.8,5.1
				c0.1,1.7-1.3,3.8-2.9,3.3c1.4-2.4,1.2-5.6-0.5-7.8c-1.7-2.2-4.8-3.2-7.5-2.4c0.9,1.7,2.2,3.3,3.7,4.5c-1.5,1-2.3,2.9-2.1,4.6
				c1.8-0.1,3,2,2.6,3.7c-0.4,1.5-1.5,2.6-2.9,3.4c-0.2,0.1-0.4,0.2-0.6,0.3c1,1.4,0.6,3.6-0.7,4.7c-1.3,1.1-3.5,1-4.7-0.2
				c0.2-2.2,1.4-4.2,3.3-5.3c-2.6-0.2-3.3-4.6-0.9-5.6c-4.1,0.6-7.1,5.2-5.9,9.2c-3.3-0.1-6.6,2.1-7.8,5.3c-2.1-0.8-3.8-2.7-4.3-4.9
				c-2.6-0.2-5.2,0.2-7.7,1.1c0.1,3.3,0.1,6.7-0.7,9.9c-0.9,3.2-2.9,6.3-6,7.6c-0.9,0.4-1.9,0.6-2.9,0.8c-2.4,0.3-5-0.2-7.4-0.7
				c-1,1.4,1.2,3.2,2.9,2.9c1.6-0.2,3-1.2,4.6-1.5c0.1,0,0.2,0,0.3,0c3.5-0.2,5.7,3.6,7,6.9c-2.8-2.2-7.7-0.5-8.4,3
				c-1-1.6-3.3-2.2-4.9-1.4c1-0.2,1.5,1.3,1.1,2.3c-0.4,1-1.3,1.6-1.7,2.6c-0.7,2,1,3.9,1.4,5.9c0.6,3.4-3,6.4-6.5,6.6
				c-3.5,0.2-6.7-1.7-9.7-3.4c-1.9,3.6-3.3,7.5-4.1,11.5c-2.3,0.8-5.3,1.1-7.8,1.7c-3.7,0.9-9.1,1.4-9.3,5.3c-3.1-2.4-6-5-8.7-7.8
				c-3,1-6.3,1-9.3,0.2c1.4,0.7,2.7,1.3,4.1,2c-0.7,1.8-1.3,3.5-2,5.3c1.3,1,2.7,2,4,2.9c-1.5,6-12,6.2-13.8,0.3
				c-1.6-0.2-3.2-0.8-4.4-1.9c0.7-1.9,0.9-4,0.7-6c-1.7,5-8,6.2-12.5,8.9c-4.6,2.8-7.8,7.9-8.1,13.3c-3.3,1.1-7.2-0.3-9-3.2
				c-1.9-2.9-1.5-7,0.8-9.5c-3.4,0.6-6.6,1.8-9.7,3.4c-1.6,0.8-3.4,2.1-3.4,4c-0.1,1.8,3,3,3.6,1.3c0.5,1.7-0.9,3.6-2.6,3.6
				c0.5,1.8,2.3,3.1,4.1,3.1c1.2,2.9-2.4,6-5.5,5.2c-3-0.8-4.9-3.8-5.7-6.8c-3.4-1-7.3,0.7-9,3.7c3.6,1.1,7,2.9,10,5.2
				c0.1,3.2-3.3,5.9-6.4,5.2c0.4,1.8,0.2,3.7-0.5,5.4c-1.5-0.4-3.1-0.9-4.6-1.3c-0.6,2,1,4.3,3.1,4.3c0.4,3-4.3,4.5-6.3,2.4
				c-1.8-1.9-1.3-5.1,0.4-7.2c0.2-0.3,0.5-0.5,0.7-0.7c-2.1-1.2-4.1,0-5.8,1.9c-1.1,1.2-2.1,2.7-2.8,4c-2,3.3-8,5.7-8.8,1.8
				c2-3.4,5.4-6,9.1-7.2c-2.4-0.7-4.9-1.4-7.3-2.2c0.7-1.4,1.3-2.8,2-4.1c-3.8-5.1-7.7-10.1-11.5-15.2c-6.5-3.7-11.6-9.6-14.3-16.5
				c-2.8,5.1,1.2,12.5,7,13c-2.3,3.2-6.8,4.6-10.5,3.3c5.7,2.6,9.5,8.8,9.3,15c-0.2,3.4,0.6,8.7,3.8,7.6c-2.7,1.9-1.6,6-0.5,9.1
				c1.1,3.1,1.1,7.7-2.1,8.4c-3.1,0.7-5.1-3.2-5.8-6.3c-1.9-0.4-3.7,1.2-4.1,3.1c-0.1,0.7-0.1,1.4,0.2,2c3-0.1,3.9,5.1,1.2,6.4
				c-2.7,1.3-6.2-1.3-6.2-4.3c1-1.4,1.8-2.9,2.4-4.5c0.1-0.2,0.2-0.5,0.2-0.7c-2.8,0.9-4.4,4.2-3.5,6.9c-2.4-0.1-4.8-0.2-7.2-0.3
				c-0.8-2.4-1.6-4.8-2.3-7.2c-4,0.4-4.9,5.7-4.5,9.7c0.4,4,0.3,9.1-3.4,10.5c-2.4-0.4-4.1-3.3-3.3-5.6c-6.4,1.4-11.7,6.9-12.8,13.4
				c-5,0.1-10.1-2.2-13.3-6c2.2,3.6,0.2,9.1-3.9,10.3c-4.1,1.2-8.8-2.2-8.9-6.5c-4.3,3.4-11.4,2.2-14.3-2.5c-0.4,2.7,1.4,5.5,4,6.2
				c-1.4,1.8-2.8,3.7-4.2,5.5c2.5,1.2,5.4,1.8,8.2,1.8c-3.1,2.3-6.3,4.5-9.4,6.8c-1.9-2.2-4.6-3.7-7.5-4.2c-2,1.9-3.5,4.4-4.3,7.1
				c-5.3-0.5-10.5-1.1-15.2,2c-1.6,1.1-3.1,2.5-5,3.1c-4.8,1.4-10.1-3.3-14.6-1c-3,1.5-4.1,5.6-7.3,6.6c-2.6,0.8-5.5-0.8-7.9,0.4
				c-1.4,0.7-2.3,2.1-3,3.5c-3.7,7-6.3,14.5-7.7,22.3c-5.2-1.9-11.1-1.7-16.2,0.4c-0.2-1.9-1.3-3.7-2.9-4.8
				c-1.3,2.2-2.7,4.6-2.9,7.2c-0.1,2.6,1.4,5.5,4,6c2.3,0.4,4.5-1.2,6.8-1.2c3,0,5.6,3.1,5.1,6.1c-1.1,1.2-2.8,1.9-4.5,1.6
				c-1,1.8-0.1,4.5,1.8,5.3c1.9,0.8,4.4-0.4,5-2.4c1.5,2.8,3,5.7,4.6,8.5c0.6,1.1,1.2,2.4,1.2,3.7c-0.1,4.4-7.1,6.8-6.1,11
				c-4.4,0.5-8.8,1.1-13.2,1.6c-0.8,0.1-1.7,0.3-2,1c0,0.1-0.1,0.2-0.1,0.3"/>
			<path class="st7" d="M2202.8,1903.2c-0.5-0.9-0.7-1.8-0.7-2.8C2202.7,1901.1,2202.9,1902.1,2202.8,1903.2z"/>
			<path class="st7" d="M2323,1683.7c0.5-0.1,1.1-0.1,1.5,0.1c0.1,2.1,0.2,4.3,0.3,6.4c0,0.5,0,1.1-0.2,1.5
				c-0.4,0.7-1.3,0.9-2.2,1.1c-1.5,0.3-3.2,0.5-4.4-0.4c-0.4-0.3-0.8-0.7-1.2-1.1c-0.8-0.6-1.8-0.9-2.8-1.3c-0.9-0.4-1.7-0.9-2-1.8
				c-0.2-0.6-0.3-1.4-0.9-1.5c-0.4,0-0.7,0.3-0.9,0.5c-0.8,0.9-1.6,1.8-2.3,2.6c-0.6,0.7-1.2,1.4-1.4,2.3c-0.1,0.9,0.6,2,1.5,1.9
				c0.6-1.3,1.4-2.8,2.8-3.3c1-0.2,2.1-0.2,3,0.1c0.9,0.2,1.7,0.7,2.4,1.2c0.7,0.6,1.3,1.3,1.8,2.1c0.9,1.3,1.7,2.9,1.3,4.5
				c-0.3,1.3-1.6,2.4-3,2.5c-1.4,0.1-2.8-0.8-3.3-2.1c-0.1,1.1-0.1,2.2-0.1,3.3c0,0.2,0,0.5,0,0.7c-0.1,2.7-0.2,5.4-0.8,8
				c-0.1,0.6-0.4,1.3-0.9,1.6c-1.3,0.6-3.2-1.2-4,0c-0.2,0.3-0.2,0.8-0.4,1.2c-0.6,1.1-2.3,0.4-3.4,0.9c-1,0.5-1.1,2.3-0.1,2.8
				c0.9,0.5,2,0,3-0.2s2.4,0.2,2.4,1.3c-0.1,0.7-0.8,1.1-1.4,1.1c-0.1,0-0.1,0-0.2,0c-0.6,0-1.1-0.2-1.7-0.3c-1-0.2-2.3-0.1-2.9,0.7
				c-0.7,0.8-0.1,2.4,1,2.3c0.3,0,0.5-0.2,0.8-0.3c0.9-0.4,1.9-0.6,2.8-0.6c0.6,0,1.3,0.1,1.9,0.4c0.2,0.1,0.5,0.2,0.6,0.4
				c0.1,0.2,0.1,0.4,0.1,0.6c-0.1,1.2-0.3,2.6-0.2,3.8c0.1,0.5,0.6,1.5,0.4,1.9c-0.6,1-6.2,2-7.4,2.4c-1.2,1.9-2.3,3.7-3.5,5.6
				c-0.6,0.9-2,0.6-2.8-0.3c-0.3-0.3-0.5-0.7-0.6-1c-0.4-1.5,0.2-3.1-0.1-4.6c-0.4-2.7-3.7-4.6-6.3-3.5c-1,0.4-1.9,1.2-3,1.3
				c-2.9,0.2-5.6-4.5-7.7-2.6c2.6,2,3.8,5.7,2.8,8.8c3.7-2.8,9.6-1.3,12.2,2.4c0.6,0.8,0.9,1.7,1.1,2.7c0.1,0.6,0.2,1.2-0.1,1.7
				c-0.4,0.7-1,0.9-1.7,0.9c-1.4,0-3.2-0.7-4.5,0c-1.4,0.7-1.6,2.7-0.8,4c0.8,1.3,2.2,2.1,3.6,2.8c0.5-2,1.2-4.2,2.8-5.4
				c0.1-0.1,0.2-0.2,0.3-0.2c1.8-1.2,5.1-0.1,4.8,2.1c1.2-0.2,2.4-0.4,3.6-0.7c0.4,1.5-1.2,2.8-2.7,3.4c-1.5,0.6-3.2,1-4,2.3
				c-0.4,0.6-0.5,1.3-1,1.8c-0.6,0.5-1.4,0.6-2.2,0.7c-3.4,0.7-5.8,4.4-5.1,7.8c0.2,0.9,0.6,1.9,0.4,2.8c-0.1,0.6-0.5,1.1-0.6,1.6
				c-0.3,2.8,5,1.9,6.5,4.3c-1.3,4-3.5,7.6-6.2,10.8c2.3,1.2,3.5,4.2,2.6,6.6c-0.9,2.4-3.8,3.9-6.3,3.3c0.7,1.5,1.5,3.1,2.2,4.6
				c0.7-1.4,2.6-1.9,4.1-1.4s2.5,1.8,3.4,3.2c1.5,2.4,2.3,5.2,2.7,8c0.1,0.6,0.1,1.3-0.2,1.8c-0.3,0.5-0.9,0.7-1.5,0.8
				c-1.8,0.6-3.7,1.1-5.4,0.4s-2.6-3.3-1.1-4.4c-2.4,0.2-4.3-1.8-6.6-2.7c-2.2-0.9-5.8,0.6-4.8,2.8c1.3,0.1,2.2,1.7,1.6,2.8
				c-1.7,0.3-3.6-1-3.9-2.8c-2.4,0.7-5,1.8-5.7,4.2c-0.8,2.3,2.2,5.3,4.1,3.6c-0.1,1-0.3,2-0.4,3c0.3,1,1.8,0,2.5-0.8
				c1.4-1.5,4.2-1.7,5.4,0c1.2,1.7-0.3,4.6-2.3,4.2c0.5,0.8,1,1.6,1.5,2.3c-2.7,2.3-7.3,2-9.7-0.7c-0.3,2.1-0.6,4.2-0.9,6.2
				c-0.9,0.7-2.5,0.4-3.1-0.6c-0.6-1-0.1-2.5,1-3c-0.9-1.8-4-1.7-4.7,0.2c-1.1-0.7-1.8-1.9-1.8-3.2c-1.3,0.3-2.6,0.6-3.9,0.9
				c2.1,1.1,4.2,2.6,4.8,4.8c0.6,2.3-1.6,5.1-3.8,4.2c-0.3,1.4,1.4,2.4,2.8,2.4s2.8-0.6,4.2-0.3c3,0.6,3.4,5.7,0.6,6.8
				c-0.6-0.6-1.2-1.1-1.8-1.7c-1.2,0-2.2,1.2-2,2.3c1.3-0.4,2.8,0.4,3.4,1.7c-3.9,0.2-8.1,0.5-11.2,2.9c-0.5,0.4-1.1,1-1.7,1.1
				c-0.1,0-0.3,0-0.4,0c-1.8,0-2.6-2.6-2.7-4.5c-0.6,1.5-1.2,3.1-1.8,4.6c-0.4,1.1-0.8,2.4-0.2,3.3c1.1,1.8,3.9,0.4,5.4-1
				c1.6,0.2,2.5,2.2,2.3,3.8c-0.3,1.6-1.4,3-2.4,4.2c-1-0.8-2.6-0.3-3.1,0.8s0.4,2.6,1.6,2.8c0.5,2.5-1.4,6.2-4.2,6.5
				c-1.8,0.1-1.3-1-2.5-2.2c-1-1-2.4-1.6-3.7-1.7c-2.6-0.1-5.1,1.2-7.5,2.4c-2.6,1.2-5.2,2.2-7.9,3.1c0.7-1.5-0.6-3.6-2.3-3.6
				c-0.9,0.3-1.1,1.1-1,2c0.1,1,0.7,2.2,1.4,2.9c1.3,1.5,2.6,4,0.9,5c-2.9-1-4.7-4.6-3.7-7.6c-1.6,0.7-3.2,1.5-4.8,2.2
				c0.9,0.6,1.7,1.2,2.6,1.8c-0.1,1-0.2,2-0.3,3c-3.8,1.1-7.8,1.7-11.8,1.7c-0.1,2.5,2.9,3.9,5.4,3.6c2.4-0.3,4.7-1.5,7.1-1.7
				c0.1,1.1,0.2,2.2,0.3,3.4c1.3-1.7,4.3-0.6,4.9,1.5c0.6,2-0.5,4.2-1.9,5.8c-1.8,2-4.8,3.4-7.2,2.1c0.6,3.9,0.1,8-1.6,11.7
				c-1.6,0.4-3.2,0.6-4.8,0.4c0.6,1.7,0.4,3.7-0.6,5.2c-1.8-0.2-3.3-1.4-4.1-3"/>
			<path class="st7" d="M2323,1683.7c-0.1,0.1-0.3,0.2-0.4,0.2C2322.7,1683.8,2322.8,1683.8,2323,1683.7z"/>
			<path class="st7" d="M2325.7,1642.1L2325.7,1642.1c0.4,0,0.4,0.7,0.6,1.1c0.2,0.6,1.1,0.6,1.7,0.3s1.1-0.7,1.8-0.7
				c0.8,0.1,1.3,0.9,2,1.1c0.8,0.2,1.8-0.3,2.4,0.2c0.2,0.2,0.3,0.4,0.4,0.6c0.3,0.8,0.3,1.8,0.3,2.7c0,0.7,0,1.4-0.3,2.1
				c-0.2,0.4-0.4,0.7-0.7,1c-0.5,0.7-1.1,1.4-1.6,2.1c-0.8,1-1.7,2.2-1.9,3.4c-0.2,0.9,0.3,2-0.3,2.7c-0.9,0.9-3.6,0.9-4.6,0.2
				c0.6,0.5,0.4,1.4,0.4,2.2c0.1,1.2,1,2.1,1.5,3.2c0.5,1.1,0.3,2.8-0.9,2.9c-0.5,0.1-1-0.2-1.5,0.1c-0.3,0.1-0.4,0.4-0.5,0.7
				c-0.6,1.9,0,4.2,1.6,5.4c1-0.9,2.8-0.4,3.2,0.9c0.2,0.6,0.1,1.3-0.1,1.9c-0.3,1.3-0.6,2.7-0.9,4.1c-0.1,0.2-0.1,0.5-0.3,0.7
				c-0.2,0.2-0.5,0.1-0.8,0.1c-1.2-0.2-2.5-0.3-3.7-0.5c0.8,0.8,0.5,2.4-0.5,3"/>
			<path class="st7" d="M2375.5,1567.4C2375.5,1567.4,2375.5,1567.4,2375.5,1567.4c0,1.3-1.4,2.2-2.6,2.1c-1.3-0.1-2.4-0.9-3.4-1.6
				c1.9-4,0.9-9.1-2.3-12.1c0.7,2.1,0.9,4.5,0.1,6.6c-0.8,2.1-3,3.7-5.2,3.4c-0.5-0.1-1-0.2-1.3-0.6c-0.6-0.6-0.5-1.6-0.9-2.3
				c-0.8-1.3-3.1-0.8-3.8,0.6c-0.7,1.4-0.5,3-0.2,4.6c-1.4,0.2-2.8,0.5-4.1,0.7c2.5,4.4,11.2,2,12.9,6.8c0.3,0.7,0.3,1.5,0.3,2.3
				c1.6-0.2,3.1,1.2,3.2,2.8c-1.8-0.1-3.6-0.1-5.4,0.1c-2.3,0.2-4.5,0.7-6.7,1.3c-0.7,1.7,1.9,2.8,3.6,2.4c1.1-0.3,2.2-0.8,3.3-0.9
				c0.7-0.1,1.3,0,1.9,0.3c0.1,2.8,1.4,5.2,0.3,8c-0.6,1.5-3.9,5.8-6.1,4.9c3.3,1.4,0.9,7.9,4.3,9.3c0.5,0.2,1.1,0.3,1.6,0.5
				c2.1,1.1,1,4.6,2.5,6.3c0.6,0.7,1.6,1.1,2.4,1.7c2.2,1.7,1.4,5.8-1.2,6.7c-1-1.4-2.1-2.8-3.6-3.5s-3.7-0.5-4.5,1
				c-0.5,2.4-0.9,4.9-1.4,7.3c-0.2,1-0.4,2.1-1.3,2.7c-1.9,1.4-4.3-1.1-5.3-3.3c-0.9-1.9-1.7-3.9-2.5-5.8c-1.4-0.1-2.8-0.5-3.9-1.3
				c-1.2,2.3-3.4,4.2-5.9,4.9c1.6,0.1,3.2,0.3,4.7,0.5c1.1,2-0.2,4.6-1.8,6.3c-1.5,1.8-3.3,3.7-3.2,6c0.1,1.4,1,2.8,0.7,4.2
				c-0.3,1.5-1.6,2.2-3,2.4c-1.1,0.2-3.2,0.4-4.2,0.2c-0.8-0.1-1.4-0.6-2.1-0.9c-1.9-0.9-4.2-0.7-5.8,0.6"/>
			<path class="st7" d="M2377,1565c1.3,0.9,2.4,2.1,2.5,3.6c0.2,2-2.4,4-4,2.7c0-1.3-0.1-2.5-0.1-3.8"/>
			<path class="st7" d="M2184.6,1249.4c0.1,0.5,0.1,1,0.1,1.5c0,1.1-0.2,2.2-0.1,3.4c0.1,1.1,0.5,2.3,1.5,2.9
				c0.2,0.1,0.4,0.2,0.6,0.4c1,1.5-2,2.4,1.1,3.6c2,0.8,3.9-0.5,5.6-1.7c1.4-1.3,3.8-0.5,5.1,1c1.3,1.5,1.9,3.4,3.1,4.9
				c1.5,1.9,3.7,2.9,5.9,3.8c1.1,0.5,2.4,1.1,3.6,1.3c1.2,0.3,2.5,0.1,3.7,0.6c1.3,0.5,2.3,1.6,3.6,2c2.7,0.7,5.6-1.9,8.2-0.9
				c0.5,0.2,1,0.5,1.4,0.8c1.7,1.2,3.7,3.2,5.6,4c2,0.9,4.2,0.3,6.2,1.5c1.9,1.2,3,3.2,4,5.2c2.3,4.6,4.5,9.2,6.4,14
				c1.6,3.8,2.6,8.5,5.9,11.2c1,0.8,2.1,1.6,2.7,2.8c0.5,1.2,0.1,2.9-1.1,3.3c2.3,3,4.6,5.9,7.4,8.4c1.4,1.2,2.9,2.3,3.6,4
				c0.8,1.7,0.6,3.6,1.3,5.3c0.7,1.7,3.1,2.9,4.3,1.6c0,1.9,0,3.7,0,5.6c2.3-0.9,4.9,2.1,3.8,4.3c0.7,0.2,1.3,0.4,2,0.6
				c-0.6,1.4,0.3,3.3,1.8,3.7c0.6,0.1,1.2,0.1,1.6,0.4c0.5,0.3,0.7,0.9,0.8,1.4c1.2,3.9,2.9,7,1.4,11c-0.5,1.4,0.3,2.9,0.6,4.3
				c0.4,1.4-0.1,3.5-1.6,3.5c1,2.9,4.5,3.9,7.5,4.5c2.2,0.5,4.5,0.9,6.7,1.4c0.6,0.1,1.4,0.2,1.7-0.4c0,0.9,0,1.9,0,2.8
				c3.4-0.4,6.8,0,10,1c2.7,0.9,5.4,2.5,6.6,5.1c1.3,2.9,0.3,6.3-0.7,9.3c1,0.4,1.9,0.7,2.9,1.1c0.2,1,0.2,2.1-0.2,3.1
				c6.5-1.1,13.4,0.6,18.6,4.5c5.2,4,8.8,10.1,9.5,16.6c-5.4,2.8-11.9,0.2-17.4-2.2c-5.6-2.4-12.3-4.6-17.3-1.2
				c5.2,0.6,10.6,1.3,15.4,3.6c-1.2,0.5-0.6,2.3,0.6,2.9c1.1,0.6,2.5,0.5,3.4,1.4c0.4,0.4,0.7,0.9,1.2,1.3c0.8,0.7,2,0.7,3.1,0.7
				c3.6,0,7.1,0.6,10.5,1.6c0.6,0.2,1.3,0.4,1.7,0.9c0.5,0.5,0.7,1.1,0.7,1.7c0.1,1.1-0.4,2.4-0.9,3.4c-5.1-0.5-10.1-1.2-15.1-2.2
				c-4.8-1-9.6-2.2-13.6-5.1c-2.9-2.1-5.3-4.9-7.4-7.9c-2.1,0.9-4.4-1.9-6.6-1.3c-1.2,0.3-2,1.6-3.2,2c-1.9,0.6-3.6-1.3-4.8-2.8
				c-3.1-3.7-7.1-6.5-11.6-8.3c-4.6-1.8-10.1-2.4-14.2,0.4c-1.8,1.2-3.1,2.9-4.4,4.6c-1.9,2.5-3.8,4.9-5.8,7.4
				c3.3-0.6,6.5-1.9,9.2-3.9c1-0.7,2-1.8,1.8-3c1-1.7,3.4-2,5.4-1.9c2,0.2,4.1,0.5,5.9-0.4c4.4,0.8,7.6,5.6,6.5,10
				c0.8,3,4.8,4.6,7.4,2.9c0.5-0.3,1.1-0.8,1.7-0.9c0.6-0.1,1.2,0,1.8,0.2c3.6,1.1,7.1,2.2,10.7,3.3c4,3.7,8,7.4,12.7,10.3
				c3.9,2.4,8.2,4.1,12.7,5.1c0.7,0.2,1.5,0.3,2.1,0.7c0.6,0.3,1,0.8,1.5,1.3c5.7,6.2,12.8,12.5,14.7,21.1c0.3,1.2,0.3,2.8-0.6,3.6
				c-0.7,0.6-1.8,0.6-2.7,0.6c-3.9-0.1-7.9,0-11.6,1.2c-3.7,1.2-7.2,3.9-8.5,7.6c-0.4,1-0.6,2.2-1.2,3.1c-1.4,1.9-4.1,2-6.2,3.1
				c-2.2,1.1-3.7,3.5-3.8,5.9c-2.2,0.3-4.4,0.6-6.6,0.9c-1.4,2.1-1.6,4.7-1.7,7.2c-0.1,2.5-0.2,5.1-1.6,7.2
				c-1.3,2.1-4.3,3.4-6.4,2.1c-0.8-0.5-1.4-1.3-2.2-1.8c-0.9-0.5-2-0.4-3-0.4c-5.4,0.2-11.8,0.9-14.7,5.5c-1.3,2.1-3.1,5.3-5.2,4.1
				c0.9,1.4,1.9,2.9,3.4,3.7c1.5,0.8,3.7,0.5,4.4-1.1c0.4-0.9,0.2-2,0.6-2.9c0.9-2.6,4.9-2.4,7-0.7c2.1,1.7,3.4,4.4,5.8,5.9
				c5,3.3,11.7-0.4,15.9-4.6c4.3-4.2,8.5-9.5,14.5-9.9c4.8-0.3,9.1,2.8,12.9,5.7c4.6,3.5,9.2,7,13.8,10.5c0.6-2.1,3.6-1.8,5.8-1.3
				c4.5,1.2,9.2,1.5,13.8,0.9c0.2,2-1.5,3.8-3.3,4.7c-1.8,1-3.9,1.5-5.4,2.9c-1.2,1.1-1.9,2.6-2.6,4.1c-1.3,2.7-2.5,5.4-3.8,8.2
				c3-0.2,6-1.4,8.3-3.4c1.8-0.1,2.8,2,2.9,3.8c0.1,1.8-0.2,3.7,0.7,5.2c0.5,0.8,1.4,1.6,1.2,2.6c-0.1,0.6-0.6,1-1,1.5
				c-1.7,1.9-1.5,5.2,0.4,7c0.6,0.6,1.4,1,1.9,1.6c1.4,1.9,0,4.4-1.4,6.3c0.5,0.2,0.9,0.4,1.4,0.7"/>
			<path class="st7" d="M2199,915.8C2199,915.8,2199,915.8,2199,915.8c-1.7,0-3.3,1.5-3.3,3.2c0,1-0.2,2.6-1.1,2.2
				c1.2,0.7,1.9,2.2,1.7,3.6c-0.9-0.6-2.2,0.3-2.5,1.3c-0.4,1-0.2,2.1-0.4,3.2c-0.5,2.7-2.8,4.5-5,6.1c-8.3,5.9-16.5,11.8-24.8,17.7
				c-3.8,1-7.4,3.3-9.9,6.3c0.4,1.9,0.4,3.8,0.2,5.6c-2.9-0.1-5.7,2-6.5,4.8c-0.5,1.8-0.2,3.6-0.6,5.4c-0.4,1.8-1.7,3.7-3.6,3.5
				c1.2,0.1,1.8,1.5,1.8,2.6c0,1.2-0.4,2.4-0.2,3.5c0.1,0.8,0.6,1.4,0.8,2.1c0.6,2.2-0.8,4.5-2.1,6.5c-3.3,4.8-6.6,9.7-9.9,14.5
				c-1,0.4-2.1,0.1-2.9-0.6c0.3-1.3,0.5-2.5,0.8-3.8c-1.4-0.9-2.3,1.7-3.5,2.9c-1.8,1.7-4.7-0.1-7.2-0.2c-3.1-0.1-5.3,2.7-7.3,5
				c-2.8,3.4-7.9,6.7-11.2,3.8c0.3-5-6-8.4-10.9-7.2c-4.9,1.2-8.6,5.2-11.9,9c0.5,2.4,1.1,4.8,1.6,7.2c-6.1,7-7.5,17.8-3.3,26.1
				c3.1,6.2,8.8,10.7,14.6,14.5c3.6,2.3,7.5,4.6,11.8,5.1c7,0.8,14.8-2.7,20.6,1.2c3.3-4.2,8.5-6.9,13.9-7.1
				c0.2,1.6-0.1,5.7,1.4,6.6c1.1,0.7,3.6-0.8,4.5,0.2c1.5,1.8,3.2,4.3,3.6,6.7c0.4,2.1,1.3,4.1,2.3,6c0.2,0.4,0.3,0.7,0.6,1
				c0.2,0.2,0.3,0.4,0.5,0.6c1.1,1.2,1.9,3.4,1.8,5c-0.2,2.2-2.3,3.5-2.7,5.3c-1,4.7-1,9.6,0.1,14.3c0.5,2,1.2,4.1,2.5,5.7
				c1.3,1.5,3.2,2.4,5,3.1c7.4,2.7,15.6,1.7,23.4,0.3c2.8-0.5,5.8-1.1,8.2-2.7c2.4-1.6,4.3-4.4,3.9-7.2c-0.1-0.8-0.4-1.7-0.4-2.5
				c-0.3-3.8,3.5-6.3,6.6-8.5c3.2-2.3,6.1-5.2,8.5-8.5c1-1.3,1.9-2.8,1.8-4.5c-0.1-1.6-1.8-3.2-3.4-2.6c1.6-0.7,3.3-1.3,4.9-2.1
				c3.4-1.6,6.6-3.5,9.5-5.8c2-1.5,3.9-3.2,6.2-4.2c4.9-2,10.5,0,15.4,1.9c1.8,0.7,3.7,1.5,5,2.9c1.3,1.5,1.8,3.8,0.5,5.3
				c4,0.3,8-0.4,11.6-2c-0.9-1.1,0.4-3,1.7-2.6c-0.7,1.8-0.2,3.9,0.9,5.4c0.6,0.8,1.5,1.2,2.1,2c0.5,0.5,0.8,1.8,1.3,2.2
				c0.5,0.3,1.1,0.3,1.6,0.3c1,0,1.9,0,2.9-0.1c0.1,0,0.3,0,0.4-0.1c0.1-0.1,0.1-0.3,0.1-0.4c0-0.5,0-1.1,0-1.6c0-0.2,0-0.4,0.1-0.5
				c0.1-0.1,0.3-0.2,0.4-0.2c2.4-0.6,4.8-0.5,7.2-1c2.9-0.6,5.9-0.4,8.8-0.1c-0.2-0.9,0.2-1.8,0.6-2.7c1.1-2.3,2.5-4.9,5-5.5
				c1.6-0.4,3.7,1.1,3.8,2.7c0.1,0.7-1.6,4.1,0.7,3.9c1.3-0.1,2.5-0.9,3.1-2.1c0.8,0.6,1.6,1.3,2.4,1.9c1.8-0.3,3.6-1,5.3-1.2
				c1.9-0.2,3.6,0.9,5.5,0.9c1.3,0,2.6-0.6,3.3-1.6c0.1-0.2,0.2-0.4,0.4-0.6c1.5-1.5,7,1,4.8,2.9c-0.6,0.5-1.4,0.4-2.1,0.5
				c-1.9,0.5-2.7,3-2,4.9c0.7,1.8,2.3,3.2,3.9,4.3c-1.3,1-2.1,2.5-2.4,4.1c-1.6-0.9-3.9-0.3-4.8,1.3c-0.9,1.6-0.2,3.9,1.3,4.7
				c0.6,0.4,1.4,0.5,2,0.8c1.9,0.9,2.9,3.2,2.4,5.1c-0.5,2-2.6,3.4-4.6,3.2c0.7,1.2,0.8,2.7,0.2,4c-1.9,0.6-3.8,1.2-5.6,1.8
				c-1.5,0.5-3.2,0.9-4.6,0.3c-1.5-0.6-2.2-2.9-0.8-3.8c1.2,0.3,2.6,0.1,3.7-0.5c-2.6,0-5.1-2-5.7-4.6c-0.8,3-2.8,5.6-5.4,7.1
				c-0.6-2.7-2.9-4.9-5.7-5.3c2,1.8-0.3,5.1-2.7,6.4c-2.4,1.3-5.5,2.9-5.2,5.6c-2,0.2-3.9,0.5-5.9,0.7c1.5,1,2.1,3.1,1.5,4.8
				c-2.6-1.3-5.2-2.5-7.8-3.8c1.4,0.7,1.5,2.7,0.8,4.2c-0.7,1.4-1.9,2.5-2.6,3.9c-5.2,1.3-10.1,4.3-13.7,8.3
				c-1.2,1.7-3.6,1.8-5.5,1.3s-3.8-1.4-5.8-1.5c-0.1,0-0.3,0-0.4,0c-1.9,0.2-3.9,1.6-3.7,3.5c0.1,0.7,0.5,1.3,1.1,1.6
				c1.8,0.6,2.5-2.2,2.3-4.1c0,0,0.1,0,0.1,0c1,0.2,2.1,0.4,3.1,0.6c4.3,3.1,5,10.1,1.4,14c-2-0.8-3.5-2.6-3.9-4.7
				c-2.1,1.1-3.8,2.8-5,4.8c0.7,1.5,1.4,3.1,2.1,4.6c-0.9-0.1-1.9-0.1-2.8-0.2c1.2,3.7,2.8,7.3,4.5,10.8c-5.5,2.6-11,5.3-16.5,7.9
				c-0.4,0.2-0.8,0.4-1.3,0.4c-0.1,0-0.2,0-0.2,0c-1.5-0.2-1.9-2.5-1.4-4c0.6-1.6,1.6-3.2,1.1-4.8c-3.5,0.4-7.1,0.8-10.6,1.2
				c0.1,2.1,0.1,4.1,0.2,6.2c2.5-0.3,4.9,2.1,4.6,4.6c1.9-0.5,3.8-0.6,5.8-0.3c0.2,0,0.4,0,0.6,0.1c-1.7,4-5.4,7.1-9.7,8
				c-1.7,1.4-1.8,4-2.2,6.2c-0.3,2.2-1.5,4.8-3.8,5c0.1,2.4,0,4.7-0.3,7.1c-1.5,0.4-3.2-1-3.1-2.6c-0.8,1.6-1.3,3.3-1.3,5.1
				c-1.3,0.4-3.2-0.8-3.2-2.2c-3.9,0.5-4.8,6-5.1,9.2c-0.3,3.8-1.3,8.5-5,9.3c-0.5,0.1-1.1,0.2-1.6,0.5c-1.4,1.1-0.7,3.8-0.4,5.2
				c0.5,2,0.4,3.8,0.4,5.8c0,0.9-0.2,2.1-1.1,2.5c-0.4,0.2-0.9,0.1-1.3,0.1c-2-0.1-4.1,1.3-4.8,3.2c-0.8,2.2,0,4.6,0.3,6.9"/>
			<path class="st7" d="M2244.6,880c0.9,2.8-1.6,6.2-4.6,7.1c-3.4,0.9-6.9-0.3-10.2-1.5c-1.5-0.5-3-1.1-4.4-1.6
				c-1.9,0.1-3.7,1.2-4.6,2.8c-1.4-1.4-3.9-0.9-5.3,0.5c-1.4,1.4-2,3.4-2.6,5.2c-1.4,0-2.9,0-4.3,0.1c-0.2,1.3-0.4,2.5-0.7,3.8
				c1.3,0.6,2.6,1.1,3.9,1.7c-1.1,3-4.5,5-7.7,4.5c0,2.8-0.9,5.7-2.5,8.1c-0.2,0.2-4.6,5.2-2.7,5.4"/>
			<path class="st7" d="M2244.6,880c-0.1-0.3-0.3-0.6-0.4-0.9C2244.4,879.4,2244.5,879.7,2244.6,880z"/>
			<path class="st7" d="M2234.8,1012.4c0.3-1.8-0.3-3.6-0.9-5.4c-0.6-1.8-1-4,0-5.7c1-1.7,4-2,4.7-0.2c0.9-1.2,2.3-1.9,3.7-1.9
				c-0.3-1.8-0.2-3.9,1.2-5.1c1.4-1.2,4.1-0.6,4.2,1.2c2.8-2.1,5.5-4.2,8.2-6.3c0.5-0.4,1-0.8,1.2-1.4c0.6-1.6-1.4-2.9-2.9-3.7
				c-1.5-0.8-2.8-3.2-1.3-4c1.8-1.4,3.5-2.8,5.2-4.1c-0.1-1-0.2-1.9-0.4-2.9c0.7-0.6,1.4-1.3,2.1-1.9c-3.3,1.5-6.7,2.9-10.3,2.6
				c-3.6-0.4-7.1-3.4-6.7-6.9c-2.2-2.1-6.5,2.3-8.7,0.1c-1.8-1.7,0.7-4.5,2.9-5.5c2.2-1,5.1-2.8,4.3-5.1c0.8,1.1,2.2,1.8,3.6,1.8
				c0.2-1,0.1-2.1-0.4-3.1c-3.3-0.4-4.8-4.8-3.5-7.8c1.3-3,4.4-4.9,7.2-6.6c2.9-1.6,5.9-3.4,7.4-6.4c0.8-1.6,1-3.5,1.5-5.2
				c1-3.9,3.2-7.5,6.2-10.1c-0.4-2.7,0.3-5.5,2-7.5c0.7-0.9,1.6-1.8,1.4-2.9c-0.1-0.7-0.7-1.2-0.7-1.9c0-1.1,1.4-1.6,2.2-2.3
				c1.5-1.4,1-4-0.5-5.4c-1.5-1.4-3.5-1.9-5.5-2.3c0.1-1.9-0.4-3.8-1.3-5.4c-3.8-1.2-7.6-2.3-11.4-3.5c-0.7-0.2-1.4-0.4-1.9-0.9
				c-0.5-0.4-0.8-1-1-1.6c-0.8-1.7-1.6-3.4-2.3-5"/>
			<path class="st7" d="M2234.8,1012.4c-0.3-0.3-0.6-0.6-0.8-1c0.2,0.4,0.5,0.9,0.7,1.3C2234.8,1012.6,2234.8,1012.5,2234.8,1012.4z
				"/>
			<path class="st7" d="M1554.8,2266.8c1.4-0.2,2.8,1.1,3.8,2.3c1.2,1.5,2.5,3.1,3,4.9c0.3,1.2,0.3,2.5,0.7,3.7
				c1.4,3.9,6.6,4.9,9,8.3c1.2,1.8,1.6,4.1,3.3,5.5c0.9,0.7,2,1.1,3.1,1.5c2.1,0.7,4.1,1.3,6.2,2c13.9,4.5-1,14.6-8.7,15.6
				c-6.3,0.8-12.8,1.6-19.1,0.4c-15.7-3-26.1-17.5-34.8-30.8c-5.1-7.7-10.2-15.4-13.9-23.8c-2.8-6.3-4.9-12.9-6.9-19.6
				c-3.4-11.6-6.5-23.4-9-35.2c-3.2-15.1-5.4-30.4-6.7-45.8c-2.5-29.3-1.8-59.8-13.5-86.8c-5.5-12.7-13.6-24.2-23.6-33.7
				c-10.2-9.7-22.6-15.6-33.9-23.7c-10.2-7.3-21.8-12.8-33.9-16c-7.1-1.9-14.5-3.1-21-6.4c-6.7-3.3-12.1-8.6-17.6-13.7
				c-10.8-10.1-22.1-20.1-35.6-26.1c-13.5-6.1-28.4-7.9-42.9-10.5c-24.8-4.4-49.2-11.2-72.7-20.2c-7.6-2.9-15.4-6.2-20.4-12.6
				c-10-12.6-4.7-32.3,7.2-43.2s28.2-15.1,43.8-18.9c21-5.2,41.9-10.3,62.9-15.5c6.8-1.7,14-3.6,18.7-8.8c5.4-5.9,6.1-14.5,6.7-22.4
				c2.6-39.1,5.1-78.3,7.7-117.4c1-16,2.2-32.3,8.5-47c6.3-14.7,18.9-27.7,34.8-30c8.3-1.2,18.9-0.4,22.8-7.9
				c2.2-4.2,1.1-9.3,0-13.8c-2.5-10.2-5-20.4-7.5-30.5c-2.2-8.8-3.5-17.8-6.8-26.2c-1.9-4.8-4.1-9.6-5-14.7c-1.5-8.7,1-17.4,3.1-26
				c5.1-20.4,8.7-41.2,10.5-62.2c0.7-7.5,1.2-15.1,4.1-22.1c2.5-6.1,5.8-11.4,5.6-16.8c-0.1-2.8-1-5.6-3.5-8.4
				c-6.9-8.2-12.3-18.6-17.3-28c-10.1-18.9-17.8-39-22.9-59.8c-2.6-10.4-4.5-21-8.9-30.8c-2.2-4.9-5-9.6-6.4-14.8
				c-0.3-1.1-0.5-2.3-0.7-3.4c-0.5-3.8-0.5-7.7-0.4-11.5c0.3-21,0.6-42.1,1-63.1c0.2-10.8,0.3-25-7.7-33.5
				c-8.4-8.9-20.5-13.9-28.8-23.5c-12.9-15-31.6-14.2-48.1-23.8c-6.3-3.7-11.9-8.3-18.2-11.9c-17.5-10.2-38.5-12.4-58.7-14.4
				c-30.5-3.1-61.1-6.6-90.3-15.5c-19.5-5.9-44.8-16.3-53.1-36.9c-2-5.1-2-10.7-1.8-16.1c0.6-15.2,2.7-30.7,8.9-44.6
				c6.2-14,16.8-26.4,30.8-32.4c16.3-6.9,30.2-8,46.1,1.6c10.2,6.1,18.7,14.7,27.6,22.5c11.9,10.4,27.3,24.7,42.1,30.7
				c8.6,3.5,19.3,3.8,28.4,6.5c9.3,2.8,18.3,6.6,26.5,11.9c6,4,11.5,8.9,16.9,13.7c21.9,20.4,44.7,44.5,72,57.6
				c15.9,7.6,34.6,11.2,52.1,7.5c18.9-4,35.1-15.2,54.8-18.3c11-1.8,24.4-1.1,30.5,8.2c7.2,11.1-1.2,25.8-10.7,35.1
				c-9.5,9.2-21.3,18.8-21.6,32.1c-0.4,15.4,14.9,26.1,29,32.2c5.7,2.5,11.8,4.7,17.9,4c2.6-0.3,4.9-1.2,7-2.6
				c9.2-5.9,14.6-20.5,18.6-29.1c4.4-9.7,9.1-20,11.6-30.3c2-8.3,3.6-14.4,10.2-20.7c5.5-5.3,12.2-9.1,18.9-12.9
				c9-5.1,18.1-10.3,28.1-13.3c7.8-2.3,16-3.2,23.5-6.4c2.2-0.9,4.2-2,6.2-3.3c12.5-8,20.6-22.4,24.3-37.1
				c4.3-16.9,3.6-34.7,4.2-52.1c0.3-9.2,0.9-18.3,1.5-27.4c0.8-12.3,1.6-24.7,2.4-37c0.5-7,0.2-9.1,5.1-14c4-3.9,8.6-7.4,12.9-10.9
				c15.1-12.4,30.8-24.3,48.5-32.7c34.1-16.2,66.5-10.8,101.1,0.1c37.5,11.8,75,23.7,112.1,36.8c10.4,3.7,21,7.6,29.6,14.5
				c7.8,6.3,14.6,16.8,24.4,20.1c0.6,0.2,1.2,0.3,1.9,0.5c8.6,1.5,20.3-5,28.4-7.3c13.3-3.8,26.7-7.5,40.2-10.4
				c12.2-2.6,26.7-2.3,38.2-6.6c-4.5-10.8-9.8-27.5-7.6-39.3c1-5.6,6.3-11.3,8.9-16.5c3.2-6.6,5.9-13.4,7.9-20.4
				c3.2-11.4,4.8-23.3,9.1-34.3c6.3-16.2,18.2-29.5,29.8-42.4c1.6-1.8,3.3-3.6,5.4-4.8c2.9-1.6,6.4-1.7,9.7-2.1
				c9.9-1.3,16.5-7.8,25.6-10.6c20.3-6.4,42.4-7.9,62.9-2c7.2,2.1,14,5,20.6,8.5c5.7,3,11,7.4,17.2,8.9c7.6,1.9,15.3,4,22.5,7.2
				c3.2,1.5,6.2,3.2,9.1,5.2c0.7,0.5,7.1,6.3,6.8,6.3c-0.8,0.2-1.5,0.3-2.3,0.5c3.1,9.1,6.1,18.2,9.2,27.2c1.3,3.9,2.6,7.8,4.5,11.4
				c2.1,4.2,4.9,8.1,6.4,12.5c1,3.1,1.4,6.4,2.6,9.4c0.8,1.9,2,3.7,2.7,5.7c1.3,3.3,1.3,6.9,1.4,10.4c0.2,10.6,1,21.2,3.4,31.6
				c3.8,16.3,6.1,32.1,7.7,48.8c0.6,5.8,1.1,11.6,1.7,17.3c0.3,2.9,2.8,14.3,0.6,15.7c0,1.6-0.1,3.3-0.1,4.9c-2.2-1.9-6.2,0.2-6,3
				c-1.5,0.2-3-0.8-3.4-2.2c-1.7,0.8-3.7,1.1-5.6,0.7c-1.5,1.2,0.5,3.4,0.6,5.2c0.1,2.9-3.8,3.7-6.6,3.7c-2.9,0-6.7,1.8-5.7,4.5
				c-1.9,0.2-3.7,0.5-5.5,0.8c-1,4.8-5.6,6.8-8.6,10.2c-3.6,4.2-8.7,7-12.1,11.4c-0.9,1.2-1.7,2.6-2.8,3.8c-1.1,1.2-2.5,2.4-2.8,4
				c-0.4,1.6,1.2,3.6,2.7,2.9c1,1.1-1.2,2.1-2.5,2.8c-1.6,0.8-2.2,2.6-3.2,4.1s-2.7,2.9-4.3,2.1c0.4,2.2,0.1,4.8-1.7,6.1
				c-1.8,1.3-5.1,0.3-5-1.9c-2.9-0.7-6.1,1.1-7,3.9c1.6-1.9,5.1,0.7,4.3,3.1c-0.7,2.4-3.8,3.3-6.2,2.7c-0.7,1.4-1.4,2.7-2.2,4
				c-2.5,0-5,0.1-7.5,0.1c-0.1,1.9-2.2,3.5-4.1,3c-0.2,1.5-0.5,3-0.7,4.5c-2.1-0.1-4.1-1.1-5.6-2.6"/>
			<path class="st7" d="M1963.7,898.2c-4.5,15.8-10.4,31.2-16.8,46.4c-4.3,10.2-10.2,20.4-13.4,31c-2.6,8.7-4.1,13.6-10.2,21.1
				c-13.3,16.3-28.5,31.2-40,48.9c-5.6,8.6-10.3,17.7-15,26.8c-3.1,6-6.2,12-9.3,18.1c-1.9,3.8-3.9,7.6-5.8,11.3
				c-4.8,9.2-9.6,18.6-11.8,28.8c-4.3,19.7,1.5,40.2,1,60.4c-0.4,14.9-4.1,30-0.2,44.4c2.4,9,7.8,17.2,9.3,26.5
				c1.1,6.8,0.3,13.4,2.5,19c1.1,2.9,2.9,5.5,6.2,7.7c7.9,5.4,19.5,8.8,29,5.9c6.3-1.9,11.7-6.2,18.1-8.1c6.5-1.9,13.3-0.9,20-1.5
				c5.8-0.5,11.5-2.2,17.2-3.5c14.8-3.3,29.9-3.8,45-4.2c1.9-0.1,3.8-0.1,5.7,0.4c2.1,0.6,4,1.9,5.9,2.9c10.3,5.4,22.9,3.1,34-0.5
				c11.1-3.6,22.3-8.3,33.9-7.2c8.9,0.8,17.1,5.1,25.8,7.3c14.8,3.8,30.4,1.6,45.5-0.5c3.1-0.5,6.3-0.9,9.2-2.2
				c3.5-1.5,6.4-4,9.2-6.4c8.6-7.3,17.2-14.5,25.9-21.7c0.3-0.3,0.7-0.6,1-0.8"/>
			<path class="st7" d="M1595.2,1035.4c0.2,0.5,0.4,1,0.6,1.5c1,2.4,1.8,4.9,2.9,7.3c5,10.6,14.7,18.1,24.1,25.1
				c8.2,6.2,16.6,12.5,26,16.9c8.8,4.2,15.7,4.3,23.5,10.4c6.5,5.1,14.1,10.4,22.2,9c2.6-0.4,5.1-1.6,7.6-2.5
				c17.2-6.1,37.6,1.2,55.4,1.4c9.2,0.1,18.5,0.1,27.6-1.6c5.6-1.1,11.1-2.9,16.7-4.2c5.8-1.3,11.7-2.2,17.5-3
				c13.1-1.9,26.2-3.7,39.3-5.6"/>
			<path class="st7" d="M1854.2,1280.7c-0.1,0-0.2,0.1-0.3,0.1c-23.3,5.4-44.5,19.3-58.8,38.5c-5.2,6.9-9.5,14.5-14.6,21.5
				c-10,13.7-23.8,25.4-40.4,28.9c-12.8,2.7-26.3,0.2-39.2,2.9c-8.1,1.7-15.7,5.3-23.6,7.9c-20.8,6.7-43.9,5.7-63.7,15.1
				c-7,3.4-13.4,7.9-20.4,11.1c-17.8,8-38.7,0.5-56.2-4.6c-20-5.8-39.6-12.8-59.1-20c-3.7-1.4-7.9-2.7-11.5-1.1
				c-3.2,1.5-4.9,5-7.4,7.6c-8.3,9.1-23.2,6.4-34.4,1.5c-11.3-4.9-23.3-11.5-35.1-8c-1.6,0.5-2.2,0.4-3,0.7c-0.5,0.2-1.1,0.4-2,1.1"
				/>
			<path class="st7" d="M1478.6,1152.1c0.1,0.3,0.2,0.6,0.2,0.9c3.5,12.9-3.8,24.5-2.4,37c0.9,8.2,12.2,16.8,2.3,25.4
				c-4.2,3.6-10.5,4.3-14.5,8.2c-1.9,1.8-3.2,4.3-5.3,6c-6.5,5.3-16,0.7-24.3,0.8c-8.1,0.1-15.9,5.5-18.8,13c-0.9,2.4-1.5,5-3,7
				c-3.5,4.5-10.2,4.1-15.9,3.3c-8-1.2-16-2.3-24-3.5c-2.2-0.3-4.4-0.6-6.4-1.5c-5.7-2.3-9.1-8.2-14.1-11.8
				c-7.4-5.4-18.3-5.1-25.4,0.6"/>
		</g>
	</g>
	<g>
		<path class="st8" d="M736.1,789.4c-7.9-4.7-17.6-6.1-26.7-6.4c-17.2-0.5-33.7,5.8-49.7,12c-6.7,2.6-13.7,5.3-18.6,10.6
			c-4.3,4.5-6.7,10.8-6.7,17.1c0,6.5,3.5,11,6.6,16.4c6.8,11.6,14.7,22.8,25.4,31.1c5.5,4.3,11.6,7.7,17.9,10.6
			c14.2,6.7,30,11.4,45.6,9.3c7-0.9,13.8-3.3,20.5-5.6c14.6-5.1,30.2-11.6,37.5-25.2c3.8-7.1,4.9-15.3,5.8-23.3
			c0.4-3.1,0.7-6.2-0.1-9.2c-1.5-5.6-6.7-9.3-11.5-12.5c-5.8-3.9-11.6-7.8-18-10.4c-3.5-1.4-7.1-2.4-10.5-3.9
			C747.5,797.3,742,792.9,736.1,789.4z"/>
	</g>
</g>
<g id="cities">
	<circle class="st9" cx="337.5" cy="1042.6" r="5.2"/>
	<text transform="matrix(1 0 0 1 332.6211 1034.3765)" class="st10 st11">Khotan</text>
	<circle class="st9" cx="195.3" cy="855.2" r="5.2"/>
	<text transform="matrix(1 0 0 1 165.2752 881.043)" class="st10 st11">Kashgar</text>
	<circle class="st9" cx="1695.5" cy="1343.1" r="5.2"/>
	<text transform="matrix(1 0 0 1 1669.4578 1366.1162)" class="st10 st11">Changan</text>
	<circle class="st9" cx="1033.2" cy="977" r="5.2"/>
	<text transform="matrix(1 0 0 1 948.5755 999.4869)" class="st10 st11">Dunhuang</text>
	<circle class="st9" cx="1863.7" cy="1302.5" r="5.2"/>
	<text transform="matrix(1 0 0 1 1825.4592 1325.6631)" class="st10 st12">Luoyang</text>
	<circle class="st9" cx="812.4" cy="785.8" r="5.2"/>
	<text transform="matrix(1 0 0 1 784.6392 813.1508)" class="st10 st11">Turfan</text>
	<circle class="st9" cx="753.5" cy="722.7" r="5.2"/>
	<text transform="matrix(1 0 0 1 737.9824 713.4842)" class="st10 st11">rmqi</text>
	<circle class="st9" cx="790.6" cy="1574.9" r="5.2"/>
	<text transform="matrix(1 0 0 1 785.7789 1593.769)" class="st10 st13">Lhasa</text>
	<circle class="st9" cx="2189" cy="1423.7" r="5.2"/>
	<text transform="matrix(1 0 0 1 2180.7551 1446.713)" class="st10 st11">Jiankang</text>
	<circle class="st9" cx="1813.3" cy="988.5" r="5.2"/>
	<text transform="matrix(1 0 0 1 1781.2435 1009.2838)" class="st10 st12">Shengle</text>
	<circle class="st9" cx="2177.2" cy="854.1" r="5.2"/>
	<text transform="matrix(1 0 0 1 2192.3923 863.3885)" class="st10 st11">Longcheng</text>
	<circle class="st9" cx="1386.8" cy="1129.8" r="5.2"/>
	<text transform="matrix(1 0 0 1 1350.7814 1121.6949)" class="st10 st11">Wuwei</text>
	<circle class="st9" cx="1290.1" cy="1069" r="5.2"/>
	<text transform="matrix(1 0 0 1 1255.3875 1061.2406)" class="st10 st11">Zhangye</text>
	<g>
		<g>
			<path class="st14" d="M769,758.1c1.2-1.6,2.7-3,4.2-4.2"/>
			<path class="st15" d="M784.2,749.1c4.2-1,8.6-1.5,12.8-1.9c3.5-0.3,7-0.6,10.5,0c3,0.5,5.9,1.6,8.7,2.8c4.5,1.8,9,3.6,13.5,5.4
				c2.3,0.9,4.7,1.9,6.3,3.7c1.5,1.6,2.3,3.6,3.2,5.5c1.5,3.2,3.5,6.2,5.4,9.2c2.5,3.9,5.1,8,9,10.6c3,2,6.6,3,9.6,5.1
				c5.4,3.8,7.8,10.5,8.9,17c1.3,7.7,1.2,15.8-1.7,23.1c-2.9,7.3-8.7,13.6-16.2,15.8c-3.3,1-6.9,1.2-10.4,1.4
				c-4.6,0.2-9.3,0.5-13.7-0.9c-2.4-0.8-4.7-2-7.1-2.8c-6.3-2-13.6-0.8-19.3-4.2c-2.8-1.6-4.9-4.2-7.1-6.6c-3.1-3.4-6.5-6.4-9.7-9.7
				c-12.3-12.7-20.9-28.9-24.5-46.2c-0.8-3.7-1.3-7.7,0-11.3c0.4-1.1,0.9-2.1,1.6-3"/>
			<path class="st14" d="M768.3,757.7c1.6-1.2,3.3-2.4,4.9-3.4"/>
		</g>
	</g>
	<path class="st16" d="M832.4,903c3.9-1.7,7.8-3.1,11.8-4.6c4.7-1.7,9.4-3.5,14-5.2c4.2-1.6,8.4-3.1,12.8-4.4
		c2.8-0.8,5.8-1.6,8.7-1.6c7.7-0.1,15,4.7,19,11.4c4,6.6,4.9,14.8,3.6,22.4c-1.3,7.6-4.6,14.8-8.6,21.4c-6.6,10.9-15,20.5-22.4,30.8
		c-24.9,34.6-63.9,53.4-103.7,65.7c-37.1,11.5-75.8,18.2-112,32.2c-12.8,4.9-25.2,10.8-38.3,14.9c-13.1,4.1-26.6,6.4-40.1,8.7
		c-30.4,5.2-61.2,10.4-92,8.2c-11-0.8-24.2-4.4-27-15c-1.9-7.2,1.8-14.6,6.1-20.6c17.4-24.5,44.8-40.2,73.1-50.1
		c28.3-9.9,58.1-14.8,87.2-22.2c44.4-11.3,87.2-28.4,127.1-50.9c13.2-7.4,26-15.4,39.5-22.4c6.7-3.4,13.5-6.6,20.6-9.3
		C818.9,909.7,825.4,906.1,832.4,903z"/>
	<path class="st16" d="M325.5,809.6c-6.7,3.9-8.2,11.6-9,18.7c-0.9,8.7-1.3,16.9,0.6,25.6c0.4,1.9,0.9,3.8,2.1,5.3
		c1.9,2.4,5.1,3.3,8.2,3.7c14.5,2.2,29.1-1.7,43.7-2.5c19.5-1.1,38.9,3.3,58.2,6.1c14.4,2.1,28.9,3.3,43.5,3.7
		c7.1,0.2,14.2,0.2,21.1-1.3c5.5-1.2,10.8-3.2,16.2-5c15-4.9,30.5-7.8,46.1-9.7c14.5-1.8,29.5-1.6,43.8-4.6
		c10.2-2.1,20-8.2,24.3-17.6c4.4-9.4,1.9-22.2-7-27.6c-4.7-2.9-10.4-3.5-15.9-4.2c-21-2.6-41.7-7.8-62-13.8c-9.2-2.7-18.5-5.6-28-7
		c-9.9-1.4-19.9-1.3-29.8-0.9c-10.3,0.4-20.9,2.2-30.9-0.1c-10.8-2.5-22-3.4-33-2.7c-7.3,0.5-14.6,1.6-21.8,2.9
		c-6.1,1.1-12.3,2.2-18.1,4.4c-5.4,2-10.4,4.9-15.4,7.7c-10.9,6.2-22.4,11.8-33.1,18.1c-4.3,2.5-8.7,5.5-10.6,10.1"/>
	<path class="st16" d="M261.4,831.5c8.9,4.8,16.6,12.7,19.1,22.5c1.6,6.5,0.9,13.3,0.2,19.9c-1,9.5-2.1,19-5,28.1
		c-1.3,4.1-3,8-4,12.2c-2.4,9.8-1.1,20-2.3,30c-1.2,10-6.1,20.7-15.7,23.8c-3,1-6.3,1.1-9.5,1c-16.3-0.5-32.1-6.3-46.3-14.3
		s-27-18.3-39.6-28.6c-8.1-6.6-16.2-13.3-23.2-21.1c-4.3-4.8-8.2-10.1-12.9-14.6c-5.7-5.6-12.4-10.1-18.1-15.8c-2-2-4-4.5-4-7.4
		c0-3.5,3.1-6.3,6.3-7.7c3.2-1.4,6.8-1.9,9.9-3.6c3.7-1.9,6.5-5.3,10.2-7.3c3.5-1.9,7.5-2.5,11.4-3.3c10.1-2.3,19.7-6.6,29.6-9.4
		c8.5-2.4,17.3-3.7,26-5c16.8-2.5,33.6-5,50.5-7.5c3.9-0.6,8-1.1,11.6,0.3c3.1,1.2,5.5,3.8,7.7,6.4c2.4,2.9,4.8,5.9,6.9,8.9"/>
	<path class="st16" d="M271.3,983.4c4.6,10.4,10.3,20.2,17.1,29.3c1.9,2.5,3.8,5,5.3,7.7c1.4,2.6,2.4,5.4,3.7,8
		c2.4,4.7,5.7,8.8,9.2,12.8c7.1,8.2,14.6,16,22.1,23.9c3.7,3.9,7.5,7.8,12,10.6c10,6.1,22.5,6.2,33.2,10.8c3.8,1.6,7.4,3.9,11.3,5.1
		c3.4,1,6.9,1.3,10.4,1.6c11.1,0.8,22.2,1.7,33.2,0.2c3.3-0.4,6.7-1.1,9.5-2.9s4.9-4.9,4.7-8.3c-0.3-3.7-3.2-6.5-6-8.8
		c-11.5-9.3-24.8-15.9-36.8-24.5c-7.2-5.2-13.9-11.1-20.6-16.9c-14.9-12.8-30.2-25-45.5-37.3c-3.5-2.8-7.1-5.7-11-7.9
		c-5.7-3.2-12-5.1-18.3-6.7c-9.2-2.4-18.5-4.3-28-4.5c-2,0-4.1,0-5.8,1.1c-1.7,1-2.9,3.3-2,5.1c1.1,2.3,4.7,2.7,5.6,5"/>
	<text transform="matrix(0.9489 -0.3155 0.3155 0.9489 630.9537 1036.7043)" class="st10 st11">Shanshan</text>
	<text transform="matrix(1 0 0 1 688.2845 860.397)" class="st10 st11">Yanqi</text>
	<text transform="matrix(1 0 0 1 442.9951 836.8325)" class="st10 st11">Kuqa</text>
	<text transform="matrix(1 0 0 1 1901.8362 1203.885)" class="st10 st12">Yecheng</text>
	<circle class="st9" cx="1944.3" cy="1185.3" r="5.2"/>
	<circle class="st9" cx="1440.8" cy="1243.6" r="5.2"/>
	<text transform="matrix(1 0 0 1 1400.5111 1262.1465)" class="st10 st12">Luoyang</text>
</g>
<g id="text">
	<text transform="matrix(1 0 0 1 1950.7489 1144.5045)" class="st17 st18">Yan</text>
	<text transform="matrix(1 0 0 1 1753.2566 1780.796)" class="st17 st18">Jin</text>
	<text transform="matrix(1 0 0 1 1538.8071 1245.0317)" class="st17 st18">Qin</text>
	<text transform="matrix(1 0 0 1 1571.6316 1168.8063)" class="st17 st19">Former</text>
	<text transform="matrix(1 0 0 1 1255.0543 1203.885)" class="st17 st20">Liang</text>
	<text transform="matrix(1 0 0 1 1248.7814 1144.5045)" class="st17 st19">Former</text>
	<text transform="matrix(1 0 0 1 2010.2745 1083.822)" class="st17 st19">Former</text>
	<text transform="matrix(1 0 0 1 1698.9116 968.9139)" class="st17 st18">Dai</text>
	<text transform="matrix(1 0 0 1 1757.756 1694.6945)" class="st17 st19">Eastern</text>
</g>
</svg>
