<?xml version="1.0" encoding="utf-8"?>
<!-- Generator: Adobe Illustrator 19.2.1, SVG Export Plug-In . SVG Version: 6.00 Build 0)  -->
<svg version="1.1" xmlns="http://www.w3.org/2000/svg" xmlns:xlink="http://www.w3.org/1999/xlink" x="0px" y="0px"
	 viewBox="0 0 2905.1 2313" style="enable-background:new 0 0 2905.1 2313;" xml:space="preserve">
<style type="text/css">
	.st0{opacity:0.34;}
	.st1{fill:#F19920;}
	.st2{fill:#ED1C24;}
	.st3{fill:#5ABA47;}
	.st4{fill:#E3DCD6;}
	.st5{fill:#59BA47;}
	.st6{fill:none;stroke:#000000;stroke-miterlimit:10;}
	.st7{fill:none;stroke:#FFFFFF;stroke-width:3;stroke-linecap:round;stroke-linejoin:round;stroke-dasharray:12.2673,12.2673;}
	.st8{fill:none;stroke:#FFFFFF;stroke-width:3;stroke-miterlimit:10;}
	.st9{fill:none;stroke:#FFFFFF;stroke-width:3;stroke-miterlimit:10;stroke-dasharray:12.1696,12.1696;}
	.st10{fill:#ED1C24;stroke:#1C75BC;stroke-linecap:round;stroke-miterlimit:10;}
	.st11{font-family:'ArialMT';}
	.st12{font-size:24px;}
	.st13{font-size:18px;}
	.st14{fill:none;stroke:#FFFFFF;stroke-width:3;stroke-miterlimit:10;stroke-dasharray:12.0044,12.0044;}
	.st15{fill:none;stroke:#FFFFFF;stroke-width:3;stroke-miterlimit:10;stroke-dasharray:12;}
	.st16{font-family:'MyriadPro-Regular';}
	.st17{font-size:104px;}
	.st18{font-size:36px;}
</style>
<g id="bitmap">
	
		<image style="overflow:visible;" width="1968" height="1567" xlink:href="../../r12a.github.io/maps/eastasia/relief_map.jpg"  transform="matrix(1.4757 0 0 1.4757 1.8006 0)">
	</image>
</g>
<g id="borders">
	<g id="XMLID_1_" class="st0">
		<g>
			<path class="st1" d="M2379.6,1568.6c0.2,2-2.4,4-4,2.7c0-1.3-0.1-2.5-0.1-3.8c0,0,0-0.1,0-0.1l1.6-2.4
				C2378.4,1565.8,2379.4,1567.1,2379.6,1568.6z"/>
			<path class="st2" d="M1782.5,2141.2c-0.7-0.1-1.3-0.2-2-0.2c0.2-2.5,0-5-0.5-7.4c-1.5,0.1-2.9,0.2-4.4,0.3
				c-1.2-9-0.2-18.3,2.7-27c0.5-1.6,1.1-3.1,2.2-4.3c1.6-1.8,4.1-2.7,6.5-2.4c0.5-1.8,0.3-3.8-0.4-5.5c-2.9,0.8-5.9,1.5-8.9,1.1
				c-3-0.4-6-2.3-6.7-5.3c-1.9-1.9-3.8-3.8-5.7-5.8c0.7-1.2,0.7-2.8,0-4.1c-2.2-0.4-3.2,3-2.1,5c1.1,2,3.1,3.6,3.4,5.8
				c0.5,3.2-2.9,5.8-6.1,6.4c-3.2,0.6-6.6,0.2-9.6,1.2c-2.9,1-5.3,3.4-8.3,3.9c-3,0.6-6.9-2.4-5.3-5.1c1.4-2.3,6.1-3.7,4.4-5.8
				c-6.4-1.7-12.9-3.3-19.3-5c-0.2-0.1-0.5-0.1-0.7-0.2c-3.1-0.8-6.4-1.7-8.8-3.8c-2.4-2.2-3.6-6-1.8-8.7c-2,0.8-4,1.7-6,2.5
				c1.8,2.5,3.6,5.1,4.3,8.1c0.7,3,0.2,6.5-2.2,8.5c-2.4,2-6.6,1.5-7.9-1.3c-0.7-1.6-0.4-3.4-0.8-5c-0.5-1.6-2.6-3-3.8-1.8
				c2.5,4.6,0.2,11.2-4.7,13.1c1.2-2.2,1.6-4.8,1.3-7.3c-3.7,2-7.4,3.9-11.1,5.9c1.2,0.8,2.4,1.5,3.6,2.2c-2,1.6-4.2,3.2-6.8,3.5
				c-2.6,0.3-5.5-1.4-5.5-4c-1.8,0-3.6,0.1-5.5,0.1c1.4,1.7,0.7,4.5-1.1,5.9c-1.7,1.4-4.1,1.8-6.2,2.1c0.2,1.7-0.2,3.4-1,4.9
				c-1.9-0.6-3.7-1.3-5.6-2c0,1.8-0.7,3.6-2,4.8c-2.1-1.8-6.2-3.2-6.9-0.5c-0.2,0.7,0,1.5,0.2,2.2c0.9,3,1.7,6.1,2.6,9.1
				c-2.2,3.7-6.7,5.7-10.9,4.9c-0.3,1.4-0.5,2.8-0.8,4.2c-2.5-0.5-4.9-1.1-7.4-1.6c1.8-1.1,2.9-3.3,2.7-5.4c-1.9-0.3-4,0.2-5.6,1.3
				c1.4,0.5,1.1,2.2,0,3.3c-0.6,0.6-1.3,1-2.1,1c-1.1,0-2.2-0.4-3.2-0.9c-1-0.5-2.1-1-3.2-1.2c-2.2-0.4-5,2-3.5,3.7
				c2,0.7,4.4,0.2,6-1.3c0.5,3.3,4.6,4.5,7.5,6.1c2.9,1.7,4.5,6.9,1.3,7.7c-3.1-2.5-6.8-4.3-10.6-5.2c-1.6-2.6-4.4-4.4-7.4-4.9
				c-0.6,3.8,0.9,7.9,3.7,10.5c-3.2,1.9-6.3,3.7-9.5,5.6c-1.1,2.1-3,3.7-5.2,4.6c2.5,4.6,4.3,11.4,0.2,14.2c-0.2,0-0.3,0.1-0.4,0.2
				c0.1-0.1,0.3-0.2,0.4-0.2c0.6-0.1,1.4,0.6,1.3,1.4c-0.2,0.9-1.1,1.5-1.9,2c-3.7,2-8.6,3.7-11.6,6.6c-2,1.9-4,4.6-5.7,6.8
				c-1.1,1.5-2.2,3.2-3.9,3.9c-1.7,0.8-4.3-0.1-4.3-2c-2.2,0.5-4.3,1.6-5.9,3.2c0.4,1.1,0.5,2.3,0.3,3.4c-2.9,1.9-1.8,6.4-3.6,9.3
				c-0.7,1.1-1.9,1.9-2.7,3c-3.2,4.2-0.1,10.3-1.4,15.4c-0.8,0.2-1.6,0.3-2.4,0.4c1.6,2.9,2.2,6.3,1.8,9.5c-1.2-0.8-2.8,0.5-3.2,1.9
				c-0.3,1.4,0.1,2.9,0,4.3c-0.2,2.7-2.5,5.1-5.2,5.4c-0.6,0.1-1.2,0.1-1.6,0.5c-0.2,0.3-0.2,0.6-0.3,0.9c-0.3,3.1-0.4,6.5,1.6,8.9
				c1,1.2,2.5,2,3.9,2.8c1.3,0.9,2.7,2,3.1,3.5c0.4,1.3-0.2,3-1.4,3.6c-0.2,0-0.4,0.1-0.6,0.2c0.2,0,0.4-0.1,0.6-0.2
				c1.4-0.2,2.8,1.1,3.8,2.3c1.2,1.5,2.5,3.1,3,4.9c0.3,1.2,0.3,2.5,0.7,3.7c1.4,3.9,6.6,4.9,9,8.3c1.2,1.8,1.6,4.1,3.3,5.5
				c0.9,0.7,2,1.1,3.1,1.5c2.1,0.7,4.1,1.3,6.2,2c13.9,4.5-1,14.6-8.7,15.6c-6.3,0.8-12.8,1.6-19.1,0.4
				c-19.4-3.8-45.3-33.7-49.4-52.3c-5.5-24.8,10.9-51.3-2.8-75.2c-12.4-21.5-42.3-23.9-66.9-20.5c-24.6,3.3-51.6,9.3-72.7-3.6
				c-10.5-6.4-19.8-17.4-32-16.4c-1.1,11.2-2.2,22.3-3.3,33.5c-6.8,4.5-16.3,0-21.4-6.4c-5.1-6.4-7.8-14.5-13.4-20.5
				c-10.6-11.6-28.5-12.5-44.1-10.3c-15.6,2.3-31.4,6.9-46.7,3.5c13.3-29.5,12.9-64.8-1-93.9c-22,6.3-46.9,12.1-66.6,0.6
				c-6.7-4-12.3-9.7-17.7-15.3c-13.5-14-27-28.1-40.6-42.1c-6.6-6.9-13.7-14.6-14.4-24.2c-1.4-17.8,19.8-32.8,15.6-50.2
				c-1.3-5.3-4.8-9.8-5.8-15.1c-4.5-23.8,39.2-32.5,39.6-56.7c13.2-0.4,28.5,8.6,40.5,5.6c15.3-3.9,21.3-31.9,25.7-45
				c4.8-14.4,8.8-31.8,14.2-47.9l0.1,0c12.9,1.2,22,9.4,30.8,18.1c10.7,10.6,15.7,13.4,30.8,17.1c8.9,2.2,4.2,18.4,3.1,25.2
				c7.7,1.4,18.4,4,26.2,2.2c6.9-1.6,12.3-7.5,19.5-9.3c4.1-1,8.7-1,12-3.7c2.2-1.8,3.5-4.4,5.4-6.5c6.9-7.2,17.1,2.1,19.5,8.9
				c2.1,5.9,1.8,12.4,1.3,18.5c4.6,2,8.8,0.6,13.4-1.1c9.9-3.7,19.8-7.4,29.7-11.2c3.5-1.3,7.2-2.7,9.9-5.3
				c5.7-5.3,6.2-14.3,4.7-21.9c-1.5-7.7-4.7-15.1-4.8-22.9c-0.2-11.7,6.2-22.5,13.1-32c20.4-28.5,47.6-53.8,81.2-63.6
				c18.6-5.4,38.4-5.8,56.4-12.8c11.5-4.4,21.9-11.3,32.1-18.2c12.5-8.4,24.9-16.7,37.4-25.1c18.7-12.5,37.9-25.6,50.5-44.3
				c6.8-10,11.7-21.8,21.3-29.1c6.7-5.1,14.9-7.5,23.1-9.5c21.3-5.2,45.3-5.9,67.2-6.7c26.8,2.1,53.5,4.2,80.3,6.2
				c7.8,0.6,15.9,1.2,23.1-1.8c6.6-2.8,11.7-8.2,16.5-13.5c16.3-17.7,33.3-37.1,36.2-60.9c0.4-3.4,0.5-7.1,2.2-10.1
				c1.8-3.1,5.1-5.1,8.2-6.8c23.5-12.5,50.6-16.1,77.1-19.5c12.1-1.5,24.2-3.1,36.3-4.7c13.5-1.7,27.2-3.5,39.6-9.1
				c12.6-5.7,23.1-15.1,33.1-24.7c15.4-14.8,29.9-30.6,46-44.5c20.2-17.4,42.9-31.7,65.5-45.9c2.1-1.3,2.3-2,4.7-2.6l0.1,0
				c1.6,3.4,3.2,6.8,4.6,10.3c1.6,3.8,2.6,8.5,5.9,11.2c1,0.8,2.1,1.6,2.7,2.8c0.5,1.2,0.1,2.9-1.1,3.3c2.3,3,4.6,5.9,7.4,8.4
				c1.4,1.2,2.9,2.3,3.6,4c0.8,1.7,0.6,3.6,1.3,5.3c0.7,1.7,3.1,2.9,4.3,1.6c0,1.9,0,3.7,0,5.6c2.3-0.9,4.9,2.1,3.8,4.3
				c0.7,0.2,1.3,0.4,2,0.6c-0.6,1.4,0.3,3.3,1.8,3.7c0.6,0.1,1.2,0.1,1.6,0.4c0.5,0.3,0.7,0.9,0.8,1.4c1.2,3.9,2.9,7,1.4,11
				c-0.5,1.4,0.3,2.9,0.6,4.3c0.4,1.4-0.1,3.5-1.6,3.5c1,2.9,4.5,3.9,7.5,4.5c2.2,0.5,4.5,0.9,6.7,1.4c0.6,0.1,1.4,0.2,1.7-0.4
				c0,0.9,0,1.9,0,2.8c3.4-0.4,6.8,0,10,1c2.7,0.9,5.4,2.5,6.6,5.1c1.3,2.9,0.3,6.3-0.7,9.3c1,0.4,1.9,0.7,2.9,1.1
				c0.2,1,0.2,2.1-0.2,3.1c6.5-1.1,13.4,0.6,18.6,4.5c5.2,4,8.8,10.1,9.5,16.6c-5.4,2.8-11.9,0.2-17.4-2.2
				c-5.6-2.4-12.3-4.6-17.3-1.2c5.2,0.6,10.6,1.3,15.4,3.6c-1.2,0.5-0.6,2.3,0.6,2.9c1.1,0.6,2.5,0.5,3.4,1.4
				c0.4,0.4,0.7,0.9,1.2,1.3c0.8,0.7,2,0.7,3.1,0.7c3.6,0,7.1,0.6,10.5,1.6c0.6,0.2,1.3,0.4,1.7,0.9c0.5,0.5,0.7,1.1,0.7,1.7
				c0.1,1.1-0.4,2.4-0.9,3.4c-5.1-0.5-10.1-1.2-15.1-2.2c-4.8-1-9.6-2.2-13.6-5.1c-2.9-2.1-5.3-4.9-7.4-7.9
				c-2.1,0.9-4.4-1.9-6.6-1.3c-1.2,0.3-2,1.6-3.2,2c-1.9,0.6-3.6-1.3-4.8-2.8c-3.1-3.7-7.1-6.5-11.6-8.3c-4.6-1.8-10.1-2.4-14.2,0.4
				c-1.8,1.2-3.1,2.9-4.4,4.6c-1.9,2.5-3.8,4.9-5.8,7.4c3.3-0.6,6.5-1.9,9.2-3.9c1-0.7,2-1.8,1.8-3c1-1.7,3.4-2,5.4-1.9
				c2,0.2,4.1,0.5,5.9-0.4c4.4,0.8,7.6,5.6,6.5,10c0.8,3,4.8,4.6,7.4,2.9c0.5-0.3,1.1-0.8,1.7-0.9c0.6-0.1,1.2,0,1.8,0.2
				c3.6,1.1,7.1,2.2,10.7,3.3c4,3.7,8,7.4,12.7,10.3c3.9,2.4,8.2,4.1,12.7,5.1c0.7,0.2,1.5,0.3,2.1,0.7c0.6,0.3,1,0.8,1.5,1.3
				c5.7,6.2,12.8,12.5,14.7,21.1c0.3,1.2,0.3,2.8-0.6,3.6c-0.7,0.6-1.8,0.6-2.7,0.6c-3.9-0.1-7.9,0-11.6,1.2
				c-3.7,1.2-7.2,3.9-8.5,7.6c-0.4,1-0.6,2.2-1.2,3.1c-1.4,1.9-4.1,2-6.2,3.1c-2.2,1.1-3.7,3.5-3.8,5.9c-2.2,0.3-4.4,0.6-6.6,0.9
				c-1.4,2.1-1.6,4.7-1.7,7.2c-0.1,2.5-0.2,5.1-1.6,7.2c-1.3,2.1-4.3,3.4-6.4,2.1c-0.8-0.5-1.4-1.3-2.2-1.8c-0.9-0.5-2-0.4-3-0.4
				c-5.4,0.2-11.8,0.9-14.7,5.5c-1.3,2.1-3.1,5.3-5.2,4.1c0.9,1.4,1.9,2.9,3.4,3.7c1.5,0.8,3.7,0.5,4.4-1.1c0.4-0.9,0.2-2,0.6-2.9
				c0.9-2.6,4.9-2.4,7-0.7c2.1,1.7,3.4,4.4,5.8,5.9c5,3.3,11.7-0.4,15.9-4.6c4.3-4.2,8.5-9.5,14.5-9.9c4.8-0.3,9.1,2.8,12.9,5.7
				c4.6,3.5,9.2,7,13.8,10.5c0.6-2.1,3.6-1.8,5.8-1.3c4.5,1.2,9.2,1.5,13.8,0.9c0.2,2-1.5,3.8-3.3,4.7c-1.8,1-3.9,1.5-5.4,2.9
				c-1.2,1.1-1.9,2.6-2.6,4.1c-1.3,2.7-2.5,5.4-3.8,8.2c3-0.2,6-1.4,8.3-3.4c1.8-0.1,2.8,2,2.9,3.8c0.1,1.8-0.2,3.7,0.7,5.2
				c0.5,0.8,1.4,1.6,1.2,2.6c-0.1,0.6-0.6,1-1,1.5c-1.7,1.9-1.5,5.2,0.4,7c0.6,0.6,1.4,1,1.9,1.6c1.4,1.9,0,4.4-1.4,6.3
				c0.5,0.2,0.9,0.4,1.4,0.7l-1.6,2.4c0,0,0,0.1,0,0.1c0,1.2-1.4,2.1-2.6,2c-1.3-0.1-2.4-0.9-3.4-1.6c1.9-4,0.9-9.1-2.3-12.1
				c0.7,2.1,0.9,4.5,0.1,6.6c-0.8,2.1-3,3.7-5.2,3.4c-0.5-0.1-1-0.2-1.3-0.6c-0.6-0.6-0.5-1.6-0.9-2.3c-0.8-1.3-3.1-0.8-3.8,0.6
				c-0.7,1.4-0.5,3-0.2,4.6c-1.4,0.2-2.8,0.5-4.1,0.7c2.5,4.4,11.2,2,12.9,6.8c0.3,0.7,0.3,1.5,0.3,2.3c1.6-0.2,3.1,1.2,3.2,2.8
				c-1.8-0.1-3.6-0.1-5.4,0.1c-2.3,0.2-4.5,0.7-6.7,1.3c-0.7,1.7,1.9,2.8,3.6,2.4c1.1-0.3,2.2-0.8,3.3-0.9c0.7-0.1,1.3,0,1.9,0.3
				c0.1,2.8,1.4,5.2,0.3,8c-0.6,1.5-3.9,5.8-6.1,4.9c3.3,1.4,0.9,7.9,4.3,9.3c0.5,0.2,1.1,0.3,1.6,0.5c2.1,1.1,1,4.6,2.5,6.3
				c0.6,0.7,1.6,1.1,2.4,1.7c2.2,1.7,1.4,5.8-1.2,6.7c-1-1.4-2.1-2.8-3.6-3.5s-3.7-0.5-4.5,1c-0.5,2.4-0.9,4.9-1.4,7.3
				c-0.2,1-0.4,2.1-1.3,2.7c-1.9,1.4-4.3-1.1-5.3-3.3c-0.9-1.9-1.7-3.9-2.5-5.8c-1.4-0.1-2.8-0.5-3.9-1.3c-1.2,2.3-3.4,4.2-5.9,4.9
				c1.6,0.1,3.2,0.3,4.7,0.5c1.1,2-0.2,4.6-1.8,6.3c-1.5,1.8-3.3,3.7-3.2,6c0.1,1.4,1,2.8,0.7,4.2c-0.3,1.5-1.6,2.2-3,2.4
				c-1.1,0.2-3.2,0.4-4.2,0.2c-0.8-0.1-1.4-0.6-2.1-0.9c-1.9-0.9-4.2-0.7-5.8,0.6c0.4,0,0.4,0.7,0.5,1.1c0.2,0.6,1.1,0.6,1.7,0.3
				s1.1-0.7,1.8-0.7c0.8,0.1,1.3,0.9,2,1.1c0.8,0.2,1.8-0.3,2.4,0.2c0.2,0.2,0.3,0.4,0.4,0.6c0.3,0.8,0.3,1.8,0.3,2.7
				c0,0.7,0,1.4-0.3,2.1c-0.2,0.4-0.4,0.7-0.7,1c-0.5,0.7-1.1,1.4-1.6,2.1c-0.8,1-1.7,2.2-1.9,3.4c-0.2,0.9,0.3,2-0.3,2.7
				c-0.9,0.9-3.6,0.9-4.6,0.2c0.6,0.5,0.4,1.4,0.4,2.2c0.1,1.2,1,2.1,1.5,3.2c0.5,1.1,0.3,2.8-0.9,2.9c-0.5,0.1-1-0.2-1.5,0.1
				c-0.3,0.1-0.4,0.4-0.5,0.7c-0.6,1.9,0,4.2,1.6,5.4c1-0.9,2.8-0.4,3.2,0.9c0.2,0.6,0.1,1.3-0.1,1.9c-0.3,1.3-0.6,2.7-0.9,4.1
				c-0.1,0.2-0.1,0.5-0.3,0.7c-0.2,0.2-0.5,0.1-0.8,0.1c-1.2-0.2-2.5-0.3-3.7-0.5c0.8,0.8,0.5,2.4-0.5,3c-0.2,0.1-0.3,0.1-0.4,0.2
				c0.2,0,0.3-0.1,0.4-0.2c0.5-0.1,1.1-0.1,1.5,0.1c0.1,2.1,0.2,4.3,0.3,6.4c0,0.5,0,1.1-0.2,1.5c-0.4,0.7-1.3,0.9-2.2,1.1
				c-1.5,0.3-3.2,0.5-4.4-0.4c-0.4-0.3-0.8-0.7-1.2-1.1c-0.8-0.6-1.8-0.9-2.8-1.3c-0.9-0.4-1.7-0.9-2-1.8c-0.2-0.6-0.3-1.4-0.9-1.5
				c-0.4,0-0.7,0.3-0.9,0.5c-0.8,0.9-1.6,1.8-2.3,2.6c-0.6,0.7-1.2,1.4-1.4,2.3c-0.1,0.9,0.6,2,1.5,1.9c0.6-1.3,1.4-2.8,2.8-3.3
				c1-0.2,2.1-0.2,3,0.1c0.9,0.2,1.7,0.7,2.4,1.2c0.7,0.6,1.3,1.3,1.8,2.1c0.9,1.3,1.7,2.9,1.3,4.5c-0.3,1.3-1.6,2.4-3,2.5
				c-1.4,0.1-2.8-0.8-3.3-2.1c-0.1,1.1-0.1,2.2-0.1,3.3c0,0.2,0,0.5,0,0.7c-0.1,2.7-0.2,5.4-0.8,8c-0.1,0.6-0.4,1.3-0.9,1.6
				c-1.3,0.6-3.2-1.2-4,0c-0.2,0.3-0.2,0.8-0.4,1.2c-0.6,1.1-2.3,0.4-3.4,0.9c-1,0.5-1.1,2.3-0.1,2.8c0.9,0.5,2,0,3-0.2
				s2.4,0.2,2.4,1.3c-0.1,0.7-0.8,1.1-1.4,1.1c-0.1,0-0.1,0-0.2,0c-0.6,0-1.1-0.2-1.7-0.3c-1-0.2-2.3-0.1-2.9,0.7
				c-0.7,0.8-0.1,2.4,1,2.3c0.3,0,0.5-0.2,0.8-0.3c0.9-0.4,1.9-0.6,2.8-0.6c0.6,0,1.3,0.1,1.9,0.4c0.2,0.1,0.5,0.2,0.6,0.4
				c0.1,0.2,0.1,0.4,0.1,0.6c-0.1,1.2-0.3,2.6-0.2,3.8c0.1,0.5,0.6,1.5,0.4,1.9c-0.6,1-6.2,2-7.4,2.4c-1.2,1.9-2.3,3.7-3.5,5.6
				c-0.6,0.9-2,0.6-2.8-0.3c-0.3-0.3-0.5-0.7-0.6-1c-0.4-1.5,0.2-3.1-0.1-4.6c-0.4-2.7-3.7-4.6-6.3-3.5c-1,0.4-1.9,1.2-3,1.3
				c-2.9,0.2-5.6-4.5-7.7-2.6c2.6,2,3.8,5.7,2.8,8.8c3.7-2.8,9.6-1.3,12.2,2.4c0.6,0.8,0.9,1.7,1.1,2.7c0.1,0.6,0.2,1.2-0.1,1.7
				c-0.4,0.7-1,0.9-1.7,0.9c-1.4,0-3.2-0.7-4.5,0c-1.4,0.7-1.6,2.7-0.8,4c0.8,1.3,2.2,2.1,3.6,2.8c0.5-2,1.2-4.2,2.8-5.4
				c0.1-0.1,0.2-0.2,0.3-0.2c1.8-1.2,5.1-0.1,4.8,2.1c1.2-0.2,2.4-0.4,3.6-0.7c0.4,1.5-1.2,2.8-2.7,3.4c-1.5,0.6-3.2,1-4,2.3
				c-0.4,0.6-0.5,1.3-1,1.8c-0.6,0.5-1.4,0.6-2.2,0.7c-3.4,0.7-5.8,4.4-5.1,7.8c0.2,0.9,0.6,1.9,0.4,2.8c-0.1,0.6-0.5,1.1-0.6,1.6
				c-0.3,2.8,5,1.9,6.5,4.3c-1.3,4-3.5,7.6-6.2,10.8c2.3,1.2,3.5,4.2,2.6,6.6c-0.9,2.4-3.8,3.9-6.3,3.3c0.7,1.5,1.5,3.1,2.2,4.6
				c0.7-1.4,2.6-1.9,4.1-1.4s2.5,1.8,3.4,3.2c1.5,2.4,2.3,5.2,2.7,8c0.1,0.6,0.1,1.3-0.2,1.8c-0.3,0.5-0.9,0.7-1.5,0.8
				c-1.8,0.6-3.7,1.1-5.4,0.4s-2.6-3.3-1.1-4.4c-2.4,0.2-4.3-1.8-6.6-2.7c-2.2-0.9-5.8,0.6-4.8,2.8c1.3,0.1,2.2,1.7,1.6,2.8
				c-1.7,0.3-3.6-1-3.9-2.8c-2.4,0.7-5,1.8-5.7,4.2c-0.8,2.3,2.2,5.3,4.1,3.6c-0.1,1-0.3,2-0.4,3c0.3,1,1.8,0,2.5-0.8
				c1.4-1.5,4.2-1.7,5.4,0c1.2,1.7-0.3,4.6-2.3,4.2c0.5,0.8,1,1.6,1.5,2.3c-2.7,2.3-7.3,2-9.7-0.7c-0.3,2.1-0.6,4.2-0.9,6.2
				c-0.9,0.7-2.5,0.4-3.1-0.6c-0.6-1-0.1-2.5,1-3c-0.9-1.8-4-1.7-4.7,0.2c-1.1-0.7-1.8-1.9-1.8-3.2c-1.3,0.3-2.6,0.6-3.9,0.9
				c2.1,1.1,4.2,2.6,4.8,4.8c0.6,2.3-1.6,5.1-3.8,4.2c-0.3,1.4,1.4,2.4,2.8,2.4s2.8-0.6,4.2-0.3c3,0.6,3.4,5.7,0.6,6.8
				c-0.6-0.6-1.2-1.1-1.8-1.7c-1.2,0-2.2,1.2-2,2.3c1.3-0.4,2.8,0.4,3.4,1.7c-3.9,0.2-8.1,0.5-11.2,2.9c-0.5,0.4-1.1,1-1.7,1.1
				c-0.1,0-0.3,0-0.4,0c-1.8,0-2.6-2.6-2.7-4.5c-0.6,1.5-1.2,3.1-1.8,4.6c-0.4,1.1-0.8,2.4-0.2,3.3c1.1,1.8,3.9,0.4,5.4-1
				c1.6,0.2,2.5,2.2,2.3,3.8c-0.3,1.6-1.4,3-2.4,4.2c-1-0.8-2.6-0.3-3.1,0.8s0.4,2.6,1.6,2.8c0.5,2.5-1.4,6.2-4.2,6.5
				c-1.8,0.1-1.3-1-2.5-2.2c-1-1-2.4-1.6-3.7-1.7c-2.6-0.1-5.1,1.2-7.5,2.4c-2.6,1.2-5.2,2.2-7.9,3.1c0.7-1.5-0.6-3.6-2.3-3.6
				c-0.9,0.3-1.1,1.1-1,2l-1.3,0.4c-1.6,0.7-3.2,1.5-4.8,2.2c0.9,0.6,1.7,1.2,2.6,1.8c-0.1,1-0.2,2-0.3,3c-3.8,1.1-7.8,1.7-11.8,1.7
				c-0.1,2.5,2.9,3.9,5.4,3.6c2.4-0.3,4.7-1.5,7.1-1.7c0.1,1.1,0.2,2.2,0.3,3.4c1.3-1.7,4.3-0.6,4.9,1.5c0.6,2-0.5,4.2-1.9,5.8
				c-1.8,2-4.8,3.4-7.2,2.1c0.6,3.9,0.1,8-1.6,11.7c-1.6,0.4-3.2,0.6-4.8,0.4c0.6,1.7,0.4,3.7-0.6,5.2c-1.8-0.2-3.3-1.4-4.1-3
				c0.1-1,0-2.1-0.7-2.8c0,1,0.2,2,0.7,2.8c-0.1,0.8-0.4,1.7-0.8,2.5c-0.8,1.7-1.9,3.3-2,5.2c-0.1,1.7,0.8,3.3,0.8,5.1
				c0.1,1.7-1.3,3.8-2.9,3.3c1.4-2.4,1.2-5.6-0.5-7.8c-1.7-2.2-4.8-3.2-7.5-2.4c0.9,1.7,2.2,3.3,3.7,4.5c-1.5,1-2.3,2.9-2.1,4.6
				c1.8-0.1,3,2,2.6,3.7c-0.4,1.5-1.5,2.6-2.9,3.4l-2.7-0.5c-2.6-0.2-3.3-4.6-0.9-5.6c-4.1,0.6-7.1,5.2-5.9,9.2
				c-3.3-0.1-6.6,2.1-7.8,5.3c-2.1-0.8-3.8-2.7-4.3-4.9c-2.6-0.2-5.2,0.2-7.7,1.1c0.1,3.3,0.1,6.7-0.7,9.9c-0.9,3.2-2.9,6.3-6,7.6
				c-0.9,0.4-1.9,0.6-2.9,0.8c-2.4,0.3-5-0.2-7.4-0.7c-1,1.4,1.2,3.2,2.9,2.9c1.6-0.2,3-1.2,4.6-1.5c0.1,0,0.2,0,0.3,0
				c3.5-0.2,5.7,3.6,7,6.9c-2.8-2.2-7.7-0.5-8.4,3c-1-1.6-3.3-2.2-4.9-1.4c1-0.2,1.5,1.3,1.1,2.3c-0.4,1-1.3,1.6-1.7,2.6
				c-0.7,2,1,3.9,1.4,5.9c0.6,3.4-3,6.4-6.5,6.6c-3.5,0.2-6.7-1.7-9.7-3.4c-1.9,3.6-3.3,7.5-4.1,11.5c-2.3,0.8-5.3,1.1-7.8,1.7
				c-3.7,0.9-9.1,1.4-9.3,5.3c-3.1-2.4-6-5-8.7-7.8c-3,1-6.3,1-9.3,0.2c1.4,0.7,2.7,1.3,4.1,2c-0.7,1.8-1.3,3.5-2,5.3
				c1.3,1,2.7,2,4,2.9c-1.5,6-12,6.2-13.8,0.3c-1.6-0.2-3.2-0.8-4.4-1.9c0.7-1.9,0.9-4,0.7-6c-1.7,5-8,6.2-12.5,8.9
				c-4.6,2.8-7.8,7.9-8.1,13.3c-3.3,1.1-7.2-0.3-9-3.2c-1.9-2.9-1.5-7,0.8-9.5c-3.4,0.6-6.6,1.8-9.7,3.4c-1.6,0.8-3.4,2.1-3.4,4
				c-0.1,1.8,3,3,3.6,1.3c0.5,1.7-0.9,3.6-2.6,3.6c0.5,1.8,2.3,3.1,4.1,3.1c1.2,2.9-2.4,6-5.5,5.2c-3-0.8-4.9-3.8-5.7-6.8
				c-3.4-1-7.3,0.7-9,3.7c3.6,1.1,7,2.9,10,5.2c0.1,3.2-3.3,5.9-6.4,5.2c0.4,1.8,0.2,3.7-0.5,5.4c-1.5-0.4-3.1-0.9-4.6-1.3l-2.8-0.5
				c0.2-0.3,0.5-0.5,0.7-0.7c-2.1-1.2-4.1,0-5.8,1.9l-2.5-1.3c-2.4-0.7-4.9-1.4-7.3-2.2c0.7-1.4,1.3-2.8,2-4.1
				c-3.8-5.1-7.7-10.1-11.5-15.2c-6.5-3.7-11.6-9.6-14.3-16.5c-2.8,5.1,1.2,12.5,7,13c-2.3,3.2-6.8,4.6-10.5,3.3
				c5.7,2.6,9.5,8.8,9.3,15c-0.2,3.4,0.6,8.7,3.8,7.6c-2.7,1.9-1.6,6-0.5,9.1c1.1,3.1,1.1,7.7-2.1,8.4c-3.1,0.7-5.1-3.2-5.8-6.3
				c-1.9-0.4-3.7,1.2-4.1,3.1l-2.5-0.4c0.1-0.2,0.2-0.5,0.2-0.7c-2.8,0.9-4.4,4.2-3.5,6.9c-2.4-0.1-4.8-0.2-7.2-0.3
				c-0.8-2.4-1.6-4.8-2.3-7.2c-4,0.4-4.9,5.7-4.5,9.7c0.4,4,0.3,9.1-3.4,10.5c-2.4-0.4-4.1-3.3-3.3-5.6c-6.4,1.4-11.7,6.9-12.8,13.4
				c-5,0.1-10.1-2.2-13.3-6c2.2,3.6,0.2,9.1-3.9,10.3c-4.1,1.2-8.8-2.2-8.9-6.5c-4.3,3.4-11.4,2.2-14.3-2.5c-0.4,2.7,1.4,5.5,4,6.2
				c-1.4,1.8-2.8,3.7-4.2,5.5c2.5,1.2,5.4,1.8,8.2,1.8c-3.1,2.3-6.3,4.5-9.4,6.8c-1.9-2.2-4.6-3.7-7.5-4.2c-2,1.9-3.5,4.4-4.3,7.1
				c-5.3-0.5-10.5-1.1-15.2,2c-1.6,1.1-3.1,2.5-5,3.1c-4.8,1.4-10.1-3.3-14.6-1c-3,1.5-4.1,5.6-7.3,6.6c-2.6,0.8-5.5-0.8-7.9,0.4
				c-1.4,0.7-2.3,2.1-3,3.5c-3.7,7-6.3,14.5-7.7,22.3c-5.2-1.9-11.1-1.7-16.2,0.4c-0.2-1.9-1.3-3.7-2.9-4.8
				c-1.3,2.2-2.7,4.6-2.9,7.2c-0.1,2.6,1.4,5.5,4,6c2.3,0.4,4.5-1.2,6.8-1.2c3,0,5.6,3.1,5.1,6.1c-1.1,1.2-2.8,1.9-4.5,1.6
				c-1,1.8-0.1,4.5,1.8,5.3c1.9,0.8,4.4-0.4,5-2.4c1.5,2.8,3,5.7,4.6,8.5c0.6,1.1,1.2,2.4,1.2,3.7c-0.1,4.4-7.1,6.8-6.1,11
				c-4.4,0.5-8.8,1.1-13.2,1.6c-0.8,0.1-1.7,0.3-2,1c0,0.1-0.1,0.2-0.1,0.3c-4.3-1.9-9.6-1.3-13.4,1.4c-1.4-3.6-2.8-7.1-4.1-10.7
				c2.9-0.9,6.2,0.3,7.9,2.8c-1.1-4.5-5.5-8-10.2-8c0.9-1.3,0.1-3.1-0.9-4.3c-1-1.2-2.4-2.3-2.7-3.9
				C1780.9,2142.8,1781.7,2141.6,1782.5,2141.2z M1782.5,2141.2c0.4,0.1,0.9,0.1,1.3,0.2C1783.5,2141.1,1783,2141,1782.5,2141.2z"/>
			<path class="st3" d="M2325,864.6c3.4,22.7,11.9,40.3,11.4,63c0,1.6-0.1,3.3-0.1,4.9c-2.2-1.9-6.2,0.2-6,3c-1.5,0.2-3-0.8-3.4-2.2
				c-1.7,0.8-3.7,1.1-5.6,0.7c-1.5,1.2,0.5,3.4,0.6,5.2c0.1,2.9-3.8,3.7-6.6,3.7c-2.9,0-6.7,1.8-5.7,4.5c-1.9,0.2-3.7,0.5-5.5,0.8
				c-1,4.8-5.6,6.8-8.6,10.2c-3.6,4.2-8.7,7-12.1,11.4c-0.9,1.2-1.7,2.6-2.8,3.8c-1.1,1.2-2.5,2.4-2.8,4c-0.4,1.6,1.2,3.6,2.7,2.9
				c1,1.1-1.2,2.1-2.5,2.8c-1.6,0.8-2.2,2.6-3.2,4.1s-2.7,2.9-4.3,2.1c0.4,2.2,0.1,4.8-1.7,6.1c-1.8,1.3-5.1,0.3-5-1.9
				c-2.9-0.7-6.1,1.1-7,3.9c1.6-1.9,5.1,0.7,4.3,3.1c-0.7,2.4-3.8,3.3-6.2,2.7c-0.7,1.4-1.4,2.7-2.2,4c-2.5,0-5,0.1-7.5,0.1
				c-0.1,1.9-2.2,3.5-4.1,3c-0.2,1.5-0.5,3-0.7,4.5c-2.1-0.1-4.1-1.1-5.6-2.6c0.3-1.8-0.3-3.6-0.9-5.4c-0.6-1.8-1-4,0-5.7
				c1-1.7,4-2,4.7-0.2c0.9-1.2,2.3-1.9,3.7-1.9c-0.3-1.8-0.2-3.9,1.2-5.1c1.4-1.2,4.1-0.6,4.2,1.2c2.8-2.1,5.5-4.2,8.2-6.3
				c0.5-0.4,1-0.8,1.2-1.4c0.6-1.6-1.4-2.9-2.9-3.7c-1.5-0.8-2.8-3.2-1.3-4c1.8-1.4,3.5-2.8,5.2-4.1c-0.1-1-0.2-1.9-0.4-2.9
				c0.7-0.6,1.4-1.3,2.1-1.9c-3.3,1.5-6.7,2.9-10.3,2.6c-3.6-0.4-7.1-3.4-6.7-6.9c-2.2-2.1-6.5,2.3-8.7,0.1
				c-1.8-1.7,0.7-4.5,2.9-5.5c2.2-1,5.1-2.8,4.3-5.1c0.8,1.1,2.2,1.8,3.6,1.8c0.2-1,0.1-2.1-0.4-3.1c-3.3-0.4-4.8-4.8-3.5-7.8
				c1.3-3,4.4-4.9,7.2-6.6c2.9-1.6,5.9-3.4,7.4-6.4c0.8-1.6,1-3.5,1.5-5.2c1-3.9,3.2-7.5,6.2-10.1c-0.4-2.7,0.3-5.5,2-7.5
				c0.7-0.9,1.6-1.8,1.4-2.9c-0.1-0.7-0.7-1.2-0.7-1.9c0-1.1,1.4-1.6,2.2-2.3c1.5-1.4,1-4-0.5-5.4c-1.5-1.4-3.5-1.9-5.5-2.3
				c0.1-1.9-0.4-3.8-1.3-5.4c-3.8-1.2-7.6-2.3-11.4-3.5c-0.7-0.2-1.4-0.4-1.9-0.9c-0.5-0.4-0.8-1-1-1.6c-0.8-1.7-1.6-3.4-2.3-5
				c-0.1-0.3-0.2-0.6-0.4-0.9c0.1,0.3,0.3,0.6,0.4,0.9c0.9,2.8-1.6,6.2-4.6,7.1c-3.4,0.9-6.9-0.3-10.2-1.5c-1.5-0.5-3-1.1-4.4-1.6
				c-1.9,0.1-3.7,1.2-4.6,2.8c-1.4-1.4-3.9-0.9-5.3,0.5c-1.4,1.4-2,3.4-2.6,5.2c-1.4,0-2.9,0-4.3,0.1c-0.2,1.3-0.4,2.5-0.7,3.8
				c1.3,0.6,2.6,1.1,3.9,1.7c-1.1,3-4.5,5-7.7,4.5c0,2.8-0.9,5.7-2.5,8.1c-0.2,0.2-4.6,5.2-2.7,5.4c-1.7,0-3.2,1.5-3.2,3.2
				c0,1-0.2,2.6-1.1,2.2c1.2,0.7,1.9,2.2,1.7,3.6c-0.9-0.6-2.2,0.3-2.5,1.3c-0.4,1-0.2,2.1-0.4,3.2c-0.5,2.7-2.8,4.5-5,6.1
				c-8.3,5.9-16.5,11.8-24.8,17.7c-3.8,1-7.4,3.3-9.9,6.3c0.4,1.9,0.4,3.8,0.2,5.6c-2.9-0.1-5.7,2-6.5,4.8c-0.5,1.8-0.2,3.6-0.6,5.4
				c-0.4,1.8-1.7,3.7-3.6,3.5c1.2,0.1,1.8,1.5,1.8,2.6c0,1.2-0.4,2.4-0.2,3.5c0.1,0.8,0.6,1.4,0.8,2.1c0.6,2.2-0.8,4.5-2.1,6.5
				c-3.3,4.8-6.6,9.7-9.9,14.5c-1,0.4-2.1,0.1-2.9-0.6c0.3-1.3,0.5-2.5,0.8-3.8c-1.4-0.9-2.3,1.7-3.5,2.9c-1.8,1.7-4.7-0.1-7.2-0.2
				c-3.1-0.1-5.3,2.7-7.3,5c-2.8,3.4-7.9,6.7-11.2,3.8c0.3-5-6-8.4-10.9-7.2c-4.9,1.2-8.6,5.2-11.9,9c0.5,2.4,1.1,4.8,1.6,7.2
				c-6.1,7-7.5,17.8-3.3,26.1c3.1,6.2,8.8,10.7,14.6,14.5c3.6,2.3,7.5,4.6,11.8,5.1c7,0.8,14.8-2.7,20.6,1.2
				c3.3-4.2,8.5-6.9,13.9-7.1c0.2,1.6-0.1,5.7,1.4,6.6c1.1,0.7,3.6-0.8,4.5,0.2c1.5,1.8,3.2,4.3,3.6,6.7c0.4,2.1,1.3,4.1,2.3,6
				c0.2,0.4,0.3,0.7,0.6,1c0.2,0.2,0.3,0.4,0.5,0.6c1.1,1.2,1.9,3.4,1.8,5c-0.2,2.2-2.3,3.5-2.7,5.3c-1,4.7-1,9.6,0.1,14.3
				c0.5,2,1.2,4.1,2.5,5.7c1.3,1.5,3.2,2.4,5,3.1c7.4,2.7,15.6,1.7,23.4,0.3c2.8-0.5,5.8-1.1,8.2-2.7c2.4-1.6,4.3-4.4,3.9-7.2
				c-0.1-0.8-0.4-1.7-0.4-2.5c-0.3-3.8,3.5-6.3,6.6-8.5c3.2-2.3,6.1-5.2,8.5-8.5c1-1.3,1.9-2.8,1.8-4.5c-0.1-1.6-1.8-3.2-3.4-2.6
				c1.6-0.7,3.3-1.3,4.9-2.1c3.4-1.6,6.6-3.5,9.5-5.8c2-1.5,3.9-3.2,6.2-4.2c4.9-2,10.5,0,15.4,1.9c1.8,0.7,3.7,1.5,5,2.9
				c1.3,1.5,1.8,3.8,0.5,5.3c4,0.3,8-0.4,11.6-2c-0.9-1.1,0.4-3,1.7-2.6c-0.7,1.8-0.2,3.9,0.9,5.4c0.6,0.8,1.5,1.2,2.1,2
				c0.5,0.5,0.8,1.8,1.3,2.2c0.5,0.3,1.1,0.3,1.6,0.3c1,0,1.9,0,2.9-0.1c0.1,0,0.3,0,0.4-0.1c0.1-0.1,0.1-0.3,0.1-0.4
				c0-0.5,0-1.1,0-1.6c0-0.2,0-0.4,0.1-0.5c0.1-0.1,0.3-0.2,0.4-0.2c2.4-0.6,4.8-0.5,7.2-1c2.9-0.6,5.9-0.4,8.8-0.1
				c-0.2-0.9,0.2-1.8,0.6-2.7c1.1-2.3,2.5-4.9,5-5.5c1.6-0.4,3.7,1.1,3.8,2.7c0.1,0.7-1.6,4.1,0.7,3.9c1.3-0.1,2.5-0.9,3.1-2.1
				c0.8,0.6,1.6,1.3,2.4,1.9c1.8-0.3,3.6-1,5.3-1.2c1.9-0.2,3.6,0.9,5.5,0.9c1.3,0,2.6-0.6,3.3-1.6c0.1-0.2,0.2-0.4,0.4-0.6
				c1.5-1.5,7,1,4.8,2.9c-0.6,0.5-1.4,0.4-2.1,0.5c-1.9,0.5-2.7,3-2,4.9c0.7,1.8,2.3,3.2,3.9,4.3c-1.3,1-2.1,2.5-2.4,4.1
				c-1.6-0.9-3.9-0.3-4.8,1.3c-0.9,1.6-0.2,3.9,1.3,4.7c0.6,0.4,1.4,0.5,2,0.8c1.9,0.9,2.9,3.2,2.4,5.1c-0.5,2-2.6,3.4-4.6,3.2
				c0.7,1.2,0.8,2.7,0.2,4c-1.9,0.6-3.8,1.2-5.6,1.8c-1.5,0.5-3.2,0.9-4.6,0.3c-1.5-0.6-2.2-2.9-0.8-3.8c1.2,0.3,2.6,0.1,3.7-0.5
				c-2.6,0-5.1-2-5.7-4.6c-0.8,3-2.8,5.6-5.4,7.1c-0.6-2.7-2.9-4.9-5.7-5.3c2,1.8-0.3,5.1-2.7,6.4c-2.4,1.3-5.5,2.9-5.2,5.6
				c-2,0.2-3.9,0.5-5.9,0.7c1.5,1,2.1,3.1,1.5,4.8c-2.6-1.3-5.2-2.5-7.8-3.8c1.4,0.7,1.5,2.7,0.8,4.2c-0.7,1.4-1.9,2.5-2.6,3.9
				c-5.2,1.3-10.1,4.3-13.7,8.3c-1.2,1.7-3.6,1.8-5.5,1.3s-3.8-1.4-5.8-1.5c-0.1,0-0.3,0-0.4,0c-1.9,0.2-3.9,1.6-3.7,3.5
				c0.1,0.7,0.5,1.3,1.1,1.6c1.8,0.6,2.5-2.2,2.3-4.1c0,0,0.1,0,0.1,0c1,0.2,2.1,0.4,3.1,0.6c4.3,3.1,5,10.1,1.4,14
				c-2-0.8-3.5-2.6-3.9-4.7c-2.1,1.1-3.8,2.8-5,4.8c0.7,1.5,1.4,3.1,2.1,4.6c-0.9-0.1-1.9-0.1-2.8-0.2c1.2,3.7,2.8,7.3,4.5,10.8
				c-5.5,2.6-11,5.3-16.5,7.9c-0.4,0.2-0.8,0.4-1.3,0.4c-0.1,0-0.2,0-0.2,0c-1.5-0.2-1.9-2.5-1.4-4c0.6-1.6,1.6-3.2,1.1-4.8
				c-3.5,0.4-7.1,0.8-10.6,1.2c0.1,2.1,0.1,4.1,0.2,6.2c2.5-0.3,4.9,2.1,4.6,4.6c1.9-0.5,3.8-0.6,5.8-0.3c0.2,0,0.4,0,0.6,0.1
				c-1.7,4-5.4,7.1-9.7,8c-1.7,1.4-1.8,4-2.2,6.2c-0.3,2.2-1.5,4.8-3.8,5c0.1,2.4,0,4.7-0.3,7.1c-1.5,0.4-3.2-1-3.1-2.6
				c-0.8,1.6-1.3,3.3-1.3,5.1c-1.3,0.4-3.2-0.8-3.2-2.2c-3.9,0.5-4.8,6-5.1,9.2c-0.3,3.8-1.3,8.5-5,9.3c-0.5,0.1-1.1,0.2-1.6,0.5
				c-1.4,1.1-0.7,3.8-0.4,5.2c0.5,2,0.4,3.8,0.4,5.8c0,0.9-0.2,2.1-1.1,2.5c-0.4,0.2-0.9,0.1-1.3,0.1c-2-0.1-4.1,1.3-4.8,3.2
				c-1,2.7,0.4,5.6,0.4,8.5c0,1.1-0.2,2.2-0.1,3.4c0.1,1.1,0.5,2.3,1.5,2.9c0.2,0.1,0.4,0.2,0.6,0.4c1,1.5-2,2.4,1.1,3.6
				c2,0.8,3.9-0.5,5.6-1.7c1.4-1.3,3.8-0.5,5.1,1c1.3,1.5,1.9,3.4,3.1,4.9c1.5,1.9,3.7,2.9,5.9,3.8c1.1,0.5,2.4,1.1,3.6,1.3
				c1.2,0.3,2.5,0.1,3.7,0.6c1.3,0.5,2.3,1.6,3.6,2c2.7,0.7,5.6-1.9,8.2-0.9c0.5,0.2,1,0.5,1.4,0.8c1.7,1.2,3.7,3.2,5.6,4
				c2,0.9,4.2,0.3,6.2,1.5c1.9,1.2,3,3.2,4,5.2c0.6,1.2,1.2,2.5,1.8,3.7l-0.1,0c-2.3,0.6-2.6,1.3-4.7,2.6
				c-22.6,14.2-45.3,28.6-65.5,45.9c-16.2,13.9-30.7,29.6-46,44.5c-9.9,9.6-20.5,19-33.1,24.7c-12.4,5.6-26.1,7.4-39.6,9.1
				c-12.1,1.6-24.2,3.1-36.3,4.7c-26.4,3.4-53.5,7-77.1,19.5c-3.2,1.7-6.4,3.7-8.2,6.8c-1.7,3-1.8,6.6-2.2,10.1
				c-2.8,23.9-19.9,43.2-36.2,60.9c-4.8,5.3-9.9,10.7-16.5,13.5c-7.2,3-15.3,2.4-23.1,1.8c-26.8-2.1-53.5-4.2-80.3-6.2
				c-21.9,0.7-45.9,1.5-67.2,6.7c-8.1,2-16.4,4.4-23.1,9.5c-9.6,7.3-14.6,19.1-21.3,29.1c-12.6,18.7-31.8,31.7-50.5,44.3
				c-12.5,8.4-24.9,16.7-37.4,25.1c-10.2,6.9-20.6,13.8-32.1,18.2c-18,6.9-37.9,7.4-56.4,12.8c-33.6,9.8-60.8,35.1-81.2,63.6
				c-6.8,9.5-13.3,20.3-13.1,32c0.2,7.8,3.3,15.2,4.8,22.9c1.5,7.7,1,16.6-4.7,21.9c-2.8,2.6-6.4,4-9.9,5.3
				c-9.9,3.7-19.8,7.4-29.7,11.2c-4.7,1.8-8.8,3.2-13.4,1.1c0.4-6.1,0.8-12.6-1.3-18.5c-2.4-6.7-12.6-16.1-19.5-8.9
				c-2,2-3.2,4.7-5.4,6.5c-3.3,2.6-7.9,2.6-12,3.7c-7.2,1.8-12.6,7.7-19.5,9.3c-7.8,1.8-18.5-0.8-26.2-2.2c1.1-6.8,5.8-23-3.1-25.2
				c-15-3.7-20-6.5-30.8-17.1c-8.8-8.7-17.9-16.8-30.8-18.1l-0.1,0c3.5-10.6,7.6-20.6,12.8-28.7c20.4-31.7,27.1-67.9,60.4-90.9
				c18,15.3,39.7,26.2,62.7,31.5c7.3,1.7,15,2.8,22.1,0.4c22.5-7.6,20.8-40.6,35.3-59.4c10.2-13.1,28.3-18.7,37.3-32.7
				c8.4-13.1,6.6-29.9,8.6-45.4c3.1-23.3,15.5-46.7,8.7-69.2c-3.9-12.8-13.5-22.9-22.1-33.1c-9.2-10.9-17.8-22.7-21.4-36.5
				c-4.9-18.5,6.9-28.7,8-44.8c1.1-17-13.5-39.2-25.5-49.8c-8.8-7.8-19.6-13-28.6-20.6c-35.6-29.6-24.2-76.1-23.6-116.6
				c0.2-10.8,0.3-25-7.7-33.5c-8.4-8.9-20.5-13.9-28.8-23.5c-12.9-15-31.6-14.2-48.1-23.8c-6.3-3.7-11.9-8.3-18.2-11.9
				c-17.5-10.2-38.5-12.4-58.7-14.4c-30.5-3.1-61.1-6.6-90.3-15.5c-19.5-5.9-44.8-16.3-53.1-36.9c-2-5.1-2-10.7-1.8-16.1
				c0.8-18.4,6.9-32.6,11.2-49.9c1.5-6.1,0.1-11.1,0.5-17.2c0.7-9.5,5.7-18.4,10.3-26.5c8.7-15.5,18.2-31.7,33.7-40.5
				c5.6-3.1,11.7-5.2,17.8-7.2c8.1-2.6,16.1-5.3,24.2-7.9c70.5-23.1,112.4,59.8,179,49.8c31.4-4.7,53.2-33,69.5-60.3
				c16.2-27.3,32-57.6,60.4-71.7c22.8-11.4,49.5-10.1,74.9-11.7c116-7.2,219.6-77.2,334.6-93.6c34-4.8,68.5-4.9,102.8-4.9
				c31.2,0,54.8,6.2,68.6,37.7c9.9,22.7,11.2,48.2,19.3,71.5c8.1,23.4,26.9,46.4,51.6,46.5c16.2,0,30.6-9.7,46.1-14.9
				c7-2.3,14.6-3.9,20.1-8.8c7.7-6.9,9.6-19,18.4-24.5c6.6-4.1,14.9-3.2,22.6-4c19.2-2,35-15.2,52.7-22.8c17.7-7.6,42.9-6.8,51,10.7
				c5.5,11.8,0.6,26.5,5.9,38.4c2.4,5.3,6.6,9.6,10.1,14.3C2322.1,811.3,2321.1,839.1,2325,864.6z"/>
			<path class="st1" d="M2323,1683.7c-0.1,0.1-0.3,0.2-0.4,0.2C2322.7,1683.8,2322.8,1683.8,2323,1683.7z"/>
			<path class="st1" d="M2244.6,880c-0.1-0.3-0.3-0.6-0.4-0.9C2244.4,879.4,2244.5,879.7,2244.6,880z"/>
			<path class="st1" d="M2234.8,1012.4c0,0.1,0,0.2-0.1,0.3c-0.2-0.4-0.5-0.9-0.7-1.3C2234.3,1011.8,2234.5,1012.1,2234.8,1012.4z"
				/>
			<path class="st1" d="M2222.3,1868.1c1.3,1.5,2.6,4,0.9,5c-2.9-1-4.7-4.6-3.7-7.6l1.3-0.4
				C2221,1866.2,2221.6,1867.3,2222.3,1868.1z"/>
			<path class="st1" d="M2202.1,1900.3c0.7,0.8,0.8,1.8,0.7,2.8C2202.3,1902.3,2202,1901.3,2202.1,1900.3z"/>
			<path class="st1" d="M2191.2,1925.3c-0.2,0.1-0.4,0.2-0.6,0.3c1,1.4,0.6,3.6-0.7,4.7c-1.3,1.1-3.5,1-4.7-0.2
				c0.2-2.2,1.4-4.2,3.3-5.3L2191.2,1925.3z"/>
			<path class="st1" d="M2025,2030.5c0.4,3-4.3,4.5-6.3,2.4c-1.8-1.9-1.3-5.1,0.4-7.2l2.8,0.5
				C2021.3,2028.1,2022.9,2030.4,2025,2030.5z"/>
			<path class="st1" d="M2011.6,2025.5l2.5,1.3c-1.1,1.2-2.1,2.7-2.8,4c-2,3.3-8,5.7-8.8,1.8
				C2004.5,2029.3,2007.8,2026.7,2011.6,2025.5z"/>
			<path class="st1" d="M1977.5,2042.6c3-0.1,3.9,5.1,1.2,6.4c-2.7,1.3-6.2-1.3-6.2-4.3c1-1.4,1.8-2.9,2.4-4.5l2.5,0.4
				C1977.2,2041.3,1977.2,2042,1977.5,2042.6z"/>
			<path class="st2" d="M1858.8,2198.5c0,0.6,0,1.1,0,1.7c-3.2-0.3-6.6,1.1-8.7,3.5c-0.8,0.9-1.4,2.1-1.1,3.3
				c-1.4,0.6-2.9-0.1-3.6-1.4c-0.8-1.5-0.1-2.4,1.2-3.2c-0.2-0.9-1.4-1.5-2.2-1.1c-0.1,2.9-0.6,5.8-1.3,8.7c-0.2,0.8-0.5,1.5-1,2.2
				c-0.6,0.7-1.4,1.1-2.1,1.5c-3.1,2-5.1,5.7-5.1,9.4c0,0.9,0.1,1.9-0.2,2.8c-0.8,3.1-4.8,3.6-8,3.6c1.7,0.9,3.6,2.1,4,3.9
				c0.1,0.8,0,1.6-0.2,2.4c-0.9,4.5-2,8.9-3.3,13.3c-0.5,0.5-0.7,1.1-0.5,1.8l0.8,1c0.6,2.7-1.5,5.3-3.9,6.5
				c-2.4,1.3-5.2,1.6-7.8,2.7c-4.7,2-8.3,6.4-9.2,11.4c-0.3,1.5-0.4,3.2-1.2,4.5c-0.8,1.3-2.7,2.2-4,1.3c-0.5-0.4-0.8-1-1.4-1.3
				c-0.7-0.4-1.5-0.2-2.2-0.1c-2.1,0.4-4.2,0.8-6.3,1.2c-1,0.2-2,0.4-2.8,1c-3.1,2.4,0.2,8.4-2.8,11c-0.5-1.4-2-2.4-3.5-2.1
				c-2.6,0-1,3.1-1.4,3.8c-0.3,0.4-1.6,0.2-2,0.2c-1.5-0.3-0.8-0.6-1.7-1.8c-0.4-0.5-1-0.9-1.7-0.7c-0.9,0.3-1.1,1.6-2,2
				c-0.6,0.3-1.5,0.1-1.8-0.6c-0.3-0.6,0-1.5,0.6-1.8c-0.5-1.7-1.3-3.7-3.1-4c-1-0.2-1.9,0.3-2.9,0.5c-3.1,0.6-6.3-1.1-9.4-0.4
				c-1.2,0.3-2.5,1-3.7,0.5c-1.4-0.5-1.8-2.2-1.7-3.7c-2.7,0-5.3,0.4-7.9-0.1c-2.4-0.4-4.7-1.3-6.8-2.5c-1.7-0.9-2.7-2.5-4.2-3.4
				c-2-1.2-5-1.4-7.2-2c-0.4-0.1-0.9-0.2-1.2-0.6c-0.3-0.4-0.3-1-0.2-1.5c0.7-4.7,2.3-10.1-0.6-13.9c-1.2-1.7-3.3-3.1-3.2-5.1
				c0.1-1.4,1.2-2.5,1.7-3.8c1.2-4-4.2-8.9-1.3-11.9c1.2,1,2.6-1.5,1.8-2.9c-0.8-1.4-2.5-2.2-2.9-3.8c-0.5-2.3,2.2-4.3,2-6.7
				c3.5,0.1,5.9-3,8.7-5.2c0.3-0.2,0.6-0.5,1-0.7c1.5-1,3.2-1.6,4.8-2.6c2.5-1.6,4.3-4.3,5-7.2c0.7,1.4,3,0.8,3.9-0.6
				c0.9-1.3,1.2-3.1,2.5-4.1c1,0.5,2,0.9,3,1.4c-0.3-1,0.3-1.9,1.2-2.6c0.7-0.6,1.6-1,2.5-1.3c1.9-0.6,4.2-1.9,3.9-3.8
				c-2.9,0.1-5.8,1.1-8.2,2.8c-1-3.2,1-6.9,4.2-7.9c0.1-1.1,0.1-2.2,0.2-3.3c3.4,1,6.7,2,10.1,3c2.5,0.8,5.5,1.4,7.6-0.3
				c-2.5-2.7-0.6-7.6,2.9-8.9s7.4,0.2,10.3,2.5c0-1.2,0.7-2.4,1.8-2.9c1,0.9,2,1.8,2.9,2.7c0.2-1.3,1.8-2.2,3-1.7
				c1.2,0.5,1.7,2.2,1,3.3c0.2,0.8,1.6,0.5,2-0.3c0.4-0.8,0.2-1.8,0.7-2.5c1.2-1.7,4.3-0.2,5.9-1.7c0.8-0.8,0.8-2.1,1.4-3
				c1.1-1.6,3.4-1.6,5.3-1.1c1.9,0.5,3.8,1.4,5.7,0.9c1-0.2,1.8-0.8,2.8-1.1c3.7-1,7.7,3.4,11.1,1.7c1-1.6,1.3-3.7,0.9-5.6
				c2.1-0.3,4.1-1.5,5.3-3.3c0.9,1.5,1.9,3.1,2.8,4.6c2.4,2.4,6.1,3.5,9.4,2.8c1.4-0.3,2.9,0.4,3.8,1.5c0.2,0.2,1.7,3.4,0.9,3.5
				c1-0.1,2,0.7,2.4,1.6c0.4,0.9,0.5,2,0.6,3c0.1,2.1,0.3,4.2,0.4,6.4c0.1,1.1,0.2,2.2,0.8,3
				C1856.6,2197.7,1857.7,2198.1,1858.8,2198.5z"/>
			<path class="st4" d="M1830.9,2248.9c1.2,1.8-1.8,4.5-3.4,3l-0.8-1c0.2-0.6,0.3-1.2,0.5-1.8
				C1828.1,2248,1830,2247.6,1830.9,2248.9z"/>
			<path class="st4" d="M1827.1,2249.1c-0.2,0.6-0.3,1.2-0.5,1.8C1826.5,2250.2,1826.7,2249.5,1827.1,2249.1z"/>
			<path class="st1" d="M1805.7,2167c-0.3,0.6-1.2,0-1.2-0.6C1804.9,2166.5,1805.3,2166.8,1805.7,2167z"/>
			<path class="st1" d="M1783.9,2141.4c-0.4-0.1-0.9-0.1-1.3-0.2C1783,2141,1783.5,2141.1,1783.9,2141.4z"/>
			<path class="st5" d="M1758,2197.1c0.3,1.9-2,3.2-3.9,3.8c-0.8,0.3-1.8,0.7-2.5,1.3l-1.8-2.3
				C1752.1,2198.1,1755,2197.1,1758,2197.1z"/>
			<path class="st1" d="M1598,2172c-0.1,0.1-0.3,0.2-0.4,0.2C1597.7,2172.1,1597.8,2172.1,1598,2172z"/>
			<path class="st1" d="M1554.8,2266.8c-0.2,0.1-0.4,0.1-0.6,0.2C1554.4,2266.9,1554.6,2266.8,1554.8,2266.8z"/>
		</g>
		<g>
			<path class="st6" d="M1554.8,2266.8c-0.2,0.1-0.4,0.1-0.6,0.2C1554.4,2266.9,1554.6,2266.8,1554.8,2266.8z"/>
			<path class="st6" d="M1598,2172c0.6-0.1,1.4,0.6,1.3,1.4c-0.2,0.9-1.1,1.5-1.9,2c-3.7,2-8.6,3.7-11.6,6.6c-2,1.9-4,4.6-5.7,6.8
				c-1.1,1.5-2.2,3.2-3.9,3.9c-1.7,0.8-4.3-0.1-4.3-2c-2.2,0.5-4.3,1.6-5.9,3.2c0.4,1.1,0.5,2.3,0.3,3.4c-2.9,1.9-1.8,6.4-3.6,9.3
				c-0.7,1.1-1.9,1.9-2.7,3c-3.2,4.2-0.1,10.3-1.4,15.4c-0.8,0.2-1.6,0.3-2.4,0.4c1.6,2.9,2.2,6.3,1.8,9.5c-1.2-0.8-2.8,0.5-3.2,1.9
				c-0.3,1.4,0.1,2.9,0,4.3c-0.2,2.7-2.5,5.1-5.2,5.4c-0.6,0.1-1.2,0.1-1.6,0.5c-0.2,0.3-0.2,0.6-0.3,0.9c-0.3,3.1-0.4,6.5,1.6,8.9
				c1,1.2,2.5,2,3.9,2.8c1.3,0.9,2.7,2,3.1,3.5c0.4,1.3-0.2,3-1.4,3.6"/>
			<path class="st6" d="M1598,2172c-0.1,0.1-0.3,0.2-0.4,0.2C1597.7,2172.1,1597.8,2172.1,1598,2172z"/>
			<path class="st6" d="M1782.5,2141.2c-0.7-0.1-1.3-0.2-2-0.2c0.2-2.5,0-5-0.5-7.4c-1.5,0.1-2.9,0.2-4.4,0.3
				c-1.2-9-0.2-18.3,2.7-27c0.5-1.6,1.1-3.1,2.2-4.3c1.6-1.8,4.1-2.7,6.5-2.4c0.5-1.8,0.3-3.8-0.4-5.5c-2.9,0.8-5.9,1.5-8.9,1.1
				c-3-0.4-6-2.3-6.7-5.3c-1.9-1.9-3.8-3.8-5.7-5.8c0.7-1.2,0.7-2.8,0-4.1c-2.2-0.4-3.2,3-2.1,5c1.1,2,3.1,3.6,3.4,5.8
				c0.5,3.2-2.9,5.8-6.1,6.4c-3.2,0.6-6.6,0.2-9.6,1.2c-2.9,1-5.3,3.4-8.3,3.9c-3,0.6-6.9-2.4-5.3-5.1c1.4-2.3,6.1-3.7,4.4-5.8
				c-6.4-1.7-12.9-3.3-19.3-5c-0.2-0.1-0.5-0.1-0.7-0.2c-3.1-0.8-6.4-1.7-8.8-3.8c-2.4-2.2-3.6-6-1.8-8.7c-2,0.8-4,1.7-6,2.5
				c1.8,2.5,3.6,5.1,4.3,8.1c0.7,3,0.2,6.5-2.2,8.5c-2.4,2-6.6,1.5-7.9-1.3c-0.7-1.6-0.4-3.4-0.8-5c-0.5-1.6-2.6-3-3.8-1.8
				c2.5,4.6,0.2,11.2-4.7,13.1c1.2-2.2,1.6-4.8,1.3-7.3c-3.7,2-7.4,3.9-11.1,5.9c1.2,0.8,2.4,1.5,3.6,2.2c-2,1.6-4.2,3.2-6.8,3.5
				c-2.6,0.3-5.5-1.4-5.5-4c-1.8,0-3.6,0.1-5.5,0.1c1.4,1.7,0.7,4.5-1.1,5.9c-1.7,1.4-4.1,1.8-6.2,2.1c0.2,1.7-0.2,3.4-1,4.9
				c-1.9-0.6-3.7-1.3-5.6-2c0,1.8-0.7,3.6-2,4.8c-2.1-1.8-6.2-3.2-6.9-0.5c-0.2,0.7,0,1.5,0.2,2.2c0.9,3,1.7,6.1,2.6,9.1
				c-2.2,3.7-6.7,5.7-10.9,4.9c-0.3,1.4-0.5,2.8-0.8,4.2c-2.5-0.5-4.9-1.1-7.4-1.6c1.8-1.1,2.9-3.3,2.7-5.4c-1.9-0.3-4,0.2-5.6,1.3
				c1.4,0.5,1.1,2.2,0,3.3c-0.6,0.6-1.3,1-2.1,1c-1.1,0-2.2-0.4-3.2-0.9c-1-0.5-2.1-1-3.2-1.2c-2.2-0.4-5,2-3.5,3.7
				c2,0.7,4.4,0.2,6-1.3c0.5,3.3,4.6,4.5,7.5,6.1c2.9,1.7,4.5,6.9,1.3,7.7c-3.1-2.5-6.8-4.3-10.6-5.2c-1.6-2.6-4.4-4.4-7.4-4.9
				c-0.6,3.8,0.9,7.9,3.7,10.5c-3.2,1.9-6.3,3.7-9.5,5.6c-1.1,2.1-3,3.7-5.2,4.6c2.5,4.6,4.3,11.4,0.2,14.2"/>
			<path class="st6" d="M1782.5,2141.2c0.4-0.2,0.9-0.2,1.3,0.2C1783.4,2141.3,1783,2141.3,1782.5,2141.2z"/>
			<line class="st6" x1="1782.5" y1="2141.2" x2="1782.5" y2="2141.2"/>
			<path class="st6" d="M1804.4,2166.4c-4.3-1.9-9.6-1.3-13.4,1.4c-1.4-3.6-2.8-7.1-4.1-10.7c2.9-0.9,6.2,0.3,7.9,2.8
				c-1.1-4.5-5.5-8-10.2-8c0.9-1.3,0.1-3.1-0.9-4.3c-1-1.2-2.4-2.3-2.7-3.9c-0.2-1,0.6-2.2,1.4-2.6"/>
			<path class="st6" d="M1804.4,2166.4c0,0.6,0.9,1.2,1.2,0.6C1805.3,2166.8,1804.9,2166.5,1804.4,2166.4z"/>
			<path class="st6" d="M2202.8,1903.2c-0.1,0.8-0.4,1.7-0.8,2.5c-0.8,1.7-1.9,3.3-2,5.2c-0.1,1.7,0.8,3.3,0.8,5.1
				c0.1,1.7-1.3,3.8-2.9,3.3c1.4-2.4,1.2-5.6-0.5-7.8c-1.7-2.2-4.8-3.2-7.5-2.4c0.9,1.7,2.2,3.3,3.7,4.5c-1.5,1-2.3,2.9-2.1,4.6
				c1.8-0.1,3,2,2.6,3.7c-0.4,1.5-1.5,2.6-2.9,3.4c-0.2,0.1-0.4,0.2-0.6,0.3c1,1.4,0.6,3.6-0.7,4.7c-1.3,1.1-3.5,1-4.7-0.2
				c0.2-2.2,1.4-4.2,3.3-5.3c-2.6-0.2-3.3-4.6-0.9-5.6c-4.1,0.6-7.1,5.2-5.9,9.2c-3.3-0.1-6.6,2.1-7.8,5.3c-2.1-0.8-3.8-2.7-4.3-4.9
				c-2.6-0.2-5.2,0.2-7.7,1.1c0.1,3.3,0.1,6.7-0.7,9.9c-0.9,3.2-2.9,6.3-6,7.6c-0.9,0.4-1.9,0.6-2.9,0.8c-2.4,0.3-5-0.2-7.4-0.7
				c-1,1.4,1.2,3.2,2.9,2.9c1.6-0.2,3-1.2,4.6-1.5c0.1,0,0.2,0,0.3,0c3.5-0.2,5.7,3.6,7,6.9c-2.8-2.2-7.7-0.5-8.4,3
				c-1-1.6-3.3-2.2-4.9-1.4c1-0.2,1.5,1.3,1.1,2.3c-0.4,1-1.3,1.6-1.7,2.6c-0.7,2,1,3.9,1.4,5.9c0.6,3.4-3,6.4-6.5,6.6
				c-3.5,0.2-6.7-1.7-9.7-3.4c-1.9,3.6-3.3,7.5-4.1,11.5c-2.3,0.8-5.3,1.1-7.8,1.7c-3.7,0.9-9.1,1.4-9.3,5.3c-3.1-2.4-6-5-8.7-7.8
				c-3,1-6.3,1-9.3,0.2c1.4,0.7,2.7,1.3,4.1,2c-0.7,1.8-1.3,3.5-2,5.3c1.3,1,2.7,2,4,2.9c-1.5,6-12,6.2-13.8,0.3
				c-1.6-0.2-3.2-0.8-4.4-1.9c0.7-1.9,0.9-4,0.7-6c-1.7,5-8,6.2-12.5,8.9c-4.6,2.8-7.8,7.9-8.1,13.3c-3.3,1.1-7.2-0.3-9-3.2
				c-1.9-2.9-1.5-7,0.8-9.5c-3.4,0.6-6.6,1.8-9.7,3.4c-1.6,0.8-3.4,2.1-3.4,4c-0.1,1.8,3,3,3.6,1.3c0.5,1.7-0.9,3.6-2.6,3.6
				c0.5,1.8,2.3,3.1,4.1,3.1c1.2,2.9-2.4,6-5.5,5.2c-3-0.8-4.9-3.8-5.7-6.8c-3.4-1-7.3,0.7-9,3.7c3.6,1.1,7,2.9,10,5.2
				c0.1,3.2-3.3,5.9-6.4,5.2c0.4,1.8,0.2,3.7-0.5,5.4c-1.5-0.4-3.1-0.9-4.6-1.3c-0.6,2,1,4.3,3.1,4.3c0.4,3-4.3,4.5-6.3,2.4
				c-1.8-1.9-1.3-5.1,0.4-7.2c0.2-0.3,0.5-0.5,0.7-0.7c-2.1-1.2-4.1,0-5.8,1.9c-1.1,1.2-2.1,2.7-2.8,4c-2,3.3-8,5.7-8.8,1.8
				c2-3.4,5.4-6,9.1-7.2c-2.4-0.7-4.9-1.4-7.3-2.2c0.7-1.4,1.3-2.8,2-4.1c-3.8-5.1-7.7-10.1-11.5-15.2c-6.5-3.7-11.6-9.6-14.3-16.5
				c-2.8,5.1,1.2,12.5,7,13c-2.3,3.2-6.8,4.6-10.5,3.3c5.7,2.6,9.5,8.8,9.3,15c-0.2,3.4,0.6,8.7,3.8,7.6c-2.7,1.9-1.6,6-0.5,9.1
				c1.1,3.1,1.1,7.7-2.1,8.4c-3.1,0.7-5.1-3.2-5.8-6.3c-1.9-0.4-3.7,1.2-4.1,3.1c-0.1,0.7-0.1,1.4,0.2,2c3-0.1,3.9,5.1,1.2,6.4
				c-2.7,1.3-6.2-1.3-6.2-4.3c1-1.4,1.8-2.9,2.4-4.5c0.1-0.2,0.2-0.5,0.2-0.7c-2.8,0.9-4.4,4.2-3.5,6.9c-2.4-0.1-4.8-0.2-7.2-0.3
				c-0.8-2.4-1.6-4.8-2.3-7.2c-4,0.4-4.9,5.7-4.5,9.7c0.4,4,0.3,9.1-3.4,10.5c-2.4-0.4-4.1-3.3-3.3-5.6c-6.4,1.4-11.7,6.9-12.8,13.4
				c-5,0.1-10.1-2.2-13.3-6c2.2,3.6,0.2,9.1-3.9,10.3c-4.1,1.2-8.8-2.2-8.9-6.5c-4.3,3.4-11.4,2.2-14.3-2.5c-0.4,2.7,1.4,5.5,4,6.2
				c-1.4,1.8-2.8,3.7-4.2,5.5c2.5,1.2,5.4,1.8,8.2,1.8c-3.1,2.3-6.3,4.5-9.4,6.8c-1.9-2.2-4.6-3.7-7.5-4.2c-2,1.9-3.5,4.4-4.3,7.1
				c-5.3-0.5-10.5-1.1-15.2,2c-1.6,1.1-3.1,2.5-5,3.1c-4.8,1.4-10.1-3.3-14.6-1c-3,1.5-4.1,5.6-7.3,6.6c-2.6,0.8-5.5-0.8-7.9,0.4
				c-1.4,0.7-2.3,2.1-3,3.5c-3.7,7-6.3,14.5-7.7,22.3c-5.2-1.9-11.1-1.7-16.2,0.4c-0.2-1.9-1.3-3.7-2.9-4.8
				c-1.3,2.2-2.7,4.6-2.9,7.2c-0.1,2.6,1.4,5.5,4,6c2.3,0.4,4.5-1.2,6.8-1.2c3,0,5.6,3.1,5.1,6.1c-1.1,1.2-2.8,1.9-4.5,1.6
				c-1,1.8-0.1,4.5,1.8,5.3c1.9,0.8,4.4-0.4,5-2.4c1.5,2.8,3,5.7,4.6,8.5c0.6,1.1,1.2,2.4,1.2,3.7c-0.1,4.4-7.1,6.8-6.1,11
				c-4.4,0.5-8.8,1.1-13.2,1.6c-0.8,0.1-1.7,0.3-2,1c0,0.1-0.1,0.2-0.1,0.3"/>
			<path class="st6" d="M2202.8,1903.2c-0.5-0.9-0.7-1.8-0.7-2.8C2202.7,1901.1,2202.9,1902.1,2202.8,1903.2z"/>
			<path class="st6" d="M2323,1683.7c0.5-0.1,1.1-0.1,1.5,0.1c0.1,2.1,0.2,4.3,0.3,6.4c0,0.5,0,1.1-0.2,1.5
				c-0.4,0.7-1.3,0.9-2.2,1.1c-1.5,0.3-3.2,0.5-4.4-0.4c-0.4-0.3-0.8-0.7-1.2-1.1c-0.8-0.6-1.8-0.9-2.8-1.3c-0.9-0.4-1.7-0.9-2-1.8
				c-0.2-0.6-0.3-1.4-0.9-1.5c-0.4,0-0.7,0.3-0.9,0.5c-0.8,0.9-1.6,1.8-2.3,2.6c-0.6,0.7-1.2,1.4-1.4,2.3c-0.1,0.9,0.6,2,1.5,1.9
				c0.6-1.3,1.4-2.8,2.8-3.3c1-0.2,2.1-0.2,3,0.1c0.9,0.2,1.7,0.7,2.4,1.2c0.7,0.6,1.3,1.3,1.8,2.1c0.9,1.3,1.7,2.9,1.3,4.5
				c-0.3,1.3-1.6,2.4-3,2.5c-1.4,0.1-2.8-0.8-3.3-2.1c-0.1,1.1-0.1,2.2-0.1,3.3c0,0.2,0,0.5,0,0.7c-0.1,2.7-0.2,5.4-0.8,8
				c-0.1,0.6-0.4,1.3-0.9,1.6c-1.3,0.6-3.2-1.2-4,0c-0.2,0.3-0.2,0.8-0.4,1.2c-0.6,1.1-2.3,0.4-3.4,0.9c-1,0.5-1.1,2.3-0.1,2.8
				c0.9,0.5,2,0,3-0.2s2.4,0.2,2.4,1.3c-0.1,0.7-0.8,1.1-1.4,1.1c-0.1,0-0.1,0-0.2,0c-0.6,0-1.1-0.2-1.7-0.3c-1-0.2-2.3-0.1-2.9,0.7
				c-0.7,0.8-0.1,2.4,1,2.3c0.3,0,0.5-0.2,0.8-0.3c0.9-0.4,1.9-0.6,2.8-0.6c0.6,0,1.3,0.1,1.9,0.4c0.2,0.1,0.5,0.2,0.6,0.4
				c0.1,0.2,0.1,0.4,0.1,0.6c-0.1,1.2-0.3,2.6-0.2,3.8c0.1,0.5,0.6,1.5,0.4,1.9c-0.6,1-6.2,2-7.4,2.4c-1.2,1.9-2.3,3.7-3.5,5.6
				c-0.6,0.9-2,0.6-2.8-0.3c-0.3-0.3-0.5-0.7-0.6-1c-0.4-1.5,0.2-3.1-0.1-4.6c-0.4-2.7-3.7-4.6-6.3-3.5c-1,0.4-1.9,1.2-3,1.3
				c-2.9,0.2-5.6-4.5-7.7-2.6c2.6,2,3.8,5.7,2.8,8.8c3.7-2.8,9.6-1.3,12.2,2.4c0.6,0.8,0.9,1.7,1.1,2.7c0.1,0.6,0.2,1.2-0.1,1.7
				c-0.4,0.7-1,0.9-1.7,0.9c-1.4,0-3.2-0.7-4.5,0c-1.4,0.7-1.6,2.7-0.8,4c0.8,1.3,2.2,2.1,3.6,2.8c0.5-2,1.2-4.2,2.8-5.4
				c0.1-0.1,0.2-0.2,0.3-0.2c1.8-1.2,5.1-0.1,4.8,2.1c1.2-0.2,2.4-0.4,3.6-0.7c0.4,1.5-1.2,2.8-2.7,3.4c-1.5,0.6-3.2,1-4,2.3
				c-0.4,0.6-0.5,1.3-1,1.8c-0.6,0.5-1.4,0.6-2.2,0.7c-3.4,0.7-5.8,4.4-5.1,7.8c0.2,0.9,0.6,1.9,0.4,2.8c-0.1,0.6-0.5,1.1-0.6,1.6
				c-0.3,2.8,5,1.9,6.5,4.3c-1.3,4-3.5,7.6-6.2,10.8c2.3,1.2,3.5,4.2,2.6,6.6c-0.9,2.4-3.8,3.9-6.3,3.3c0.7,1.5,1.5,3.1,2.2,4.6
				c0.7-1.4,2.6-1.9,4.1-1.4s2.5,1.8,3.4,3.2c1.5,2.4,2.3,5.2,2.7,8c0.1,0.6,0.1,1.3-0.2,1.8c-0.3,0.5-0.9,0.7-1.5,0.8
				c-1.8,0.6-3.7,1.1-5.4,0.4s-2.6-3.3-1.1-4.4c-2.4,0.2-4.3-1.8-6.6-2.7c-2.2-0.9-5.8,0.6-4.8,2.8c1.3,0.1,2.2,1.7,1.6,2.8
				c-1.7,0.3-3.6-1-3.9-2.8c-2.4,0.7-5,1.8-5.7,4.2c-0.8,2.3,2.2,5.3,4.1,3.6c-0.1,1-0.3,2-0.4,3c0.3,1,1.8,0,2.5-0.8
				c1.4-1.5,4.2-1.7,5.4,0c1.2,1.7-0.3,4.6-2.3,4.2c0.5,0.8,1,1.6,1.5,2.3c-2.7,2.3-7.3,2-9.7-0.7c-0.3,2.1-0.6,4.2-0.9,6.2
				c-0.9,0.7-2.5,0.4-3.1-0.6c-0.6-1-0.1-2.5,1-3c-0.9-1.8-4-1.7-4.7,0.2c-1.1-0.7-1.8-1.9-1.8-3.2c-1.3,0.3-2.6,0.6-3.9,0.9
				c2.1,1.1,4.2,2.6,4.8,4.8c0.6,2.3-1.6,5.1-3.8,4.2c-0.3,1.4,1.4,2.4,2.8,2.4s2.8-0.6,4.2-0.3c3,0.6,3.4,5.7,0.6,6.8
				c-0.6-0.6-1.2-1.1-1.8-1.7c-1.2,0-2.2,1.2-2,2.3c1.3-0.4,2.8,0.4,3.4,1.7c-3.9,0.2-8.1,0.5-11.2,2.9c-0.5,0.4-1.1,1-1.7,1.1
				c-0.1,0-0.3,0-0.4,0c-1.8,0-2.6-2.6-2.7-4.5c-0.6,1.5-1.2,3.1-1.8,4.6c-0.4,1.1-0.8,2.4-0.2,3.3c1.1,1.8,3.9,0.4,5.4-1
				c1.6,0.2,2.5,2.2,2.3,3.8c-0.3,1.6-1.4,3-2.4,4.2c-1-0.8-2.6-0.3-3.1,0.8s0.4,2.6,1.6,2.8c0.5,2.5-1.4,6.2-4.2,6.5
				c-1.8,0.1-1.3-1-2.5-2.2c-1-1-2.4-1.6-3.7-1.7c-2.6-0.1-5.1,1.2-7.5,2.4c-2.6,1.2-5.2,2.2-7.9,3.1c0.7-1.5-0.6-3.6-2.3-3.6
				c-0.9,0.3-1.1,1.1-1,2c0.1,1,0.7,2.2,1.4,2.9c1.3,1.5,2.6,4,0.9,5c-2.9-1-4.7-4.6-3.7-7.6c-1.6,0.7-3.2,1.5-4.8,2.2
				c0.9,0.6,1.7,1.2,2.6,1.8c-0.1,1-0.2,2-0.3,3c-3.8,1.1-7.8,1.7-11.8,1.7c-0.1,2.5,2.9,3.9,5.4,3.6c2.4-0.3,4.7-1.5,7.1-1.7
				c0.1,1.1,0.2,2.2,0.3,3.4c1.3-1.7,4.3-0.6,4.9,1.5c0.6,2-0.5,4.2-1.9,5.8c-1.8,2-4.8,3.4-7.2,2.1c0.6,3.9,0.1,8-1.6,11.7
				c-1.6,0.4-3.2,0.6-4.8,0.4c0.6,1.7,0.4,3.7-0.6,5.2c-1.8-0.2-3.3-1.4-4.1-3"/>
			<path class="st6" d="M2323,1683.7c-0.1,0.1-0.3,0.2-0.4,0.2C2322.7,1683.8,2322.8,1683.8,2323,1683.7z"/>
			<path class="st6" d="M2325.7,1642.1L2325.7,1642.1c0.4,0,0.4,0.7,0.6,1.1c0.2,0.6,1.1,0.6,1.7,0.3s1.1-0.7,1.8-0.7
				c0.8,0.1,1.3,0.9,2,1.1c0.8,0.2,1.8-0.3,2.4,0.2c0.2,0.2,0.3,0.4,0.4,0.6c0.3,0.8,0.3,1.8,0.3,2.7c0,0.7,0,1.4-0.3,2.1
				c-0.2,0.4-0.4,0.7-0.7,1c-0.5,0.7-1.1,1.4-1.6,2.1c-0.8,1-1.7,2.2-1.9,3.4c-0.2,0.9,0.3,2-0.3,2.7c-0.9,0.9-3.6,0.9-4.6,0.2
				c0.6,0.5,0.4,1.4,0.4,2.2c0.1,1.2,1,2.1,1.5,3.2c0.5,1.1,0.3,2.8-0.9,2.9c-0.5,0.1-1-0.2-1.5,0.1c-0.3,0.1-0.4,0.4-0.5,0.7
				c-0.6,1.9,0,4.2,1.6,5.4c1-0.9,2.8-0.4,3.2,0.9c0.2,0.6,0.1,1.3-0.1,1.9c-0.3,1.3-0.6,2.7-0.9,4.1c-0.1,0.2-0.1,0.5-0.3,0.7
				c-0.2,0.2-0.5,0.1-0.8,0.1c-1.2-0.2-2.5-0.3-3.7-0.5c0.8,0.8,0.5,2.4-0.5,3"/>
			<path class="st6" d="M2375.5,1567.4C2375.5,1567.4,2375.5,1567.4,2375.5,1567.4c0,1.3-1.4,2.2-2.6,2.1c-1.3-0.1-2.4-0.9-3.4-1.6
				c1.9-4,0.9-9.1-2.3-12.1c0.7,2.1,0.9,4.5,0.1,6.6c-0.8,2.1-3,3.7-5.2,3.4c-0.5-0.1-1-0.2-1.3-0.6c-0.6-0.6-0.5-1.6-0.9-2.3
				c-0.8-1.3-3.1-0.8-3.8,0.6c-0.7,1.4-0.5,3-0.2,4.6c-1.4,0.2-2.8,0.5-4.1,0.7c2.5,4.4,11.2,2,12.9,6.8c0.3,0.7,0.3,1.5,0.3,2.3
				c1.6-0.2,3.1,1.2,3.2,2.8c-1.8-0.1-3.6-0.1-5.4,0.1c-2.3,0.2-4.5,0.7-6.7,1.3c-0.7,1.7,1.9,2.8,3.6,2.4c1.1-0.3,2.2-0.8,3.3-0.9
				c0.7-0.1,1.3,0,1.9,0.3c0.1,2.8,1.4,5.2,0.3,8c-0.6,1.5-3.9,5.8-6.1,4.9c3.3,1.4,0.9,7.9,4.3,9.3c0.5,0.2,1.1,0.3,1.6,0.5
				c2.1,1.1,1,4.6,2.5,6.3c0.6,0.7,1.6,1.1,2.4,1.7c2.2,1.7,1.4,5.8-1.2,6.7c-1-1.4-2.1-2.8-3.6-3.5s-3.7-0.5-4.5,1
				c-0.5,2.4-0.9,4.9-1.4,7.3c-0.2,1-0.4,2.1-1.3,2.7c-1.9,1.4-4.3-1.1-5.3-3.3c-0.9-1.9-1.7-3.9-2.5-5.8c-1.4-0.1-2.8-0.5-3.9-1.3
				c-1.2,2.3-3.4,4.2-5.9,4.9c1.6,0.1,3.2,0.3,4.7,0.5c1.1,2-0.2,4.6-1.8,6.3c-1.5,1.8-3.3,3.7-3.2,6c0.1,1.4,1,2.8,0.7,4.2
				c-0.3,1.5-1.6,2.2-3,2.4c-1.1,0.2-3.2,0.4-4.2,0.2c-0.8-0.1-1.4-0.6-2.1-0.9c-1.9-0.9-4.2-0.7-5.8,0.6"/>
			<path class="st6" d="M2199,915.8C2199,915.8,2199,915.8,2199,915.8c-1.7,0-3.3,1.5-3.3,3.2c0,1-0.2,2.6-1.1,2.2
				c1.2,0.7,1.9,2.2,1.7,3.6c-0.9-0.6-2.2,0.3-2.5,1.3c-0.4,1-0.2,2.1-0.4,3.2c-0.5,2.7-2.8,4.5-5,6.1c-8.3,5.9-16.5,11.8-24.8,17.7
				c-3.8,1-7.4,3.3-9.9,6.3c0.4,1.9,0.4,3.8,0.2,5.6c-2.9-0.1-5.7,2-6.5,4.8c-0.5,1.8-0.2,3.6-0.6,5.4c-0.4,1.8-1.7,3.7-3.6,3.5
				c1.2,0.1,1.8,1.5,1.8,2.6c0,1.2-0.4,2.4-0.2,3.5c0.1,0.8,0.6,1.4,0.8,2.1c0.6,2.2-0.8,4.5-2.1,6.5c-3.3,4.8-6.6,9.7-9.9,14.5
				c-1,0.4-2.1,0.1-2.9-0.6c0.3-1.3,0.5-2.5,0.8-3.8c-1.4-0.9-2.3,1.7-3.5,2.9c-1.8,1.7-4.7-0.1-7.2-0.2c-3.1-0.1-5.3,2.7-7.3,5
				c-2.8,3.4-7.9,6.7-11.2,3.8c0.3-5-6-8.4-10.9-7.2c-4.9,1.2-8.6,5.2-11.9,9c0.5,2.4,1.1,4.8,1.6,7.2c-6.1,7-7.5,17.8-3.3,26.1
				c3.1,6.2,8.8,10.7,14.6,14.5c3.6,2.3,7.5,4.6,11.8,5.1c7,0.8,14.8-2.7,20.6,1.2c3.3-4.2,8.5-6.9,13.9-7.1
				c0.2,1.6-0.1,5.7,1.4,6.6c1.1,0.7,3.6-0.8,4.5,0.2c1.5,1.8,3.2,4.3,3.6,6.7c0.4,2.1,1.3,4.1,2.3,6c0.2,0.4,0.3,0.7,0.6,1
				c0.2,0.2,0.3,0.4,0.5,0.6c1.1,1.2,1.9,3.4,1.8,5c-0.2,2.2-2.3,3.5-2.7,5.3c-1,4.7-1,9.6,0.1,14.3c0.5,2,1.2,4.1,2.5,5.7
				c1.3,1.5,3.2,2.4,5,3.1c7.4,2.7,15.6,1.7,23.4,0.3c2.8-0.5,5.8-1.1,8.2-2.7c2.4-1.6,4.3-4.4,3.9-7.2c-0.1-0.8-0.4-1.7-0.4-2.5
				c-0.3-3.8,3.5-6.3,6.6-8.5c3.2-2.3,6.1-5.2,8.5-8.5c1-1.3,1.9-2.8,1.8-4.5c-0.1-1.6-1.8-3.2-3.4-2.6c1.6-0.7,3.3-1.3,4.9-2.1
				c3.4-1.6,6.6-3.5,9.5-5.8c2-1.5,3.9-3.2,6.2-4.2c4.9-2,10.5,0,15.4,1.9c1.8,0.7,3.7,1.5,5,2.9c1.3,1.5,1.8,3.8,0.5,5.3
				c4,0.3,8-0.4,11.6-2c-0.9-1.1,0.4-3,1.7-2.6c-0.7,1.8-0.2,3.9,0.9,5.4c0.6,0.8,1.5,1.2,2.1,2c0.5,0.5,0.8,1.8,1.3,2.2
				c0.5,0.3,1.1,0.3,1.6,0.3c1,0,1.9,0,2.9-0.1c0.1,0,0.3,0,0.4-0.1c0.1-0.1,0.1-0.3,0.1-0.4c0-0.5,0-1.1,0-1.6c0-0.2,0-0.4,0.1-0.5
				c0.1-0.1,0.3-0.2,0.4-0.2c2.4-0.6,4.8-0.5,7.2-1c2.9-0.6,5.9-0.4,8.8-0.1c-0.2-0.9,0.2-1.8,0.6-2.7c1.1-2.3,2.5-4.9,5-5.5
				c1.6-0.4,3.7,1.1,3.8,2.7c0.1,0.7-1.6,4.1,0.7,3.9c1.3-0.1,2.5-0.9,3.1-2.1c0.8,0.6,1.6,1.3,2.4,1.9c1.8-0.3,3.6-1,5.3-1.2
				c1.9-0.2,3.6,0.9,5.5,0.9c1.3,0,2.6-0.6,3.3-1.6c0.1-0.2,0.2-0.4,0.4-0.6c1.5-1.5,7,1,4.8,2.9c-0.6,0.5-1.4,0.4-2.1,0.5
				c-1.9,0.5-2.7,3-2,4.9c0.7,1.8,2.3,3.2,3.9,4.3c-1.3,1-2.1,2.5-2.4,4.1c-1.6-0.9-3.9-0.3-4.8,1.3c-0.9,1.6-0.2,3.9,1.3,4.7
				c0.6,0.4,1.4,0.5,2,0.8c1.9,0.9,2.9,3.2,2.4,5.1c-0.5,2-2.6,3.4-4.6,3.2c0.7,1.2,0.8,2.7,0.2,4c-1.9,0.6-3.8,1.2-5.6,1.8
				c-1.5,0.5-3.2,0.9-4.6,0.3c-1.5-0.6-2.2-2.9-0.8-3.8c1.2,0.3,2.6,0.1,3.7-0.5c-2.6,0-5.1-2-5.7-4.6c-0.8,3-2.8,5.6-5.4,7.1
				c-0.6-2.7-2.9-4.9-5.7-5.3c2,1.8-0.3,5.1-2.7,6.4c-2.4,1.3-5.5,2.9-5.2,5.6c-2,0.2-3.9,0.5-5.9,0.7c1.5,1,2.1,3.1,1.5,4.8
				c-2.6-1.3-5.2-2.5-7.8-3.8c1.4,0.7,1.5,2.7,0.8,4.2c-0.7,1.4-1.9,2.5-2.6,3.9c-5.2,1.3-10.1,4.3-13.7,8.3
				c-1.2,1.7-3.6,1.8-5.5,1.3s-3.8-1.4-5.8-1.5c-0.1,0-0.3,0-0.4,0c-1.9,0.2-3.9,1.6-3.7,3.5c0.1,0.7,0.5,1.3,1.1,1.6
				c1.8,0.6,2.5-2.2,2.3-4.1c0,0,0.1,0,0.1,0c1,0.2,2.1,0.4,3.1,0.6c4.3,3.1,5,10.1,1.4,14c-2-0.8-3.5-2.6-3.9-4.7
				c-2.1,1.1-3.8,2.8-5,4.8c0.7,1.5,1.4,3.1,2.1,4.6c-0.9-0.1-1.9-0.1-2.8-0.2c1.2,3.7,2.8,7.3,4.5,10.8c-5.5,2.6-11,5.3-16.5,7.9
				c-0.4,0.2-0.8,0.4-1.3,0.4c-0.1,0-0.2,0-0.2,0c-1.5-0.2-1.9-2.5-1.4-4c0.6-1.6,1.6-3.2,1.1-4.8c-3.5,0.4-7.1,0.8-10.6,1.2
				c0.1,2.1,0.1,4.1,0.2,6.2c2.5-0.3,4.9,2.1,4.6,4.6c1.9-0.5,3.8-0.6,5.8-0.3c0.2,0,0.4,0,0.6,0.1c-1.7,4-5.4,7.1-9.7,8
				c-1.7,1.4-1.8,4-2.2,6.2c-0.3,2.2-1.5,4.8-3.8,5c0.1,2.4,0,4.7-0.3,7.1c-1.5,0.4-3.2-1-3.1-2.6c-0.8,1.6-1.3,3.3-1.3,5.1
				c-1.3,0.4-3.2-0.8-3.2-2.2c-3.9,0.5-4.8,6-5.1,9.2c-0.3,3.8-1.3,8.5-5,9.3c-0.5,0.1-1.1,0.2-1.6,0.5c-1.4,1.1-0.7,3.8-0.4,5.2
				c0.5,2,0.4,3.8,0.4,5.8c0,0.9-0.2,2.1-1.1,2.5c-0.4,0.2-0.9,0.1-1.3,0.1c-2-0.1-4.1,1.3-4.8,3.2c-1,2.7,0.4,5.6,0.4,8.5
				c0,1.1-0.2,2.2-0.1,3.4c0.1,1.1,0.5,2.3,1.5,2.9c0.2,0.1,0.4,0.2,0.6,0.4c1,1.5-2,2.4,1.1,3.6c2,0.8,3.9-0.5,5.6-1.7
				c1.4-1.3,3.8-0.5,5.1,1c1.3,1.5,1.9,3.4,3.1,4.9c1.5,1.9,3.7,2.9,5.9,3.8c1.1,0.5,2.4,1.1,3.6,1.3c1.2,0.3,2.5,0.1,3.7,0.6
				c1.3,0.5,2.3,1.6,3.6,2c2.7,0.7,5.6-1.9,8.2-0.9c0.5,0.2,1,0.5,1.4,0.8c1.7,1.2,3.7,3.2,5.6,4c2,0.9,4.2,0.3,6.2,1.5
				c1.9,1.2,3,3.2,4,5.2c0.6,1.2,1.2,2.5,1.8,3.7c1.6,3.4,3.2,6.8,4.6,10.3c1.6,3.8,2.6,8.5,5.9,11.2c1,0.8,2.1,1.6,2.7,2.8
				c0.5,1.2,0.1,2.9-1.1,3.3c2.3,3,4.6,5.9,7.4,8.4c1.4,1.2,2.9,2.3,3.6,4c0.8,1.7,0.6,3.6,1.3,5.3c0.7,1.7,3.1,2.9,4.3,1.6
				c0,1.9,0,3.7,0,5.6c2.3-0.9,4.9,2.1,3.8,4.3c0.7,0.2,1.3,0.4,2,0.6c-0.6,1.4,0.3,3.3,1.8,3.7c0.6,0.1,1.2,0.1,1.6,0.4
				c0.5,0.3,0.7,0.9,0.8,1.4c1.2,3.9,2.9,7,1.4,11c-0.5,1.4,0.3,2.9,0.6,4.3c0.4,1.4-0.1,3.5-1.6,3.5c1,2.9,4.5,3.9,7.5,4.5
				c2.2,0.5,4.5,0.9,6.7,1.4c0.6,0.1,1.4,0.2,1.7-0.4c0,0.9,0,1.9,0,2.8c3.4-0.4,6.8,0,10,1c2.7,0.9,5.4,2.5,6.6,5.1
				c1.3,2.9,0.3,6.3-0.7,9.3c1,0.4,1.9,0.7,2.9,1.1c0.2,1,0.2,2.1-0.2,3.1c6.5-1.1,13.4,0.6,18.6,4.5c5.2,4,8.8,10.1,9.5,16.6
				c-5.4,2.8-11.9,0.2-17.4-2.2c-5.6-2.4-12.3-4.6-17.3-1.2c5.2,0.6,10.6,1.3,15.4,3.6c-1.2,0.5-0.6,2.3,0.6,2.9
				c1.1,0.6,2.5,0.5,3.4,1.4c0.4,0.4,0.7,0.9,1.2,1.3c0.8,0.7,2,0.7,3.1,0.7c3.6,0,7.1,0.6,10.5,1.6c0.6,0.2,1.3,0.4,1.7,0.9
				c0.5,0.5,0.7,1.1,0.7,1.7c0.1,1.1-0.4,2.4-0.9,3.4c-5.1-0.5-10.1-1.2-15.1-2.2c-4.8-1-9.6-2.2-13.6-5.1c-2.9-2.1-5.3-4.9-7.4-7.9
				c-2.1,0.9-4.4-1.9-6.6-1.3c-1.2,0.3-2,1.6-3.2,2c-1.9,0.6-3.6-1.3-4.8-2.8c-3.1-3.7-7.1-6.5-11.6-8.3c-4.6-1.8-10.1-2.4-14.2,0.4
				c-1.8,1.2-3.1,2.9-4.4,4.6c-1.9,2.5-3.8,4.9-5.8,7.4c3.3-0.6,6.5-1.9,9.2-3.9c1-0.7,2-1.8,1.8-3c1-1.7,3.4-2,5.4-1.9
				c2,0.2,4.1,0.5,5.9-0.4c4.4,0.8,7.6,5.6,6.5,10c0.8,3,4.8,4.6,7.4,2.9c0.5-0.3,1.1-0.8,1.7-0.9c0.6-0.1,1.2,0,1.8,0.2
				c3.6,1.1,7.1,2.2,10.7,3.3c4,3.7,8,7.4,12.7,10.3c3.9,2.4,8.2,4.1,12.7,5.1c0.7,0.2,1.5,0.3,2.1,0.7c0.6,0.3,1,0.8,1.5,1.3
				c5.7,6.2,12.8,12.5,14.7,21.1c0.3,1.2,0.3,2.8-0.6,3.6c-0.7,0.6-1.8,0.6-2.7,0.6c-3.9-0.1-7.9,0-11.6,1.2
				c-3.7,1.2-7.2,3.9-8.5,7.6c-0.4,1-0.6,2.2-1.2,3.1c-1.4,1.9-4.1,2-6.2,3.1c-2.2,1.1-3.7,3.5-3.8,5.9c-2.2,0.3-4.4,0.6-6.6,0.9
				c-1.4,2.1-1.6,4.7-1.7,7.2c-0.1,2.5-0.2,5.1-1.6,7.2c-1.3,2.1-4.3,3.4-6.4,2.1c-0.8-0.5-1.4-1.3-2.2-1.8c-0.9-0.5-2-0.4-3-0.4
				c-5.4,0.2-11.8,0.9-14.7,5.5c-1.3,2.1-3.1,5.3-5.2,4.1c0.9,1.4,1.9,2.9,3.4,3.7c1.5,0.8,3.7,0.5,4.4-1.1c0.4-0.9,0.2-2,0.6-2.9
				c0.9-2.6,4.9-2.4,7-0.7c2.1,1.7,3.4,4.4,5.8,5.9c5,3.3,11.7-0.4,15.9-4.6c4.3-4.2,8.5-9.5,14.5-9.9c4.8-0.3,9.1,2.8,12.9,5.7
				c4.6,3.5,9.2,7,13.8,10.5c0.6-2.1,3.6-1.8,5.8-1.3c4.5,1.2,9.2,1.5,13.8,0.9c0.2,2-1.5,3.8-3.3,4.7c-1.8,1-3.9,1.5-5.4,2.9
				c-1.2,1.1-1.9,2.6-2.6,4.1c-1.3,2.7-2.5,5.4-3.8,8.2c3-0.2,6-1.4,8.3-3.4c1.8-0.1,2.8,2,2.9,3.8c0.1,1.8-0.2,3.7,0.7,5.2
				c0.5,0.8,1.4,1.6,1.2,2.6c-0.1,0.6-0.6,1-1,1.5c-1.7,1.9-1.5,5.2,0.4,7c0.6,0.6,1.4,1,1.9,1.6c1.4,1.9,0,4.4-1.4,6.3
				c0.5,0.2,0.9,0.4,1.4,0.7c1.3,0.9,2.4,2.1,2.5,3.6c0.2,2-2.4,4-4,2.7c0-1.3-0.1-2.5-0.1-3.8"/>
			<path class="st6" d="M2244.6,880c0.9,2.8-1.6,6.2-4.6,7.1c-3.4,0.9-6.9-0.3-10.2-1.5c-1.5-0.5-3-1.1-4.4-1.6
				c-1.9,0.1-3.7,1.2-4.6,2.8c-1.4-1.4-3.9-0.9-5.3,0.5c-1.4,1.4-2,3.4-2.6,5.2c-1.4,0-2.9,0-4.3,0.1c-0.2,1.3-0.4,2.5-0.7,3.8
				c1.3,0.6,2.6,1.1,3.9,1.7c-1.1,3-4.5,5-7.7,4.5c0,2.8-0.9,5.7-2.5,8.1c-0.2,0.2-4.6,5.2-2.7,5.4"/>
			<path class="st6" d="M2244.6,880c-0.1-0.3-0.3-0.6-0.4-0.9C2244.4,879.4,2244.5,879.7,2244.6,880z"/>
			<path class="st6" d="M2234.8,1012.4c0.3-1.8-0.3-3.6-0.9-5.4c-0.6-1.8-1-4,0-5.7c1-1.7,4-2,4.7-0.2c0.9-1.2,2.3-1.9,3.7-1.9
				c-0.3-1.8-0.2-3.9,1.2-5.1c1.4-1.2,4.1-0.6,4.2,1.2c2.8-2.1,5.5-4.2,8.2-6.3c0.5-0.4,1-0.8,1.2-1.4c0.6-1.6-1.4-2.9-2.9-3.7
				c-1.5-0.8-2.8-3.2-1.3-4c1.8-1.4,3.5-2.8,5.2-4.1c-0.1-1-0.2-1.9-0.4-2.9c0.7-0.6,1.4-1.3,2.1-1.9c-3.3,1.5-6.7,2.9-10.3,2.6
				c-3.6-0.4-7.1-3.4-6.7-6.9c-2.2-2.1-6.5,2.3-8.7,0.1c-1.8-1.7,0.7-4.5,2.9-5.5c2.2-1,5.1-2.8,4.3-5.1c0.8,1.1,2.2,1.8,3.6,1.8
				c0.2-1,0.1-2.1-0.4-3.1c-3.3-0.4-4.8-4.8-3.5-7.8c1.3-3,4.4-4.9,7.2-6.6c2.9-1.6,5.9-3.4,7.4-6.4c0.8-1.6,1-3.5,1.5-5.2
				c1-3.9,3.2-7.5,6.2-10.1c-0.4-2.7,0.3-5.5,2-7.5c0.7-0.9,1.6-1.8,1.4-2.9c-0.1-0.7-0.7-1.2-0.7-1.9c0-1.1,1.4-1.6,2.2-2.3
				c1.5-1.4,1-4-0.5-5.4c-1.5-1.4-3.5-1.9-5.5-2.3c0.1-1.9-0.4-3.8-1.3-5.4c-3.8-1.2-7.6-2.3-11.4-3.5c-0.7-0.2-1.4-0.4-1.9-0.9
				c-0.5-0.4-0.8-1-1-1.6c-0.8-1.7-1.6-3.4-2.3-5"/>
			<path class="st6" d="M2234.8,1012.4c-0.3-0.3-0.6-0.6-0.8-1c0.2,0.4,0.5,0.9,0.7,1.3C2234.8,1012.6,2234.8,1012.5,2234.8,1012.4z
				"/>
			<path class="st6" d="M1554.8,2266.8c1.4-0.2,2.8,1.1,3.8,2.3c1.2,1.5,2.5,3.1,3,4.9c0.3,1.2,0.3,2.5,0.7,3.7
				c1.4,3.9,6.6,4.9,9,8.3c1.2,1.8,1.6,4.1,3.3,5.5c0.9,0.7,2,1.1,3.1,1.5c2.1,0.7,4.1,1.3,6.2,2c13.9,4.5-1,14.6-8.7,15.6
				c-6.3,0.8-12.8,1.6-19.1,0.4c-19.4-3.8-45.3-33.7-49.4-52.3c-5.5-24.8,10.9-51.3-2.8-75.2c-12.4-21.5-42.3-23.9-66.9-20.5
				c-24.6,3.3-51.6,9.3-72.7-3.6c-10.5-6.4-19.8-17.4-32-16.4c-1.1,11.2-2.2,22.3-3.3,33.5c-6.8,4.5-16.3,0-21.4-6.4
				c-5.1-6.4-7.8-14.5-13.4-20.5c-10.6-11.6-28.5-12.5-44.1-10.3c-15.6,2.3-31.4,6.9-46.7,3.5c13.3-29.5,12.9-64.8-1-93.9
				c-22,6.3-46.9,12.1-66.6,0.6c-6.7-4-12.3-9.7-17.7-15.3c-13.5-14-27-28.1-40.6-42.1c-6.6-6.9-13.7-14.6-14.4-24.2
				c-1.4-17.8,19.8-32.8,15.6-50.2c-1.3-5.3-4.8-9.8-5.8-15.1c-4.5-23.8,39.2-32.5,39.6-56.7c13.2-0.4,28.5,8.6,40.5,5.6
				c15.3-3.9,21.3-31.9,25.7-45c4.8-14.4,8.8-31.8,14.2-47.9c3.5-10.6,7.6-20.6,12.8-28.7c20.4-31.7,27.1-67.9,60.4-90.9
				c18,15.3,39.7,26.2,62.7,31.5c7.3,1.7,15,2.8,22.1,0.4c22.5-7.6,20.8-40.6,35.3-59.4c10.2-13.1,28.3-18.7,37.3-32.7
				c8.4-13.1,6.6-29.9,8.6-45.4c3.1-23.3,15.5-46.7,8.7-69.2c-3.9-12.8-13.5-22.9-22.1-33.1c-9.2-10.9-17.8-22.7-21.4-36.5
				c-4.9-18.5,6.9-28.7,8-44.8c1.1-17-13.5-39.2-25.5-49.8c-8.8-7.8-19.6-13-28.6-20.6c-35.6-29.6-24.2-76.1-23.6-116.6
				c0.2-10.8,0.3-25-7.7-33.5c-8.4-8.9-20.5-13.9-28.8-23.5c-12.9-15-31.6-14.2-48.1-23.8c-6.3-3.7-11.9-8.3-18.2-11.9
				c-17.5-10.2-38.5-12.4-58.7-14.4c-30.5-3.1-61.1-6.6-90.3-15.5c-19.5-5.9-44.8-16.3-53.1-36.9c-2-5.1-2-10.7-1.8-16.1
				c0.8-18.4,6.9-32.6,11.2-49.9c1.5-6.1,0.1-11.1,0.5-17.2c0.7-9.5,5.7-18.4,10.3-26.5c8.7-15.5,18.2-31.7,33.7-40.5
				c5.6-3.1,11.7-5.2,17.8-7.2c8.1-2.6,16.1-5.3,24.2-7.9c70.5-23.1,112.4,59.8,179,49.8c31.4-4.7,53.2-33,69.5-60.3
				c16.2-27.3,32-57.6,60.4-71.7c22.8-11.4,49.5-10.1,74.9-11.7c116-7.2,219.6-77.2,334.6-93.6c34-4.8,68.5-4.9,102.8-4.9
				c31.2,0,54.8,6.2,68.6,37.7c9.9,22.7,11.2,48.2,19.3,71.5c8.1,23.4,26.9,46.4,51.6,46.5c16.2,0,30.6-9.7,46.1-14.9
				c7-2.3,14.6-3.9,20.1-8.8c7.7-6.9,9.6-19,18.4-24.5c6.6-4.1,14.9-3.2,22.6-4c19.2-2,35-15.2,52.7-22.8c17.7-7.6,42.9-6.8,51,10.7
				c5.5,11.8,0.6,26.5,5.9,38.4c2.4,5.3,6.6,9.6,10.1,14.3c16.2,21.7,15.2,49.5,19.1,75c3.4,22.7,11.9,40.3,11.4,63
				c0,1.6-0.1,3.3-0.1,4.9c-2.2-1.9-6.2,0.2-6,3c-1.5,0.2-3-0.8-3.4-2.2c-1.7,0.8-3.7,1.1-5.6,0.7c-1.5,1.2,0.5,3.4,0.6,5.2
				c0.1,2.9-3.8,3.7-6.6,3.7c-2.9,0-6.7,1.8-5.7,4.5c-1.9,0.2-3.7,0.5-5.5,0.8c-1,4.8-5.6,6.8-8.6,10.2c-3.6,4.2-8.7,7-12.1,11.4
				c-0.9,1.2-1.7,2.6-2.8,3.8c-1.1,1.2-2.5,2.4-2.8,4c-0.4,1.6,1.2,3.6,2.7,2.9c1,1.1-1.2,2.1-2.5,2.8c-1.6,0.8-2.2,2.6-3.2,4.1
				s-2.7,2.9-4.3,2.1c0.4,2.2,0.1,4.8-1.7,6.1c-1.8,1.3-5.1,0.3-5-1.9c-2.9-0.7-6.1,1.1-7,3.9c1.6-1.9,5.1,0.7,4.3,3.1
				c-0.7,2.4-3.8,3.3-6.2,2.7c-0.7,1.4-1.4,2.7-2.2,4c-2.5,0-5,0.1-7.5,0.1c-0.1,1.9-2.2,3.5-4.1,3c-0.2,1.5-0.5,3-0.7,4.5
				c-2.1-0.1-4.1-1.1-5.6-2.6"/>
			<path class="st6" d="M1192.9,1758.5c12.9,1.2,22,9.4,30.8,18.1c10.7,10.6,15.7,13.4,30.8,17.1c8.9,2.2,4.2,18.4,3.1,25.2
				c7.7,1.4,18.4,4,26.2,2.2c6.9-1.6,12.3-7.5,19.5-9.3c4.1-1,8.7-1,12-3.7c2.2-1.8,3.5-4.4,5.4-6.5c6.9-7.2,17.1,2.1,19.5,8.9
				c2.1,5.9,1.8,12.4,1.3,18.5c4.6,2,8.8,0.6,13.4-1.1c9.9-3.7,19.8-7.4,29.7-11.2c3.5-1.3,7.2-2.7,9.9-5.3
				c5.7-5.3,6.2-14.3,4.7-21.9c-1.5-7.7-4.7-15.1-4.8-22.9c-0.2-11.7,6.2-22.5,13.1-32c20.4-28.5,47.6-53.8,81.2-63.6
				c18.6-5.4,38.4-5.8,56.4-12.8c11.5-4.4,21.9-11.3,32.1-18.2c12.5-8.4,24.9-16.7,37.4-25.1c18.7-12.5,37.9-25.6,50.5-44.3
				c6.8-10,11.7-21.8,21.3-29.1c6.7-5.1,14.9-7.5,23.1-9.5c21.3-5.2,45.3-5.9,67.2-6.7c26.8,2.1,53.5,4.2,80.3,6.2
				c7.8,0.6,15.9,1.2,23.1-1.8c6.6-2.8,11.7-8.2,16.5-13.5c16.3-17.7,33.3-37.1,36.2-60.9c0.4-3.4,0.5-7.1,2.2-10.1
				c1.8-3.1,5.1-5.1,8.2-6.8c23.5-12.5,50.6-16.1,77.1-19.5c12.1-1.5,24.2-3.1,36.3-4.7c13.5-1.7,27.2-3.5,39.6-9.1
				c12.6-5.7,23.1-15.1,33.1-24.7c15.4-14.8,29.9-30.6,46-44.5c20.2-17.4,42.9-31.7,65.5-45.9c2.1-1.3,2.3-2,4.7-2.6"/>
		</g>
	</g>
	<g>
		<path class="st7" d="M736.1,789.4c-7.9-4.7-17.6-6.1-26.7-6.4c-17.2-0.5-33.7,5.8-49.7,12c-6.7,2.6-13.7,5.3-18.6,10.6
			c-4.3,4.5-6.7,10.8-6.7,17.1c0,6.5,3.5,11,6.6,16.4c6.8,11.6,14.7,22.8,25.4,31.1c5.5,4.3,11.6,7.7,17.9,10.6
			c14.2,6.7,30,11.4,45.6,9.3c7-0.9,13.8-3.3,20.5-5.6c14.6-5.1,30.2-11.6,37.5-25.2c3.8-7.1,4.9-15.3,5.8-23.3
			c0.4-3.1,0.7-6.2-0.1-9.2c-1.5-5.6-6.7-9.3-11.5-12.5c-5.8-3.9-11.6-7.8-18-10.4c-3.5-1.4-7.1-2.4-10.5-3.9
			C747.5,797.3,742,792.9,736.1,789.4z"/>
	</g>
	<g>
		<g>
			<path class="st8" d="M2075.8,1055.4c-1.7,1.1-3.4,2.2-5.1,3.2"/>
			<path class="st9" d="M2060.4,1065c-17.2,10.3-34.7,20.5-47.4,35.8c-27.5,33-26.5,81-45.8,119.4c-18.2,36.2-53.3,61.2-90.5,77.5
				c-37.1,16.3-77,25.1-115.4,38.1c-34.6,11.7-68.1,26.6-99.9,44.7c-13,7.4-26.1,15.4-40.7,18.4c-18.2,3.6-37-1-55.2-4.5
				c-58.9-11.3-125.2-9.1-172.9,25.8"/>
			<path class="st8" d="M1387.7,1423.8c-1.6,1.2-3.1,2.5-4.6,3.9"/>
		</g>
	</g>
</g>
<g id="cities">
	<circle class="st10" cx="337.5" cy="1042.6" r="5.2"/>
	<text transform="matrix(1 0 0 1 332.6211 1034.3765)" class="st11 st12">Khotan</text>
	<circle class="st10" cx="195.3" cy="855.2" r="5.2"/>
	<text transform="matrix(1 0 0 1 165.2752 881.043)" class="st11 st12">Kashgar</text>
	<circle class="st10" cx="1695.5" cy="1343.1" r="5.2"/>
	<text transform="matrix(1 0 0 1 1669.4578 1366.1162)" class="st11 st12">Changan</text>
	<circle class="st10" cx="1033.2" cy="977" r="5.2"/>
	<text transform="matrix(1 0 0 1 948.5755 999.4869)" class="st11 st12">Dunhuang</text>
	<circle class="st10" cx="1863.7" cy="1302.5" r="5.2"/>
	<text transform="matrix(1 0 0 1 1819.7043 1325.6631)" class="st11 st12">Luoyang</text>
	<circle class="st10" cx="812.4" cy="785.8" r="5.2"/>
	<text transform="matrix(1 0 0 1 784.6392 813.1508)" class="st11 st12">Turfan</text>
	<circle class="st10" cx="753.5" cy="722.7" r="5.2"/>
	<text transform="matrix(1 0 0 1 737.9824 713.4842)" class="st11 st12">rmqi</text>
	<circle class="st10" cx="790.6" cy="1574.9" r="5.2"/>
	<text transform="matrix(1 0 0 1 785.7789 1593.769)" class="st11 st13">Lhasa</text>
	<circle class="st10" cx="2189" cy="1423.7" r="5.2"/>
	<text transform="matrix(1 0 0 1 2180.7551 1446.713)" class="st11 st12">Jiankang</text>
	<circle class="st10" cx="1870.1" cy="983.3" r="5.2"/>
	<text transform="matrix(1 0 0 1 1844.3721 1008.2613)" class="st11 st12">Pingcheng</text>
	<circle class="st10" cx="2177.2" cy="854.1" r="5.2"/>
	<text transform="matrix(1 0 0 1 2192.3923 863.3885)" class="st11 st12">Longcheng</text>
	<circle class="st10" cx="1386.8" cy="1129.8" r="5.2"/>
	<text transform="matrix(1 0 0 1 1350.7814 1121.6949)" class="st11 st12">Wuwei</text>
	<circle class="st10" cx="1290.1" cy="1069" r="5.2"/>
	<text transform="matrix(1 0 0 1 1255.3875 1061.2406)" class="st11 st12">Zhangye</text>
	<g>
		<g>
			<path class="st8" d="M769,758.1c1.2-1.6,2.7-3,4.2-4.2"/>
			<path class="st14" d="M784.2,749.1c4.2-1,8.6-1.5,12.8-1.9c3.5-0.3,7-0.6,10.5,0c3,0.5,5.9,1.6,8.7,2.8c4.5,1.8,9,3.6,13.5,5.4
				c2.3,0.9,4.7,1.9,6.3,3.7c1.5,1.6,2.3,3.6,3.2,5.5c1.5,3.2,3.5,6.2,5.4,9.2c2.5,3.9,5.1,8,9,10.6c3,2,6.6,3,9.6,5.1
				c5.4,3.8,7.8,10.5,8.9,17c1.3,7.7,1.2,15.8-1.7,23.1c-2.9,7.3-8.7,13.6-16.2,15.8c-3.3,1-6.9,1.2-10.4,1.4
				c-4.6,0.2-9.3,0.5-13.7-0.9c-2.4-0.8-4.7-2-7.1-2.8c-6.3-2-13.6-0.8-19.3-4.2c-2.8-1.6-4.9-4.2-7.1-6.6c-3.1-3.4-6.5-6.4-9.7-9.7
				c-12.3-12.7-20.9-28.9-24.5-46.2c-0.8-3.7-1.3-7.7,0-11.3c0.4-1.1,0.9-2.1,1.6-3"/>
			<path class="st8" d="M768.3,757.7c1.6-1.2,3.3-2.4,4.9-3.4"/>
		</g>
	</g>
	<path class="st15" d="M832.4,903c3.9-1.7,7.8-3.1,11.8-4.6c4.7-1.7,9.4-3.5,14-5.2c4.2-1.6,8.4-3.1,12.8-4.4
		c2.8-0.8,5.8-1.6,8.7-1.6c7.7-0.1,15,4.7,19,11.4c4,6.6,4.9,14.8,3.6,22.4c-1.3,7.6-4.6,14.8-8.6,21.4c-6.6,10.9-15,20.5-22.4,30.8
		c-24.9,34.6-63.9,53.4-103.7,65.7c-37.1,11.5-75.8,18.2-112,32.2c-12.8,4.9-25.2,10.8-38.3,14.9c-13.1,4.1-26.6,6.4-40.1,8.7
		c-30.4,5.2-61.2,10.4-92,8.2c-11-0.8-24.2-4.4-27-15c-1.9-7.2,1.8-14.6,6.1-20.6c17.4-24.5,44.8-40.2,73.1-50.1
		c28.3-9.9,58.1-14.8,87.2-22.2c44.4-11.3,87.2-28.4,127.1-50.9c13.2-7.4,26-15.4,39.5-22.4c6.7-3.4,13.5-6.6,20.6-9.3
		C818.9,909.7,825.4,906.1,832.4,903z"/>
	<path class="st15" d="M325.5,809.6c-6.7,3.9-8.2,11.6-9,18.7c-0.9,8.7-1.3,16.9,0.6,25.6c0.4,1.9,0.9,3.8,2.1,5.3
		c1.9,2.4,5.1,3.3,8.2,3.7c14.5,2.2,29.1-1.7,43.7-2.5c19.5-1.1,38.9,3.3,58.2,6.1c14.4,2.1,28.9,3.3,43.5,3.7
		c7.1,0.2,14.2,0.2,21.1-1.3c5.5-1.2,10.8-3.2,16.2-5c15-4.9,30.5-7.8,46.1-9.7c14.5-1.8,29.5-1.6,43.8-4.6
		c10.2-2.1,20-8.2,24.3-17.6c4.4-9.4,1.9-22.2-7-27.6c-4.7-2.9-10.4-3.5-15.9-4.2c-21-2.6-41.7-7.8-62-13.8c-9.2-2.7-18.5-5.6-28-7
		c-9.9-1.4-19.9-1.3-29.8-0.9c-10.3,0.4-20.9,2.2-30.9-0.1c-10.8-2.5-22-3.4-33-2.7c-7.3,0.5-14.6,1.6-21.8,2.9
		c-6.1,1.1-12.3,2.2-18.1,4.4c-5.4,2-10.4,4.9-15.4,7.7c-10.9,6.2-22.4,11.8-33.1,18.1c-4.3,2.5-8.7,5.5-10.6,10.1"/>
	<path class="st15" d="M261.4,831.5c8.9,4.8,16.6,12.7,19.1,22.5c1.6,6.5,0.9,13.3,0.2,19.9c-1,9.5-2.1,19-5,28.1
		c-1.3,4.1-3,8-4,12.2c-2.4,9.8-1.1,20-2.3,30c-1.2,10-6.1,20.7-15.7,23.8c-3,1-6.3,1.1-9.5,1c-16.3-0.5-32.1-6.3-46.3-14.3
		s-27-18.3-39.6-28.6c-8.1-6.6-16.2-13.3-23.2-21.1c-4.3-4.8-8.2-10.1-12.9-14.6c-5.7-5.6-12.4-10.1-18.1-15.8c-2-2-4-4.5-4-7.4
		c0-3.5,3.1-6.3,6.3-7.7c3.2-1.4,6.8-1.9,9.9-3.6c3.7-1.9,6.5-5.3,10.2-7.3c3.5-1.9,7.5-2.5,11.4-3.3c10.1-2.3,19.7-6.6,29.6-9.4
		c8.5-2.4,17.3-3.7,26-5c16.8-2.5,33.6-5,50.5-7.5c3.9-0.6,8-1.1,11.6,0.3c3.1,1.2,5.5,3.8,7.7,6.4c2.4,2.9,4.8,5.9,6.9,8.9"/>
	<path class="st15" d="M271.3,983.4c4.6,10.4,10.3,20.2,17.1,29.3c1.9,2.5,3.8,5,5.3,7.7c1.4,2.6,2.4,5.4,3.7,8
		c2.4,4.7,5.7,8.8,9.2,12.8c7.1,8.2,14.6,16,22.1,23.9c3.7,3.9,7.5,7.8,12,10.6c10,6.1,22.5,6.2,33.2,10.8c3.8,1.6,7.4,3.9,11.3,5.1
		c3.4,1,6.9,1.3,10.4,1.6c11.1,0.8,22.2,1.7,33.2,0.2c3.3-0.4,6.7-1.1,9.5-2.9s4.9-4.9,4.7-8.3c-0.3-3.7-3.2-6.5-6-8.8
		c-11.5-9.3-24.8-15.9-36.8-24.5c-7.2-5.2-13.9-11.1-20.6-16.9c-14.9-12.8-30.2-25-45.5-37.3c-3.5-2.8-7.1-5.7-11-7.9
		c-5.7-3.2-12-5.1-18.3-6.7c-9.2-2.4-18.5-4.3-28-4.5c-2,0-4.1,0-5.8,1.1c-1.7,1-2.9,3.3-2,5.1c1.1,2.3,4.7,2.7,5.6,5"/>
	<text transform="matrix(0.9489 -0.3155 0.3155 0.9489 630.9537 1036.7043)" class="st11 st12">Shanshan</text>
	<text transform="matrix(1 0 0 1 688.2845 860.397)" class="st11 st12">Yanqi</text>
	<text transform="matrix(1 0 0 1 442.9951 836.8325)" class="st11 st12">Kuqa</text>
	<circle class="st10" cx="1346.8" cy="1205.2" r="5.2"/>
	<text transform="matrix(1 0 0 1 1310.9298 1198.4829)" class="st11 st12">Xiping</text>
</g>
<g id="text">
	<text transform="matrix(1 0 0 1 1753.2566 1780.796)" class="st16 st17">Jin</text>
	<text transform="matrix(1 0 0 1 1783.2126 1237.8597)" class="st16 st17">Qin</text>
	<text transform="matrix(1 0 0 1 1823.3644 1162.1565)" class="st16 st18">Former</text>
	<text transform="matrix(1 0 0 1 1771.2372 1699.1565)" class="st16 st18">Eastern</text>
</g>
</svg>
