<?xml version="1.0" encoding="utf-8"?>
<!-- Generator: Adobe Illustrator 19.2.1, SVG Export Plug-In . SVG Version: 6.00 Build 0)  -->
<svg version="1.1" xmlns="http://www.w3.org/2000/svg" xmlns:xlink="http://www.w3.org/1999/xlink" x="0px" y="0px"
	 viewBox="0 0 2905.1 2313" style="enable-background:new 0 0 2905.1 2313;" xml:space="preserve">
<style type="text/css">
	.st0{opacity:0.34;}
	.st1{fill:#5ABA47;}
	.st2{fill:#F36E21;}
	.st3{fill:#B8488A;}
	.st4{fill:#F1B11D;}
	.st5{fill:#EA9B23;}
	.st6{fill:none;stroke:#000000;stroke-width:0.5;stroke-linecap:round;stroke-linejoin:round;}
	.st7{fill:#ED1C24;stroke:#1C75BC;stroke-linecap:round;stroke-miterlimit:10;}
	.st8{font-family:'ArialMT';}
	.st9{font-size:24px;}
	.st10{font-size:21px;}
	.st11{font-family:'MyriadPro-Regular';}
	.st12{font-size:104px;}
	.st13{font-size:72px;}
	.st14{font-size:48px;}
</style>
<g id="bitmap">
	
		<image style="overflow:visible;" width="1968" height="1567" xlink:href="../relief_map.jpg"  transform="matrix(1.4757 0 0 1.4757 1.8006 0)">
	</image>
</g>
<g id="borders">
	<g id="XMLID_1_" class="st0">
		<g>
			<path class="st1" d="M1976.1,973.1c4.3-1.7,8.7-3.3,13.1-4.7c11.5-3.7,24.1-4.6,36-6.5c12.4-2,24.8-4.4,37.3-6
				c11.3-1.8,22.8-3.7,33.4-8.2c11.9-5.1,22.1-13.3,31.6-22.1c10.3-9.6,19.9-20,28.6-31.1c4.3-5.4,7.8-11.9,12.4-16.9
				c3.5-3.8,7.3-6.8,10.6-10.9c7.4-9,14.8-18,22.2-27c3.1-3.8,6.3-7.6,8.3-12.1c2.3-5,3.2-10.5,4.5-15.8c1.2-5,2.8-9.8,4.5-14.6
				c1.7-5,3.6-10.2,7.1-14.2c1.7-2,3.7-3,5.6-4.5c2.6-2,5-4.8,7.3-7.2c16.4-16.8,31.2-36.5,52.6-46c4.1-1.8,8.6-3.2,13.2-3.2
				c4.8,0,8.1,2,12.3,3.8c9,4,18.1,8.2,25,15.4c5.9,6.1,9.7,13.9,15.2,20.3c5,5.8,11.3,10.5,15.8,16.6c4.5,6.1,7.1,13.4,11.1,19.9
				c4.6,7.5,11,13.7,16.2,20.8c5.2,7.1,9.3,15.6,8.2,24.3c-1.1,8.9-7.3,16.2-13.2,22.9c-8.9,10.2-17.9,20.6-24.3,32.6
				c-3.9,7.3-6.9,15.4-12.4,21.6c-5.5,6.2-14.6,10.4-22.2,7.1c-0.5,1.7-1,3.5-1.5,5.2c-2.2-1.1-5.2,0.5-5.4,2.9
				c-1.9-2-5.2-2.6-7.7-1.4c0.4,3-1.1,7.4-4.2,8.6c-2.4,0.9-5.6-0.6-7.6,1.8c-0.7,0.8-0.9,2-1.6,2.7c-1.1,1.1-2.8,1.1-4.2,1.6
				c-1.4,0.5-2.8,2.2-1.9,3.4c-9.4,6.6-18.2,14.5-24.8,24c-0.8,1.1-1.4,2.9-0.2,3.6c0.8,0.4,2.4,0.3,2.2,1.2c-2,2.3-4,4.5-6,6.8
				c-0.4,0.4-0.7,0.8-1.2,1c-0.7,0.3-1.4,0.3-2.1,0.6c-2.3,1.1-1,4.8-2.5,6.8c-2.2-1-4.2-2.7-6.6-3c-2.4-0.2-5.2,2.2-4,4.4
				c1.8-1.2,4.7,1.1,3.8,3.1c-1.3,3-6.6,1.5-8.4,4.3c-0.3,0.4-0.4,0.9-0.7,1.3c-1.3,1.7-4.1,0.3-6.1,1.1c-1.2,0.5-1.9,1.6-2.7,2.5
				c-0.9,0.9-2.3,1.6-3.3,1c0.5,1.5,0.2,3.2-0.6,4.5c-2.3-0.6-4-2.6-4.8-4.8c-0.8-2.2-1-4.6-1-7c-0.1-1.4,0-3.1,1-4
				c1.1-1,3.4-0.2,3,1.2c0.9-1.4,2.7-2.3,4.4-2.1c-0.1-1.4-0.2-2.9,0.3-4.2c0.6-1.3,2-2.3,3.3-1.9c0.9,0.3,1.6,1.2,2.5,1.4
				c0.7,0.1,1.4-0.2,2.1-0.5c2.1-1,4.2-2.1,5.5-4c1.3-1.9,1.3-4.9-0.5-6.2c-1.2-0.8-3.1-1.2-3.2-2.6c-0.1-0.8,0.5-1.5,1.1-2
				c1-0.9,2.3-1.4,3.4-2.2c1.1-0.8,3.2-3.3,1.8-4.7c-1-1-2.8,0.3-3.9,0.6c-3.5,0.9-8,0.9-10.4-2.4c-0.9-1.2-1.5-2.9-2.9-3.3
				c-1.7-0.5-3.5,1.2-5.1,0.5c-1.5-0.6-1.7-2.7-0.9-4.1c0.8-1.3,2.3-2.1,3.6-3.1c1.3-0.9,2.5-2.2,2.5-3.8c0.9,1.1,2.3,1.6,3.6,1.3
				c0.8-1,0.3-2.5-0.5-3.4c-0.8-1-1.9-1.7-2.4-2.8c-0.8-1.6-0.4-3.6,0.6-5.1s2.5-2.5,3.9-3.6c2.2-1.6,4.5-3.2,6.7-4.8
				c1.4-1,2.9-2.1,3.2-3.8c0.3-1.6-0.5-3.5,0.6-4.8c0.4-0.5,1.1-0.8,1.6-1.1c1.3-0.9,1.9-2.4,2.4-3.9c1.5-3.9,3-7.8,4.5-11.7
				c1.1-2.9,2.2-5.7,2.9-8.7c0.7-3,0.5-7-2.5-8c-1.1-0.3-2.4-0.2-3.1-1c-0.4-0.5-0.6-1.1-0.8-1.7c-1.3-3.4-5.4-4.3-8.9-5.2
				c-3.5-0.9-7.6-3.1-7.2-6.7c-4.4,1.4-4.9,5.8-9.9,5.9c-3.9,0.1-7.7-0.8-11.3-0.8c-2.2,0-6.4-0.6-8.2,1.2c-1.4,1.4-2,3.4-2.6,5.2
				c-1.4,0-2.9,0-4.3,0c-0.2,1.3-0.4,2.5-0.7,3.8c1.3,0.5,2.6,1.1,3.9,1.6c-1.1,3-4.5,5-7.7,4.5c0,2.9-0.9,5.7-2.5,8.1
				c-0.2,0.2-4.6,5.2-2.7,5.4c-1.7,0-3.2,1.5-3.2,3.2c0,1-0.2,2.6-1.1,2.2c1.2,0.7,1.9,2.2,1.7,3.6c-0.9-0.5-2.2,0.3-2.5,1.3
				c-0.4,1-0.2,2.2-0.4,3.2c-0.5,2.7-2.8,4.5-5,6.1c-8.3,5.9-16.5,11.8-24.8,17.7c-3.8,1-7.4,3.3-9.9,6.3c0.4,1.8,0.4,3.8,0.2,5.6
				c-2.9-0.1-5.7,2-6.5,4.8c-0.5,1.8-0.2,3.6-0.6,5.4c-0.4,1.8-1.7,3.6-3.6,3.5c1.2,0,1.8,1.5,1.8,2.6c0,1.2-0.4,2.4-0.2,3.5
				c0.1,0.8,0.6,1.4,0.8,2.2c0.6,2.2-0.8,4.5-2.1,6.4c-3.3,4.8-6.6,9.7-9.9,14.5c-1,0.4-2.1,0.1-2.9-0.6c0.3-1.3,0.5-2.5,0.8-3.8
				c-1.4-0.8-2.3,1.7-3.5,2.9c-1.8,1.7-4.7-0.1-7.2-0.2c-3.1,0-5.3,2.7-7.3,5c-2.8,3.4-7.9,6.7-11.2,3.8c0.3-5-6-8.4-10.9-7.2
				c-4.9,1.2-8.6,5.2-11.9,9c0.5,2.4,1.1,4.8,1.6,7.2c-6.1,7-7.5,17.8-3.3,26.1c3.1,6.2,8.8,10.7,14.6,14.4
				c3.6,2.3,7.5,4.6,11.8,5.1c7,0.8,14.8-2.7,20.6,1.2c3.3-4.2,8.5-6.9,13.9-7.1c0.2,1.6-0.1,5.6,1.4,6.6c1.1,0.7,3.6-0.8,4.5,0.2
				c1.5,1.8,3.2,4.3,3.6,6.7c0.4,2.1,1.3,4.1,2.3,6c0.2,0.4,0.3,0.7,0.6,1c0.2,0.2,0.3,0.4,0.5,0.6c1.1,1.2,1.9,3.4,1.8,5
				c-0.2,2.2-2.3,3.5-2.7,5.3c-1,4.7-1,9.6,0.1,14.3c0.5,2,1.2,4.1,2.6,5.7c1.3,1.5,3.2,2.4,5,3.1c7.4,2.7,15.6,1.7,23.4,0.3
				c2.8-0.5,5.8-1.1,8.2-2.7c2.4-1.6,4.3-4.4,3.9-7.2c-0.1-0.8-0.4-1.7-0.4-2.5c-0.3-3.8,3.5-6.3,6.6-8.5c3.2-2.3,6.1-5.2,8.5-8.4
				c1-1.3,1.9-2.8,1.8-4.5c-0.1-1.6-1.8-3.2-3.4-2.6c1.6-0.7,3.3-1.3,4.9-2.1c3.4-1.6,6.6-3.6,9.5-5.8c2-1.5,3.9-3.2,6.2-4.1
				c4.9-2,10.5,0,15.4,1.9c1.8,0.7,3.7,1.5,5,2.9c1.3,1.5,1.8,3.8,0.5,5.3c4,0.3,8-0.3,11.6-2c-0.9-1.1,0.4-3,1.7-2.6
				c-0.7,1.8-0.2,3.9,0.9,5.4c0.6,0.8,1.5,1.2,2.1,2c0.5,0.5,0.8,1.8,1.3,2.2c0.5,0.3,1.1,0.3,1.6,0.3c1,0,1.9,0,2.9-0.1
				c0.1,0,0.3,0,0.4-0.1c0.1-0.1,0.1-0.3,0.1-0.4c0-0.5,0-1.1,0-1.6c0-0.2,0-0.4,0.1-0.5c0.1-0.1,0.3-0.2,0.4-0.2
				c2.4-0.6,4.8-0.5,7.2-1c2.9-0.6,5.9-0.4,8.8-0.1c-0.2-0.9,0.2-1.8,0.6-2.6c1.1-2.3,2.5-4.9,5-5.5c1.6-0.4,3.7,1.1,3.8,2.7
				c0.1,0.7-1.6,4.1,0.7,3.9c1.3-0.1,2.5-0.9,3.1-2.1c0.8,0.7,1.6,1.3,2.4,1.9c1.8-0.3,3.6-1,5.3-1.2c1.9-0.2,3.6,0.9,5.5,0.9
				c1.3,0,2.6-0.6,3.3-1.6c0.1-0.2,0.2-0.4,0.4-0.6c1.5-1.5,7,1,4.8,2.9c-0.6,0.5-1.4,0.4-2.1,0.6c-1.9,0.5-2.7,3-2,4.8
				c0.7,1.9,2.3,3.2,3.9,4.4c-1.3,1-2.1,2.5-2.4,4.1c-1.6-0.9-3.9-0.3-4.8,1.3c-0.9,1.6-0.2,3.8,1.3,4.7c0.6,0.3,1.4,0.5,2,0.8
				c1.9,0.9,2.9,3.2,2.4,5.1c-0.5,2-2.6,3.4-4.6,3.2c0.7,1.2,0.8,2.7,0.2,4c-1.9,0.6-3.8,1.2-5.6,1.8c-1.5,0.5-3.2,0.9-4.6,0.3
				c-1.5-0.6-2.2-2.9-0.8-3.8c1.2,0.3,2.6,0.1,3.7-0.5c-2.6,0-5.1-2-5.7-4.6c-0.8,3-2.8,5.6-5.4,7.1c-0.6-2.7-2.9-4.9-5.7-5.3
				c2,1.8-0.3,5.1-2.7,6.4c-2.4,1.3-5.5,2.9-5.2,5.6c-2,0.2-3.9,0.5-5.9,0.7c1.5,1,2.1,3.1,1.5,4.8c-2.6-1.3-5.2-2.6-7.8-3.8
				c1.4,0.7,1.5,2.7,0.8,4.2c-0.7,1.4-1.9,2.5-2.6,3.9c-5.2,1.3-10.1,4.3-13.7,8.3c-1.2,1.7-3.6,1.8-5.5,1.3c-2-0.5-3.8-1.4-5.8-1.5
				c-0.1,0-0.3,0-0.4,0c-1.9,0.2-3.9,1.6-3.7,3.5c0.1,0.7,0.5,1.4,1.1,1.6c1.8,0.6,2.5-2.2,2.3-4.1c0,0,0.1,0,0.1,0
				c1,0.2,2.1,0.4,3.1,0.6c4.3,3.1,5,10.1,1.4,14c-2-0.8-3.5-2.6-3.9-4.7c-2.1,1.1-3.8,2.8-5,4.8c0.7,1.5,1.4,3.1,2.1,4.6
				c-0.9-0.1-1.9-0.1-2.8-0.2c1.2,3.7,2.8,7.3,4.5,10.8c-5.5,2.6-11,5.3-16.5,7.9c-0.4,0.2-0.8,0.4-1.3,0.4c-0.1,0-0.2,0-0.2,0
				c-1.5-0.2-1.9-2.5-1.4-4c0.6-1.6,1.6-3.2,1.1-4.8c-3.5,0.4-7.1,0.8-10.6,1.2c0.1,2.1,0.1,4.1,0.2,6.1c2.5-0.3,4.9,2.1,4.6,4.6
				c1.9-0.5,3.8-0.6,5.8-0.4c0.2,0,0.4,0.1,0.6,0.1c-1.7,4-5.4,7.1-9.7,8c-1.7,1.4-1.8,4-2.2,6.2c-0.3,2.2-1.5,4.8-3.8,5
				c0.1,2.4,0,4.8-0.3,7.1c-1.5,0.4-3.2-1-3.1-2.6c-0.8,1.6-1.3,3.3-1.3,5.1c-1.3,0.4-3.2-0.8-3.2-2.2c-3.9,0.5-4.8,6-5.1,9.2
				c-0.3,3.8-1.3,8.5-5,9.3c-0.5,0.1-1.1,0.2-1.6,0.5c-1.4,1.1-0.7,3.8-0.4,5.2c0.5,2,0.4,3.8,0.4,5.8c0,1-0.2,2.1-1.1,2.5
				c-0.4,0.2-0.9,0.1-1.3,0.1c-2-0.1-4.1,1.3-4.8,3.2c-1,2.7,0.4,5.6,0.4,8.5c0,1.1-0.2,2.2-0.1,3.4c0.1,1.1,0.5,2.3,1.5,2.9
				c0.2,0.1,0.4,0.2,0.6,0.4c1,1.5-2,2.4,1.1,3.6c2,0.8,3.9-0.5,5.6-1.6c1.4-1.3,3.8-0.5,5.1,1c1.3,1.5,1.9,3.4,3.1,4.9
				c1.5,1.9,3.7,2.9,5.9,3.8c1.1,0.4,2.4,1,3.6,1.3c1.2,0.3,2.5,0.1,3.7,0.6c1.3,0.5,2.3,1.6,3.6,2c2.7,0.7,5.6-1.9,8.2-0.9
				c0.5,0.2,1,0.5,1.4,0.8c1.7,1.2,3.7,3.2,5.6,4c2,0.9,4.2,0.3,6.2,1.5c1.9,1.2,3,3.2,4,5.2c2.3,4.6,4.5,9.2,6.5,14
				c1.6,3.8,2.5,8.5,5.9,11.2c1,0.8,2.1,1.6,2.7,2.8c0.5,1.2,0.1,2.9-1.1,3.3c2.3,3,4.6,6,7.4,8.4c1.4,1.2,2.9,2.3,3.6,4
				c0.8,1.7,0.6,3.6,1.3,5.3c0.7,1.7,3.1,2.9,4.3,1.6c0,1.9,0,3.7,0,5.6c2.3-0.9,4.9,2.1,3.8,4.3c0.7,0.2,1.3,0.4,2,0.6
				c-0.6,1.4,0.3,3.3,1.8,3.7c0.6,0.1,1.2,0.1,1.6,0.4c0.5,0.3,0.7,0.9,0.8,1.4c1.2,3.9,2.9,7,1.4,11c-0.5,1.4,0.3,2.9,0.6,4.3
				c0.4,1.4-0.1,3.5-1.6,3.5c1,2.9,4.5,3.9,7.5,4.5c2.2,0.5,4.5,0.9,6.7,1.4c0.6,0.1,1.4,0.2,1.7-0.4c0,0.9,0,1.9,0,2.8
				c3.4-0.4,6.8,0,10,1c2.7,0.9,5.4,2.5,6.6,5.1c1.3,2.9,0.3,6.3-0.7,9.3c1,0.4,1.9,0.7,2.9,1.1c0.2,1,0.2,2.1-0.2,3.1
				c6.5-1.1,13.4,0.6,18.6,4.5c5.2,4,8.8,10.1,9.5,16.6c-5.4,2.8-11.9,0.2-17.4-2.2c-5.6-2.4-12.3-4.6-17.3-1.2
				c5.2,0.6,10.6,1.3,15.4,3.6c-1.2,0.5-0.6,2.3,0.6,2.9c1.1,0.5,2.5,0.5,3.4,1.3c0.4,0.4,0.7,0.9,1.2,1.3c0.8,0.7,2,0.7,3.1,0.7
				c3.6,0,7.1,0.6,10.5,1.6c0.6,0.2,1.3,0.4,1.7,0.9c0.5,0.5,0.7,1.1,0.7,1.7c0.1,1.1-0.4,2.3-0.9,3.4c-5.1-0.5-10.1-1.2-15.1-2.2
				c-4.8-1-9.6-2.2-13.6-5.1c-2.9-2.1-5.3-4.9-7.4-7.9c-2.1,0.9-4.4-1.9-6.6-1.3c-1.2,0.3-2,1.6-3.2,2c-1.9,0.6-3.6-1.3-4.8-2.8
				c-3.1-3.7-7.1-6.6-11.6-8.3c-4.6-1.8-10.1-2.4-14.2,0.4c-1.8,1.2-3.1,2.9-4.4,4.6c-1.9,2.5-3.8,4.9-5.8,7.4
				c3.3-0.6,6.5-1.9,9.2-3.9c1-0.7,2-1.8,1.8-3c1-1.7,3.4-2,5.4-1.9c2,0.2,4.1,0.5,5.9-0.4c4.4,0.8,7.6,5.6,6.5,9.9
				c0.8,3,4.8,4.6,7.4,2.9c0.5-0.3,1.1-0.8,1.7-0.9c0.6-0.1,1.2,0.1,1.8,0.2c3.6,1.1,7.1,2.2,10.7,3.3c4,3.7,8,7.4,12.7,10.3
				c3.9,2.4,8.2,4.1,12.7,5.1c0.7,0.2,1.5,0.3,2.2,0.7c0.6,0.3,1,0.8,1.5,1.3c5.7,6.2,12.8,12.5,14.7,21.1c0.3,1.2,0.3,2.8-0.6,3.6
				c-0.7,0.6-1.8,0.6-2.7,0.6c-3.9-0.1-7.9,0-11.6,1.2c-3.7,1.2-7.2,3.9-8.5,7.6c-0.4,1.1-0.6,2.2-1.2,3.1c-1.4,1.9-4.1,2-6.2,3.1
				c-2.2,1.1-3.7,3.5-3.8,5.9c-2.2,0.3-4.4,0.6-6.6,0.9c-1.4,2.1-1.6,4.7-1.7,7.2c-0.1,2.5-0.2,5.1-1.6,7.2
				c-1.3,2.1-4.3,3.4-6.4,2.1c-0.8-0.5-1.4-1.3-2.2-1.8c-0.9-0.5-2-0.4-3-0.4c-5.4,0.2-11.8,0.9-14.7,5.5c-1.3,2.1-3.1,5.3-5.2,4
				c0.9,1.4,1.9,2.9,3.4,3.7c1.5,0.8,3.7,0.5,4.4-1.1c0.4-0.9,0.2-2,0.6-2.9c0.9-2.6,4.9-2.4,7-0.7c2.1,1.7,3.4,4.4,5.8,5.9
				c5,3.3,11.7-0.3,15.9-4.6c4.3-4.2,8.5-9.5,14.5-9.9c4.8-0.3,9.1,2.8,12.9,5.7c4.6,3.5,9.2,7,13.8,10.5c0.6-2.1,3.6-1.8,5.8-1.2
				c4.5,1.2,9.2,1.5,13.8,0.9c0.2,2-1.5,3.8-3.3,4.7c-1.8,1-3.9,1.5-5.4,2.9c-1.2,1.1-1.9,2.6-2.6,4.1c-1.3,2.7-2.5,5.4-3.8,8.2
				c3-0.2,6-1.4,8.3-3.4c1.8-0.1,2.8,2,2.9,3.8c0.1,1.8-0.2,3.7,0.7,5.2c0.5,0.8,1.4,1.6,1.2,2.6c-0.1,0.6-0.6,1-1,1.5
				c-1.7,1.9-1.5,5.3,0.4,7c0.6,0.6,1.4,1,1.9,1.6c1.4,1.9,0,4.4-1.4,6.3c0.5,0.2,0.9,0.4,1.4,0.7l-1.6,2.4c0,0,0,0.1,0,0.1
				c0,1.2-1.4,2.1-2.6,2c-1.3-0.1-2.4-0.9-3.4-1.7c1.9-4,0.9-9.1-2.3-12.1c0.7,2.1,0.9,4.5,0.1,6.6c-0.8,2.1-3,3.7-5.2,3.4
				c-0.5-0.1-1-0.2-1.3-0.6c-0.6-0.6-0.5-1.6-0.9-2.3c-0.8-1.3-3.1-0.8-3.8,0.6c-0.7,1.4-0.5,3-0.2,4.6c-1.4,0.2-2.8,0.5-4.1,0.7
				c2.6,4.4,11.2,2,12.9,6.8c0.3,0.7,0.3,1.5,0.3,2.3c1.6-0.2,3.1,1.2,3.2,2.8c-1.8-0.1-3.6-0.1-5.4,0.1c-2.3,0.2-4.5,0.6-6.7,1.3
				c-0.7,1.7,1.9,2.8,3.6,2.4c1.1-0.3,2.2-0.8,3.3-0.9c0.6-0.1,1.3,0,1.9,0.3c0.1,2.8,1.4,5.2,0.3,8c-0.6,1.5-3.9,5.8-6.1,4.9
				c3.3,1.4,0.9,7.9,4.3,9.3c0.5,0.2,1.1,0.3,1.6,0.5c2.1,1.1,1,4.6,2.5,6.3c0.6,0.7,1.6,1,2.4,1.6c2.2,1.7,1.4,5.8-1.2,6.7
				c-1-1.4-2.1-2.8-3.6-3.5c-1.5-0.7-3.7-0.5-4.5,1c-0.5,2.4-0.9,4.9-1.4,7.3c-0.2,1-0.4,2.1-1.3,2.7c-1.9,1.4-4.3-1.1-5.3-3.3
				c-0.9-1.9-1.7-3.9-2.5-5.9c-1.4-0.1-2.8-0.5-3.9-1.3c-1.2,2.3-3.4,4.1-5.9,4.9c1.6,0.2,3.2,0.3,4.7,0.5c1.1,2-0.2,4.6-1.8,6.3
				c-1.5,1.8-3.3,3.7-3.2,6c0.1,1.4,1,2.8,0.7,4.2c-0.3,1.5-1.6,2.2-3,2.4c-1.1,0.2-3.2,0.4-4.2,0.2c-0.8-0.2-1.4-0.6-2.1-1
				c-1.9-0.9-4.2-0.7-5.8,0.6c0.4,0,0.4,0.7,0.5,1.1c0.2,0.6,1.1,0.6,1.7,0.3c0.6-0.3,1.1-0.7,1.8-0.7c0.8,0.1,1.3,0.9,2,1.1
				c0.8,0.2,1.8-0.3,2.4,0.2c0.2,0.2,0.3,0.4,0.4,0.6c0.3,0.9,0.3,1.8,0.3,2.7c0,0.7-0.1,1.4-0.3,2.1c-0.2,0.4-0.4,0.7-0.7,1
				c-0.5,0.7-1.1,1.4-1.6,2.1c-0.8,1-1.7,2.2-1.9,3.4c-0.2,0.9,0.3,2-0.3,2.7c-0.9,0.9-3.6,0.9-4.6,0.2c0.6,0.5,0.4,1.4,0.4,2.2
				c0.1,1.2,1,2.1,1.5,3.2c0.5,1.1,0.3,2.8-0.9,2.9c-0.5,0.1-1-0.2-1.5,0.1c-0.3,0.2-0.4,0.4-0.5,0.7c-0.6,1.9,0,4.2,1.6,5.4
				c1-0.9,2.8-0.4,3.2,0.9c0.2,0.6,0.1,1.3-0.1,1.9c-0.3,1.4-0.6,2.7-0.9,4.1c-0.1,0.2-0.1,0.5-0.3,0.7c-0.2,0.2-0.5,0.1-0.8,0.1
				c-1.2-0.2-2.5-0.3-3.7-0.5c0.8,0.8,0.5,2.4-0.5,3c-0.2,0-0.3,0.1-0.4,0.2c0.2,0,0.3-0.1,0.4-0.2c0.5-0.2,1.1-0.1,1.5,0.1
				c0.1,2.1,0.2,4.3,0.3,6.4c0,0.5,0,1.1-0.2,1.5c-0.4,0.7-1.3,0.9-2.2,1.1c-1.5,0.3-3.2,0.5-4.4-0.4c-0.4-0.3-0.8-0.7-1.2-1.1
				c-0.8-0.6-1.8-0.9-2.8-1.3c-0.9-0.4-1.7-0.8-2-1.8c-0.2-0.6-0.3-1.4-0.9-1.5c-0.4,0-0.7,0.3-0.9,0.5c-0.8,0.9-1.6,1.8-2.3,2.6
				c-0.6,0.7-1.2,1.4-1.4,2.3c-0.1,0.9,0.6,2,1.5,1.9c0.6-1.3,1.4-2.8,2.8-3.3c1-0.2,2-0.2,3,0.1c0.9,0.2,1.7,0.7,2.4,1.2
				c0.7,0.6,1.3,1.3,1.8,2.1c0.9,1.3,1.7,2.9,1.3,4.5c-0.3,1.3-1.6,2.4-3,2.5c-1.4,0.1-2.8-0.8-3.3-2c-0.1,1.1-0.1,2.2-0.1,3.3
				c0,0.2,0,0.4,0,0.7c-0.1,2.7-0.2,5.4-0.8,8c-0.1,0.6-0.4,1.3-0.9,1.6c-1.3,0.6-3.2-1.2-4,0c-0.2,0.3-0.2,0.8-0.4,1.2
				c-0.6,1.1-2.3,0.4-3.4,0.9c-1,0.5-1.1,2.3-0.1,2.8c0.9,0.5,2,0,3-0.2c1-0.2,2.4,0.2,2.4,1.3c-0.1,0.7-0.8,1.1-1.4,1.1
				c-0.1,0-0.1,0-0.2,0c-0.6,0-1.2-0.2-1.7-0.3c-1-0.2-2.3-0.1-2.9,0.7c-0.7,0.8-0.1,2.4,1,2.3c0.3,0,0.5-0.2,0.8-0.3
				c0.9-0.4,1.9-0.6,2.9-0.6c0.6,0,1.3,0.2,1.9,0.4c0.2,0.1,0.5,0.2,0.6,0.4c0.1,0.2,0.1,0.4,0.1,0.5c-0.1,1.2-0.3,2.6-0.2,3.8
				c0.1,0.5,0.6,1.5,0.4,1.9c-0.6,1-6.2,2-7.4,2.4c-1.2,1.9-2.3,3.7-3.5,5.6c-0.6,0.9-2,0.6-2.8-0.3c-0.3-0.3-0.5-0.7-0.6-1
				c-0.4-1.5,0.2-3.1-0.1-4.6c-0.4-2.7-3.7-4.6-6.3-3.5c-1,0.4-1.9,1.2-3,1.3c-2.9,0.2-5.6-4.5-7.7-2.5c2.6,2,3.8,5.7,2.8,8.8
				c3.7-2.8,9.6-1.3,12.2,2.4c0.6,0.8,0.9,1.7,1.1,2.7c0.1,0.6,0.2,1.2-0.1,1.8c-0.4,0.7-1,0.8-1.7,0.8c-1.4,0-3.2-0.7-4.6,0
				c-1.4,0.7-1.6,2.7-0.8,4c0.8,1.3,2.2,2.1,3.6,2.8c0.6-2,1.2-4.1,2.8-5.4c0.1-0.1,0.2-0.2,0.3-0.2c1.8-1.2,5.1-0.1,4.8,2.1
				c1.2-0.2,2.4-0.4,3.6-0.7c0.4,1.5-1.2,2.9-2.7,3.4c-1.5,0.6-3.2,1-4,2.3c-0.4,0.6-0.5,1.3-1,1.8c-0.6,0.5-1.4,0.6-2.2,0.7
				c-3.4,0.7-5.8,4.4-5.1,7.8c0.2,0.9,0.6,1.9,0.4,2.8c-0.1,0.6-0.5,1.1-0.6,1.6c-0.3,2.8,5,2,6.5,4.3c-1.3,4-3.5,7.7-6.2,10.8
				c2.3,1.1,3.5,4.1,2.6,6.6c-0.9,2.4-3.8,3.9-6.3,3.3c0.7,1.5,1.5,3.1,2.2,4.6c0.7-1.4,2.6-1.9,4.1-1.4s2.5,1.8,3.4,3.2
				c1.5,2.4,2.3,5.2,2.7,8c0.1,0.6,0.1,1.3-0.2,1.8c-0.3,0.5-0.9,0.7-1.4,0.9c-1.8,0.6-3.7,1.1-5.4,0.4c-1.7-0.7-2.6-3.3-1.1-4.4
				c-2.4,0.2-4.3-1.8-6.5-2.7c-2.2-0.9-5.8,0.6-4.8,2.8c1.3,0.1,2.2,1.7,1.6,2.8c-1.7,0.3-3.6-1-3.9-2.8c-2.4,0.7-5,1.8-5.7,4.2
				c-0.8,2.3,2.2,5.3,4.1,3.6c-0.1,1-0.3,2-0.4,3c0.3,1,1.8,0,2.5-0.8c1.4-1.5,4.2-1.7,5.4,0c1.2,1.7-0.3,4.6-2.3,4.2
				c0.5,0.8,1,1.6,1.5,2.3c-2.7,2.3-7.3,2-9.7-0.7c-0.3,2.1-0.6,4.2-0.9,6.2c-0.9,0.7-2.5,0.4-3.1-0.6c-0.6-1-0.1-2.5,1-3
				c-0.9-1.8-4-1.7-4.7,0.2c-1.1-0.7-1.8-1.9-1.8-3.2c-1.3,0.3-2.6,0.6-4,0.9c2.1,1.1,4.2,2.6,4.8,4.8c0.6,2.3-1.6,5.1-3.8,4.2
				c-0.3,1.4,1.4,2.4,2.8,2.4c1.4,0,2.8-0.6,4.2-0.3c3,0.6,3.4,5.7,0.6,6.8c-0.6-0.6-1.2-1.1-1.8-1.7c-1.2,0-2.2,1.2-2,2.3
				c1.3-0.4,2.9,0.4,3.4,1.7c-3.9,0.2-8.1,0.5-11.2,2.9c-0.5,0.4-1.1,0.9-1.7,1.1c-0.1,0-0.3,0-0.4,0c-1.8,0-2.6-2.6-2.7-4.5
				c-0.6,1.5-1.2,3.1-1.8,4.6c-0.4,1.1-0.8,2.4-0.2,3.3c1.1,1.8,3.9,0.4,5.4-1c1.6,0.2,2.5,2.2,2.3,3.8c-0.3,1.6-1.4,3-2.4,4.2
				c-1-0.8-2.6-0.3-3.1,0.8s0.4,2.6,1.6,2.8c0.6,2.5-1.4,6.2-4.2,6.5c-1.8,0.1-1.3-1-2.5-2.2c-1-1-2.4-1.6-3.7-1.7
				c-2.7-0.1-5.1,1.2-7.5,2.4c-2.6,1.2-5.2,2.2-7.9,3.1c0.7-1.6-0.6-3.6-2.3-3.6c-0.9,0.3-1.1,1.1-1,2.1l-1.4,0.3
				c-1.6,0.7-3.2,1.5-4.8,2.2c0.9,0.6,1.7,1.2,2.6,1.8c-0.1,1-0.2,2-0.3,3c-3.8,1.1-7.8,1.7-11.8,1.7c-0.1,2.5,2.9,3.9,5.4,3.6
				c2.4-0.3,4.7-1.6,7.1-1.7c0.1,1.1,0.2,2.2,0.3,3.4c1.3-1.7,4.3-0.5,4.9,1.5c0.6,2-0.5,4.2-1.9,5.8c-1.8,2-4.8,3.4-7.2,2.1
				c0.6,3.9,0.1,8-1.6,11.7c-1.6,0.4-3.2,0.6-4.8,0.4c0.6,1.7,0.4,3.7-0.6,5.2c-1.8-0.2-3.3-1.4-4.1-3c0.1-1,0-2.1-0.7-2.8
				c0,1,0.2,2,0.7,2.8c-0.1,0.8-0.4,1.7-0.8,2.5c-0.8,1.7-1.9,3.3-2,5.2c-0.1,1.7,0.8,3.3,0.8,5.1c0.1,1.7-1.3,3.8-2.9,3.3
				c1.4-2.4,1.2-5.6-0.5-7.8c-1.7-2.2-4.8-3.2-7.5-2.3c0.9,1.7,2.2,3.3,3.7,4.5c-1.4,1-2.3,2.9-2.1,4.6c1.8-0.1,3,2,2.6,3.7
				c-0.4,1.5-1.5,2.6-2.9,3.4l-2.7-0.5c-2.6-0.2-3.3-4.6-0.9-5.6c-4.1,0.6-7.1,5.2-5.9,9.2c-3.3-0.1-6.6,2.1-7.8,5.3
				c-2.1-0.8-3.8-2.7-4.3-4.9c-2.6-0.2-5.2,0.2-7.7,1c0.1,3.3,0.1,6.7-0.7,9.9c-0.9,3.2-2.9,6.3-6,7.6c-0.9,0.4-1.9,0.6-2.9,0.8
				c-2.4,0.3-5-0.2-7.4-0.7c-1,1.4,1.2,3.2,2.9,2.9c1.6-0.2,3-1.2,4.6-1.4c0.1,0,0.2,0,0.3,0c3.5-0.2,5.7,3.6,7,6.9
				c-2.8-2.2-7.7-0.5-8.4,3c-1-1.6-3.3-2.2-4.9-1.4c1-0.2,1.6,1.3,1.1,2.3c-0.4,0.9-1.3,1.6-1.7,2.6c-0.7,1.9,1,3.9,1.4,5.9
				c0.6,3.4-3,6.4-6.5,6.6c-3.5,0.2-6.7-1.7-9.7-3.4c-1.9,3.6-3.3,7.5-4.1,11.5c-2.3,0.8-5.3,1.1-7.8,1.7c-3.7,0.9-9.1,1.4-9.3,5.3
				c-3.1-2.4-6-5-8.7-7.8c-3,1-6.3,1-9.3,0.2c1.4,0.7,2.7,1.3,4.1,2c-0.7,1.8-1.3,3.5-2,5.3c1.3,1,2.7,2,4,2.9
				c-1.5,6-12,6.2-13.8,0.3c-1.6-0.2-3.2-0.8-4.4-1.9c0.7-1.9,0.9-4,0.7-6c-1.7,5-8,6.2-12.5,8.9c-4.6,2.8-7.8,7.9-8.2,13.3
				c-3.3,1.1-7.2-0.3-9-3.2c-1.9-2.9-1.5-7,0.8-9.5c-3.4,0.6-6.6,1.8-9.7,3.4c-1.6,0.8-3.4,2.1-3.4,4c-0.1,1.8,3,3,3.6,1.3
				c0.5,1.6-0.9,3.6-2.6,3.6c0.6,1.8,2.3,3.1,4.1,3.1c1.2,2.9-2.4,6-5.5,5.2c-3-0.7-4.9-3.8-5.7-6.8c-3.4-1-7.3,0.7-9,3.7
				c3.6,1.1,7,2.9,10,5.2c0.1,3.2-3.3,5.9-6.4,5.2c0.4,1.8,0.2,3.7-0.5,5.4c-1.5-0.4-3.1-0.9-4.6-1.3l-2.8-0.5
				c0.2-0.3,0.5-0.5,0.7-0.7c-2.1-1.2-4.1,0-5.8,1.9l-2.5-1.3c-2.5-0.7-4.9-1.4-7.3-2.2c0.7-1.4,1.3-2.8,2-4.1
				c-3.8-5.1-7.7-10.1-11.5-15.2c-6.5-3.7-11.6-9.6-14.4-16.5c-2.8,5.1,1.2,12.5,7,13c-2.4,3.2-6.8,4.6-10.6,3.3
				c5.7,2.6,9.5,8.8,9.3,15c-0.2,3.4,0.6,8.7,3.8,7.6c-2.7,1.9-1.6,6-0.5,9.1c1.1,3.1,1.1,7.7-2.1,8.4c-3.1,0.7-5.1-3.2-5.8-6.3
				c-1.9-0.4-3.7,1.2-4.1,3.1l-2.5-0.4c0.1-0.2,0.2-0.5,0.2-0.7c-2.8,0.9-4.5,4.2-3.5,6.9c-2.4-0.1-4.8-0.2-7.2-0.3
				c-0.8-2.4-1.6-4.8-2.4-7.2c-4,0.4-4.9,5.7-4.5,9.7c0.4,4,0.3,9.1-3.4,10.5c-2.4-0.5-4.1-3.3-3.3-5.6c-6.4,1.4-11.7,6.9-12.8,13.4
				c-5,0.1-10.1-2.2-13.3-6c2.2,3.6,0.2,9.1-3.9,10.3c-4.1,1.2-8.8-2.2-8.9-6.5c-4.3,3.4-11.4,2.2-14.3-2.5c-0.4,2.7,1.4,5.5,4,6.2
				c-1.4,1.8-2.8,3.6-4.2,5.5c2.5,1.2,5.4,1.8,8.2,1.8c-3.1,2.3-6.3,4.5-9.4,6.8c-1.9-2.2-4.6-3.7-7.5-4.2c-2,2-3.5,4.4-4.3,7.1
				c-5.3-0.5-10.5-1.1-15.2,2c-1.6,1.1-3.1,2.5-5,3.1c-4.8,1.4-10.1-3.3-14.6-1c-3,1.5-4.1,5.6-7.3,6.6c-2.6,0.8-5.5-0.8-7.9,0.4
				c-1.4,0.7-2.3,2.1-3,3.5c-3.7,7-6.3,14.5-7.7,22.3c-5.2-1.9-11.1-1.7-16.2,0.4c-0.2-1.9-1.3-3.7-2.9-4.8
				c-1.3,2.2-2.7,4.6-2.9,7.2c-0.1,2.6,1.4,5.5,4,6c2.3,0.4,4.5-1.2,6.8-1.2c3,0,5.6,3.1,5.1,6.1c-1.1,1.2-2.8,1.9-4.5,1.6
				c-1,1.8-0.1,4.5,1.8,5.3c1.9,0.8,4.4-0.4,5-2.4c1.5,2.8,3,5.7,4.6,8.5c0.6,1.1,1.2,2.4,1.2,3.6c-0.1,4.4-7.1,6.8-6.1,11
				c-4.4,0.5-8.8,1.1-13.2,1.6c-0.8,0.1-1.7,0.3-2,1c0,0.1-0.1,0.2-0.1,0.3c-4.3-1.9-9.6-1.3-13.4,1.4c-1.4-3.5-2.8-7.1-4.2-10.7
				c2.9-0.9,6.2,0.3,7.9,2.8c-1.1-4.5-5.5-8-10.2-8c0.9-1.3,0.1-3.1-0.9-4.3c-1-1.2-2.4-2.3-2.7-3.9c-0.2-1,0.6-2.2,1.4-2.6
				c0.4,0.1,0.9,0.1,1.3,0.2c-0.4-0.3-0.9-0.3-1.3-0.2c-0.7-0.1-1.3-0.2-2-0.2c0.2-2.5,0-5-0.5-7.4c-1.5,0.1-2.9,0.2-4.4,0.3
				c-1.2-9-0.2-18.3,2.7-27c0.5-1.5,1.1-3.1,2.2-4.3c1.6-1.8,4.1-2.7,6.5-2.4c0.5-1.8,0.3-3.8-0.4-5.6c-2.9,0.8-5.9,1.5-8.9,1.1
				c-3-0.4-6-2.3-6.7-5.3c-1.9-1.9-3.8-3.9-5.7-5.8c0.7-1.2,0.7-2.8,0-4.1c-2.2-0.4-3.2,3-2.1,5c1.1,2,3.1,3.6,3.4,5.8
				c0.5,3.2-2.9,5.7-6.1,6.4c-3.2,0.6-6.6,0.2-9.6,1.2c-2.9,1-5.3,3.4-8.3,3.9c-3,0.6-6.9-2.4-5.3-5.1c1.4-2.3,6.1-3.7,4.4-5.8
				c-6.4-1.7-12.9-3.3-19.3-5c-0.2-0.1-0.5-0.1-0.7-0.2c-3.1-0.8-6.4-1.7-8.8-3.8c-2.4-2.1-3.6-6-1.8-8.7c-2,0.8-4,1.6-6,2.5
				c1.8,2.5,3.6,5.1,4.3,8.1c0.7,3,0.2,6.5-2.2,8.5c-2.4,2-6.6,1.5-7.9-1.3c-0.7-1.6-0.4-3.4-0.8-5c-0.5-1.6-2.6-3-3.8-1.8
				c2.5,4.6,0.2,11.2-4.7,13.1c1.2-2.2,1.6-4.8,1.3-7.3c-3.7,2-7.4,3.9-11.1,5.9c1.2,0.8,2.4,1.5,3.6,2.2c-2,1.6-4.2,3.2-6.8,3.5
				c-2.5,0.3-5.5-1.5-5.5-4c-1.8,0-3.6,0.1-5.5,0.1c1.5,1.7,0.7,4.5-1.1,5.9c-1.7,1.4-4.1,1.8-6.2,2.1c0.2,1.7-0.2,3.4-1,4.9
				c-1.9-0.7-3.7-1.3-5.6-2c0,1.8-0.7,3.6-2,4.8c-2.1-1.8-6.2-3.2-6.9-0.5c-0.2,0.7,0,1.5,0.2,2.2c0.9,3,1.7,6.1,2.6,9.1
				c-2.2,3.7-6.7,5.7-10.9,4.9c-0.3,1.4-0.5,2.8-0.8,4.2c-2.5-0.5-4.9-1.1-7.4-1.6c1.8-1.1,2.9-3.3,2.7-5.4c-1.9-0.3-4,0.2-5.6,1.3
				c1.4,0.5,1.1,2.2,0,3.3c-0.6,0.6-1.3,1-2.1,1c-1.1,0-2.2-0.5-3.2-0.9c-1-0.5-2.1-1-3.2-1.2c-2.2-0.4-5,2-3.5,3.7
				c2,0.7,4.4,0.2,6-1.3c0.5,3.3,4.6,4.5,7.5,6.1c2.9,1.7,4.5,6.9,1.3,7.7c-3.1-2.5-6.8-4.3-10.6-5.2c-1.6-2.6-4.4-4.4-7.3-4.9
				c-0.6,3.8,0.9,7.9,3.7,10.5c-3.2,1.9-6.3,3.7-9.5,5.6c-1.2,2.1-3,3.7-5.2,4.6c2.4,4.6,4.3,11.4,0.1,14.2c-0.1,0-0.3,0.1-0.4,0.2
				c0.1-0.1,0.3-0.2,0.4-0.2c0.6-0.1,1.4,0.7,1.3,1.4c-0.2,0.9-1.1,1.5-1.9,1.9c-3.7,2-8.6,3.7-11.6,6.6c-2,1.9-4,4.6-5.7,6.8
				c-1.1,1.5-2.2,3.2-3.9,4c-1.7,0.8-4.3-0.2-4.3-2c-2.2,0.5-4.3,1.6-5.9,3.2c0.5,1.1,0.5,2.3,0.3,3.4c-2.9,1.9-1.8,6.4-3.6,9.3
				c-0.7,1.1-1.9,1.9-2.7,3c-3.2,4.2-0.1,10.3-1.4,15.4c-0.8,0.1-1.6,0.3-2.4,0.4c1.6,2.9,2.2,6.3,1.8,9.5c-1.2-0.8-2.9,0.4-3.2,1.9
				c-0.3,1.4,0.1,2.9,0,4.3c-0.2,2.7-2.5,5.1-5.2,5.4c-0.6,0.1-1.2,0.1-1.6,0.5c-0.2,0.3-0.2,0.6-0.3,0.9c-0.3,3.1-0.4,6.5,1.6,8.9
				c1,1.2,2.5,2,3.9,2.8c1.3,0.9,2.7,2,3.1,3.5c0.4,1.3-0.2,3-1.4,3.6c-0.2,0-0.4,0.1-0.6,0.2c0.2,0,0.4-0.1,0.6-0.2
				c1.4-0.2,2.8,1.1,3.8,2.4c1.2,1.5,2.5,3.1,3,4.9c0.3,1.2,0.3,2.5,0.7,3.7c1.4,3.9,6.6,4.9,9,8.3c1.2,1.8,1.6,4.1,3.3,5.5
				c0.9,0.7,2,1.1,3.1,1.5c2.1,0.7,4.1,1.3,6.2,2c13.9,4.5-1,14.6-8.7,15.6c-6.3,0.8-12.8,1.6-19.1,0.4c-5.3-1-14.2-4.2-17.5-8.9
				c-3.8-5.3-4.5-16.4-6.2-22.8c-2.8-10.8-5.6-21.7-6.8-32.8c-0.7-6.1-0.8-12.3-2.8-18.2c-1.3-3.8-3.3-7.5-2.9-11.5
				c0.2-2.6,1.5-4.9,2.5-7.2c8.1-17.5,7-31.2-1.3-48.8c-7.6-16-18.4-30.5-24.2-47.4c-3.9-11.2-5.3-23.2-10.5-33.9
				c-5.8-11.9-15.8-21.1-24.9-30.6c-10.3-10.9-19.7-22.6-28.4-34.8c-5.7-8-18.2-20.5-16.5-31.1c0.9-5.5,4.6-11.4,1.6-16.2
				c-19.2,2.2-24.4-16-32-29.8c-13.9-25-20.6-53.8-33.3-79.7c-1.9-3.8-3.9-7.8-4.4-12c-1-8.6,4.1-16.7,10.2-22.8
				c6.1-6.1,13.3-11.2,18.4-18.2c8.1-11.2,9.3-27,3.1-39.3c-2.8-5.4-7-10.8-6.2-16.9c1.3-9.7,13.4-12.8,21-18.9
				c8.4-6.8,11.6-18.2,12-29c0.5-12.5-0.8-24.8,0.1-37.3c1-13.2-0.9-26.8-3.5-39.7c-2.6-12.8-8.2-25.5-10.1-38.3
				c-0.7-4.8-0.1-9.2-1.1-14c-1.3-6-4-11.5-3.9-17.8c0.1-9.4,5.8-17.8,12.1-24.8c10.5-11.5,21.4-22.7,35.2-29.8
				c15.1-7.8,30.1-17.5,39.3-32.1c9.3-14.8,11.8-32.8,13.5-50.2c3.9-40,5-81.6-9.8-118.9c-3.5-8.9-8-17.6-14.2-24.9
				c-5-5.9-11.1-10.7-17.1-15.6c-20.3-16.2-40.7-32.5-63.4-45c-7.5-4.1-15.2-7.8-22.2-12.5c-6.8-4.6-13-10.2-19.2-15.5
				c-18.6-16.1-38.2-31-58.7-44.6c-9.3-6.2-19.2-11.9-28.3-18.3c-7-4.9-14-6.4-21.5-10.3c-3.7-2-6.6-5.1-9.9-7.6
				c-4.6-3.5-9.9-5.8-15.2-8.1c-19.3-8.4-38.9-16.8-56-29.2c-17.2-12.4-35.4-21.6-54.9-29.6c-21.6-8.9-44.3-7.6-67.2-8.3
				c-22.3-0.6-44.6-1.3-66.8-2c-3.1-0.1-6.2-0.2-9.2-0.3c-1.5,0-3.1-0.1-4.5-0.6c-2.4-0.9-4.2-3-5.4-5.2c-5-8.8-3.2-20.4,2.8-28.6
				c6-8.2,15.5-13.1,25.4-15.6c9.8-2.4,20.1-2.6,30.2-2.7c16.5-0.2,33.6,0.4,50.8,0.6c22.2,0.3,44.4,0.1,65.5-3.1
				c36.6-5.6,75.9,9.3,110.2,20.6c18,5.9,34.7,19,51.3,27.9c18.4,9.9,37.1,19.8,52.3,34.3c13.9,13.3,26.9,28.9,38.8,43.9
				c12.8,16.2,32.5,25.2,47.7,39.1c21.2,19.4,58.4,57.8,90.9,46.2c4.8-1.7,9.3-4.8,14.4-5.3c3.2-0.3,6.3,0.4,9.5,0.6
				c16.9,1.1,31-11.8,45.9-19.8c16.6-8.8,36.5-11.7,54.4-6.4c5.9,1.7,11.5,4.3,17.4,5.9c22.8,6.3,47.6-2.3,66.3-16.8
				c18.7-14.5,32.4-34.3,45.8-53.8c9.3-13.5,14-27.2,20.7-41.8c4.9-10.6,12.3-20.8,23.2-24.9c5.7-2.2,11.9-2.5,18-2.9
				c22.5-1.3,45.1-2.5,67.6-3.8c6.2-0.3,12.4-0.7,18.2-3.1c5.4-2.2,10-6.1,14.6-9.7C1941.9,989.5,1958.5,980,1976.1,973.1z"/>
			<path class="st2" d="M2379.8,1568.9c0.2,2-2.4,4-4,2.6c0-1.2-0.1-2.5-0.1-3.8c0,0,0-0.1,0-0.1l1.6-2.4
				C2378.6,1566.2,2379.7,1567.4,2379.8,1568.9z"/>
			<path class="st2" d="M2323.2,1684.1c-0.1,0.1-0.3,0.2-0.4,0.2C2322.9,1684.2,2323.1,1684.1,2323.2,1684.1z"/>
			<path class="st2" d="M2222.6,1868.4c1.3,1.4,2.6,4,0.9,5c-2.9-1-4.7-4.6-3.7-7.6l1.4-0.3
				C2221.3,1866.6,2221.9,1867.7,2222.6,1868.4z"/>
			<path class="st2" d="M2202.3,1900.7c0.7,0.8,0.8,1.8,0.7,2.8C2202.5,1902.6,2202.3,1901.7,2202.3,1900.7z"/>
			<path class="st2" d="M2191.5,1925.6c-0.2,0.1-0.4,0.2-0.6,0.3c1,1.4,0.6,3.6-0.7,4.7c-1.3,1.1-3.5,1-4.7-0.2
				c0.2-2.2,1.4-4.2,3.3-5.3L2191.5,1925.6z"/>
			<path class="st3" d="M2100.7,409.6c26.3,34.5,28.5,83.6,12.6,124c-15.3,38.9-45,70.3-63.3,107.9c-9.2,18.9-15.5,39.2-18.5,60
				c-2.7,18.9-2.8,38.1-6.3,56.8c-7.3,39-29.1,73.8-40.2,111.9c-9.7,33.2-11.2,68.4-8.9,102.9c-17.6,6.9-34.2,16.4-49.1,28
				c-4.6,3.6-9.2,7.5-14.6,9.7c-5.7,2.3-12,2.7-18.2,3.1c-22.5,1.3-45.1,2.5-67.6,3.8c-6.1,0.4-12.3,0.7-18,2.9
				c-10.9,4.2-18.3,14.3-23.2,24.9c-6.7,14.7-11.4,28.3-20.7,41.8c-13.4,19.5-27.1,39.3-45.8,53.8c-18.7,14.5-43.5,23-66.3,16.8
				c-5.9-1.6-11.5-4.2-17.4-5.9c-18-5.3-37.9-2.3-54.4,6.4c-15,7.9-29,20.9-45.9,19.8c-3.2-0.2-6.3-0.9-9.5-0.6
				c-5.1,0.5-9.5,3.6-14.4,5.3c-32.6,11.6-69.8-26.8-90.9-46.2c-15.2-13.9-34.9-22.9-47.7-39.1c-11.9-15-24.9-30.6-38.8-43.9
				c-15.2-14.6-33.9-24.5-52.3-34.3c-16.6-8.9-33.3-22-51.3-27.9c-34.3-11.3-73.7-26.2-110.2-20.6c-21.1,3.2-43.3,3.4-65.5,3.1v-0.3
				c-1.5-6.5,1.6-13.2,1.9-19.9c0.5-9.8-2.5-21.1-6-30.2c-3.5-9.1-8.7-17.5-12.8-26.3c-12.7-27.5-14.6-58.5-19.9-88.4
				c-3.5-19.7-9.3-40.2-23.6-54.2c-30-29.2-83.2-18-115.7-44.4c-6.9-5.6-12.4-12.7-19-18.7c-16.1-14.9-32.7-17.2-52.8-22.5
				c-19.9-5.3-38.6-18.1-58.5-24.6c-9.7-3.2-20.1-6-27.1-13.4c-11.7-12.5-8.8-32.7-2-48.3c6.8-15.7,16.9-30.6,17.8-47.7
				c0.5-8.9-1.7-17.7-2.5-26.6c-1.2-13.3,0.6-27.2,7.2-38.9c19.4-34.7,63.4-48.6,82.6-84.2c6.8-12.6,9.6-27.4,18.9-38.3
				c2.8-3.2,5.9-5.9,9.4-8.1c13.7-8.8,31.9-10.7,48.6-12c65.6-5,131.2-11.7,196.5-20c30.1-3.8,60.7-8.1,88.4-20.5
				c12.8-5.7,24.9-13.2,38.2-17.5c8.9-2.9,18.2-4.4,27.4-5.8c69.3-10.9,138.5-21.9,207.8-32.8c34.6-5.5,69.3-10.9,103.9-16.4
				c34-5.4,63.7,3.3,94.8,17.6c42.6,19.6,82.7,46.4,128.5,56.4c31.7,6.9,64.7,5.5,96.4,11.9c23.8,4.9,46.5,14.1,69.1,23.3
				c33.3,13.6,66.8,27.2,98,45.2C2068.9,379.3,2087.4,392.1,2100.7,409.6z"/>
			<path class="st2" d="M2025.2,2030.8c0.4,2.9-4.3,4.5-6.3,2.3c-1.8-1.9-1.3-5.1,0.4-7.2l2.8,0.5
				C2021.6,2028.4,2023.2,2030.7,2025.2,2030.8z"/>
			<path class="st2" d="M2011.8,2025.9l2.5,1.3c-1.1,1.2-2.1,2.7-2.8,4c-2,3.4-8,5.7-8.8,1.9
				C2004.7,2029.7,2008,2027.1,2011.8,2025.9z"/>
			<path class="st2" d="M1977.8,2043c3-0.1,3.9,5.1,1.2,6.4c-2.7,1.4-6.2-1.3-6.2-4.3c1-1.3,1.8-2.9,2.4-4.5l2.5,0.4
				C1977.4,2041.6,1977.5,2042.3,1977.8,2043z"/>
			<path class="st1" d="M1859.8,2198.5c0,0.6,0,1.1,0,1.7c-3.2-0.3-6.6,1.1-8.7,3.5c-0.8,0.9-1.5,2.1-1.1,3.3
				c-1.4,0.6-2.9-0.1-3.6-1.4c-0.8-1.5-0.1-2.4,1.2-3.2c-0.2-0.9-1.4-1.5-2.2-1.1c-0.1,2.9-0.6,5.8-1.3,8.7c-0.2,0.8-0.5,1.5-1,2.2
				c-0.6,0.7-1.3,1.1-2.1,1.5c-3.1,2-5.1,5.7-5.1,9.4c0,0.9,0.1,1.9-0.2,2.8c-0.8,3.1-4.8,3.6-8,3.6c1.7,0.9,3.6,2.1,3.9,3.9
				c0.1,0.8,0,1.6-0.2,2.4c-0.9,4.5-2,8.9-3.3,13.3c-0.5,0.5-0.7,1.1-0.5,1.8l0.8,1c0.6,2.7-1.5,5.3-3.9,6.5
				c-2.4,1.3-5.2,1.6-7.8,2.7c-4.7,2-8.3,6.4-9.2,11.4c-0.3,1.5-0.4,3.2-1.2,4.5c-0.8,1.3-2.7,2.2-3.9,1.3c-0.5-0.4-0.8-1-1.4-1.3
				c-0.7-0.4-1.5-0.2-2.2-0.1c-2.1,0.4-4.2,0.8-6.4,1.2c-1,0.2-2,0.4-2.8,1c-3.1,2.4,0.2,8.4-2.8,11c-0.5-1.4-2-2.4-3.5-2.1
				c-2.6,0-1,3.1-1.4,3.8c-0.3,0.4-1.6,0.2-2,0.2c-1.5-0.3-0.8-0.6-1.7-1.8c-0.4-0.5-1-0.9-1.7-0.7c-0.9,0.3-1.1,1.6-2,2
				c-0.6,0.3-1.5,0.1-1.8-0.6c-0.3-0.6,0-1.5,0.6-1.8c-0.5-1.7-1.3-3.7-3.1-4c-1-0.2-1.9,0.3-2.9,0.5c-3.1,0.6-6.3-1.1-9.4-0.4
				c-1.2,0.3-2.5,1-3.7,0.5c-1.4-0.5-1.8-2.2-1.8-3.7c-2.7,0-5.3,0.4-8-0.1c-2.4-0.4-4.7-1.3-6.8-2.5c-1.7-0.9-2.7-2.5-4.2-3.4
				c-2-1.2-5-1.4-7.2-2c-0.4-0.1-0.9-0.2-1.2-0.6c-0.3-0.4-0.3-1-0.2-1.5c0.6-4.7,2.3-10.1-0.6-13.9c-1.2-1.7-3.3-3.1-3.2-5.1
				c0.1-1.4,1.2-2.5,1.7-3.8c1.2-4-4.2-8.9-1.3-11.9c1.2,1,2.6-1.5,1.8-2.9c-0.8-1.4-2.5-2.2-2.9-3.8c-0.5-2.3,2.2-4.3,2-6.7
				c3.5,0.1,5.9-3,8.7-5.2c0.3-0.2,0.6-0.5,1-0.7c1.5-1,3.3-1.6,4.8-2.6c2.5-1.6,4.3-4.3,5-7.2c0.7,1.4,3,0.8,3.9-0.6
				c0.9-1.3,1.2-3.1,2.5-4.1c1,0.5,2,0.9,3,1.4c-0.3-1.1,0.3-1.9,1.2-2.6c0.7-0.6,1.6-1,2.5-1.3c1.9-0.6,4.2-1.9,3.9-3.8
				c-2.9,0.1-5.8,1.1-8.2,2.8c-1-3.2,1-6.9,4.2-7.9c0.1-1.1,0.1-2.2,0.2-3.3c3.4,1,6.7,2,10.1,3c2.5,0.8,5.5,1.4,7.5-0.3
				c-2.5-2.7-0.6-7.6,2.9-8.9s7.4,0.2,10.3,2.5c0-1.2,0.7-2.4,1.8-2.9c1,0.9,2,1.8,2.9,2.7c0.2-1.3,1.8-2.2,3-1.7
				c1.2,0.5,1.7,2.2,1,3.3c0.2,0.8,1.6,0.5,2-0.3c0.3-0.8,0.2-1.8,0.7-2.5c1.2-1.7,4.3-0.2,5.9-1.7c0.8-0.8,0.8-2.1,1.4-3
				c1.1-1.6,3.4-1.6,5.3-1.1c1.9,0.5,3.8,1.4,5.7,0.9c1-0.2,1.8-0.8,2.8-1.1c3.7-1,7.7,3.4,11.1,1.7c1-1.6,1.4-3.7,0.9-5.6
				c2.1-0.3,4.1-1.5,5.3-3.3c0.9,1.5,1.9,3.1,2.8,4.6c2.4,2.4,6.1,3.5,9.4,2.8c1.4-0.3,2.9,0.4,3.8,1.5c0.2,0.2,1.7,3.4,0.9,3.5
				c1-0.1,2,0.7,2.4,1.6c0.5,0.9,0.5,2,0.6,3c0.1,2.1,0.3,4.2,0.4,6.4c0.1,1.1,0.2,2.2,0.8,3
				C1857.6,2197.7,1858.7,2198.1,1859.8,2198.5z"/>
			<path class="st2" d="M1831.9,2248.9c1.2,1.8-1.8,4.5-3.4,3l-0.8-1c0.2-0.6,0.3-1.2,0.5-1.8
				C1829.1,2248,1831,2247.6,1831.9,2248.9z"/>
			<path class="st4" d="M1828.1,2249.1c-0.2,0.6-0.3,1.2-0.5,1.8C1827.5,2250.2,1827.7,2249.5,1828.1,2249.1z"/>
			<path class="st2" d="M1784.1,2141.7c-0.4-0.1-0.9-0.1-1.3-0.2C1783.2,2141.4,1783.7,2141.4,1784.1,2141.7z"/>
			<path class="st2" d="M1598.2,2172.4c-0.1,0.1-0.3,0.2-0.4,0.2C1597.9,2172.5,1598.1,2172.4,1598.2,2172.4z"/>
			<path class="st2" d="M1555,2267.1c-0.2,0.1-0.4,0.2-0.6,0.2C1554.6,2267.2,1554.8,2267.2,1555,2267.1z"/>
			<path class="st5" d="M1050.2,923.8c3.5,9,6.5,20.4,6,30.2c-0.3,6.7-3.5,13.4-1.9,19.9v0.3c-17.1-0.2-34.2-0.8-50.8-0.6
				c-10.1,0.1-20.4,0.3-30.2,2.7c-9.8,2.4-19.4,7.4-25.4,15.6c-6,8.1-7.8,19.8-2.8,28.6c1.3,2.2,3,4.3,5.4,5.2
				c1.4,0.5,3,0.6,4.5,0.6c3.1,0.1,6.2,0.2,9.2,0.3l0,0.6c-37.2,4.6-72.5-20.5-109.9-19.3c-19.7,0.6-38.6,8.6-58.4,9.6
				c-16.2,0.8-32.5-3.1-48.5-0.1c-9.1,1.7-17.7,5.6-26.2,9.5c-82.8,37.7-168.8,75.5-259.7,77.3c-52,1-104.3-10.2-150.7-33.7
				c-17.1-8.6-33.5-19-46.8-32.8c-18.4-19.1-30.2-44-49.3-62.5c-26.9-26-65.8-36.5-103.2-36.2c-37.4,0.2-73.5,20.1-110.8,20.1V365.2
				c55.5,0,109.9,12.1,164.3,22.8c79.8,15.6,161.4,20.1,242.7,18.1c23.6-0.6,47.2-1.8,70.8-2.9c43.2-2.1,86.4-4.2,129.6-6.4
				c30.2-1.5,60.6-3,90.4-8.1c30-5.1,59.4-14,87.8-24.7c21.7-8.2,44-16.2,65.5-25.3l0.3,0.4c-3.5,2.2-6.6,4.9-9.4,8.1
				c-9.3,10.8-12.2,25.7-18.9,38.3c-19.2,35.6-63.2,49.5-82.6,84.2c-6.5,11.7-8.4,25.6-7.2,38.9c0.8,8.9,2.9,17.7,2.5,26.6
				c-0.9,17.1-11,32-17.8,47.7c-6.8,15.7-9.7,35.8,2,48.3c7,7.5,17.4,10.2,27.1,13.4c19.9,6.5,38.5,19.2,58.5,24.6
				c20,5.3,36.7,7.6,52.8,22.5c6.5,6,12.1,13.1,19,18.7c32.4,26.4,85.7,15.2,115.7,44.4c14.3,14,20.1,34.5,23.6,54.2
				c5.4,29.8,7.2,60.8,19.9,88.4C1041.5,906.3,1046.6,914.7,1050.2,923.8z"/>
		</g>
		<g>
			<path class="st6" d="M1555,2267.1c-0.2,0.1-0.4,0.2-0.6,0.2C1554.6,2267.2,1554.8,2267.2,1555,2267.1z"/>
			<path class="st6" d="M1598.2,2172.4c0.6-0.1,1.4,0.7,1.3,1.4c-0.2,0.9-1.1,1.5-1.9,1.9c-3.7,2-8.6,3.7-11.6,6.6
				c-2,1.9-4,4.6-5.7,6.8c-1.1,1.5-2.2,3.2-3.9,4c-1.7,0.8-4.3-0.2-4.3-2c-2.2,0.5-4.3,1.6-5.9,3.2c0.5,1.1,0.5,2.3,0.3,3.4
				c-2.9,1.9-1.8,6.4-3.6,9.3c-0.7,1.1-1.9,1.9-2.7,3c-3.2,4.2-0.1,10.3-1.4,15.4c-0.8,0.1-1.6,0.3-2.4,0.4c1.6,2.9,2.2,6.3,1.8,9.5
				c-1.2-0.8-2.9,0.4-3.2,1.9c-0.3,1.4,0.1,2.9,0,4.3c-0.2,2.7-2.5,5.1-5.2,5.4c-0.6,0.1-1.2,0.1-1.6,0.5c-0.2,0.3-0.2,0.6-0.3,0.9
				c-0.3,3.1-0.4,6.5,1.6,8.9c1,1.2,2.5,2,3.9,2.8c1.3,0.9,2.7,2,3.1,3.5c0.4,1.3-0.2,3-1.4,3.6"/>
			<path class="st6" d="M1598.2,2172.4c-0.1,0.1-0.3,0.2-0.4,0.2C1597.9,2172.5,1598.1,2172.4,1598.2,2172.4z"/>
			<path class="st6" d="M1782.8,2141.6c-0.7-0.1-1.3-0.2-2-0.2c0.2-2.5,0-5-0.5-7.4c-1.5,0.1-2.9,0.2-4.4,0.3
				c-1.2-9-0.2-18.3,2.7-27c0.5-1.5,1.1-3.1,2.2-4.3c1.6-1.8,4.1-2.7,6.5-2.4c0.5-1.8,0.3-3.8-0.4-5.6c-2.9,0.8-5.9,1.5-8.9,1.1
				c-3-0.4-6-2.3-6.7-5.3c-1.9-1.9-3.8-3.9-5.7-5.8c0.7-1.2,0.7-2.8,0-4.1c-2.2-0.4-3.2,3-2.1,5c1.1,2,3.1,3.6,3.4,5.8
				c0.5,3.2-2.9,5.7-6.1,6.4c-3.2,0.6-6.6,0.2-9.6,1.2c-2.9,1-5.3,3.4-8.3,3.9c-3,0.6-6.9-2.4-5.3-5.1c1.4-2.3,6.1-3.7,4.4-5.8
				c-6.4-1.7-12.9-3.3-19.3-5c-0.2-0.1-0.5-0.1-0.7-0.2c-3.1-0.8-6.4-1.7-8.8-3.8c-2.4-2.1-3.6-6-1.8-8.7c-2,0.8-4,1.6-6,2.5
				c1.8,2.5,3.6,5.1,4.3,8.1c0.7,3,0.2,6.5-2.2,8.5c-2.4,2-6.6,1.5-7.9-1.3c-0.7-1.6-0.4-3.4-0.8-5c-0.5-1.6-2.6-3-3.8-1.8
				c2.5,4.6,0.2,11.2-4.7,13.1c1.2-2.2,1.6-4.8,1.3-7.3c-3.7,2-7.4,3.9-11.1,5.9c1.2,0.8,2.4,1.5,3.6,2.2c-2,1.6-4.2,3.2-6.8,3.5
				c-2.5,0.3-5.5-1.5-5.5-4c-1.8,0-3.6,0.1-5.5,0.1c1.5,1.7,0.7,4.5-1.1,5.9c-1.7,1.4-4.1,1.8-6.2,2.1c0.2,1.7-0.2,3.4-1,4.9
				c-1.9-0.7-3.7-1.3-5.6-2c0,1.8-0.7,3.6-2,4.8c-2.1-1.8-6.2-3.2-6.9-0.5c-0.2,0.7,0,1.5,0.2,2.2c0.9,3,1.7,6.1,2.6,9.1
				c-2.2,3.7-6.7,5.7-10.9,4.9c-0.3,1.4-0.5,2.8-0.8,4.2c-2.5-0.5-4.9-1.1-7.4-1.6c1.8-1.1,2.9-3.3,2.7-5.4c-1.9-0.3-4,0.2-5.6,1.3
				c1.4,0.5,1.1,2.2,0,3.3c-0.6,0.6-1.3,1-2.1,1c-1.1,0-2.2-0.5-3.2-0.9c-1-0.5-2.1-1-3.2-1.2c-2.2-0.4-5,2-3.5,3.7
				c2,0.7,4.4,0.2,6-1.3c0.5,3.3,4.6,4.5,7.5,6.1c2.9,1.7,4.5,6.9,1.3,7.7c-3.1-2.5-6.8-4.3-10.6-5.2c-1.6-2.6-4.4-4.4-7.3-4.9
				c-0.6,3.8,0.9,7.9,3.7,10.5c-3.2,1.9-6.3,3.7-9.5,5.6c-1.2,2.1-3,3.7-5.2,4.6c2.4,4.6,4.3,11.4,0.1,14.2"/>
			<path class="st6" d="M1782.8,2141.6c0.4-0.2,0.9-0.2,1.3,0.2C1783.7,2141.7,1783.2,2141.6,1782.8,2141.6z"/>
			<path class="st6" d="M1804.7,2166.7c-4.3-1.9-9.6-1.3-13.4,1.4c-1.4-3.5-2.8-7.1-4.2-10.7c2.9-0.9,6.2,0.3,7.9,2.8
				c-1.1-4.5-5.5-8-10.2-8c0.9-1.3,0.1-3.1-0.9-4.3c-1-1.2-2.4-2.3-2.7-3.9c-0.2-1,0.6-2.2,1.4-2.6"/>
			<path class="st6" d="M1804.7,2166.7c0,0.6,0.9,1.2,1.2,0.6C1805.5,2167.1,1805.1,2166.9,1804.7,2166.7z"/>
			<path class="st6" d="M2203,1903.5c-0.1,0.8-0.4,1.7-0.8,2.5c-0.8,1.7-1.9,3.3-2,5.2c-0.1,1.7,0.8,3.3,0.8,5.1
				c0.1,1.7-1.3,3.8-2.9,3.3c1.4-2.4,1.2-5.6-0.5-7.8c-1.7-2.2-4.8-3.2-7.5-2.3c0.9,1.7,2.2,3.3,3.7,4.5c-1.4,1-2.3,2.9-2.1,4.6
				c1.8-0.1,3,2,2.6,3.7c-0.4,1.5-1.5,2.6-2.9,3.4c-0.2,0.1-0.4,0.2-0.6,0.3c1,1.4,0.6,3.6-0.7,4.7c-1.3,1.1-3.5,1-4.7-0.2
				c0.2-2.2,1.4-4.2,3.3-5.3c-2.6-0.2-3.3-4.6-0.9-5.6c-4.1,0.6-7.1,5.2-5.9,9.2c-3.3-0.1-6.6,2.1-7.8,5.3c-2.1-0.8-3.8-2.7-4.3-4.9
				c-2.6-0.2-5.2,0.2-7.7,1c0.1,3.3,0.1,6.7-0.7,9.9c-0.9,3.2-2.9,6.3-6,7.6c-0.9,0.4-1.9,0.6-2.9,0.8c-2.4,0.3-5-0.2-7.4-0.7
				c-1,1.4,1.2,3.2,2.9,2.9c1.6-0.2,3-1.2,4.6-1.4c0.1,0,0.2,0,0.3,0c3.5-0.2,5.7,3.6,7,6.9c-2.8-2.2-7.7-0.5-8.4,3
				c-1-1.6-3.3-2.2-4.9-1.4c1-0.2,1.6,1.3,1.1,2.3c-0.4,0.9-1.3,1.6-1.7,2.6c-0.7,1.9,1,3.9,1.4,5.9c0.6,3.4-3,6.4-6.5,6.6
				c-3.5,0.2-6.7-1.7-9.7-3.4c-1.9,3.6-3.3,7.5-4.1,11.5c-2.3,0.8-5.3,1.1-7.8,1.7c-3.7,0.9-9.1,1.4-9.3,5.3c-3.1-2.4-6-5-8.7-7.8
				c-3,1-6.3,1-9.3,0.2c1.4,0.7,2.7,1.3,4.1,2c-0.7,1.8-1.3,3.5-2,5.3c1.3,1,2.7,2,4,2.9c-1.5,6-12,6.2-13.8,0.3
				c-1.6-0.2-3.2-0.8-4.4-1.9c0.7-1.9,0.9-4,0.7-6c-1.7,5-8,6.2-12.5,8.9c-4.6,2.8-7.8,7.9-8.2,13.3c-3.3,1.1-7.2-0.3-9-3.2
				c-1.9-2.9-1.5-7,0.8-9.5c-3.4,0.6-6.6,1.8-9.7,3.4c-1.6,0.8-3.4,2.1-3.4,4c-0.1,1.8,3,3,3.6,1.3c0.5,1.6-0.9,3.6-2.6,3.6
				c0.6,1.8,2.3,3.1,4.1,3.1c1.2,2.9-2.4,6-5.5,5.2c-3-0.7-4.9-3.8-5.7-6.8c-3.4-1-7.3,0.7-9,3.7c3.6,1.1,7,2.9,10,5.2
				c0.1,3.2-3.3,5.9-6.4,5.2c0.4,1.8,0.2,3.7-0.5,5.4c-1.5-0.4-3.1-0.9-4.6-1.3c-0.6,2,1,4.2,3.1,4.3c0.4,2.9-4.3,4.5-6.3,2.3
				c-1.8-1.9-1.3-5.1,0.4-7.2c0.2-0.3,0.5-0.5,0.7-0.7c-2.1-1.2-4.1,0-5.8,1.9c-1.1,1.2-2.1,2.7-2.8,4c-2,3.4-8,5.7-8.8,1.9
				c2-3.4,5.4-6,9.1-7.2c-2.5-0.7-4.9-1.4-7.3-2.2c0.7-1.4,1.3-2.8,2-4.1c-3.8-5.1-7.7-10.1-11.5-15.2c-6.5-3.7-11.6-9.6-14.4-16.5
				c-2.8,5.1,1.2,12.5,7,13c-2.4,3.2-6.8,4.6-10.6,3.3c5.7,2.6,9.5,8.8,9.3,15c-0.2,3.4,0.6,8.7,3.8,7.6c-2.7,1.9-1.6,6-0.5,9.1
				c1.1,3.1,1.1,7.7-2.1,8.4c-3.1,0.7-5.1-3.2-5.8-6.3c-1.9-0.4-3.7,1.2-4.1,3.1c-0.1,0.7-0.1,1.4,0.2,2c3-0.1,3.9,5.1,1.2,6.4
				c-2.7,1.4-6.2-1.3-6.2-4.3c1-1.3,1.8-2.9,2.4-4.5c0.1-0.2,0.2-0.5,0.2-0.7c-2.8,0.9-4.5,4.2-3.5,6.9c-2.4-0.1-4.8-0.2-7.2-0.3
				c-0.8-2.4-1.6-4.8-2.4-7.2c-4,0.4-4.9,5.7-4.5,9.7c0.4,4,0.3,9.1-3.4,10.5c-2.4-0.5-4.1-3.3-3.3-5.6c-6.4,1.4-11.7,6.9-12.8,13.4
				c-5,0.1-10.1-2.2-13.3-6c2.2,3.6,0.2,9.1-3.9,10.3c-4.1,1.2-8.8-2.2-8.9-6.5c-4.3,3.4-11.4,2.2-14.3-2.5c-0.4,2.7,1.4,5.5,4,6.2
				c-1.4,1.8-2.8,3.6-4.2,5.5c2.5,1.2,5.4,1.8,8.2,1.8c-3.1,2.3-6.3,4.5-9.4,6.8c-1.9-2.2-4.6-3.7-7.5-4.2c-2,2-3.5,4.4-4.3,7.1
				c-5.3-0.5-10.5-1.1-15.2,2c-1.6,1.1-3.1,2.5-5,3.1c-4.8,1.4-10.1-3.3-14.6-1c-3,1.5-4.1,5.6-7.3,6.6c-2.6,0.8-5.5-0.8-7.9,0.4
				c-1.4,0.7-2.3,2.1-3,3.5c-3.7,7-6.3,14.5-7.7,22.3c-5.2-1.9-11.1-1.7-16.2,0.4c-0.2-1.9-1.3-3.7-2.9-4.8
				c-1.3,2.2-2.7,4.6-2.9,7.2c-0.1,2.6,1.4,5.5,4,6c2.3,0.4,4.5-1.2,6.8-1.2c3,0,5.6,3.1,5.1,6.1c-1.1,1.2-2.8,1.9-4.5,1.6
				c-1,1.8-0.1,4.5,1.8,5.3c1.9,0.8,4.4-0.4,5-2.4c1.5,2.8,3,5.7,4.6,8.5c0.6,1.1,1.2,2.4,1.2,3.6c-0.1,4.4-7.1,6.8-6.1,11
				c-4.4,0.5-8.8,1.1-13.2,1.6c-0.8,0.1-1.7,0.3-2,1c0,0.1-0.1,0.2-0.1,0.3"/>
			<path class="st6" d="M2203,1903.5c-0.5-0.9-0.7-1.8-0.7-2.8C2203,1901.4,2203.1,1902.5,2203,1903.5z"/>
			<path class="st6" d="M2323.2,1684.1c0.5-0.2,1.1-0.1,1.5,0.1c0.1,2.1,0.2,4.3,0.3,6.4c0,0.5,0,1.1-0.2,1.5
				c-0.4,0.7-1.3,0.9-2.2,1.1c-1.5,0.3-3.2,0.5-4.4-0.4c-0.4-0.3-0.8-0.7-1.2-1.1c-0.8-0.6-1.8-0.9-2.8-1.3c-0.9-0.4-1.7-0.8-2-1.8
				c-0.2-0.6-0.3-1.4-0.9-1.5c-0.4,0-0.7,0.3-0.9,0.5c-0.8,0.9-1.6,1.8-2.3,2.6c-0.6,0.7-1.2,1.4-1.4,2.3c-0.1,0.9,0.6,2,1.5,1.9
				c0.6-1.3,1.4-2.8,2.8-3.3c1-0.2,2-0.2,3,0.1c0.9,0.2,1.7,0.7,2.4,1.2c0.7,0.6,1.3,1.3,1.8,2.1c0.9,1.3,1.7,2.9,1.3,4.5
				c-0.3,1.3-1.6,2.4-3,2.5c-1.4,0.1-2.8-0.8-3.3-2c-0.1,1.1-0.1,2.2-0.1,3.3c0,0.2,0,0.4,0,0.7c-0.1,2.7-0.2,5.4-0.8,8
				c-0.1,0.6-0.4,1.3-0.9,1.6c-1.3,0.6-3.2-1.2-4,0c-0.2,0.3-0.2,0.8-0.4,1.2c-0.6,1.1-2.3,0.4-3.4,0.9c-1,0.5-1.1,2.3-0.1,2.8
				c0.9,0.5,2,0,3-0.2c1-0.2,2.4,0.2,2.4,1.3c-0.1,0.7-0.8,1.1-1.4,1.1c-0.1,0-0.1,0-0.2,0c-0.6,0-1.2-0.2-1.7-0.3
				c-1-0.2-2.3-0.1-2.9,0.7c-0.7,0.8-0.1,2.4,1,2.3c0.3,0,0.5-0.2,0.8-0.3c0.9-0.4,1.9-0.6,2.9-0.6c0.6,0,1.3,0.2,1.9,0.4
				c0.2,0.1,0.5,0.2,0.6,0.4c0.1,0.2,0.1,0.4,0.1,0.5c-0.1,1.2-0.3,2.6-0.2,3.8c0.1,0.5,0.6,1.5,0.4,1.9c-0.6,1-6.2,2-7.4,2.4
				c-1.2,1.9-2.3,3.7-3.5,5.6c-0.6,0.9-2,0.6-2.8-0.3c-0.3-0.3-0.5-0.7-0.6-1c-0.4-1.5,0.2-3.1-0.1-4.6c-0.4-2.7-3.7-4.6-6.3-3.5
				c-1,0.4-1.9,1.2-3,1.3c-2.9,0.2-5.6-4.5-7.7-2.5c2.6,2,3.8,5.7,2.8,8.8c3.7-2.8,9.6-1.3,12.2,2.4c0.6,0.8,0.9,1.7,1.1,2.7
				c0.1,0.6,0.2,1.2-0.1,1.8c-0.4,0.7-1,0.8-1.7,0.8c-1.4,0-3.2-0.7-4.6,0c-1.4,0.7-1.6,2.7-0.8,4c0.8,1.3,2.2,2.1,3.6,2.8
				c0.6-2,1.2-4.1,2.8-5.4c0.1-0.1,0.2-0.2,0.3-0.2c1.8-1.2,5.1-0.1,4.8,2.1c1.2-0.2,2.4-0.4,3.6-0.7c0.4,1.5-1.2,2.9-2.7,3.4
				c-1.5,0.6-3.2,1-4,2.3c-0.4,0.6-0.5,1.3-1,1.8c-0.6,0.5-1.4,0.6-2.2,0.7c-3.4,0.7-5.8,4.4-5.1,7.8c0.2,0.9,0.6,1.9,0.4,2.8
				c-0.1,0.6-0.5,1.1-0.6,1.6c-0.3,2.8,5,2,6.5,4.3c-1.3,4-3.5,7.7-6.2,10.8c2.3,1.1,3.5,4.1,2.6,6.6c-0.9,2.4-3.8,3.9-6.3,3.3
				c0.7,1.5,1.5,3.1,2.2,4.6c0.7-1.4,2.6-1.9,4.1-1.4s2.5,1.8,3.4,3.2c1.5,2.4,2.3,5.2,2.7,8c0.1,0.6,0.1,1.3-0.2,1.8
				c-0.3,0.5-0.9,0.7-1.4,0.9c-1.8,0.6-3.7,1.1-5.4,0.4c-1.7-0.7-2.6-3.3-1.1-4.4c-2.4,0.2-4.3-1.8-6.5-2.7
				c-2.2-0.9-5.8,0.6-4.8,2.8c1.3,0.1,2.2,1.7,1.6,2.8c-1.7,0.3-3.6-1-3.9-2.8c-2.4,0.7-5,1.8-5.7,4.2c-0.8,2.3,2.2,5.3,4.1,3.6
				c-0.1,1-0.3,2-0.4,3c0.3,1,1.8,0,2.5-0.8c1.4-1.5,4.2-1.7,5.4,0c1.2,1.7-0.3,4.6-2.3,4.2c0.5,0.8,1,1.6,1.5,2.3
				c-2.7,2.3-7.3,2-9.7-0.7c-0.3,2.1-0.6,4.2-0.9,6.2c-0.9,0.7-2.5,0.4-3.1-0.6c-0.6-1-0.1-2.5,1-3c-0.9-1.8-4-1.7-4.7,0.2
				c-1.1-0.7-1.8-1.9-1.8-3.2c-1.3,0.3-2.6,0.6-4,0.9c2.1,1.1,4.2,2.6,4.8,4.8c0.6,2.3-1.6,5.1-3.8,4.2c-0.3,1.4,1.4,2.4,2.8,2.4
				c1.4,0,2.8-0.6,4.2-0.3c3,0.6,3.4,5.7,0.6,6.8c-0.6-0.6-1.2-1.1-1.8-1.7c-1.2,0-2.2,1.2-2,2.3c1.3-0.4,2.9,0.4,3.4,1.7
				c-3.9,0.2-8.1,0.5-11.2,2.9c-0.5,0.4-1.1,0.9-1.7,1.1c-0.1,0-0.3,0-0.4,0c-1.8,0-2.6-2.6-2.7-4.5c-0.6,1.5-1.2,3.1-1.8,4.6
				c-0.4,1.1-0.8,2.4-0.2,3.3c1.1,1.8,3.9,0.4,5.4-1c1.6,0.2,2.5,2.2,2.3,3.8c-0.3,1.6-1.4,3-2.4,4.2c-1-0.8-2.6-0.3-3.1,0.8
				s0.4,2.6,1.6,2.8c0.6,2.5-1.4,6.2-4.2,6.5c-1.8,0.1-1.3-1-2.5-2.2c-1-1-2.4-1.6-3.7-1.7c-2.7-0.1-5.1,1.2-7.5,2.4
				c-2.6,1.2-5.2,2.2-7.9,3.1c0.7-1.6-0.6-3.6-2.3-3.6c-0.9,0.3-1.1,1.1-1,2.1c0.2,1,0.7,2.1,1.4,2.8c1.3,1.4,2.6,4,0.9,5
				c-2.9-1-4.7-4.6-3.7-7.6c-1.6,0.7-3.2,1.5-4.8,2.2c0.9,0.6,1.7,1.2,2.6,1.8c-0.1,1-0.2,2-0.3,3c-3.8,1.1-7.8,1.7-11.8,1.7
				c-0.1,2.5,2.9,3.9,5.4,3.6c2.4-0.3,4.7-1.6,7.1-1.7c0.1,1.1,0.2,2.2,0.3,3.4c1.3-1.7,4.3-0.5,4.9,1.5c0.6,2-0.5,4.2-1.9,5.8
				c-1.8,2-4.8,3.4-7.2,2.1c0.6,3.9,0.1,8-1.6,11.7c-1.6,0.4-3.2,0.6-4.8,0.4c0.6,1.7,0.4,3.7-0.6,5.2c-1.8-0.2-3.3-1.4-4.1-3"/>
			<path class="st6" d="M2323.2,1684.1c-0.1,0.1-0.3,0.2-0.4,0.2C2322.9,1684.2,2323.1,1684.1,2323.2,1684.1z"/>
			<path class="st6" d="M2326,1642.4L2326,1642.4c0.4,0,0.4,0.7,0.6,1.1c0.2,0.6,1.1,0.6,1.7,0.3c0.6-0.3,1.1-0.7,1.8-0.7
				c0.8,0.1,1.3,0.9,2,1.1c0.8,0.2,1.8-0.3,2.4,0.2c0.2,0.2,0.3,0.4,0.4,0.6c0.3,0.9,0.3,1.8,0.3,2.7c0,0.7-0.1,1.4-0.3,2.1
				c-0.2,0.4-0.4,0.7-0.7,1c-0.5,0.7-1.1,1.4-1.6,2.1c-0.8,1-1.7,2.2-1.9,3.4c-0.2,0.9,0.3,2-0.3,2.7c-0.9,0.9-3.6,0.9-4.6,0.2
				c0.6,0.5,0.4,1.4,0.4,2.2c0.1,1.2,1,2.1,1.5,3.2c0.5,1.1,0.3,2.8-0.9,2.9c-0.5,0.1-1-0.2-1.5,0.1c-0.3,0.2-0.4,0.4-0.5,0.7
				c-0.6,1.9,0,4.2,1.6,5.4c1-0.9,2.8-0.4,3.2,0.9c0.2,0.6,0.1,1.3-0.1,1.9c-0.3,1.4-0.6,2.7-0.9,4.1c-0.1,0.2-0.1,0.5-0.3,0.7
				c-0.2,0.2-0.5,0.1-0.8,0.1c-1.2-0.2-2.5-0.3-3.7-0.5c0.8,0.8,0.5,2.4-0.5,3"/>
			<path class="st6" d="M2375.7,1567.7C2375.7,1567.8,2375.7,1567.8,2375.7,1567.7c0,1.3-1.4,2.2-2.6,2.1c-1.3-0.1-2.4-0.9-3.4-1.7
				c1.9-4,0.9-9.1-2.3-12.1c0.7,2.1,0.9,4.5,0.1,6.6c-0.8,2.1-3,3.7-5.2,3.4c-0.5-0.1-1-0.2-1.3-0.6c-0.6-0.6-0.5-1.6-0.9-2.3
				c-0.8-1.3-3.1-0.8-3.8,0.6c-0.7,1.4-0.5,3-0.2,4.6c-1.4,0.2-2.8,0.5-4.1,0.7c2.6,4.4,11.2,2,12.9,6.8c0.3,0.7,0.3,1.5,0.3,2.3
				c1.6-0.2,3.1,1.2,3.2,2.8c-1.8-0.1-3.6-0.1-5.4,0.1c-2.3,0.2-4.5,0.6-6.7,1.3c-0.7,1.7,1.9,2.8,3.6,2.4c1.1-0.3,2.2-0.8,3.3-0.9
				c0.6-0.1,1.3,0,1.9,0.3c0.1,2.8,1.4,5.2,0.3,8c-0.6,1.5-3.9,5.8-6.1,4.9c3.3,1.4,0.9,7.9,4.3,9.3c0.5,0.2,1.1,0.3,1.6,0.5
				c2.1,1.1,1,4.6,2.5,6.3c0.6,0.7,1.6,1,2.4,1.6c2.2,1.7,1.4,5.8-1.2,6.7c-1-1.4-2.1-2.8-3.6-3.5c-1.5-0.7-3.7-0.5-4.5,1
				c-0.5,2.4-0.9,4.9-1.4,7.3c-0.2,1-0.4,2.1-1.3,2.7c-1.9,1.4-4.3-1.1-5.3-3.3c-0.9-1.9-1.7-3.9-2.5-5.9c-1.4-0.1-2.8-0.5-3.9-1.3
				c-1.2,2.3-3.4,4.1-5.9,4.9c1.6,0.2,3.2,0.3,4.7,0.5c1.1,2-0.2,4.6-1.8,6.3c-1.5,1.8-3.3,3.7-3.2,6c0.1,1.4,1,2.8,0.7,4.2
				c-0.3,1.5-1.6,2.2-3,2.4c-1.1,0.2-3.2,0.4-4.2,0.2c-0.8-0.2-1.4-0.6-2.1-1c-1.9-0.9-4.2-0.7-5.8,0.6"/>
			<path class="st6" d="M2199.3,916.2C2199.2,916.2,2199.2,916.2,2199.3,916.2c-1.8,0-3.3,1.5-3.3,3.2c0,1-0.2,2.6-1.1,2.2
				c1.2,0.7,1.9,2.2,1.7,3.6c-0.9-0.5-2.2,0.3-2.5,1.3c-0.4,1-0.2,2.2-0.4,3.2c-0.5,2.7-2.8,4.5-5,6.1c-8.3,5.9-16.5,11.8-24.8,17.7
				c-3.8,1-7.4,3.3-9.9,6.3c0.4,1.8,0.4,3.8,0.2,5.6c-2.9-0.1-5.7,2-6.5,4.8c-0.5,1.8-0.2,3.6-0.6,5.4c-0.4,1.8-1.7,3.6-3.6,3.5
				c1.2,0,1.8,1.5,1.8,2.6c0,1.2-0.4,2.4-0.2,3.5c0.1,0.8,0.6,1.4,0.8,2.2c0.6,2.2-0.8,4.5-2.1,6.4c-3.3,4.8-6.6,9.7-9.9,14.5
				c-1,0.4-2.1,0.1-2.9-0.6c0.3-1.3,0.5-2.5,0.8-3.8c-1.4-0.8-2.3,1.7-3.5,2.9c-1.8,1.7-4.7-0.1-7.2-0.2c-3.1,0-5.3,2.7-7.3,5
				c-2.8,3.4-7.9,6.7-11.2,3.8c0.3-5-6-8.4-10.9-7.2c-4.9,1.2-8.6,5.2-11.9,9c0.5,2.4,1.1,4.8,1.6,7.2c-6.1,7-7.5,17.8-3.3,26.1
				c3.1,6.2,8.8,10.7,14.6,14.4c3.6,2.3,7.5,4.6,11.8,5.1c7,0.8,14.8-2.7,20.6,1.2c3.3-4.2,8.5-6.9,13.9-7.1
				c0.2,1.6-0.1,5.6,1.4,6.6c1.1,0.7,3.6-0.8,4.5,0.2c1.5,1.8,3.2,4.3,3.6,6.7c0.4,2.1,1.3,4.1,2.3,6c0.2,0.4,0.3,0.7,0.6,1
				c0.2,0.2,0.3,0.4,0.5,0.6c1.1,1.2,1.9,3.4,1.8,5c-0.2,2.2-2.3,3.5-2.7,5.3c-1,4.7-1,9.6,0.1,14.3c0.5,2,1.2,4.1,2.6,5.7
				c1.3,1.5,3.2,2.4,5,3.1c7.4,2.7,15.6,1.7,23.4,0.3c2.8-0.5,5.8-1.1,8.2-2.7c2.4-1.6,4.3-4.4,3.9-7.2c-0.1-0.8-0.4-1.7-0.4-2.5
				c-0.3-3.8,3.5-6.3,6.6-8.5c3.2-2.3,6.1-5.2,8.5-8.4c1-1.3,1.9-2.8,1.8-4.5c-0.1-1.6-1.8-3.2-3.4-2.6c1.6-0.7,3.3-1.3,4.9-2.1
				c3.4-1.6,6.6-3.6,9.5-5.8c2-1.5,3.9-3.2,6.2-4.1c4.9-2,10.5,0,15.4,1.9c1.8,0.7,3.7,1.5,5,2.9c1.3,1.5,1.8,3.8,0.5,5.3
				c4,0.3,8-0.3,11.6-2c-0.9-1.1,0.4-3,1.7-2.6c-0.7,1.8-0.2,3.9,0.9,5.4c0.6,0.8,1.5,1.2,2.1,2c0.5,0.5,0.8,1.8,1.3,2.2
				c0.5,0.3,1.1,0.3,1.6,0.3c1,0,1.9,0,2.9-0.1c0.1,0,0.3,0,0.4-0.1c0.1-0.1,0.1-0.3,0.1-0.4c0-0.5,0-1.1,0-1.6c0-0.2,0-0.4,0.1-0.5
				c0.1-0.1,0.3-0.2,0.4-0.2c2.4-0.6,4.8-0.5,7.2-1c2.9-0.6,5.9-0.4,8.8-0.1c-0.2-0.9,0.2-1.8,0.6-2.6c1.1-2.3,2.5-4.9,5-5.5
				c1.6-0.4,3.7,1.1,3.8,2.7c0.1,0.7-1.6,4.1,0.7,3.9c1.3-0.1,2.5-0.9,3.1-2.1c0.8,0.7,1.6,1.3,2.4,1.9c1.8-0.3,3.6-1,5.3-1.2
				c1.9-0.2,3.6,0.9,5.5,0.9c1.3,0,2.6-0.6,3.3-1.6c0.1-0.2,0.2-0.4,0.4-0.6c1.5-1.5,7,1,4.8,2.9c-0.6,0.5-1.4,0.4-2.1,0.6
				c-1.9,0.5-2.7,3-2,4.8c0.7,1.9,2.3,3.2,3.9,4.4c-1.3,1-2.1,2.5-2.4,4.1c-1.6-0.9-3.9-0.3-4.8,1.3c-0.9,1.6-0.2,3.8,1.3,4.7
				c0.6,0.3,1.4,0.5,2,0.8c1.9,0.9,2.9,3.2,2.4,5.1c-0.5,2-2.6,3.4-4.6,3.2c0.7,1.2,0.8,2.7,0.2,4c-1.9,0.6-3.8,1.2-5.6,1.8
				c-1.5,0.5-3.2,0.9-4.6,0.3c-1.5-0.6-2.2-2.9-0.8-3.8c1.2,0.3,2.6,0.1,3.7-0.5c-2.6,0-5.1-2-5.7-4.6c-0.8,3-2.8,5.6-5.4,7.1
				c-0.6-2.7-2.9-4.9-5.7-5.3c2,1.8-0.3,5.1-2.7,6.4c-2.4,1.3-5.5,2.9-5.2,5.6c-2,0.2-3.9,0.5-5.9,0.7c1.5,1,2.1,3.1,1.5,4.8
				c-2.6-1.3-5.2-2.6-7.8-3.8c1.4,0.7,1.5,2.7,0.8,4.2c-0.7,1.4-1.9,2.5-2.6,3.9c-5.2,1.3-10.1,4.3-13.7,8.3
				c-1.2,1.7-3.6,1.8-5.5,1.3c-2-0.5-3.8-1.4-5.8-1.5c-0.1,0-0.3,0-0.4,0c-1.9,0.2-3.9,1.6-3.7,3.5c0.1,0.7,0.5,1.4,1.1,1.6
				c1.8,0.6,2.5-2.2,2.3-4.1c0,0,0.1,0,0.1,0c1,0.2,2.1,0.4,3.1,0.6c4.3,3.1,5,10.1,1.4,14c-2-0.8-3.5-2.6-3.9-4.7
				c-2.1,1.1-3.8,2.8-5,4.8c0.7,1.5,1.4,3.1,2.1,4.6c-0.9-0.1-1.9-0.1-2.8-0.2c1.2,3.7,2.8,7.3,4.5,10.8c-5.5,2.6-11,5.3-16.5,7.9
				c-0.4,0.2-0.8,0.4-1.3,0.4c-0.1,0-0.2,0-0.2,0c-1.5-0.2-1.9-2.5-1.4-4c0.6-1.6,1.6-3.2,1.1-4.8c-3.5,0.4-7.1,0.8-10.6,1.2
				c0.1,2.1,0.1,4.1,0.2,6.1c2.5-0.3,4.9,2.1,4.6,4.6c1.9-0.5,3.8-0.6,5.8-0.4c0.2,0,0.4,0.1,0.6,0.1c-1.7,4-5.4,7.1-9.7,8
				c-1.7,1.4-1.8,4-2.2,6.2c-0.3,2.2-1.5,4.8-3.8,5c0.1,2.4,0,4.8-0.3,7.1c-1.5,0.4-3.2-1-3.1-2.6c-0.8,1.6-1.3,3.3-1.3,5.1
				c-1.3,0.4-3.2-0.8-3.2-2.2c-3.9,0.5-4.8,6-5.1,9.2c-0.3,3.8-1.3,8.5-5,9.3c-0.5,0.1-1.1,0.2-1.6,0.5c-1.4,1.1-0.7,3.8-0.4,5.2
				c0.5,2,0.4,3.8,0.4,5.8c0,1-0.2,2.1-1.1,2.5c-0.4,0.2-0.9,0.1-1.3,0.1c-2-0.1-4.1,1.3-4.8,3.2c-1,2.7,0.4,5.6,0.4,8.5
				c0,1.1-0.2,2.2-0.1,3.4c0.1,1.1,0.5,2.3,1.5,2.9c0.2,0.1,0.4,0.2,0.6,0.4c1,1.5-2,2.4,1.1,3.6c2,0.8,3.9-0.5,5.6-1.6
				c1.4-1.3,3.8-0.5,5.1,1c1.3,1.5,1.9,3.4,3.1,4.9c1.5,1.9,3.7,2.9,5.9,3.8c1.1,0.4,2.4,1,3.6,1.3c1.2,0.3,2.5,0.1,3.7,0.6
				c1.3,0.5,2.3,1.6,3.6,2c2.7,0.7,5.6-1.9,8.2-0.9c0.5,0.2,1,0.5,1.4,0.8c1.7,1.2,3.7,3.2,5.6,4c2,0.9,4.2,0.3,6.2,1.5
				c1.9,1.2,3,3.2,4,5.2c2.3,4.6,4.5,9.2,6.5,14c1.6,3.8,2.5,8.5,5.9,11.2c1,0.8,2.1,1.6,2.7,2.8c0.5,1.2,0.1,2.9-1.1,3.3
				c2.3,3,4.6,6,7.4,8.4c1.4,1.2,2.9,2.3,3.6,4c0.8,1.7,0.6,3.6,1.3,5.3c0.7,1.7,3.1,2.9,4.3,1.6c0,1.9,0,3.7,0,5.6
				c2.3-0.9,4.9,2.1,3.8,4.3c0.7,0.2,1.3,0.4,2,0.6c-0.6,1.4,0.3,3.3,1.8,3.7c0.6,0.1,1.2,0.1,1.6,0.4c0.5,0.3,0.7,0.9,0.8,1.4
				c1.2,3.9,2.9,7,1.4,11c-0.5,1.4,0.3,2.9,0.6,4.3c0.4,1.4-0.1,3.5-1.6,3.5c1,2.9,4.5,3.9,7.5,4.5c2.2,0.5,4.5,0.9,6.7,1.4
				c0.6,0.1,1.4,0.2,1.7-0.4c0,0.9,0,1.9,0,2.8c3.4-0.4,6.8,0,10,1c2.7,0.9,5.4,2.5,6.6,5.1c1.3,2.9,0.3,6.3-0.7,9.3
				c1,0.4,1.9,0.7,2.9,1.1c0.2,1,0.2,2.1-0.2,3.1c6.5-1.1,13.4,0.6,18.6,4.5c5.2,4,8.8,10.1,9.5,16.6c-5.4,2.8-11.9,0.2-17.4-2.2
				c-5.6-2.4-12.3-4.6-17.3-1.2c5.2,0.6,10.6,1.3,15.4,3.6c-1.2,0.5-0.6,2.3,0.6,2.9c1.1,0.5,2.5,0.5,3.4,1.3
				c0.4,0.4,0.7,0.9,1.2,1.3c0.8,0.7,2,0.7,3.1,0.7c3.6,0,7.1,0.6,10.5,1.6c0.6,0.2,1.3,0.4,1.7,0.9c0.5,0.5,0.7,1.1,0.7,1.7
				c0.1,1.1-0.4,2.3-0.9,3.4c-5.1-0.5-10.1-1.2-15.1-2.2c-4.8-1-9.6-2.2-13.6-5.1c-2.9-2.1-5.3-4.9-7.4-7.9
				c-2.1,0.9-4.4-1.9-6.6-1.3c-1.2,0.3-2,1.6-3.2,2c-1.9,0.6-3.6-1.3-4.8-2.8c-3.1-3.7-7.1-6.6-11.6-8.3c-4.6-1.8-10.1-2.4-14.2,0.4
				c-1.8,1.2-3.1,2.9-4.4,4.6c-1.9,2.5-3.8,4.9-5.8,7.4c3.3-0.6,6.5-1.9,9.2-3.9c1-0.7,2-1.8,1.8-3c1-1.7,3.4-2,5.4-1.9
				c2,0.2,4.1,0.5,5.9-0.4c4.4,0.8,7.6,5.6,6.5,9.9c0.8,3,4.8,4.6,7.4,2.9c0.5-0.3,1.1-0.8,1.7-0.9c0.6-0.1,1.2,0.1,1.8,0.2
				c3.6,1.1,7.1,2.2,10.7,3.3c4,3.7,8,7.4,12.7,10.3c3.9,2.4,8.2,4.1,12.7,5.1c0.7,0.2,1.5,0.3,2.2,0.7c0.6,0.3,1,0.8,1.5,1.3
				c5.7,6.2,12.8,12.5,14.7,21.1c0.3,1.2,0.3,2.8-0.6,3.6c-0.7,0.6-1.8,0.6-2.7,0.6c-3.9-0.1-7.9,0-11.6,1.2
				c-3.7,1.2-7.2,3.9-8.5,7.6c-0.4,1.1-0.6,2.2-1.2,3.1c-1.4,1.9-4.1,2-6.2,3.1c-2.2,1.1-3.7,3.5-3.8,5.9c-2.2,0.3-4.4,0.6-6.6,0.9
				c-1.4,2.1-1.6,4.7-1.7,7.2c-0.1,2.5-0.2,5.1-1.6,7.2c-1.3,2.1-4.3,3.4-6.4,2.1c-0.8-0.5-1.4-1.3-2.2-1.8c-0.9-0.5-2-0.4-3-0.4
				c-5.4,0.2-11.8,0.9-14.7,5.5c-1.3,2.1-3.1,5.3-5.2,4c0.9,1.4,1.9,2.9,3.4,3.7c1.5,0.8,3.7,0.5,4.4-1.1c0.4-0.9,0.2-2,0.6-2.9
				c0.9-2.6,4.9-2.4,7-0.7c2.1,1.7,3.4,4.4,5.8,5.9c5,3.3,11.7-0.3,15.9-4.6c4.3-4.2,8.5-9.5,14.5-9.9c4.8-0.3,9.1,2.8,12.9,5.7
				c4.6,3.5,9.2,7,13.8,10.5c0.6-2.1,3.6-1.8,5.8-1.2c4.5,1.2,9.2,1.5,13.8,0.9c0.2,2-1.5,3.8-3.3,4.7c-1.8,1-3.9,1.5-5.4,2.9
				c-1.2,1.1-1.9,2.6-2.6,4.1c-1.3,2.7-2.5,5.4-3.8,8.2c3-0.2,6-1.4,8.3-3.4c1.8-0.1,2.8,2,2.9,3.8c0.1,1.8-0.2,3.7,0.7,5.2
				c0.5,0.8,1.4,1.6,1.2,2.6c-0.1,0.6-0.6,1-1,1.5c-1.7,1.9-1.5,5.3,0.4,7c0.6,0.6,1.4,1,1.9,1.6c1.4,1.9,0,4.4-1.4,6.3
				c0.5,0.2,0.9,0.4,1.4,0.7c1.3,0.9,2.4,2.1,2.5,3.6c0.2,2-2.4,4-4,2.6c0-1.2-0.1-2.5-0.1-3.8"/>
			<path class="st6" d="M1555,2267.1c1.4-0.2,2.8,1.1,3.8,2.4c1.2,1.5,2.5,3.1,3,4.9c0.3,1.2,0.3,2.5,0.7,3.7c1.4,3.9,6.6,4.9,9,8.3
				c1.2,1.8,1.6,4.1,3.3,5.5c0.9,0.7,2,1.1,3.1,1.5c2.1,0.7,4.1,1.3,6.2,2c13.9,4.5-1,14.6-8.7,15.6c-6.3,0.8-12.8,1.6-19.1,0.4
				c-5.3-1-14.2-4.2-17.5-8.9c-3.8-5.3-4.5-16.4-6.2-22.8c-2.8-10.8-5.6-21.7-6.8-32.8c-0.7-6.1-0.8-12.3-2.8-18.2
				c-1.3-3.8-3.3-7.5-2.9-11.5c0.2-2.6,1.5-4.9,2.5-7.2c8.1-17.5,7-31.2-1.3-48.8c-7.6-16-18.4-30.5-24.2-47.4
				c-3.9-11.2-5.3-23.2-10.5-33.9c-5.8-11.9-15.8-21.1-24.9-30.6c-10.3-10.9-19.7-22.6-28.4-34.8c-5.7-8-18.2-20.5-16.5-31.1
				c0.9-5.5,4.6-11.4,1.6-16.2c-19.2,2.2-24.4-16-32-29.8c-13.9-25-20.6-53.8-33.3-79.7c-1.9-3.8-3.9-7.8-4.4-12
				c-1-8.6,4.1-16.7,10.2-22.8c6.1-6.1,13.3-11.2,18.4-18.2c8.1-11.2,9.3-27,3.1-39.3c-2.8-5.4-7-10.8-6.2-16.9
				c1.3-9.7,13.4-12.8,21-18.9c8.4-6.8,11.6-18.2,12-29c0.5-12.5-0.8-24.8,0.1-37.3c1-13.2-0.9-26.8-3.5-39.7
				c-2.6-12.8-8.2-25.5-10.1-38.3c-0.7-4.8-0.1-9.2-1.1-14c-1.3-6-4-11.5-3.9-17.8c0.1-9.4,5.8-17.8,12.1-24.8
				c10.5-11.5,21.4-22.7,35.2-29.8c15.1-7.8,30.1-17.5,39.3-32.1c9.3-14.8,11.8-32.8,13.5-50.2c3.9-40,5-81.6-9.8-118.9
				c-3.5-8.9-8-17.6-14.2-24.9c-5-5.9-11.1-10.7-17.1-15.6c-20.3-16.2-40.7-32.5-63.4-45c-7.5-4.1-15.2-7.8-22.2-12.5
				c-6.8-4.6-13-10.2-19.2-15.5c-18.6-16.1-38.2-31-58.7-44.6c-9.3-6.2-19.2-11.9-28.3-18.3c-7-4.9-14-6.4-21.5-10.3
				c-3.7-2-6.6-5.1-9.9-7.6c-4.6-3.5-9.9-5.8-15.2-8.1c-19.3-8.4-38.9-16.8-56-29.2c-17.2-12.4-35.4-21.6-54.9-29.6
				c-21.6-8.9-44.3-7.6-67.2-8.3c-22.3-0.6-44.6-1.3-66.8-2c-3.1-0.1-6.2-0.2-9.2-0.3c-1.5,0-3.1-0.1-4.5-0.6
				c-2.4-0.9-4.2-3-5.4-5.2c-5-8.8-3.2-20.4,2.8-28.6c6-8.2,15.5-13.1,25.4-15.6c9.8-2.4,20.1-2.6,30.2-2.7
				c16.5-0.2,33.6,0.4,50.8,0.6c22.2,0.3,44.4,0.1,65.5-3.1c36.6-5.6,75.9,9.3,110.2,20.6c18,5.9,34.7,19,51.3,27.9
				c18.4,9.9,37.1,19.8,52.3,34.3c13.9,13.3,26.9,28.9,38.8,43.9c12.8,16.2,32.5,25.2,47.7,39.1c21.2,19.4,58.4,57.8,90.9,46.2
				c4.8-1.7,9.3-4.8,14.4-5.3c3.2-0.3,6.3,0.4,9.5,0.6c16.9,1.1,31-11.8,45.9-19.8c16.6-8.8,36.5-11.7,54.4-6.4
				c5.9,1.7,11.5,4.3,17.4,5.9c22.8,6.3,47.6-2.3,66.3-16.8c18.7-14.5,32.4-34.3,45.8-53.8c9.3-13.5,14-27.2,20.7-41.8
				c4.9-10.6,12.3-20.8,23.2-24.9c5.7-2.2,11.9-2.5,18-2.9c22.5-1.3,45.1-2.5,67.6-3.8c6.2-0.3,12.4-0.7,18.2-3.1
				c5.4-2.2,10-6.1,14.6-9.7c14.9-11.6,31.5-21.1,49.1-28c4.3-1.7,8.7-3.3,13.1-4.7c11.5-3.7,24.1-4.6,36-6.5
				c12.4-2,24.8-4.4,37.3-6c11.3-1.8,22.8-3.7,33.4-8.2c11.9-5.1,22.1-13.3,31.6-22.1c10.3-9.6,19.9-20,28.6-31.1
				c4.3-5.4,7.8-11.9,12.4-16.9c3.5-3.8,7.3-6.8,10.6-10.9c7.4-9,14.8-18,22.2-27c3.1-3.8,6.3-7.6,8.3-12.1c2.3-5,3.2-10.5,4.5-15.8
				c1.2-5,2.8-9.8,4.5-14.6c1.7-5,3.6-10.2,7.1-14.2c1.7-2,3.7-3,5.6-4.5c2.6-2,5-4.8,7.3-7.2c16.4-16.8,31.2-36.5,52.6-46
				c4.1-1.8,8.6-3.2,13.2-3.2c4.8,0,8.1,2,12.3,3.8c9,4,18.1,8.2,25,15.4c5.9,6.1,9.7,13.9,15.2,20.3c5,5.8,11.3,10.5,15.8,16.6
				c4.5,6.1,7.1,13.4,11.1,19.9c4.6,7.5,11,13.7,16.2,20.8c5.2,7.1,9.3,15.6,8.2,24.3c-1.1,8.9-7.3,16.2-13.2,22.9
				c-8.9,10.2-17.9,20.6-24.3,32.6c-3.9,7.3-6.9,15.4-12.4,21.6c-5.5,6.2-14.6,10.4-22.2,7.1c-0.5,1.7-1,3.5-1.5,5.2
				c-2.2-1.1-5.2,0.5-5.4,2.9c-1.9-2-5.2-2.6-7.7-1.4c0.4,3-1.1,7.4-4.2,8.6c-2.4,0.9-5.6-0.6-7.6,1.8c-0.7,0.8-0.9,2-1.6,2.7
				c-1.1,1.1-2.8,1.1-4.2,1.6c-1.4,0.5-2.8,2.2-1.9,3.4c-9.4,6.6-18.2,14.5-24.8,24c-0.8,1.1-1.4,2.9-0.2,3.6
				c0.8,0.4,2.4,0.3,2.2,1.2c-2,2.3-4,4.5-6,6.8c-0.4,0.4-0.7,0.8-1.2,1c-0.7,0.3-1.4,0.3-2.1,0.6c-2.3,1.1-1,4.8-2.5,6.8
				c-2.2-1-4.2-2.7-6.6-3c-2.4-0.2-5.2,2.2-4,4.4c1.8-1.2,4.7,1.1,3.8,3.1c-1.3,3-6.6,1.5-8.4,4.3c-0.3,0.4-0.4,0.9-0.7,1.3
				c-1.3,1.7-4.1,0.3-6.1,1.1c-1.2,0.5-1.9,1.6-2.7,2.5c-0.9,0.9-2.3,1.6-3.3,1c0.5,1.5,0.2,3.2-0.6,4.5c-2.3-0.6-4-2.6-4.8-4.8
				c-0.8-2.2-1-4.6-1-7c-0.1-1.4,0-3.1,1-4c1.1-1,3.4-0.2,3,1.2c0.9-1.4,2.7-2.3,4.4-2.1c-0.1-1.4-0.2-2.9,0.3-4.2
				c0.6-1.3,2-2.3,3.3-1.9c0.9,0.3,1.6,1.2,2.5,1.4c0.7,0.1,1.4-0.2,2.1-0.5c2.1-1,4.2-2.1,5.5-4c1.3-1.9,1.3-4.9-0.5-6.2
				c-1.2-0.8-3.1-1.2-3.2-2.6c-0.1-0.8,0.5-1.5,1.1-2c1-0.9,2.3-1.4,3.4-2.2c1.1-0.8,3.2-3.3,1.8-4.7c-1-1-2.8,0.3-3.9,0.6
				c-3.5,0.9-8,0.9-10.4-2.4c-0.9-1.2-1.5-2.9-2.9-3.3c-1.7-0.5-3.5,1.2-5.1,0.5c-1.5-0.6-1.7-2.7-0.9-4.1c0.8-1.3,2.3-2.1,3.6-3.1
				c1.3-0.9,2.5-2.2,2.5-3.8c0.9,1.1,2.3,1.6,3.6,1.3c0.8-1,0.3-2.5-0.5-3.4c-0.8-1-1.9-1.7-2.4-2.8c-0.8-1.6-0.4-3.6,0.6-5.1
				s2.5-2.5,3.9-3.6c2.2-1.6,4.5-3.2,6.7-4.8c1.4-1,2.9-2.1,3.2-3.8c0.3-1.6-0.5-3.5,0.6-4.8c0.4-0.5,1.1-0.8,1.6-1.1
				c1.3-0.9,1.9-2.4,2.4-3.9c1.5-3.9,3-7.8,4.5-11.7c1.1-2.9,2.2-5.7,2.9-8.7c0.7-3,0.5-7-2.5-8c-1.1-0.3-2.4-0.2-3.1-1
				c-0.4-0.5-0.6-1.1-0.8-1.7c-1.3-3.4-5.4-4.3-8.9-5.2c-3.5-0.9-7.6-3.1-7.2-6.7c-4.4,1.4-4.9,5.8-9.9,5.9
				c-3.9,0.1-7.7-0.8-11.3-0.8c-2.2,0-6.4-0.6-8.2,1.2c-1.4,1.4-2,3.4-2.6,5.2c-1.4,0-2.9,0-4.3,0c-0.2,1.3-0.4,2.5-0.7,3.8
				c1.3,0.5,2.6,1.1,3.9,1.6c-1.1,3-4.5,5-7.7,4.5c0,2.9-0.9,5.7-2.5,8.1c-0.2,0.2-4.6,5.2-2.7,5.4"/>
			<path class="st6" d="M1828.5,2251.9c0.6,2.7-1.5,5.3-3.9,6.5c-2.4,1.3-5.2,1.6-7.8,2.7c-4.7,2-8.3,6.4-9.2,11.4
				c-0.3,1.5-0.4,3.2-1.2,4.5c-0.8,1.3-2.7,2.2-3.9,1.3c-0.5-0.4-0.8-1-1.4-1.3c-0.7-0.4-1.5-0.2-2.2-0.1c-2.1,0.4-4.2,0.8-6.4,1.2
				c-1,0.2-2,0.4-2.8,1c-3.1,2.4,0.2,8.4-2.8,11c-0.5-1.4-2-2.4-3.5-2.1c-2.6,0-1,3.1-1.4,3.8c-0.3,0.4-1.6,0.2-2,0.2
				c-1.5-0.3-0.8-0.6-1.7-1.8c-0.4-0.5-1-0.9-1.7-0.7c-0.9,0.3-1.1,1.6-2,2c-0.6,0.3-1.5,0.1-1.8-0.6c-0.3-0.6,0-1.5,0.6-1.8
				c-0.5-1.7-1.3-3.7-3.1-4c-1-0.2-1.9,0.3-2.9,0.5c-3.1,0.6-6.3-1.1-9.4-0.4c-1.2,0.3-2.5,1-3.7,0.5c-1.4-0.5-1.8-2.2-1.8-3.7
				c-2.7,0-5.3,0.4-8-0.1c-2.4-0.4-4.7-1.3-6.8-2.5c-1.7-0.9-2.7-2.5-4.2-3.4c-2-1.2-5-1.4-7.2-2c-0.4-0.1-0.9-0.2-1.2-0.6
				c-0.3-0.4-0.3-1-0.2-1.5c0.6-4.7,2.3-10.1-0.6-13.9c-1.2-1.7-3.3-3.1-3.2-5.1c0.1-1.4,1.2-2.5,1.7-3.8c1.2-4-4.2-8.9-1.3-11.9
				c1.2,1,2.6-1.5,1.8-2.9c-0.8-1.4-2.5-2.2-2.9-3.8c-0.5-2.3,2.2-4.3,2-6.7c3.5,0.1,5.9-3,8.7-5.2c0.3-0.2,0.6-0.5,1-0.7
				c1.5-1,3.3-1.6,4.8-2.6c2.5-1.6,4.3-4.3,5-7.2c0.7,1.4,3,0.8,3.9-0.6c0.9-1.3,1.2-3.1,2.5-4.1c1,0.5,2,0.9,3,1.4
				c-0.3-1.1,0.3-1.9,1.2-2.6c0.7-0.6,1.6-1,2.5-1.3c1.9-0.6,4.2-1.9,3.9-3.8c-2.9,0.1-5.8,1.1-8.2,2.8c-1-3.2,1-6.9,4.2-7.9
				c0.1-1.1,0.1-2.2,0.2-3.3c3.4,1,6.7,2,10.1,3c2.5,0.8,5.5,1.4,7.5-0.3c-2.5-2.7-0.6-7.6,2.9-8.9s7.4,0.2,10.3,2.5
				c0-1.2,0.7-2.4,1.8-2.9c1,0.9,2,1.8,2.9,2.7c0.2-1.3,1.8-2.2,3-1.7c1.2,0.5,1.7,2.2,1,3.3c0.2,0.8,1.6,0.5,2-0.3
				c0.3-0.8,0.2-1.8,0.7-2.5c1.2-1.7,4.3-0.2,5.9-1.7c0.8-0.8,0.8-2.1,1.4-3c1.1-1.6,3.4-1.6,5.3-1.1c1.9,0.5,3.8,1.4,5.7,0.9
				c1-0.2,1.8-0.8,2.8-1.1c3.7-1,7.7,3.4,11.1,1.7c1-1.6,1.4-3.7,0.9-5.6c2.1-0.3,4.1-1.5,5.3-3.3c0.9,1.5,1.9,3.1,2.8,4.6
				c2.4,2.4,6.1,3.5,9.4,2.8c1.4-0.3,2.9,0.4,3.8,1.5c0.2,0.2,1.7,3.4,0.9,3.5c1-0.1,2,0.7,2.4,1.6c0.5,0.9,0.5,2,0.6,3
				c0.1,2.1,0.3,4.2,0.4,6.4c0.1,1.1,0.2,2.2,0.8,3c0.7,0.9,1.8,1.3,2.9,1.7c0,0.6,0,1.1,0,1.7c-3.2-0.3-6.6,1.1-8.7,3.5
				c-0.8,0.9-1.5,2.1-1.1,3.3c-1.4,0.6-2.9-0.1-3.6-1.4c-0.8-1.5-0.1-2.4,1.2-3.2c-0.2-0.9-1.4-1.5-2.2-1.1
				c-0.1,2.9-0.6,5.8-1.3,8.7c-0.2,0.8-0.5,1.5-1,2.2c-0.6,0.7-1.3,1.1-2.1,1.5c-3.1,2-5.1,5.7-5.1,9.4c0,0.9,0.1,1.9-0.2,2.8
				c-0.8,3.1-4.8,3.6-8,3.6c1.7,0.9,3.6,2.1,3.9,3.9c0.1,0.8,0,1.6-0.2,2.4c-0.9,4.5-2,8.9-3.3,13.3c-0.2,0.6-0.3,1.2-0.5,1.8
				c-0.2-0.7,0.1-1.3,0.5-1.8c1-1,2.9-1.4,3.7-0.2C1833.1,2250.7,1830.1,2253.4,1828.5,2251.9z"/>
			<path class="st6" d="M1054.2,973.8c-1.5-6.5,1.6-13.2,1.9-19.9c0.5-9.8-2.5-21.1-6-30.2c-3.5-9.1-8.7-17.5-12.8-26.3
				c-12.7-27.5-14.6-58.5-19.9-88.4c-3.5-19.7-9.3-40.2-23.6-54.2c-30-29.2-83.2-18-115.7-44.4c-6.9-5.6-12.4-12.7-19-18.7
				c-16.1-14.9-32.7-17.2-52.8-22.5c-19.9-5.3-38.6-18.1-58.5-24.6c-9.7-3.2-20.1-6-27.1-13.4c-11.7-12.5-8.8-32.7-2-48.3
				c6.8-15.7,16.9-30.6,17.8-47.7c0.5-8.9-1.7-17.7-2.5-26.6c-1.2-13.3,0.6-27.2,7.2-38.9c19.4-34.7,63.4-48.6,82.6-84.2
				c6.8-12.6,9.6-27.4,18.9-38.3c2.8-3.2,5.9-5.9,9.4-8.1c13.7-8.8,31.9-10.7,48.6-12c65.6-5,131.2-11.7,196.5-20
				c30.1-3.8,60.7-8.1,88.4-20.5c12.8-5.7,24.9-13.2,38.2-17.5c8.9-2.9,18.2-4.4,27.4-5.8c69.3-10.9,138.5-21.9,207.8-32.8
				c34.6-5.5,69.3-10.9,103.9-16.4c34-5.4,63.7,3.3,94.8,17.6c42.6,19.6,82.7,46.4,128.5,56.4c31.7,6.9,64.7,5.5,96.4,11.9
				c23.8,4.9,46.5,14.1,69.1,23.3c33.3,13.6,66.8,27.2,98,45.2c19,11,37.5,23.8,50.8,41.3c26.3,34.5,28.5,83.6,12.6,124
				c-15.3,38.9-45,70.3-63.3,107.9c-9.2,18.9-15.5,39.2-18.5,60c-2.7,18.9-2.8,38.1-6.3,56.8c-7.3,39-29.1,73.8-40.2,111.9
				c-9.7,33.2-11.2,68.4-8.9,102.9c0,0.2,0,0.5,0.1,0.7"/>
			<path class="st6" d="M852,338.6c-21.5,9.2-43.8,17.1-65.5,25.3c-28.5,10.8-57.8,19.6-87.8,24.7c-29.8,5.1-60.2,6.6-90.4,8.1
				c-43.2,2.1-86.4,4.2-129.6,6.4c-23.6,1.2-47.2,2.3-70.8,2.9c-81.3,2.1-162.9-2.5-242.7-18.1c-54.4-10.7-108.8-22.8-164.3-22.8
				v593.6c37.4,0,73.5-19.9,110.8-20.1c37.4-0.3,76.3,10.2,103.2,36.2c19.1,18.5,30.9,43.4,49.3,62.5c13.3,13.8,29.7,24.2,46.8,32.8
				c46.4,23.5,98.8,34.7,150.7,33.7c91-1.7,176.9-39.5,259.7-77.3c8.5-3.9,17-7.7,26.2-9.5c15.9-3,32.3,0.9,48.5,0.1
				c19.7-1,38.6-9,58.4-9.6c37.4-1.2,72.7,24,109.9,19.3"/>
		</g>
	</g>
</g>
<g id="cities">
	<circle class="st7" cx="336.9" cy="1043" r="5.2"/>
	<text transform="matrix(1 0 0 1 332.0119 1034.7843)" class="st8 st9">Khotan</text>
	<text transform="matrix(1 0 0 1 164.6661 881.4509)" class="st8 st9">Kashgar</text>
	<circle class="st7" cx="1694.9" cy="1343.5" r="5.2"/>
	<text transform="matrix(1 0 0 1 1668.8486 1366.524)" class="st8 st9">Changan</text>
	<circle class="st7" cx="752.9" cy="723.1" r="5.2"/>
	<text transform="matrix(1 0 0 1 737.3732 713.892)" class="st8 st9">rmqi</text>
	<circle class="st7" cx="789.9" cy="1575.3" r="5.2"/>
	<text transform="matrix(1 0 0 1 776.9959 1601.1769)" class="st8 st9">Lhasa</text>
	<circle class="st7" cx="2188.4" cy="1424.1" r="5.2"/>
	<text transform="matrix(1 0 0 1 2163.488 1443.1208)" class="st8 st9">Nanjing</text>
	<circle class="st7" cx="1993.2" cy="991.4" r="5.2"/>
	<text transform="matrix(1 0 0 1 1937.4814 978.1284)" class="st8 st10">Fanyang?</text>
	<circle class="st7" cx="994.8" cy="815.2" r="5.2"/>
	<text transform="matrix(1 0 0 1 969.3764 838.2253)" class="st8 st9">Hami</text>
	<circle class="st7" cx="811.9" cy="785.9" r="5.2"/>
	<text transform="matrix(1 0 0 1 788.6967 807.0438)" class="st8 st9">Turfan</text>
	<circle class="st7" cx="528.5" cy="805.9" r="5.2"/>
	<text transform="matrix(1 0 0 1 498.651 825.892)" class="st8 st9">Kuqa</text>
	<text transform="matrix(1 0 0 1 205.6661 958.892)" class="st8 st9">Yarkand</text>
	<circle class="st7" cx="1863.2" cy="1302.6" r="5.2"/>
	<text transform="matrix(1 0 0 1 1825.1803 1325.1538)" class="st8 st9">Luoyang</text>
	<circle class="st7" cx="1968.3" cy="1982.6" r="4.9"/>
	<text transform="matrix(1 0 0 1 1931.1268 1976.1625)" class="st8 st9">Guangzhou</text>
	<circle class="st7" cx="229.8" cy="933.5" r="5.2"/>
	<circle class="st7" cx="195.2" cy="856" r="5.2"/>
	<circle class="st7" cx="760.1" cy="999.5" r="5.2"/>
	<text transform="matrix(1 0 0 1 735.3372 1021.3383)" class="st8 st9">Miran</text>
</g>
<g id="text">
	<text transform="matrix(1 0 0 1 1683.2806 1540.1198)"><tspan x="0" y="0" class="st11 st12">Tang</tspan><tspan x="-44.9" y="124.8" class="st11 st12">Empire</tspan></text>
	<text transform="matrix(1 0 0 1 1140.0333 639.3608)" class="st11 st13">Eastern Turkic Khaganate</text>
	<text transform="matrix(1 0 0 1 33.3685 778.3392)" class="st11 st13">Western Turkic Khaganate</text>
	<text transform="matrix(1 0 0 1 2570.5986 1093.6912)" class="st11 st14">Silla</text>
	<text transform="matrix(1 0 0 1 2461.9614 1154.3077)" class="st11 st14">Baekje</text>
</g>
</svg>
